<svg width="300" height="50" viewBox="0 0 300 50" fill="none" xmlns="http://www.w3.org/2000/svg">
<path d="M83.6403 9.07959H90.2709L101.875 40.8485H94.361L91.8925 33.7366H81.9826L79.5682 40.8485H72.0547L83.6403 9.07959ZM90.6673 28.6825L86.9556 17.455L83.1538 28.6825H90.6673Z" fill="#12141D"/>
<path d="M105.875 9.07959H113.028V40.8485H105.875V9.07959Z" fill="#12141D"/>
<path d="M129.459 41.2995C127.639 41.3356 125.837 40.9926 124.162 40.3428C122.666 39.7471 121.315 38.8627 120.18 37.7255C119.099 36.6424 118.252 35.3248 117.693 33.8988C117.135 32.4547 116.846 30.9204 116.846 29.35C116.828 27.7074 117.117 26.0829 117.693 24.5305C118.234 23.0504 119.081 21.7147 120.162 20.5775C121.279 19.4222 122.63 18.5017 124.126 17.8879C125.819 17.202 127.639 16.8771 129.477 16.8952C131.297 16.8591 133.117 17.202 134.81 17.8879C136.288 18.5017 137.639 19.4042 138.756 20.5594C139.819 21.6786 140.648 22.9782 141.189 24.4222C141.747 25.9024 142.018 27.4547 142.018 29.0251C142.018 29.4403 142 29.8374 141.982 30.2526C141.964 30.6136 141.91 30.9565 141.838 31.2995H124.468C124.594 32.8879 125.171 34.0793 126.198 34.9096C127.189 35.7219 128.432 36.1551 129.711 36.137C130.774 36.137 131.801 35.8663 132.738 35.3789C133.711 34.8735 134.36 34.1876 134.684 33.3211L141.621 33.3031C141.009 36.2995 138.414 38.3753 136.468 39.5305C134.486 40.7219 132.162 41.2995 129.459 41.2995ZM134.414 26.8952C134.27 25.397 133.729 24.2237 132.81 23.3573C131.874 22.4908 130.63 22.0215 129.369 22.0576C127.964 22.0576 126.81 22.4908 125.91 23.3753C125.009 24.2598 124.468 25.4331 124.324 26.8952H134.414V26.8952Z" fill="#12141D"/>
<path d="M158.668 41.2995C156.83 41.3356 155.01 40.9926 153.316 40.3067C151.821 39.693 150.47 38.7904 149.352 37.6352C148.271 36.5161 147.443 35.1984 146.92 33.7363C145.821 30.7399 145.821 27.4547 146.92 24.4764C147.461 23.0323 148.289 21.6966 149.352 20.5775C150.47 19.4222 151.821 18.5016 153.316 17.8879C155.01 17.1839 156.83 16.841 158.668 16.8771C160.488 16.841 162.307 17.1839 164.001 17.8879C165.479 18.5197 166.812 19.4222 167.947 20.5775C169.028 21.6966 169.857 23.0143 170.416 24.4764C170.992 25.9565 171.28 27.5269 171.262 29.1154C171.262 30.7038 170.992 32.2742 170.434 33.7543C169.893 35.1984 169.064 36.5341 168.001 37.6533C166.884 38.8085 165.533 39.711 164.037 40.3247C162.325 40.9926 160.506 41.3356 158.668 41.2995ZM153.425 29.1334C153.425 30.9926 153.911 32.4728 154.902 33.5919C155.623 34.3861 156.56 34.9457 157.605 35.1623C158.65 35.3789 159.749 35.2706 160.722 34.8193C161.352 34.5125 161.911 34.0973 162.361 33.5738C162.848 32.9962 163.226 32.3464 163.461 31.6244C163.731 30.8302 163.875 29.9818 163.875 29.1334C163.875 27.2923 163.388 25.7941 162.398 24.6749C161.947 24.1334 161.37 23.7002 160.722 23.4114C160.073 23.1226 159.37 22.9782 158.668 22.9962C157.965 22.9962 157.262 23.1406 156.614 23.4294C155.965 23.7182 155.388 24.1515 154.938 24.693C154.452 25.2706 154.073 25.9204 153.839 26.6424C153.569 27.4367 153.425 28.285 153.425 29.1334Z" fill="#12141D"/>
<path d="M187.658 40.2348C186 39.5309 184.703 38.5381 183.73 37.2204C182.757 35.9208 182.216 34.4045 182.09 32.6717L182.072 32.3648H184.955L184.991 32.6717C185.135 33.8811 185.568 34.9099 186.307 35.7944C187.045 36.6789 188.036 37.3648 189.261 37.8341C190.487 38.3215 191.91 38.5561 193.514 38.5561C195.117 38.5561 196.505 38.3215 197.676 37.8341C198.847 37.3468 199.766 36.6608 200.433 35.7583C201.081 34.8558 201.424 33.8089 201.424 32.6175V32.5995C201.424 31.0832 200.919 29.8558 199.874 28.9352C198.829 28.0146 197.153 27.2926 194.793 26.7511L191.46 25.993C188.505 25.289 186.343 24.2962 184.937 22.9244C183.55 21.5706 182.847 19.7836 182.847 17.5814V17.5634C182.865 15.9208 183.316 14.4406 184.198 13.1771C185.099 11.8955 186.325 10.9208 187.892 10.1988C189.46 9.47673 191.243 9.11572 193.261 9.11572C195.225 9.11572 197.009 9.47673 198.541 10.2168C200.09 10.9569 201.316 11.9497 202.234 13.2493C203.171 14.5489 203.676 16.0471 203.802 17.7439L203.82 18.0507H200.937L200.919 17.7619C200.757 16.5345 200.361 15.4876 199.676 14.6031C199.009 13.7186 198.108 13.0507 197.027 12.5634C195.928 12.076 194.649 11.8414 193.207 11.8414C191.73 11.8414 190.451 12.076 189.316 12.5634C188.216 13.0507 187.334 13.7006 186.721 14.5309C186.108 15.3793 185.802 16.354 185.802 17.4912V17.5273C185.802 18.9533 186.307 20.1446 187.352 21.0652C188.397 21.9858 190 22.6897 192.216 23.2132L195.55 23.9713C198.685 24.6933 200.919 25.7042 202.288 27.0399C203.658 28.3756 204.343 30.1807 204.343 32.4912V32.5092C204.343 34.2962 203.892 35.8486 202.991 37.1663C202.09 38.502 200.829 39.4948 199.171 40.2348C197.514 40.9569 195.586 41.3179 193.352 41.3179C191.207 41.2818 189.298 40.9208 187.658 40.2348Z" fill="#B2B6C7"/>
<path d="M210.793 40.7403V20.8486H207.496V18.159H210.793V9.11572H213.748V18.159H219.064V20.8486H213.748V40.7583H210.793V40.7403Z" fill="#B2B6C7"/>
<path d="M239.096 41.0021V35.8938C238.123 37.6447 236.808 39.0166 235.132 39.9913C233.456 40.966 231.672 41.4534 229.799 41.4534C227.366 41.4534 225.564 40.6411 224.375 39.0166C223.186 37.374 222.609 34.9371 222.609 31.7061V18.4209H225.528V31.1826C225.528 36.2909 227.258 38.8541 230.735 38.8541C231.582 38.8541 232.447 38.7097 233.276 38.4209C234.105 38.1321 234.88 37.7169 235.564 37.1574C236.267 36.6158 236.898 35.966 237.456 35.2079C238.015 34.4498 238.465 33.6014 238.808 32.6447V18.4209H241.726V41.0202" fill="#B2B6C7"/>
<path d="M264.071 40.7403V36.5345C263.224 37.9244 262.071 39.0435 260.666 39.8919C259.26 40.7583 257.729 41.1735 256.089 41.1735C254.539 41.1735 253.116 40.8486 251.801 40.1807C250.485 39.5309 249.35 38.6644 248.413 37.5995C247.476 36.5345 246.72 35.289 246.197 33.8991C245.675 32.4912 245.404 31.0291 245.404 29.4948C245.404 27.9063 245.657 26.4081 246.161 24.9641C246.666 23.52 247.386 22.2746 248.287 21.2096C249.188 20.1446 250.269 19.2962 251.512 18.6825C252.774 18.0688 254.107 17.7439 255.566 17.7439C257.458 17.7439 259.116 18.2312 260.539 19.2421C261.963 20.2348 263.152 21.4442 264.053 22.8702V9.09766H266.972V40.7583H264.071V40.7403ZM264.071 26.011C263.819 25.2348 263.404 24.4948 262.846 23.7908C262.287 23.1049 261.657 22.4912 260.954 22.0038C260.251 21.4984 259.494 21.1013 258.684 20.8125C257.891 20.5236 257.098 20.3793 256.323 20.3793C255.116 20.3793 254.035 20.65 253.062 21.1554C252.089 21.6789 251.26 22.3648 250.557 23.2132C249.855 24.0796 249.314 25.0363 248.936 26.1554C248.575 27.2565 248.377 28.3937 248.377 29.5489C248.377 30.7583 248.593 31.9135 249.026 33.0146C249.458 34.1157 250.035 35.0724 250.792 35.9027C251.548 36.733 252.413 37.3829 253.44 37.8702C254.449 38.3576 255.548 38.6103 256.72 38.6103C257.476 38.6103 258.251 38.4659 259.08 38.1771C259.909 37.8883 260.684 37.4912 261.368 36.9857C262.071 36.4803 262.666 35.8847 263.17 35.2168C263.675 34.5309 263.963 33.8089 264.053 33.0146V26.011H264.071Z" fill="#B2B6C7"/>
<path d="M270.848 13.4298V9.09766H273.767V13.4298H270.848ZM270.848 40.7403V18.159H273.767V40.7583H270.848V40.7403Z" fill="#B2B6C7"/>
<path d="M288.901 41.1914C287.261 41.1914 285.784 40.8664 284.432 40.2527C283.099 39.639 281.928 38.7906 280.937 37.7257C279.946 36.6607 279.171 35.4152 278.649 34.0072C278.108 32.5813 277.838 31.1011 277.838 29.5488C277.838 27.9603 278.126 26.4621 278.667 25.0361C279.225 23.6101 280 22.3827 280.973 21.3177C281.964 20.2527 283.135 19.4044 284.469 18.7545C285.802 18.1228 287.279 17.7979 288.883 17.7979C290.487 17.7979 291.964 18.1228 293.315 18.7545C294.667 19.3863 295.856 20.2527 296.829 21.3177C297.82 22.3827 298.595 23.6282 299.135 25.0361C299.694 26.4621 299.964 27.9603 299.964 29.5488C299.964 31.1192 299.694 32.5993 299.153 34.0072C298.613 35.4332 297.856 36.6607 296.865 37.7257C295.874 38.7906 294.703 39.639 293.351 40.2527C292 40.8664 290.523 41.1914 288.901 41.1914ZM280.775 29.5488C280.775 30.8123 280.991 31.9856 281.423 33.0867C281.856 34.1697 282.432 35.1264 283.171 35.9567C283.91 36.787 284.757 37.4368 285.748 37.8881C286.739 38.3394 287.784 38.574 288.901 38.574C290.018 38.574 291.081 38.3213 292.054 37.852C293.045 37.3827 293.91 36.7329 294.649 35.9026C295.405 35.0722 295.982 34.1155 296.414 33.0145C296.847 31.9134 297.063 30.722 297.063 29.4585C297.063 28.213 296.847 27.0397 296.414 25.9206C295.982 24.8195 295.405 23.8448 294.649 23.0145C293.91 22.1841 293.027 21.5343 292.054 21.065C291.081 20.5957 290.018 20.343 288.901 20.343C287.784 20.343 286.739 20.5957 285.766 21.065C284.793 21.5343 283.946 22.2022 283.189 23.0325C282.45 23.8809 281.856 24.8376 281.441 25.9748C280.991 27.0939 280.775 28.2852 280.775 29.5488Z" fill="#B2B6C7"/>
<path d="M7.18919 49.8374C11.1597 49.8374 14.3784 46.6129 14.3784 42.6353C14.3784 38.6576 11.1597 35.4331 7.18919 35.4331C3.21871 35.4331 0 38.6576 0 42.6353C0 46.6129 3.21871 49.8374 7.18919 49.8374Z" fill="#6950FF"/>
<path d="M7.18919 49.8374C11.1597 49.8374 14.3784 46.6129 14.3784 42.6353C14.3784 38.6576 11.1597 35.4331 7.18919 35.4331C3.21871 35.4331 0 38.6576 0 42.6353C0 46.6129 3.21871 49.8374 7.18919 49.8374Z" fill="#6850FF"/>
<path d="M7.18919 49.8374C11.1597 49.8374 14.3784 46.6129 14.3784 42.6353C14.3784 38.6576 11.1597 35.4331 7.18919 35.4331C3.21871 35.4331 0 38.6576 0 42.6353C0 46.6129 3.21871 49.8374 7.18919 49.8374Z" fill="#6750FF"/>
<path d="M7.18919 49.8374C11.1597 49.8374 14.3784 46.6129 14.3784 42.6353C14.3784 38.6576 11.1597 35.4331 7.18919 35.4331C3.21871 35.4331 0 38.6576 0 42.6353C0 46.6129 3.21871 49.8374 7.18919 49.8374Z" fill="#6650FF"/>
<path d="M7.18919 49.8374C11.1597 49.8374 14.3784 46.6129 14.3784 42.6353C14.3784 38.6576 11.1597 35.4331 7.18919 35.4331C3.21871 35.4331 0 38.6576 0 42.6353C0 46.6129 3.21871 49.8374 7.18919 49.8374Z" fill="#6550FF"/>
<path d="M7.18919 49.8374C11.1597 49.8374 14.3784 46.6129 14.3784 42.6353C14.3784 38.6576 11.1597 35.4331 7.18919 35.4331C3.21871 35.4331 0 38.6576 0 42.6353C0 46.6129 3.21871 49.8374 7.18919 49.8374Z" fill="#6450FF"/>
<path d="M7.18919 49.8374C11.1597 49.8374 14.3784 46.6129 14.3784 42.6353C14.3784 38.6576 11.1597 35.4331 7.18919 35.4331C3.21871 35.4331 0 38.6576 0 42.6353C0 46.6129 3.21871 49.8374 7.18919 49.8374Z" fill="#6350FF"/>
<path d="M7.18919 49.8374C11.1597 49.8374 14.3784 46.6129 14.3784 42.6353C14.3784 38.6576 11.1597 35.4331 7.18919 35.4331C3.21871 35.4331 0 38.6576 0 42.6353C0 46.6129 3.21871 49.8374 7.18919 49.8374Z" fill="#6250FF"/>
<path d="M7.18919 49.8374C11.1597 49.8374 14.3784 46.6129 14.3784 42.6353C14.3784 38.6576 11.1597 35.4331 7.18919 35.4331C3.21871 35.4331 0 38.6576 0 42.6353C0 46.6129 3.21871 49.8374 7.18919 49.8374Z" fill="#6150FE"/>
<path d="M7.18919 49.8374C11.1597 49.8374 14.3784 46.6129 14.3784 42.6353C14.3784 38.6576 11.1597 35.4331 7.18919 35.4331C3.21871 35.4331 0 38.6576 0 42.6353C0 46.6129 3.21871 49.8374 7.18919 49.8374Z" fill="#604FFE"/>
<path d="M7.18919 49.8374C11.1597 49.8374 14.3784 46.6129 14.3784 42.6353C14.3784 38.6576 11.1597 35.4331 7.18919 35.4331C3.21871 35.4331 0 38.6576 0 42.6353C0 46.6129 3.21871 49.8374 7.18919 49.8374Z" fill="#5F4FFE"/>
<path d="M7.18919 49.8374C11.1597 49.8374 14.3784 46.6129 14.3784 42.6353C14.3784 38.6576 11.1597 35.4331 7.18919 35.4331C3.21871 35.4331 0 38.6576 0 42.6353C0 46.6129 3.21871 49.8374 7.18919 49.8374Z" fill="#5E4FFE"/>
<path d="M7.18919 49.8374C11.1597 49.8374 14.3784 46.6129 14.3784 42.6353C14.3784 38.6576 11.1597 35.4331 7.18919 35.4331C3.21871 35.4331 0 38.6576 0 42.6353C0 46.6129 3.21871 49.8374 7.18919 49.8374Z" fill="#5D4FFE"/>
<path d="M7.18919 49.8374C11.1597 49.8374 14.3784 46.6129 14.3784 42.6353C14.3784 38.6576 11.1597 35.4331 7.18919 35.4331C3.21871 35.4331 0 38.6576 0 42.6353C0 46.6129 3.21871 49.8374 7.18919 49.8374Z" fill="#5C4FFE"/>
<path d="M7.18919 49.8374C11.1597 49.8374 14.3784 46.6129 14.3784 42.6353C14.3784 38.6576 11.1597 35.4331 7.18919 35.4331C3.21871 35.4331 0 38.6576 0 42.6353C0 46.6129 3.21871 49.8374 7.18919 49.8374Z" fill="#5B4FFE"/>
<path d="M7.18919 49.8374C11.1597 49.8374 14.3784 46.6129 14.3784 42.6353C14.3784 38.6576 11.1597 35.4331 7.18919 35.4331C3.21871 35.4331 0 38.6576 0 42.6353C0 46.6129 3.21871 49.8374 7.18919 49.8374Z" fill="#5A4FFE"/>
<path d="M7.18919 49.8374C11.1597 49.8374 14.3784 46.6129 14.3784 42.6353C14.3784 38.6576 11.1597 35.4331 7.18919 35.4331C3.21871 35.4331 0 38.6576 0 42.6353C0 46.6129 3.21871 49.8374 7.18919 49.8374Z" fill="#594FFE"/>
<path d="M7.18919 49.8374C11.1597 49.8374 14.3784 46.6129 14.3784 42.6353C14.3784 38.6576 11.1597 35.4331 7.18919 35.4331C3.21871 35.4331 0 38.6576 0 42.6353C0 46.6129 3.21871 49.8374 7.18919 49.8374Z" fill="#584FFE"/>
<path d="M7.18919 49.8374C11.1597 49.8374 14.3784 46.6129 14.3784 42.6353C14.3784 38.6576 11.1597 35.4331 7.18919 35.4331C3.21871 35.4331 0 38.6576 0 42.6353C0 46.6129 3.21871 49.8374 7.18919 49.8374Z" fill="#574FFE"/>
<path d="M7.18919 49.8374C11.1597 49.8374 14.3784 46.6129 14.3784 42.6353C14.3784 38.6576 11.1597 35.4331 7.18919 35.4331C3.21871 35.4331 0 38.6576 0 42.6353C0 46.6129 3.21871 49.8374 7.18919 49.8374Z" fill="#564FFE"/>
<path d="M7.18919 49.8374C11.1597 49.8374 14.3784 46.6129 14.3784 42.6353C14.3784 38.6576 11.1597 35.4331 7.18919 35.4331C3.21871 35.4331 0 38.6576 0 42.6353C0 46.6129 3.21871 49.8374 7.18919 49.8374Z" fill="#554FFE"/>
<path d="M7.18919 49.8374C11.1597 49.8374 14.3784 46.6129 14.3784 42.6353C14.3784 38.6576 11.1597 35.4331 7.18919 35.4331C3.21871 35.4331 0 38.6576 0 42.6353C0 46.6129 3.21871 49.8374 7.18919 49.8374Z" fill="#544FFE"/>
<path d="M7.18919 49.8374C11.1597 49.8374 14.3784 46.6129 14.3784 42.6353C14.3784 38.6576 11.1597 35.4331 7.18919 35.4331C3.21871 35.4331 0 38.6576 0 42.6353C0 46.6129 3.21871 49.8374 7.18919 49.8374Z" fill="#534FFD"/>
<path d="M7.18919 49.8374C11.1597 49.8374 14.3784 46.6129 14.3784 42.6353C14.3784 38.6576 11.1597 35.4331 7.18919 35.4331C3.21871 35.4331 0 38.6576 0 42.6353C0 46.6129 3.21871 49.8374 7.18919 49.8374Z" fill="#524FFD"/>
<path d="M7.18919 49.8374C11.1597 49.8374 14.3784 46.6129 14.3784 42.6353C14.3784 38.6576 11.1597 35.4331 7.18919 35.4331C3.21871 35.4331 0 38.6576 0 42.6353C0 46.6129 3.21871 49.8374 7.18919 49.8374Z" fill="#514FFD"/>
<path d="M7.18919 49.8374C11.1597 49.8374 14.3784 46.6129 14.3784 42.6353C14.3784 38.6576 11.1597 35.4331 7.18919 35.4331C3.21871 35.4331 0 38.6576 0 42.6353C0 46.6129 3.21871 49.8374 7.18919 49.8374Z" fill="#504FFD"/>
<path d="M7.18919 49.8374C11.1597 49.8374 14.3784 46.6129 14.3784 42.6353C14.3784 38.6576 11.1597 35.4331 7.18919 35.4331C3.21871 35.4331 0 38.6576 0 42.6353C0 46.6129 3.21871 49.8374 7.18919 49.8374Z" fill="#4F4EFD"/>
<path d="M7.18919 49.8374C11.1597 49.8374 14.3784 46.6129 14.3784 42.6353C14.3784 38.6576 11.1597 35.4331 7.18919 35.4331C3.21871 35.4331 0 38.6576 0 42.6353C0 46.6129 3.21871 49.8374 7.18919 49.8374Z" fill="#4E4EFD"/>
<path d="M7.18919 49.8374C11.1597 49.8374 14.3784 46.6129 14.3784 42.6353C14.3784 38.6576 11.1597 35.4331 7.18919 35.4331C3.21871 35.4331 0 38.6576 0 42.6353C0 46.6129 3.21871 49.8374 7.18919 49.8374Z" fill="#4D4EFD"/>
<path d="M7.18919 49.8374C11.1597 49.8374 14.3784 46.6129 14.3784 42.6353C14.3784 38.6576 11.1597 35.4331 7.18919 35.4331C3.21871 35.4331 0 38.6576 0 42.6353C0 46.6129 3.21871 49.8374 7.18919 49.8374Z" fill="#4C4EFD"/>
<path d="M7.18919 49.8374C11.1597 49.8374 14.3784 46.6129 14.3784 42.6353C14.3784 38.6576 11.1597 35.4331 7.18919 35.4331C3.21871 35.4331 0 38.6576 0 42.6353C0 46.6129 3.21871 49.8374 7.18919 49.8374Z" fill="#4B4EFD"/>
<path d="M7.18919 49.8374C11.1597 49.8374 14.3784 46.6129 14.3784 42.6353C14.3784 38.6576 11.1597 35.4331 7.18919 35.4331C3.21871 35.4331 0 38.6576 0 42.6353C0 46.6129 3.21871 49.8374 7.18919 49.8374Z" fill="#4A4EFD"/>
<path d="M7.18919 49.8374C11.1597 49.8374 14.3784 46.6129 14.3784 42.6353C14.3784 38.6576 11.1597 35.4331 7.18919 35.4331C3.21871 35.4331 0 38.6576 0 42.6353C0 46.6129 3.21871 49.8374 7.18919 49.8374Z" fill="#494EFD"/>
<path d="M7.18919 49.8374C11.1597 49.8374 14.3784 46.6129 14.3784 42.6353C14.3784 38.6576 11.1597 35.4331 7.18919 35.4331C3.21871 35.4331 0 38.6576 0 42.6353C0 46.6129 3.21871 49.8374 7.18919 49.8374Z" fill="#484EFD"/>
<path d="M7.18919 49.8374C11.1597 49.8374 14.3784 46.6129 14.3784 42.6353C14.3784 38.6576 11.1597 35.4331 7.18919 35.4331C3.21871 35.4331 0 38.6576 0 42.6353C0 46.6129 3.21871 49.8374 7.18919 49.8374Z" fill="#474EFD"/>
<path d="M7.18919 49.8374C11.1597 49.8374 14.3784 46.6129 14.3784 42.6353C14.3784 38.6576 11.1597 35.4331 7.18919 35.4331C3.21871 35.4331 0 38.6576 0 42.6353C0 46.6129 3.21871 49.8374 7.18919 49.8374Z" fill="#464EFD"/>
<path d="M7.18919 49.8374C11.1597 49.8374 14.3784 46.6129 14.3784 42.6353C14.3784 38.6576 11.1597 35.4331 7.18919 35.4331C3.21871 35.4331 0 38.6576 0 42.6353C0 46.6129 3.21871 49.8374 7.18919 49.8374Z" fill="#454EFC"/>
<path d="M7.18919 49.8374C11.1597 49.8374 14.3784 46.6129 14.3784 42.6353C14.3784 38.6576 11.1597 35.4331 7.18919 35.4331C3.21871 35.4331 0 38.6576 0 42.6353C0 46.6129 3.21871 49.8374 7.18919 49.8374Z" fill="#444EFC"/>
<path d="M7.18919 49.8374C11.1597 49.8374 14.3784 46.6129 14.3784 42.6353C14.3784 38.6576 11.1597 35.4331 7.18919 35.4331C3.21871 35.4331 0 38.6576 0 42.6353C0 46.6129 3.21871 49.8374 7.18919 49.8374Z" fill="#434EFC"/>
<path d="M7.18919 49.8374C11.1597 49.8374 14.3784 46.6129 14.3784 42.6353C14.3784 38.6576 11.1597 35.4331 7.18919 35.4331C3.21871 35.4331 0 38.6576 0 42.6353C0 46.6129 3.21871 49.8374 7.18919 49.8374Z" fill="#424EFC"/>
<path d="M7.18919 49.8374C11.1597 49.8374 14.3784 46.6129 14.3784 42.6353C14.3784 38.6576 11.1597 35.4331 7.18919 35.4331C3.21871 35.4331 0 38.6576 0 42.6353C0 46.6129 3.21871 49.8374 7.18919 49.8374Z" fill="#414EFC"/>
<path d="M7.18919 49.8374C11.1597 49.8374 14.3784 46.6129 14.3784 42.6353C14.3784 38.6576 11.1597 35.4331 7.18919 35.4331C3.21871 35.4331 0 38.6576 0 42.6353C0 46.6129 3.21871 49.8374 7.18919 49.8374Z" fill="#404EFC"/>
<path d="M7.18919 49.8374C11.1597 49.8374 14.3784 46.6129 14.3784 42.6353C14.3784 38.6576 11.1597 35.4331 7.18919 35.4331C3.21871 35.4331 0 38.6576 0 42.6353C0 46.6129 3.21871 49.8374 7.18919 49.8374Z" fill="#3F4EFC"/>
<path d="M7.18919 49.8374C11.1597 49.8374 14.3784 46.6129 14.3784 42.6353C14.3784 38.6576 11.1597 35.4331 7.18919 35.4331C3.21871 35.4331 0 38.6576 0 42.6353C0 46.6129 3.21871 49.8374 7.18919 49.8374Z" fill="#3F4DFC"/>
<path d="M7.18919 49.8374C11.1597 49.8374 14.3784 46.6129 14.3784 42.6353C14.3784 38.6576 11.1597 35.4331 7.18919 35.4331C3.21871 35.4331 0 38.6576 0 42.6353C0 46.6129 3.21871 49.8374 7.18919 49.8374Z" fill="#3E4DFC"/>
<path d="M7.18919 49.8374C11.1597 49.8374 14.3784 46.6129 14.3784 42.6353C14.3784 38.6576 11.1597 35.4331 7.18919 35.4331C3.21871 35.4331 0 38.6576 0 42.6353C0 46.6129 3.21871 49.8374 7.18919 49.8374Z" fill="#3D4DFC"/>
<path d="M7.18919 49.8374C11.1597 49.8374 14.3784 46.6129 14.3784 42.6353C14.3784 38.6576 11.1597 35.4331 7.18919 35.4331C3.21871 35.4331 0 38.6576 0 42.6353C0 46.6129 3.21871 49.8374 7.18919 49.8374Z" fill="#3C4DFC"/>
<path d="M7.18919 49.8374C11.1597 49.8374 14.3784 46.6129 14.3784 42.6353C14.3784 38.6576 11.1597 35.4331 7.18919 35.4331C3.21871 35.4331 0 38.6576 0 42.6353C0 46.6129 3.21871 49.8374 7.18919 49.8374Z" fill="#3B4DFC"/>
<path d="M7.18919 49.8374C11.1597 49.8374 14.3784 46.6129 14.3784 42.6353C14.3784 38.6576 11.1597 35.4331 7.18919 35.4331C3.21871 35.4331 0 38.6576 0 42.6353C0 46.6129 3.21871 49.8374 7.18919 49.8374Z" fill="#3A4DFC"/>
<path d="M7.18919 49.8374C11.1597 49.8374 14.3784 46.6129 14.3784 42.6353C14.3784 38.6576 11.1597 35.4331 7.18919 35.4331C3.21871 35.4331 0 38.6576 0 42.6353C0 46.6129 3.21871 49.8374 7.18919 49.8374Z" fill="#394DFC"/>
<path d="M7.18919 49.8374C11.1597 49.8374 14.3784 46.6129 14.3784 42.6353C14.3784 38.6576 11.1597 35.4331 7.18919 35.4331C3.21871 35.4331 0 38.6576 0 42.6353C0 46.6129 3.21871 49.8374 7.18919 49.8374Z" fill="#384DFB"/>
<path d="M7.18919 49.8374C11.1597 49.8374 14.3784 46.6129 14.3784 42.6353C14.3784 38.6576 11.1597 35.4331 7.18919 35.4331C3.21871 35.4331 0 38.6576 0 42.6353C0 46.6129 3.21871 49.8374 7.18919 49.8374Z" fill="#374DFB"/>
<path d="M7.18919 49.8374C11.1597 49.8374 14.3784 46.6129 14.3784 42.6353C14.3784 38.6576 11.1597 35.4331 7.18919 35.4331C3.21871 35.4331 0 38.6576 0 42.6353C0 46.6129 3.21871 49.8374 7.18919 49.8374Z" fill="#364DFB"/>
<path d="M7.18919 49.8374C11.1597 49.8374 14.3784 46.6129 14.3784 42.6353C14.3784 38.6576 11.1597 35.4331 7.18919 35.4331C3.21871 35.4331 0 38.6576 0 42.6353C0 46.6129 3.21871 49.8374 7.18919 49.8374Z" fill="#354DFB"/>
<path d="M7.18919 49.8374C11.1597 49.8374 14.3784 46.6129 14.3784 42.6353C14.3784 38.6576 11.1597 35.4331 7.18919 35.4331C3.21871 35.4331 0 38.6576 0 42.6353C0 46.6129 3.21871 49.8374 7.18919 49.8374Z" fill="#344DFB"/>
<path d="M7.18919 49.8374C11.1597 49.8374 14.3784 46.6129 14.3784 42.6353C14.3784 38.6576 11.1597 35.4331 7.18919 35.4331C3.21871 35.4331 0 38.6576 0 42.6353C0 46.6129 3.21871 49.8374 7.18919 49.8374Z" fill="#334DFB"/>
<path d="M7.18919 49.8374C11.1597 49.8374 14.3784 46.6129 14.3784 42.6353C14.3784 38.6576 11.1597 35.4331 7.18919 35.4331C3.21871 35.4331 0 38.6576 0 42.6353C0 46.6129 3.21871 49.8374 7.18919 49.8374Z" fill="#324DFB"/>
<path d="M7.18919 49.8374C11.1597 49.8374 14.3784 46.6129 14.3784 42.6353C14.3784 38.6576 11.1597 35.4331 7.18919 35.4331C3.21871 35.4331 0 38.6576 0 42.6353C0 46.6129 3.21871 49.8374 7.18919 49.8374Z" fill="#314DFB"/>
<path d="M7.18919 49.8374C11.1597 49.8374 14.3784 46.6129 14.3784 42.6353C14.3784 38.6576 11.1597 35.4331 7.18919 35.4331C3.21871 35.4331 0 38.6576 0 42.6353C0 46.6129 3.21871 49.8374 7.18919 49.8374Z" fill="#304DFB"/>
<path d="M7.18919 49.8374C11.1597 49.8374 14.3784 46.6129 14.3784 42.6353C14.3784 38.6576 11.1597 35.4331 7.18919 35.4331C3.21871 35.4331 0 38.6576 0 42.6353C0 46.6129 3.21871 49.8374 7.18919 49.8374Z" fill="#2F4DFB"/>
<path d="M7.18919 49.8374C11.1597 49.8374 14.3784 46.6129 14.3784 42.6353C14.3784 38.6576 11.1597 35.4331 7.18919 35.4331C3.21871 35.4331 0 38.6576 0 42.6353C0 46.6129 3.21871 49.8374 7.18919 49.8374Z" fill="#2E4CFB"/>
<path d="M7.18919 49.8374C11.1597 49.8374 14.3784 46.6129 14.3784 42.6353C14.3784 38.6576 11.1597 35.4331 7.18919 35.4331C3.21871 35.4331 0 38.6576 0 42.6353C0 46.6129 3.21871 49.8374 7.18919 49.8374Z" fill="#2D4CFB"/>
<path d="M7.18919 49.8374C11.1597 49.8374 14.3784 46.6129 14.3784 42.6353C14.3784 38.6576 11.1597 35.4331 7.18919 35.4331C3.21871 35.4331 0 38.6576 0 42.6353C0 46.6129 3.21871 49.8374 7.18919 49.8374Z" fill="#2C4CFB"/>
<path d="M7.18919 49.8374C11.1597 49.8374 14.3784 46.6129 14.3784 42.6353C14.3784 38.6576 11.1597 35.4331 7.18919 35.4331C3.21871 35.4331 0 38.6576 0 42.6353C0 46.6129 3.21871 49.8374 7.18919 49.8374Z" fill="#2B4CFB"/>
<path d="M7.18919 49.8374C11.1597 49.8374 14.3784 46.6129 14.3784 42.6353C14.3784 38.6576 11.1597 35.4331 7.18919 35.4331C3.21871 35.4331 0 38.6576 0 42.6353C0 46.6129 3.21871 49.8374 7.18919 49.8374Z" fill="#2A4CFA"/>
<path d="M7.18919 49.8374C11.1597 49.8374 14.3784 46.6129 14.3784 42.6353C14.3784 38.6576 11.1597 35.4331 7.18919 35.4331C3.21871 35.4331 0 38.6576 0 42.6353C0 46.6129 3.21871 49.8374 7.18919 49.8374Z" fill="#294CFA"/>
<path d="M7.18919 49.8374C11.1597 49.8374 14.3784 46.6129 14.3784 42.6353C14.3784 38.6576 11.1597 35.4331 7.18919 35.4331C3.21871 35.4331 0 38.6576 0 42.6353C0 46.6129 3.21871 49.8374 7.18919 49.8374Z" fill="#284CFA"/>
<path d="M7.18919 49.8374C11.1597 49.8374 14.3784 46.6129 14.3784 42.6353C14.3784 38.6576 11.1597 35.4331 7.18919 35.4331C3.21871 35.4331 0 38.6576 0 42.6353C0 46.6129 3.21871 49.8374 7.18919 49.8374Z" fill="#274CFA"/>
<path d="M7.18919 49.8374C11.1597 49.8374 14.3784 46.6129 14.3784 42.6353C14.3784 38.6576 11.1597 35.4331 7.18919 35.4331C3.21871 35.4331 0 38.6576 0 42.6353C0 46.6129 3.21871 49.8374 7.18919 49.8374Z" fill="#264CFA"/>
<path d="M7.18919 49.8374C11.1597 49.8374 14.3784 46.6129 14.3784 42.6353C14.3784 38.6576 11.1597 35.4331 7.18919 35.4331C3.21871 35.4331 0 38.6576 0 42.6353C0 46.6129 3.21871 49.8374 7.18919 49.8374Z" fill="#254CFA"/>
<path d="M7.18919 49.8374C11.1597 49.8374 14.3784 46.6129 14.3784 42.6353C14.3784 38.6576 11.1597 35.4331 7.18919 35.4331C3.21871 35.4331 0 38.6576 0 42.6353C0 46.6129 3.21871 49.8374 7.18919 49.8374Z" fill="#244CFA"/>
<path d="M7.18919 49.8374C11.1597 49.8374 14.3784 46.6129 14.3784 42.6353C14.3784 38.6576 11.1597 35.4331 7.18919 35.4331C3.21871 35.4331 0 38.6576 0 42.6353C0 46.6129 3.21871 49.8374 7.18919 49.8374Z" fill="#234CFA"/>
<path d="M7.18919 49.8374C11.1597 49.8374 14.3784 46.6129 14.3784 42.6353C14.3784 38.6576 11.1597 35.4331 7.18919 35.4331C3.21871 35.4331 0 38.6576 0 42.6353C0 46.6129 3.21871 49.8374 7.18919 49.8374Z" fill="#224CFA"/>
<path d="M7.18919 49.8374C11.1597 49.8374 14.3784 46.6129 14.3784 42.6353C14.3784 38.6576 11.1597 35.4331 7.18919 35.4331C3.21871 35.4331 0 38.6576 0 42.6353C0 46.6129 3.21871 49.8374 7.18919 49.8374Z" fill="#214CFA"/>
<path d="M7.18919 49.8374C11.1597 49.8374 14.3784 46.6129 14.3784 42.6353C14.3784 38.6576 11.1597 35.4331 7.18919 35.4331C3.21871 35.4331 0 38.6576 0 42.6353C0 46.6129 3.21871 49.8374 7.18919 49.8374Z" fill="#204CFA"/>
<path d="M7.18919 49.8374C11.1597 49.8374 14.3784 46.6129 14.3784 42.6353C14.3784 38.6576 11.1597 35.4331 7.18919 35.4331C3.21871 35.4331 0 38.6576 0 42.6353C0 46.6129 3.21871 49.8374 7.18919 49.8374Z" fill="#1F4CFA"/>
<path d="M7.18919 49.8374C11.1597 49.8374 14.3784 46.6129 14.3784 42.6353C14.3784 38.6576 11.1597 35.4331 7.18919 35.4331C3.21871 35.4331 0 38.6576 0 42.6353C0 46.6129 3.21871 49.8374 7.18919 49.8374Z" fill="#1E4CFA"/>
<path d="M7.18919 49.8374C11.1597 49.8374 14.3784 46.6129 14.3784 42.6353C14.3784 38.6576 11.1597 35.4331 7.18919 35.4331C3.21871 35.4331 0 38.6576 0 42.6353C0 46.6129 3.21871 49.8374 7.18919 49.8374Z" fill="#1D4BFA"/>
<path d="M7.18919 49.8374C11.1597 49.8374 14.3784 46.6129 14.3784 42.6353C14.3784 38.6576 11.1597 35.4331 7.18919 35.4331C3.21871 35.4331 0 38.6576 0 42.6353C0 46.6129 3.21871 49.8374 7.18919 49.8374Z" fill="#1C4BF9"/>
<path d="M7.18919 49.8374C11.1597 49.8374 14.3784 46.6129 14.3784 42.6353C14.3784 38.6576 11.1597 35.4331 7.18919 35.4331C3.21871 35.4331 0 38.6576 0 42.6353C0 46.6129 3.21871 49.8374 7.18919 49.8374Z" fill="#1B4BF9"/>
<path d="M7.18919 49.8374C11.1597 49.8374 14.3784 46.6129 14.3784 42.6353C14.3784 38.6576 11.1597 35.4331 7.18919 35.4331C3.21871 35.4331 0 38.6576 0 42.6353C0 46.6129 3.21871 49.8374 7.18919 49.8374Z" fill="#1A4BF9"/>
<path d="M7.18919 49.8374C11.1597 49.8374 14.3784 46.6129 14.3784 42.6353C14.3784 38.6576 11.1597 35.4331 7.18919 35.4331C3.21871 35.4331 0 38.6576 0 42.6353C0 46.6129 3.21871 49.8374 7.18919 49.8374Z" fill="#194BF9"/>
<path d="M7.18919 49.8374C11.1597 49.8374 14.3784 46.6129 14.3784 42.6353C14.3784 38.6576 11.1597 35.4331 7.18919 35.4331C3.21871 35.4331 0 38.6576 0 42.6353C0 46.6129 3.21871 49.8374 7.18919 49.8374Z" fill="#184BF9"/>
<path d="M7.18919 49.8374C11.1597 49.8374 14.3784 46.6129 14.3784 42.6353C14.3784 38.6576 11.1597 35.4331 7.18919 35.4331C3.21871 35.4331 0 38.6576 0 42.6353C0 46.6129 3.21871 49.8374 7.18919 49.8374Z" fill="#174BF9"/>
<path d="M7.18919 49.8374C11.1597 49.8374 14.3784 46.6129 14.3784 42.6353C14.3784 38.6576 11.1597 35.4331 7.18919 35.4331C3.21871 35.4331 0 38.6576 0 42.6353C0 46.6129 3.21871 49.8374 7.18919 49.8374Z" fill="#164BF9"/>
<path d="M7.18919 49.8374C11.1597 49.8374 14.3784 46.6129 14.3784 42.6353C14.3784 38.6576 11.1597 35.4331 7.18919 35.4331C3.21871 35.4331 0 38.6576 0 42.6353C0 46.6129 3.21871 49.8374 7.18919 49.8374Z" fill="#154BF9"/>
<path d="M7.36888 49.5127C11.3394 49.5127 14.5581 46.2882 14.5581 42.3106C14.5581 38.3329 11.3394 35.1084 7.36888 35.1084C3.3984 35.1084 0.179688 38.3329 0.179688 42.3106C0.179688 46.2882 3.3984 49.5127 7.36888 49.5127Z" fill="#154CF9"/>
<path d="M7.55052 49.2056C11.521 49.2056 14.7397 45.9811 14.7397 42.0034C14.7397 38.0258 11.521 34.8013 7.55052 34.8013C3.58004 34.8013 0.361328 38.0258 0.361328 42.0034C0.361328 45.9811 3.58004 49.2056 7.55052 49.2056Z" fill="#144DF9"/>
<path d="M7.73021 48.8809C11.7007 48.8809 14.9194 45.6564 14.9194 41.6787C14.9194 37.7011 11.7007 34.4766 7.73021 34.4766C3.75973 34.4766 0.541016 37.7011 0.541016 41.6787C0.541016 45.6564 3.75973 48.8809 7.73021 48.8809Z" fill="#144EF9"/>
<path d="M7.90989 48.5562C11.8804 48.5562 15.0991 45.3317 15.0991 41.354C15.0991 37.3764 11.8804 34.1519 7.90989 34.1519C3.93941 34.1519 0.720703 37.3764 0.720703 41.354C0.720703 45.3317 3.93941 48.5562 7.90989 48.5562Z" fill="#134FF9"/>
<path d="M8.08958 48.231C12.0601 48.231 15.2788 45.0065 15.2788 41.0288C15.2788 37.0512 12.0601 33.8267 8.08958 33.8267C4.1191 33.8267 0.900391 37.0512 0.900391 41.0288C0.900391 45.0065 4.1191 48.231 8.08958 48.231Z" fill="#1350FA"/>
<path d="M8.26927 47.9063C12.2397 47.9063 15.4585 44.6818 15.4585 40.7041C15.4585 36.7265 12.2397 33.502 8.26927 33.502C4.29879 33.502 1.08008 36.7265 1.08008 40.7041C1.08008 44.6818 4.29879 47.9063 8.26927 47.9063Z" fill="#1351FA"/>
<path d="M8.45091 47.5811C12.4214 47.5811 15.6401 44.3566 15.6401 40.3789C15.6401 36.4013 12.4214 33.1768 8.45091 33.1768C4.48043 33.1768 1.26172 36.4013 1.26172 40.3789C1.26172 44.3566 4.48043 47.5811 8.45091 47.5811Z" fill="#1252FA"/>
<path d="M8.6306 47.2745C12.6011 47.2745 15.8198 44.0499 15.8198 40.0723C15.8198 36.0946 12.6011 32.8701 8.6306 32.8701C4.66012 32.8701 1.44141 36.0946 1.44141 40.0723C1.44141 44.0499 4.66012 47.2745 8.6306 47.2745Z" fill="#1253FA"/>
<path d="M8.82981 46.9493C12.8003 46.9493 16.019 43.7247 16.019 39.7471C16.019 35.7694 12.8003 32.5449 8.82981 32.5449C4.85933 32.5449 1.64062 35.7694 1.64062 39.7471C1.64062 43.7247 4.85933 46.9493 8.82981 46.9493Z" fill="#1254FA"/>
<path d="M9.0095 46.6245C12.98 46.6245 16.1987 43.4 16.1987 39.4224C16.1987 35.4447 12.98 32.2202 9.0095 32.2202C5.03902 32.2202 1.82031 35.4447 1.82031 39.4224C1.82031 43.4 5.03902 46.6245 9.0095 46.6245Z" fill="#1155FA"/>
<path d="M9.18919 46.2998C13.1597 46.2998 16.3784 43.0753 16.3784 39.0977C16.3784 35.12 13.1597 31.8955 9.18919 31.8955C5.21871 31.8955 2 35.12 2 39.0977C2 43.0753 5.21871 46.2998 9.18919 46.2998Z" fill="#1156FA"/>
<path d="M9.36888 45.9747C13.3394 45.9747 16.5581 42.7501 16.5581 38.7725C16.5581 34.7948 13.3394 31.5703 9.36888 31.5703C5.3984 31.5703 2.17969 34.7948 2.17969 38.7725C2.17969 42.7501 5.3984 45.9747 9.36888 45.9747Z" fill="#1057FA"/>
<path d="M9.54856 45.6499C13.519 45.6499 16.7378 42.4254 16.7378 38.4478C16.7378 34.4701 13.519 31.2456 9.54856 31.2456C5.57808 31.2456 2.35938 34.4701 2.35938 38.4478C2.35938 42.4254 5.57808 45.6499 9.54856 45.6499Z" fill="#1058FA"/>
<path d="M9.73021 45.3428C13.7007 45.3428 16.9194 42.1183 16.9194 38.1406C16.9194 34.163 13.7007 30.9385 9.73021 30.9385C5.75973 30.9385 2.54102 34.163 2.54102 38.1406C2.54102 42.1183 5.75973 45.3428 9.73021 45.3428Z" fill="#1059FB"/>
<path d="M9.90989 45.0181C13.8804 45.0181 17.0991 41.7936 17.0991 37.8159C17.0991 33.8383 13.8804 30.6138 9.90989 30.6138C5.93941 30.6138 2.7207 33.8383 2.7207 37.8159C2.7207 41.7936 5.93941 45.0181 9.90989 45.0181Z" fill="#0F5AFB"/>
<path d="M10.0896 44.6929C14.0601 44.6929 17.2788 41.4684 17.2788 37.4907C17.2788 33.5131 14.0601 30.2886 10.0896 30.2886C6.1191 30.2886 2.90039 33.5131 2.90039 37.4907C2.90039 41.4684 6.1191 44.6929 10.0896 44.6929Z" fill="#0F5BFB"/>
<path d="M10.2712 44.3682C14.2417 44.3682 17.4604 41.1437 17.4604 37.166C17.4604 33.1884 14.2417 29.9639 10.2712 29.9639C6.30074 29.9639 3.08203 33.1884 3.08203 37.166C3.08203 41.1437 6.30074 44.3682 10.2712 44.3682Z" fill="#0F5CFB"/>
<path d="M10.4509 44.0435C14.4214 44.0435 17.6401 40.819 17.6401 36.8413C17.6401 32.8637 14.4214 29.6392 10.4509 29.6392C6.48043 29.6392 3.26172 32.8637 3.26172 36.8413C3.26172 40.819 6.48043 44.0435 10.4509 44.0435Z" fill="#0E5DFB"/>
<path d="M10.6306 43.7183C14.6011 43.7183 17.8198 40.4938 17.8198 36.5161C17.8198 32.5385 14.6011 29.314 10.6306 29.314C6.66012 29.314 3.44141 32.5385 3.44141 36.5161C3.44141 40.4938 6.66012 43.7183 10.6306 43.7183Z" fill="#0E5EFB"/>
<path d="M10.8103 43.3936C14.7808 43.3936 17.9995 40.1691 17.9995 36.1914C17.9995 32.2138 14.7808 28.9893 10.8103 28.9893C6.8398 28.9893 3.62109 32.2138 3.62109 36.1914C3.62109 40.1691 6.8398 43.3936 10.8103 43.3936Z" fill="#0D5FFB"/>
<path d="M10.99 43.087C14.9605 43.087 18.1792 39.8624 18.1792 35.8848C18.1792 31.9071 14.9605 28.6826 10.99 28.6826C7.01949 28.6826 3.80078 31.9071 3.80078 35.8848C3.80078 39.8624 7.01949 43.087 10.99 43.087Z" fill="#0D60FB"/>
<path d="M11.1716 42.7618C15.1421 42.7618 18.3608 39.5372 18.3608 35.5596C18.3608 31.5819 15.1421 28.3574 11.1716 28.3574C7.20113 28.3574 3.98242 31.5819 3.98242 35.5596C3.98242 39.5372 7.20113 42.7618 11.1716 42.7618Z" fill="#0D61FB"/>
<path d="M11.3513 42.4366C15.3218 42.4366 18.5405 39.212 18.5405 35.2344C18.5405 31.2568 15.3218 28.0322 11.3513 28.0322C7.38082 28.0322 4.16211 31.2568 4.16211 35.2344C4.16211 39.212 7.38082 42.4366 11.3513 42.4366Z" fill="#0C62FC"/>
<path d="M11.531 42.1119C15.5015 42.1119 18.7202 38.8873 18.7202 34.9097C18.7202 30.932 15.5015 27.7075 11.531 27.7075C7.56051 27.7075 4.3418 30.932 4.3418 34.9097C4.3418 38.8873 7.56051 42.1119 11.531 42.1119Z" fill="#0C63FC"/>
<path d="M11.7126 41.7871C15.6831 41.7871 18.9018 38.5626 18.9018 34.585C18.9018 30.6073 15.6831 27.3828 11.7126 27.3828C7.74215 27.3828 4.52344 30.6073 4.52344 34.585C4.52344 38.5626 7.74215 41.7871 11.7126 41.7871Z" fill="#0B64FC"/>
<path d="M11.8923 41.4619C15.8628 41.4619 19.0815 38.2374 19.0815 34.2598C19.0815 30.2821 15.8628 27.0576 11.8923 27.0576C7.92183 27.0576 4.70312 30.2821 4.70312 34.2598C4.70312 38.2374 7.92183 41.4619 11.8923 41.4619Z" fill="#0B65FC"/>
<path d="M12.072 41.1553C16.0425 41.1553 19.2612 37.9308 19.2612 33.9531C19.2612 29.9755 16.0425 26.751 12.072 26.751C8.10152 26.751 4.88281 29.9755 4.88281 33.9531C4.88281 37.9308 8.10152 41.1553 12.072 41.1553Z" fill="#0B66FC"/>
<path d="M12.2517 40.8306C16.2222 40.8306 19.4409 37.6061 19.4409 33.6284C19.4409 29.6508 16.2222 26.4263 12.2517 26.4263C8.28121 26.4263 5.0625 29.6508 5.0625 33.6284C5.0625 37.6061 8.28121 40.8306 12.2517 40.8306Z" fill="#0A66FC"/>
<path d="M12.4333 40.5054C16.4038 40.5054 19.6225 37.2809 19.6225 33.3032C19.6225 29.3256 16.4038 26.1011 12.4333 26.1011C8.46285 26.1011 5.24414 29.3256 5.24414 33.3032C5.24414 37.2809 8.46285 40.5054 12.4333 40.5054Z" fill="#0A67FC"/>
<path d="M12.613 40.1807C16.5835 40.1807 19.8022 36.9562 19.8022 32.9785C19.8022 29.0009 16.5835 25.7764 12.613 25.7764C8.64254 25.7764 5.42383 29.0009 5.42383 32.9785C5.42383 36.9562 8.64254 40.1807 12.613 40.1807Z" fill="#0A68FC"/>
<path d="M12.7927 39.8555C16.7632 39.8555 19.9819 36.631 19.9819 32.6533C19.9819 28.6757 16.7632 25.4512 12.7927 25.4512C8.82223 25.4512 5.60352 28.6757 5.60352 32.6533C5.60352 36.631 8.82223 39.8555 12.7927 39.8555Z" fill="#0969FC"/>
<path d="M12.9724 39.5308C16.9429 39.5308 20.1616 36.3063 20.1616 32.3286C20.1616 28.351 16.9429 25.1265 12.9724 25.1265C9.00191 25.1265 5.7832 28.351 5.7832 32.3286C5.7832 36.3063 9.00191 39.5308 12.9724 39.5308Z" fill="#096AFC"/>
<path d="M13.154 39.2056C17.1245 39.2056 20.3432 35.9811 20.3432 32.0034C20.3432 28.0258 17.1245 24.8013 13.154 24.8013C9.18355 24.8013 5.96484 28.0258 5.96484 32.0034C5.96484 35.9811 9.18355 39.2056 13.154 39.2056Z" fill="#086BFD"/>
<path d="M13.3337 38.899C17.3042 38.899 20.5229 35.6744 20.5229 31.6968C20.5229 27.7191 17.3042 24.4946 13.3337 24.4946C9.36324 24.4946 6.14453 27.7191 6.14453 31.6968C6.14453 35.6744 9.36324 38.899 13.3337 38.899Z" fill="#086CFD"/>
<path d="M13.531 38.5742C17.5015 38.5742 20.7202 35.3497 20.7202 31.3721C20.7202 27.3944 17.5015 24.1699 13.531 24.1699C9.56051 24.1699 6.3418 27.3944 6.3418 31.3721C6.3418 35.3497 9.56051 38.5742 13.531 38.5742Z" fill="#086DFD"/>
<path d="M13.7126 38.2491C17.6831 38.2491 20.9018 35.0245 20.9018 31.0469C20.9018 27.0693 17.6831 23.8447 13.7126 23.8447C9.74215 23.8447 6.52344 27.0693 6.52344 31.0469C6.52344 35.0245 9.74215 38.2491 13.7126 38.2491Z" fill="#076EFD"/>
<path d="M13.8923 37.9243C17.8628 37.9243 21.0815 34.6998 21.0815 30.7222C21.0815 26.7445 17.8628 23.52 13.8923 23.52C9.92183 23.52 6.70312 26.7445 6.70312 30.7222C6.70312 34.6998 9.92183 37.9243 13.8923 37.9243Z" fill="#076FFD"/>
<path d="M14.072 37.5992C18.0425 37.5992 21.2612 34.3746 21.2612 30.397C21.2612 26.4193 18.0425 23.1948 14.072 23.1948C10.1015 23.1948 6.88281 26.4193 6.88281 30.397C6.88281 34.3746 10.1015 37.5992 14.072 37.5992Z" fill="#0670FD"/>
<path d="M14.2517 37.2745C18.2222 37.2745 21.4409 34.0499 21.4409 30.0723C21.4409 26.0946 18.2222 22.8701 14.2517 22.8701C10.2812 22.8701 7.0625 26.0946 7.0625 30.0723C7.0625 34.0499 10.2812 37.2745 14.2517 37.2745Z" fill="#0671FD"/>
<path d="M14.4333 36.9673C18.4038 36.9673 21.6225 33.7428 21.6225 29.7652C21.6225 25.7875 18.4038 22.563 14.4333 22.563C10.4628 22.563 7.24414 25.7875 7.24414 29.7652C7.24414 33.7428 10.4628 36.9673 14.4333 36.9673Z" fill="#0672FD"/>
<path d="M14.613 36.6426C18.5835 36.6426 21.8022 33.4181 21.8022 29.4404C21.8022 25.4628 18.5835 22.2383 14.613 22.2383C10.6425 22.2383 7.42383 25.4628 7.42383 29.4404C7.42383 33.4181 10.6425 36.6426 14.613 36.6426Z" fill="#0573FD"/>
<path d="M14.7927 36.3179C18.7632 36.3179 21.9819 33.0934 21.9819 29.1157C21.9819 25.1381 18.7632 21.9136 14.7927 21.9136C10.8222 21.9136 7.60352 25.1381 7.60352 29.1157C7.60352 33.0934 10.8222 36.3179 14.7927 36.3179Z" fill="#0574FE"/>
<path d="M14.9743 35.9927C18.9448 35.9927 22.1635 32.7682 22.1635 28.7906C22.1635 24.8129 18.9448 21.5884 14.9743 21.5884C11.0039 21.5884 7.78516 24.8129 7.78516 28.7906C7.78516 32.7682 11.0039 35.9927 14.9743 35.9927Z" fill="#0575FE"/>
<path d="M15.154 35.668C19.1245 35.668 22.3432 32.4435 22.3432 28.4658C22.3432 24.4882 19.1245 21.2637 15.154 21.2637C11.1836 21.2637 7.96484 24.4882 7.96484 28.4658C7.96484 32.4435 11.1836 35.668 15.154 35.668Z" fill="#0476FE"/>
<path d="M15.3337 35.3428C19.3042 35.3428 22.5229 32.1183 22.5229 28.1406C22.5229 24.163 19.3042 20.9385 15.3337 20.9385C11.3632 20.9385 8.14453 24.163 8.14453 28.1406C8.14453 32.1183 11.3632 35.3428 15.3337 35.3428Z" fill="#0477FE"/>
<path d="M15.5134 35.0181C19.4839 35.0181 22.7026 31.7936 22.7026 27.8159C22.7026 23.8383 19.4839 20.6138 15.5134 20.6138C11.5429 20.6138 8.32422 23.8383 8.32422 27.8159C8.32422 31.7936 11.5429 35.0181 15.5134 35.0181Z" fill="#0378FE"/>
<path d="M15.6931 34.711C19.6636 34.711 22.8823 31.4865 22.8823 27.5088C22.8823 23.5312 19.6636 20.3066 15.6931 20.3066C11.7226 20.3066 8.50391 23.5312 8.50391 27.5088C8.50391 31.4865 11.7226 34.711 15.6931 34.711Z" fill="#0379FE"/>
<path d="M15.8747 34.3863C19.8452 34.3863 23.0639 31.1617 23.0639 27.1841C23.0639 23.2064 19.8452 19.9819 15.8747 19.9819C11.9043 19.9819 8.68555 23.2064 8.68555 27.1841C8.68555 31.1617 11.9043 34.3863 15.8747 34.3863Z" fill="#037AFE"/>
<path d="M16.0544 34.0616C20.0249 34.0616 23.2436 30.837 23.2436 26.8594C23.2436 22.8817 20.0249 19.6572 16.0544 19.6572C12.0839 19.6572 8.86523 22.8817 8.86523 26.8594C8.86523 30.837 12.0839 34.0616 16.0544 34.0616Z" fill="#027BFE"/>
<path d="M16.2341 33.7364C20.2046 33.7364 23.4233 30.5118 23.4233 26.5342C23.4233 22.5566 20.2046 19.332 16.2341 19.332C12.2636 19.332 9.04492 22.5566 9.04492 26.5342C9.04492 30.5118 12.2636 33.7364 16.2341 33.7364Z" fill="#027CFE"/>
<path d="M16.4138 33.4116C20.3843 33.4116 23.603 30.1871 23.603 26.2095C23.603 22.2318 20.3843 19.0073 16.4138 19.0073C12.4433 19.0073 9.22461 22.2318 9.22461 26.2095C9.22461 30.1871 12.4433 33.4116 16.4138 33.4116Z" fill="#027DFF"/>
<path d="M16.5954 33.0865C20.5659 33.0865 23.7846 29.8619 23.7846 25.8843C23.7846 21.9067 20.5659 18.6821 16.5954 18.6821C12.625 18.6821 9.40625 21.9067 9.40625 25.8843C9.40625 29.8619 12.625 33.0865 16.5954 33.0865Z" fill="#017EFF"/>
<path d="M16.7751 32.7798C20.7456 32.7798 23.9643 29.5553 23.9643 25.5777C23.9643 21.6 20.7456 18.3755 16.7751 18.3755C12.8046 18.3755 9.58594 21.6 9.58594 25.5777C9.58594 29.5553 12.8046 32.7798 16.7751 32.7798Z" fill="#017FFF"/>
<path d="M16.9548 32.4546C20.9253 32.4546 24.144 29.2301 24.144 25.2525C24.144 21.2748 20.9253 18.0503 16.9548 18.0503C12.9843 18.0503 9.76562 21.2748 9.76562 25.2525C9.76562 29.2301 12.9843 32.4546 16.9548 32.4546Z" fill="#0080FF"/>
<path d="M17.1365 32.1299C21.1069 32.1299 24.3256 28.9054 24.3256 24.9277C24.3256 20.9501 21.1069 17.7256 17.1365 17.7256C13.166 17.7256 9.94727 20.9501 9.94727 24.9277C9.94727 28.9054 13.166 32.1299 17.1365 32.1299Z" fill="#0081FF"/>
<path d="M17.2966 31.8594C21.2671 31.8594 24.4858 28.6349 24.4858 24.6572C24.4858 20.6796 21.2671 17.4551 17.2966 17.4551C13.3261 17.4551 10.1074 20.6796 10.1074 24.6572C10.1074 28.6349 13.3261 31.8594 17.2966 31.8594Z" fill="#0082FF"/>
<path d="M17.4587 31.5704C21.4292 31.5704 24.6479 28.3458 24.6479 24.3682C24.6479 20.3905 21.4292 17.166 17.4587 17.166C13.4882 17.166 10.2695 20.3905 10.2695 24.3682C10.2695 28.3458 13.4882 31.5704 17.4587 31.5704Z" fill="#0083FF"/>
<path d="M17.6033 31.2994C21.5737 31.2994 24.7924 28.0748 24.7924 24.0972C24.7924 20.1195 21.5737 16.895 17.6033 16.895C13.6328 16.895 10.4141 20.1195 10.4141 24.0972C10.4141 28.0748 13.6328 31.2994 17.6033 31.2994Z" fill="#0084FF"/>
<path d="M17.7654 31.0289C21.7358 31.0289 24.9546 27.8043 24.9546 23.8267C24.9546 19.849 21.7358 16.6245 17.7654 16.6245C13.7949 16.6245 10.5762 19.849 10.5762 23.8267C10.5762 27.8043 13.7949 31.0289 17.7654 31.0289Z" fill="#0085FF"/>
<path d="M17.9099 30.7403C21.8804 30.7403 25.0991 27.5158 25.0991 23.5381C25.0991 19.5605 21.8804 16.3359 17.9099 16.3359C13.9394 16.3359 10.7207 19.5605 10.7207 23.5381C10.7207 27.5158 13.9394 30.7403 17.9099 30.7403Z" fill="#0086FF"/>
<path d="M18.072 30.4693C22.0425 30.4693 25.2612 27.2447 25.2612 23.2671C25.2612 19.2895 22.0425 16.0649 18.072 16.0649C14.1015 16.0649 10.8828 19.2895 10.8828 23.2671C10.8828 27.2447 14.1015 30.4693 18.072 30.4693Z" fill="#0087FE"/>
<path d="M18.2341 30.1988C22.2046 30.1988 25.4233 26.9742 25.4233 22.9966C25.4233 19.019 22.2046 15.7944 18.2341 15.7944C14.2636 15.7944 11.0449 19.019 11.0449 22.9966C11.0449 26.9742 14.2636 30.1988 18.2341 30.1988Z" fill="#0088FE"/>
<path d="M18.3786 29.9097C22.3491 29.9097 25.5678 26.6852 25.5678 22.7075C25.5678 18.7299 22.3491 15.5054 18.3786 15.5054C14.4082 15.5054 11.1895 18.7299 11.1895 22.7075C11.1895 26.6852 14.4082 29.9097 18.3786 29.9097Z" fill="#0089FE"/>
<path d="M18.5408 29.6392C22.5112 29.6392 25.7299 26.4147 25.7299 22.437C25.7299 18.4594 22.5112 15.2349 18.5408 15.2349C14.5703 15.2349 11.3516 18.4594 11.3516 22.437C11.3516 26.4147 14.5703 29.6392 18.5408 29.6392Z" fill="#008AFE"/>
<path d="M18.7029 29.3682C22.6733 29.3682 25.892 26.1437 25.892 22.166C25.892 18.1884 22.6733 14.9639 18.7029 14.9639C14.7324 14.9639 11.5137 18.1884 11.5137 22.166C11.5137 26.1437 14.7324 29.3682 18.7029 29.3682Z" fill="#008BFE"/>
<path d="M18.8474 29.0796C22.8179 29.0796 26.0366 25.8551 26.0366 21.8775C26.0366 17.8998 22.8179 14.6753 18.8474 14.6753C14.8769 14.6753 11.6582 17.8998 11.6582 21.8775C11.6582 25.8551 14.8769 29.0796 18.8474 29.0796Z" fill="#008CFE"/>
<path d="M19.0095 28.8086C22.98 28.8086 26.1987 25.5841 26.1987 21.6065C26.1987 17.6288 22.98 14.4043 19.0095 14.4043C15.039 14.4043 11.8203 17.6288 11.8203 21.6065C11.8203 25.5841 15.039 28.8086 19.0095 28.8086Z" fill="#008DFE"/>
<path d="M19.154 28.5376C23.1245 28.5376 26.3432 25.3131 26.3432 21.3355C26.3432 17.3578 23.1245 14.1333 19.154 14.1333C15.1836 14.1333 11.9648 17.3578 11.9648 21.3355C11.9648 25.3131 15.1836 28.5376 19.154 28.5376Z" fill="#008EFE"/>
<path d="M19.3142 28.249C23.2847 28.249 26.5034 25.0245 26.5034 21.0469C26.5034 17.0692 23.2847 13.8447 19.3142 13.8447C15.3437 13.8447 12.125 17.0692 12.125 21.0469C12.125 25.0245 15.3437 28.249 19.3142 28.249Z" fill="#008FFE"/>
<path d="M19.4783 27.9785C23.4487 27.9785 26.6674 24.754 26.6674 20.7764C26.6674 16.7987 23.4487 13.5742 19.4783 13.5742C15.5078 13.5742 12.2891 16.7987 12.2891 20.7764C12.2891 24.754 15.5078 27.9785 19.4783 27.9785Z" fill="#0090FE"/>
<path d="M19.6208 27.6895C23.5913 27.6895 26.81 24.465 26.81 20.4873C26.81 16.5097 23.5913 13.2852 19.6208 13.2852C15.6504 13.2852 12.4316 16.5097 12.4316 20.4873C12.4316 24.465 15.6504 27.6895 19.6208 27.6895Z" fill="#0091FE"/>
<path d="M19.7829 27.4185C23.7534 27.4185 26.9721 24.194 26.9721 20.2163C26.9721 16.2387 23.7534 13.0142 19.7829 13.0142C15.8125 13.0142 12.5938 16.2387 12.5938 20.2163C12.5938 24.194 15.8125 27.4185 19.7829 27.4185Z" fill="#0092FD"/>
<path d="M19.945 27.148C23.9155 27.148 27.1342 23.9235 27.1342 19.9458C27.1342 15.9682 23.9155 12.7437 19.945 12.7437C15.9746 12.7437 12.7559 15.9682 12.7559 19.9458C12.7559 23.9235 15.9746 27.148 19.945 27.148Z" fill="#0093FD"/>
<path d="M20.0896 26.8594C24.0601 26.8594 27.2788 23.6349 27.2788 19.6572C27.2788 15.6796 24.0601 12.4551 20.0896 12.4551C16.1191 12.4551 12.9004 15.6796 12.9004 19.6572C12.9004 23.6349 16.1191 26.8594 20.0896 26.8594Z" fill="#0094FD"/>
<path d="M20.2517 26.5884C24.2222 26.5884 27.4409 23.3639 27.4409 19.3863C27.4409 15.4086 24.2222 12.1841 20.2517 12.1841C16.2812 12.1841 13.0625 15.4086 13.0625 19.3863C13.0625 23.3639 16.2812 26.5884 20.2517 26.5884Z" fill="#0095FD"/>
<path d="M20.3962 26.3174C24.3667 26.3174 27.5854 23.0929 27.5854 19.1153C27.5854 15.1376 24.3667 11.9131 20.3962 11.9131C16.4257 11.9131 13.207 15.1376 13.207 19.1153C13.207 23.0929 16.4257 26.3174 20.3962 26.3174Z" fill="#0096FD"/>
<path d="M20.5583 26.0288C24.5288 26.0288 27.7475 22.8043 27.7475 18.8267C27.7475 14.849 24.5288 11.6245 20.5583 11.6245C16.5879 11.6245 13.3691 14.849 13.3691 18.8267C13.3691 22.8043 16.5879 26.0288 20.5583 26.0288Z" fill="#0097FD"/>
<path d="M20.7204 25.7583C24.6909 25.7583 27.9096 22.5338 27.9096 18.5562C27.9096 14.5785 24.6909 11.354 20.7204 11.354C16.75 11.354 13.5312 14.5785 13.5312 18.5562C13.5312 22.5338 16.75 25.7583 20.7204 25.7583Z" fill="#0098FD"/>
<path d="M20.865 25.4873C24.8355 25.4873 28.0542 22.2628 28.0542 18.2852C28.0542 14.3075 24.8355 11.083 20.865 11.083C16.8945 11.083 13.6758 14.3075 13.6758 18.2852C13.6758 22.2628 16.8945 25.4873 20.865 25.4873Z" fill="#0099FD"/>
<path d="M21.0271 25.1988C24.9976 25.1988 28.2163 21.9743 28.2163 17.9966C28.2163 14.019 24.9976 10.7944 21.0271 10.7944C17.0566 10.7944 13.8379 14.019 13.8379 17.9966C13.8379 21.9743 17.0566 25.1988 21.0271 25.1988Z" fill="#009AFD"/>
<path d="M21.1892 24.9278C25.1597 24.9278 28.3784 21.7033 28.3784 17.7256C28.3784 13.748 25.1597 10.5234 21.1892 10.5234C17.2187 10.5234 14 13.748 14 17.7256C14 21.7033 17.2187 24.9278 21.1892 24.9278Z" fill="#009BFD"/>
<path d="M21.3337 24.6573C25.3042 24.6573 28.5229 21.4327 28.5229 17.4551C28.5229 13.4775 25.3042 10.2529 21.3337 10.2529C17.3632 10.2529 14.1445 13.4775 14.1445 17.4551C14.1445 21.4327 17.3632 24.6573 21.3337 24.6573Z" fill="#009CFC"/>
<path d="M21.4958 24.3682C25.4663 24.3682 28.685 21.1437 28.685 17.166C28.685 13.1884 25.4663 9.96387 21.4958 9.96387C17.5253 9.96387 14.3066 13.1884 14.3066 17.166C14.3066 21.1437 17.5253 24.3682 21.4958 24.3682Z" fill="#009DFC"/>
<path d="M21.6404 24.0977C25.6108 24.0977 28.8295 20.8732 28.8295 16.8955C28.8295 12.9179 25.6108 9.69336 21.6404 9.69336C17.6699 9.69336 14.4512 12.9179 14.4512 16.8955C14.4512 20.8732 17.6699 24.0977 21.6404 24.0977Z" fill="#009EFC"/>
<path d="M21.8025 23.8267C25.7729 23.8267 28.9917 20.6022 28.9917 16.6245C28.9917 12.6469 25.7729 9.42236 21.8025 9.42236C17.832 9.42236 14.6133 12.6469 14.6133 16.6245C14.6133 20.6022 17.832 23.8267 21.8025 23.8267Z" fill="#009FFC"/>
<path d="M21.9646 23.5376C25.9351 23.5376 29.1538 20.3131 29.1538 16.3355C29.1538 12.3578 25.9351 9.1333 21.9646 9.1333C17.9941 9.1333 14.7754 12.3578 14.7754 16.3355C14.7754 20.3131 17.9941 23.5376 21.9646 23.5376Z" fill="#00A0FC"/>
<path d="M22.1072 23.2671C26.0776 23.2671 29.2964 20.0426 29.2964 16.065C29.2964 12.0873 26.0776 8.86279 22.1072 8.86279C18.1367 8.86279 14.918 12.0873 14.918 16.065C14.918 20.0426 18.1367 23.2671 22.1072 23.2671Z" fill="#00A1FC"/>
<path d="M22.2712 22.9961C26.2417 22.9961 29.4604 19.7716 29.4604 15.794C29.4604 11.8163 26.2417 8.5918 22.2712 8.5918C18.3007 8.5918 15.082 11.8163 15.082 15.794C15.082 19.7716 18.3007 22.9961 22.2712 22.9961Z" fill="#00A1FC"/>
<path d="M22.4333 22.7076C26.4038 22.7076 29.6225 19.483 29.6225 15.5054C29.6225 11.5277 26.4038 8.30322 22.4333 8.30322C18.4629 8.30322 15.2441 11.5277 15.2441 15.5054C15.2441 19.483 18.4629 22.7076 22.4333 22.7076Z" fill="#00A2FC"/>
<path d="M22.5759 22.437C26.5464 22.437 29.7651 19.2125 29.7651 15.2349C29.7651 11.2572 26.5464 8.03271 22.5759 8.03271C18.6054 8.03271 15.3867 11.2572 15.3867 15.2349C15.3867 19.2125 18.6054 22.437 22.5759 22.437Z" fill="#00A3FC"/>
<path d="M22.738 22.166C26.7085 22.166 29.9272 18.9415 29.9272 14.9639C29.9272 10.9862 26.7085 7.76172 22.738 7.76172C18.7675 7.76172 15.5488 10.9862 15.5488 14.9639C15.5488 18.9415 18.7675 22.166 22.738 22.166Z" fill="#00A4FC"/>
<path d="M22.8826 21.8775C26.853 21.8775 30.0717 18.653 30.0717 14.6753C30.0717 10.6977 26.853 7.47314 22.8826 7.47314C18.9121 7.47314 15.6934 10.6977 15.6934 14.6753C15.6934 18.653 18.9121 21.8775 22.8826 21.8775Z" fill="#00A5FC"/>
<path d="M23.0447 21.6065C27.0151 21.6065 30.2338 18.382 30.2338 14.4043C30.2338 10.4267 27.0151 7.20215 23.0447 7.20215C19.0742 7.20215 15.8555 10.4267 15.8555 14.4043C15.8555 18.382 19.0742 21.6065 23.0447 21.6065Z" fill="#00A6FB"/>
<path d="M23.2068 21.336C27.1772 21.336 30.396 18.1115 30.396 14.1338C30.396 10.1562 27.1772 6.93164 23.2068 6.93164C19.2363 6.93164 16.0176 10.1562 16.0176 14.1338C16.0176 18.1115 19.2363 21.336 23.2068 21.336Z" fill="#00A7FB"/>
<path d="M23.3513 21.0469C27.3218 21.0469 30.5405 17.8224 30.5405 13.8447C30.5405 9.8671 27.3218 6.64258 23.3513 6.64258C19.3808 6.64258 16.1621 9.8671 16.1621 13.8447C16.1621 17.8224 19.3808 21.0469 23.3513 21.0469Z" fill="#00A8FB"/>
<path d="M23.5134 20.7764C27.4839 20.7764 30.7026 17.5519 30.7026 13.5742C30.7026 9.59659 27.4839 6.37207 23.5134 6.37207C19.5429 6.37207 16.3242 9.59659 16.3242 13.5742C16.3242 17.5519 19.5429 20.7764 23.5134 20.7764Z" fill="#00A9FB"/>
<path d="M23.6755 20.5054C27.646 20.5054 30.8647 17.2809 30.8647 13.3032C30.8647 9.3256 27.646 6.10107 23.6755 6.10107C19.705 6.10107 16.4863 9.3256 16.4863 13.3032C16.4863 17.2809 19.705 20.5054 23.6755 20.5054Z" fill="#00AAFB"/>
<path d="M23.82 20.2168C27.7905 20.2168 31.0092 16.9923 31.0092 13.0147C31.0092 9.03702 27.7905 5.8125 23.82 5.8125C19.8496 5.8125 16.6309 9.03702 16.6309 13.0147C16.6309 16.9923 19.8496 20.2168 23.82 20.2168Z" fill="#00ABFB"/>
<path d="M23.9822 19.9458C27.9526 19.9458 31.1713 16.7213 31.1713 12.7437C31.1713 8.76602 27.9526 5.5415 23.9822 5.5415C20.0117 5.5415 16.793 8.76602 16.793 12.7437C16.793 16.7213 20.0117 19.9458 23.9822 19.9458Z" fill="#00ACFB"/>
<path d="M24.1267 19.6753C28.0972 19.6753 31.3159 16.4508 31.3159 12.4732C31.3159 8.49551 28.0972 5.271 24.1267 5.271C20.1562 5.271 16.9375 8.49551 16.9375 12.4732C16.9375 16.4508 20.1562 19.6753 24.1267 19.6753Z" fill="#00ADFB"/>
<path d="M24.2888 19.3863C28.2593 19.3863 31.478 16.1617 31.478 12.1841C31.478 8.20645 28.2593 4.98193 24.2888 4.98193C20.3183 4.98193 17.0996 8.20645 17.0996 12.1841C17.0996 16.1617 20.3183 19.3863 24.2888 19.3863Z" fill="#00AEFB"/>
<path d="M24.4509 19.1153C28.4214 19.1153 31.6401 15.8907 31.6401 11.9131C31.6401 7.93546 28.4214 4.71094 24.4509 4.71094C20.4804 4.71094 17.2617 7.93546 17.2617 11.9131C17.2617 15.8907 20.4804 19.1153 24.4509 19.1153Z" fill="#00AFFB"/>
<path d="M24.5954 18.8448C28.5659 18.8448 31.7846 15.6202 31.7846 11.6426C31.7846 7.66495 28.5659 4.44043 24.5954 4.44043C20.625 4.44043 17.4062 7.66495 17.4062 11.6426C17.4062 15.6202 20.625 18.8448 24.5954 18.8448Z" fill="#00B0FB"/>
<path d="M24.7575 18.5557C28.728 18.5557 31.9467 15.3312 31.9467 11.3535C31.9467 7.37589 28.728 4.15137 24.7575 4.15137C20.7871 4.15137 17.5684 7.37589 17.5684 11.3535C17.5684 15.3312 20.7871 18.5557 24.7575 18.5557Z" fill="#00B1FA"/>
<path d="M24.9197 18.2852C28.8901 18.2852 32.1088 15.0607 32.1088 11.083C32.1088 7.10538 28.8901 3.88086 24.9197 3.88086C20.9492 3.88086 17.7305 7.10538 17.7305 11.083C17.7305 15.0607 20.9492 18.2852 24.9197 18.2852Z" fill="#00B2FA"/>
<path d="M25.0642 18.0142C29.0347 18.0142 32.2534 14.7897 32.2534 10.812C32.2534 6.83438 29.0347 3.60986 25.0642 3.60986C21.0937 3.60986 17.875 6.83438 17.875 10.812C17.875 14.7897 21.0937 18.0142 25.0642 18.0142Z" fill="#00B3FA"/>
<path d="M25.2263 17.7256C29.1968 17.7256 32.4155 14.5011 32.4155 10.5235C32.4155 6.54581 29.1968 3.32129 25.2263 3.32129C21.2558 3.32129 18.0371 6.54581 18.0371 10.5235C18.0371 14.5011 21.2558 17.7256 25.2263 17.7256Z" fill="#00B4FA"/>
<path d="M25.3689 17.4551C29.3394 17.4551 32.5581 14.2306 32.5581 10.2529C32.5581 6.2753 29.3394 3.05078 25.3689 3.05078C21.3984 3.05078 18.1797 6.2753 18.1797 10.2529C18.1797 14.2306 21.3984 17.4551 25.3689 17.4551Z" fill="#00B5FA"/>
<path d="M25.531 17.1841C29.5015 17.1841 32.7202 13.9596 32.7202 9.98195C32.7202 6.0043 29.5015 2.77979 25.531 2.77979C21.5605 2.77979 18.3418 6.0043 18.3418 9.98195C18.3418 13.9596 21.5605 17.1841 25.531 17.1841Z" fill="#00B6FA"/>
<path d="M25.6931 16.8951C29.6636 16.8951 32.8823 13.6705 32.8823 9.69289C32.8823 5.71525 29.6636 2.49072 25.6931 2.49072C21.7226 2.49072 18.5039 5.71525 18.5039 9.69289C18.5039 13.6705 21.7226 16.8951 25.6931 16.8951Z" fill="#00B7FA"/>
<path d="M25.8376 16.6245C29.8081 16.6245 33.0268 13.4 33.0268 9.42238C33.0268 5.44474 29.8081 2.22021 25.8376 2.22021C21.8671 2.22021 18.6484 5.44474 18.6484 9.42238C18.6484 13.4 21.8671 16.6245 25.8376 16.6245Z" fill="#00B8FA"/>
<path d="M25.9997 16.3535C29.9702 16.3535 33.1889 13.129 33.1889 9.15139C33.1889 5.17374 29.9702 1.94922 25.9997 1.94922C22.0293 1.94922 18.8105 5.17374 18.8105 9.15139C18.8105 13.129 22.0293 16.3535 25.9997 16.3535Z" fill="#00B9FA"/>
<path d="M26.1618 16.065C30.1323 16.065 33.351 12.8405 33.351 8.86281C33.351 4.88516 30.1323 1.66064 26.1618 1.66064C22.1914 1.66064 18.9727 4.88516 18.9727 8.86281C18.9727 12.8405 22.1914 16.065 26.1618 16.065Z" fill="#00BAFA"/>
<path d="M26.3064 15.7945C30.2769 15.7945 33.4956 12.57 33.4956 8.5923C33.4956 4.61466 30.2769 1.39014 26.3064 1.39014C22.3359 1.39014 19.1172 4.61466 19.1172 8.5923C19.1172 12.57 22.3359 15.7945 26.3064 15.7945Z" fill="#00BBF9"/>
<path d="M26.4685 15.5235C30.439 15.5235 33.6577 12.299 33.6577 8.3213C33.6577 4.34366 30.439 1.11914 26.4685 1.11914C22.498 1.11914 19.2793 4.34366 19.2793 8.3213C19.2793 12.299 22.498 15.5235 26.4685 15.5235Z" fill="#00BCF9"/>
<path d="M26.613 15.2344C30.5835 15.2344 33.8022 12.0099 33.8022 8.03224C33.8022 4.0546 30.5835 0.830078 26.613 0.830078C22.6425 0.830078 19.4238 4.0546 19.4238 8.03224C19.4238 12.0099 22.6425 15.2344 26.613 15.2344Z" fill="#00BDF9"/>
<path d="M26.7751 14.9639C30.7456 14.9639 33.9643 11.7394 33.9643 7.76173C33.9643 3.78409 30.7456 0.55957 26.7751 0.55957C22.8046 0.55957 19.5859 3.78409 19.5859 7.76173C19.5859 11.7394 22.8046 14.9639 26.7751 14.9639Z" fill="#00BEF9"/>
<path d="M26.9372 14.6929C30.9077 14.6929 34.1264 11.4684 34.1264 7.49074C34.1264 3.51309 30.9077 0.288574 26.9372 0.288574C22.9668 0.288574 19.748 3.51309 19.748 7.49074C19.748 11.4684 22.9668 14.6929 26.9372 14.6929Z" fill="#00BFF9"/>
<path d="M27.0818 14.4043C31.0523 14.4043 34.271 11.1798 34.271 7.20216C34.271 3.22452 31.0523 0 27.0818 0C23.1113 0 19.8926 3.22452 19.8926 7.20216C19.8926 11.1798 23.1113 14.4043 27.0818 14.4043Z" fill="#00C0F9"/>
<path d="M27.5505 15.2344C31.521 15.2344 34.7397 12.0099 34.7397 8.03224C34.7397 4.0546 31.521 0.830078 27.5505 0.830078C23.58 0.830078 20.3613 4.0546 20.3613 8.03224C20.3613 12.0099 23.58 15.2344 27.5505 15.2344Z" fill="#00C1F9"/>
<path d="M28.0173 16.065C31.9878 16.065 35.2065 12.8405 35.2065 8.86281C35.2065 4.88516 31.9878 1.66064 28.0173 1.66064C24.0468 1.66064 20.8281 4.88516 20.8281 8.86281C20.8281 12.8405 24.0468 16.065 28.0173 16.065Z" fill="#00C2F9"/>
<path d="M28.4685 16.8775C32.439 16.8775 35.6577 13.653 35.6577 9.67531C35.6577 5.69766 32.439 2.47314 28.4685 2.47314C24.498 2.47314 21.2793 5.69766 21.2793 9.67531C21.2793 13.653 24.498 16.8775 28.4685 16.8775Z" fill="#00C3F8"/>
<path d="M28.9372 17.7076C32.9077 17.7076 36.1264 14.483 36.1264 10.5054C36.1264 6.52775 32.9077 3.30322 28.9372 3.30322C24.9668 3.30322 21.748 6.52775 21.748 10.5054C21.748 14.483 24.9668 17.7076 28.9372 17.7076Z" fill="#00C4F8"/>
<path d="M29.404 18.5381C33.3745 18.5381 36.5932 15.3136 36.5932 11.336C36.5932 7.35831 33.3745 4.13379 29.404 4.13379C25.4336 4.13379 22.2148 7.35831 22.2148 11.336C22.2148 15.3136 25.4336 18.5381 29.404 18.5381Z" fill="#00C5F8"/>
<path d="M29.8552 19.3501C33.8257 19.3501 37.0444 16.1256 37.0444 12.148C37.0444 8.17032 33.8257 4.9458 29.8552 4.9458C25.8847 4.9458 22.666 8.17032 22.666 12.148C22.666 16.1256 25.8847 19.3501 29.8552 19.3501Z" fill="#00C6F8"/>
<path d="M30.324 20.1807C34.2944 20.1807 37.5131 16.9562 37.5131 12.9785C37.5131 9.00089 34.2944 5.77637 30.324 5.77637C26.3535 5.77637 23.1348 9.00089 23.1348 12.9785C23.1348 16.9562 26.3535 20.1807 30.324 20.1807Z" fill="#00C7F7"/>
<path d="M30.7927 21.0108C34.7632 21.0108 37.9819 17.7863 37.9819 13.8086C37.9819 9.83096 34.7632 6.60645 30.7927 6.60645C26.8222 6.60645 23.6035 9.83096 23.6035 13.8086C23.6035 17.7863 26.8222 21.0108 30.7927 21.0108Z" fill="#00C8F7"/>
<path d="M31.2439 21.8233C35.2144 21.8233 38.4331 18.5988 38.4331 14.6211C38.4331 10.6435 35.2144 7.41895 31.2439 7.41895C27.2734 7.41895 24.0547 10.6435 24.0547 14.6211C24.0547 18.5988 27.2734 21.8233 31.2439 21.8233Z" fill="#00C9F7"/>
<path d="M31.7126 22.6534C35.6831 22.6534 38.9018 19.4288 38.9018 15.4512C38.9018 11.4735 35.6831 8.24902 31.7126 8.24902C27.7421 8.24902 24.5234 11.4735 24.5234 15.4512C24.5234 19.4288 27.7421 22.6534 31.7126 22.6534Z" fill="#00CAF7"/>
<path d="M32.1794 23.4839C36.1499 23.4839 39.3686 20.2594 39.3686 16.2818C39.3686 12.3041 36.1499 9.07959 32.1794 9.07959C28.2089 9.07959 24.9902 12.3041 24.9902 16.2818C24.9902 20.2594 28.2089 23.4839 32.1794 23.4839Z" fill="#00CBF6"/>
<path d="M32.6306 24.2959C36.6011 24.2959 39.8198 21.0714 39.8198 17.0938C39.8198 13.1161 36.6011 9.8916 32.6306 9.8916C28.6601 9.8916 25.4414 13.1161 25.4414 17.0938C25.4414 21.0714 28.6601 24.2959 32.6306 24.2959Z" fill="#00CCF6"/>
<path d="M33.0993 25.1265C37.0698 25.1265 40.2885 21.902 40.2885 17.9243C40.2885 13.9467 37.0698 10.7222 33.0993 10.7222C29.1289 10.7222 25.9102 13.9467 25.9102 17.9243C25.9102 21.902 29.1289 25.1265 33.0993 25.1265Z" fill="#00CDF6"/>
<path d="M33.5681 25.9385C37.5386 25.9385 40.7573 22.714 40.7573 18.7363C40.7573 14.7587 37.5386 11.5342 33.5681 11.5342C29.5976 11.5342 26.3789 14.7587 26.3789 18.7363C26.3789 22.714 29.5976 25.9385 33.5681 25.9385Z" fill="#00CEF6"/>
<path d="M34.0368 26.7691C38.0073 26.7691 41.226 23.5446 41.226 19.5669C41.226 15.5893 38.0073 12.3647 34.0368 12.3647C30.0664 12.3647 26.8477 15.5893 26.8477 19.5669C26.8477 23.5446 30.0664 26.7691 34.0368 26.7691Z" fill="#00CFF6"/>
<path d="M34.4861 27.5992C38.4565 27.5992 41.6753 24.3746 41.6753 20.397C41.6753 16.4193 38.4565 13.1948 34.4861 13.1948C30.5156 13.1948 27.2969 16.4193 27.2969 20.397C27.2969 24.3746 30.5156 27.5992 34.4861 27.5992Z" fill="#00D0F5"/>
<path d="M34.9548 28.4117C38.9253 28.4117 42.144 25.1871 42.144 21.2095C42.144 17.2318 38.9253 14.0073 34.9548 14.0073C30.9843 14.0073 27.7656 17.2318 27.7656 21.2095C27.7656 25.1871 30.9843 28.4117 34.9548 28.4117Z" fill="#00D1F5"/>
<path d="M35.4236 29.2417C39.394 29.2417 42.6128 26.0172 42.6128 22.0396C42.6128 18.0619 39.394 14.8374 35.4236 14.8374C31.4531 14.8374 28.2344 18.0619 28.2344 22.0396C28.2344 26.0172 31.4531 29.2417 35.4236 29.2417Z" fill="#00D2F5"/>
<path d="M35.8747 30.0723C39.8452 30.0723 43.0639 26.8478 43.0639 22.8701C43.0639 18.8925 39.8452 15.668 35.8747 15.668C31.9043 15.668 28.6855 18.8925 28.6855 22.8701C28.6855 26.8478 31.9043 30.0723 35.8747 30.0723Z" fill="#00D3F5"/>
<path d="M36.3415 30.8843C40.312 30.8843 43.5307 27.6598 43.5307 23.6822C43.5307 19.7045 40.312 16.48 36.3415 16.48C32.3711 16.48 29.1523 19.7045 29.1523 23.6822C29.1523 27.6598 32.3711 30.8843 36.3415 30.8843Z" fill="#00D4F4"/>
<path d="M36.8103 31.7149C40.7808 31.7149 43.9995 28.4903 43.9995 24.5127C43.9995 20.5351 40.7808 17.3105 36.8103 17.3105C32.8398 17.3105 29.6211 20.5351 29.6211 24.5127C29.6211 28.4903 32.8398 31.7149 36.8103 31.7149Z" fill="#00D5F4"/>
<path d="M37.2615 32.545C41.2319 32.545 44.4507 29.3204 44.4507 25.3428C44.4507 21.3652 41.2319 18.1406 37.2615 18.1406C33.291 18.1406 30.0723 21.3652 30.0723 25.3428C30.0723 29.3204 33.291 32.545 37.2615 32.545Z" fill="#01D5F4"/>
<path d="M37.7302 33.3575C41.7007 33.3575 44.9194 30.1329 44.9194 26.1553C44.9194 22.1776 41.7007 18.9531 37.7302 18.9531C33.7597 18.9531 30.541 22.1776 30.541 26.1553C30.541 30.1329 33.7597 33.3575 37.7302 33.3575Z" fill="#01D6F4"/>
<path d="M38.199 34.1875C42.1694 34.1875 45.3881 30.963 45.3881 26.9854C45.3881 23.0077 42.1694 19.7832 38.199 19.7832C34.2285 19.7832 31.0098 23.0077 31.0098 26.9854C31.0098 30.963 34.2285 34.1875 38.199 34.1875Z" fill="#01D7F3"/>
<path d="M38.6482 35.0181C42.6187 35.0181 45.8374 31.7936 45.8374 27.8159C45.8374 23.8383 42.6187 20.6138 38.6482 20.6138C34.6777 20.6138 31.459 23.8383 31.459 27.8159C31.459 31.7936 34.6777 35.0181 38.6482 35.0181Z" fill="#01D8F3"/>
<path d="M39.1169 35.8301C43.0874 35.8301 46.3061 32.6056 46.3061 28.6279C46.3061 24.6503 43.0874 21.4258 39.1169 21.4258C35.1464 21.4258 31.9277 24.6503 31.9277 28.6279C31.9277 32.6056 35.1464 35.8301 39.1169 35.8301Z" fill="#01D9F3"/>
<path d="M39.5857 36.6607C43.5561 36.6607 46.7749 33.4362 46.7749 29.4585C46.7749 25.4809 43.5561 22.2563 39.5857 22.2563C35.6152 22.2563 32.3965 25.4809 32.3965 29.4585C32.3965 33.4362 35.6152 36.6607 39.5857 36.6607Z" fill="#01DAF3"/>
<path d="M40.0368 37.4912C44.0073 37.4912 47.226 34.2667 47.226 30.2891C47.226 26.3114 44.0073 23.0869 40.0368 23.0869C36.0664 23.0869 32.8477 26.3114 32.8477 30.2891C32.8477 34.2667 36.0664 37.4912 40.0368 37.4912Z" fill="#01DBF2"/>
<path d="M40.5036 38.3033C44.4741 38.3033 47.6928 35.0787 47.6928 31.1011C47.6928 27.1234 44.4741 23.8989 40.5036 23.8989C36.5332 23.8989 33.3145 27.1234 33.3145 31.1011C33.3145 35.0787 36.5332 38.3033 40.5036 38.3033Z" fill="#01DCF2"/>
<path d="M40.9724 39.1333C44.9429 39.1333 48.1616 35.9088 48.1616 31.9312C48.1616 27.9535 44.9429 24.729 40.9724 24.729C37.0019 24.729 33.7832 27.9535 33.7832 31.9312C33.7832 35.9088 37.0019 39.1333 40.9724 39.1333Z" fill="#01DDF2"/>
<path d="M41.4236 39.9639C45.394 39.9639 48.6128 36.7394 48.6128 32.7617C48.6128 28.7841 45.394 25.5596 41.4236 25.5596C37.4531 25.5596 34.2344 28.7841 34.2344 32.7617C34.2344 36.7394 37.4531 39.9639 41.4236 39.9639Z" fill="#01DEF2"/>
<path d="M41.8923 40.7759C45.8628 40.7759 49.0815 37.5514 49.0815 33.5738C49.0815 29.5961 45.8628 26.3716 41.8923 26.3716C37.9218 26.3716 34.7031 29.5961 34.7031 33.5738C34.7031 37.5514 37.9218 40.7759 41.8923 40.7759Z" fill="#01DFF2"/>
<path d="M42.3611 41.6065C46.3316 41.6065 49.5503 38.382 49.5503 34.4043C49.5503 30.4267 46.3316 27.2021 42.3611 27.2021C38.3906 27.2021 35.1719 30.4267 35.1719 34.4043C35.1719 38.382 38.3906 41.6065 42.3611 41.6065Z" fill="#01E0F1"/>
<path d="M42.8122 42.419C46.7827 42.419 50.0014 39.1945 50.0014 35.2168C50.0014 31.2392 46.7827 28.0146 42.8122 28.0146C38.8418 28.0146 35.623 31.2392 35.623 35.2168C35.623 39.1945 38.8418 42.419 42.8122 42.419Z" fill="#01E1F1"/>
<path d="M43.279 43.2491C47.2495 43.2491 50.4682 40.0245 50.4682 36.0469C50.4682 32.0693 47.2495 28.8447 43.279 28.8447C39.3086 28.8447 36.0898 32.0693 36.0898 36.0469C36.0898 40.0245 39.3086 43.2491 43.279 43.2491Z" fill="#01E2F1"/>
<path d="M43.7478 44.0796C47.7183 44.0796 50.937 40.8551 50.937 36.8775C50.937 32.8998 47.7183 29.6753 43.7478 29.6753C39.7773 29.6753 36.5586 32.8998 36.5586 36.8775C36.5586 40.8551 39.7773 44.0796 43.7478 44.0796Z" fill="#01E3F1"/>
<path d="M44.199 44.8916C48.1694 44.8916 51.3881 41.6671 51.3881 37.6895C51.3881 33.7118 48.1694 30.4873 44.199 30.4873C40.2285 30.4873 37.0098 33.7118 37.0098 37.6895C37.0098 41.6671 40.2285 44.8916 44.199 44.8916Z" fill="#01E4F0"/>
<path d="M44.6658 45.7222C48.6362 45.7222 51.8549 42.4977 51.8549 38.52C51.8549 34.5424 48.6362 31.3179 44.6658 31.3179C40.6953 31.3179 37.4766 34.5424 37.4766 38.52C37.4766 42.4977 40.6953 45.7222 44.6658 45.7222Z" fill="#01E5F0"/>
<path d="M45.1345 46.5523C49.105 46.5523 52.3237 43.3278 52.3237 39.3501C52.3237 35.3725 49.105 32.1479 45.1345 32.1479C41.164 32.1479 37.9453 35.3725 37.9453 39.3501C37.9453 43.3278 41.164 46.5523 45.1345 46.5523Z" fill="#01E6F0"/>
<path d="M45.5857 47.3648C49.5561 47.3648 52.7749 44.1403 52.7749 40.1626C52.7749 36.185 49.5561 32.9604 45.5857 32.9604C41.6152 32.9604 38.3965 36.185 38.3965 40.1626C38.3965 44.1403 41.6152 47.3648 45.5857 47.3648Z" fill="#01E7F0"/>
<path d="M46.0544 48.1949C50.0249 48.1949 53.2436 44.9703 53.2436 40.9927C53.2436 37.015 50.0249 33.7905 46.0544 33.7905C42.0839 33.7905 38.8652 37.015 38.8652 40.9927C38.8652 44.9703 42.0839 48.1949 46.0544 48.1949Z" fill="#01E8EF"/>
<path d="M46.5212 49.0254C50.4917 49.0254 53.7104 45.8009 53.7104 41.8233C53.7104 37.8456 50.4917 34.6211 46.5212 34.6211C42.5507 34.6211 39.332 37.8456 39.332 41.8233C39.332 45.8009 42.5507 49.0254 46.5212 49.0254Z" fill="#01E9EF"/>
<path d="M46.99 49.8374C50.9605 49.8374 54.1792 46.6129 54.1792 42.6353C54.1792 38.6576 50.9605 35.4331 46.99 35.4331C43.0195 35.4331 39.8008 38.6576 39.8008 42.6353C39.8008 46.6129 43.0195 49.8374 46.99 49.8374Z" fill="#01EAEF"/>
</svg>
