<svg width="349" height="50" viewBox="0 0 349 50" fill="none" xmlns="http://www.w3.org/2000/svg">
<path d="M204.09 37.7599V40.5019H182.611V9.0144H204.054V11.7563H185.773V23.1184H201.398V25.7348H185.773V37.7599H204.108H204.09Z" fill="#B2B6C7"/>
<path d="M211.801 17.4014L218.828 26.4515L219.19 27.1146L219.551 26.4515L226.578 17.4014H229.866L220.906 29.0322L229.866 40.5196H226.578L219.551 31.5232L219.19 30.896L218.828 31.5232L211.801 40.5196H208.514L217.473 29.0322L208.514 17.4014H211.801Z" fill="#B2B6C7"/>
<path d="M245.907 40.9498C243.92 40.9498 242.185 40.448 240.65 39.4624C239.133 38.4767 237.904 37.2222 236.983 35.6989V49.9283H233.912V17.3835H236.676V21.8638C237.651 20.4122 238.88 19.2473 240.415 18.3333C241.951 17.4373 243.613 16.9893 245.419 16.9893C247.045 16.9893 248.526 17.3298 249.881 17.9928C251.236 18.6559 252.41 19.5341 253.403 20.6452C254.397 21.7563 255.174 23.0287 255.716 24.4803C256.257 25.9319 256.565 27.4194 256.565 28.9606C256.565 30.5914 256.312 32.1326 255.806 33.5842C255.3 35.0358 254.559 36.2903 253.62 37.4014C252.681 38.4946 251.543 39.3549 250.242 39.9821C248.905 40.6273 247.46 40.9498 245.907 40.9498ZM245.058 38.2975C246.322 38.2975 247.46 38.0287 248.508 37.509C249.556 36.9893 250.423 36.2724 251.181 35.4122C251.904 34.5341 252.482 33.5484 252.879 32.4552C253.259 31.3441 253.458 30.2151 253.458 29.0143C253.458 27.7778 253.241 26.595 252.789 25.466C252.338 24.3369 251.723 23.3513 250.947 22.509C250.17 21.6488 249.249 20.9678 248.165 20.466C247.099 19.9642 245.961 19.7133 244.714 19.7133C243.92 19.7133 243.107 19.8746 242.258 20.1792C241.391 20.4839 240.596 20.8961 239.873 21.4158C239.151 21.9355 238.5 22.5448 237.977 23.2258C237.453 23.9248 237.109 24.6416 237.001 25.4122V32.509C237.362 33.3333 237.814 34.104 238.374 34.8029C238.934 35.5018 239.566 36.129 240.271 36.6308C240.975 37.1505 241.734 37.5448 242.547 37.8495C243.342 38.1362 244.173 38.2975 245.058 38.2975Z" fill="#B2B6C7"/>
<path d="M261.082 9.0144H264.153V40.5019H261.082V9.0144Z" fill="#B2B6C7"/>
<path d="M280.229 40.9497C278.512 40.9497 276.959 40.6272 275.532 39.9999C274.123 39.3727 272.894 38.5125 271.865 37.4193C270.817 36.3261 270.022 35.0537 269.462 33.6021C268.902 32.1505 268.613 30.6451 268.613 29.0322C268.613 27.4193 268.902 25.8601 269.48 24.4085C270.058 22.9569 270.889 21.7024 271.901 20.5913C272.949 19.4981 274.159 18.6379 275.568 17.9748C276.977 17.3297 278.53 17.0071 280.21 17.0071C281.89 17.0071 283.444 17.3297 284.871 17.9748C286.298 18.62 287.545 19.4981 288.556 20.5913C289.604 21.6845 290.399 22.9569 290.977 24.4085C291.555 25.8601 291.844 27.3834 291.844 29.0322C291.844 30.6272 291.555 32.1684 290.995 33.6021C290.435 35.0537 289.622 36.3082 288.592 37.4193C287.545 38.5125 286.334 39.3727 284.907 39.9999C283.516 40.6272 281.945 40.9497 280.229 40.9497ZM271.72 29.0501C271.72 30.3404 271.937 31.5411 272.389 32.6702C272.84 33.7813 273.454 34.749 274.213 35.5913C274.972 36.4336 275.875 37.0967 276.923 37.5626C277.971 38.0286 279.054 38.2616 280.229 38.2616C281.403 38.2616 282.505 38.0107 283.534 37.5268C284.564 37.0429 285.485 36.3798 286.262 35.5375C287.039 34.6953 287.671 33.7096 288.105 32.5985C288.556 31.4694 288.773 30.2687 288.773 28.9605C288.773 27.6881 288.556 26.4874 288.105 25.3404C287.653 24.2114 287.039 23.2257 286.262 22.3834C285.485 21.5411 284.564 20.8781 283.534 20.3942C282.505 19.9103 281.403 19.6594 280.229 19.6594C279.054 19.6594 277.971 19.9103 276.941 20.3942C275.911 20.8781 275.026 21.5591 274.231 22.4014C273.436 23.2616 272.822 24.2472 272.389 25.3942C271.955 26.5411 271.72 27.7598 271.72 29.0501Z" fill="#B2B6C7"/>
<path d="M307.851 20.0538C305.773 20.1075 303.985 20.681 302.449 21.7383C300.914 22.7957 299.848 24.2652 299.198 26.129V40.5018H296.127V17.3835H299.017V22.9391C299.884 21.1649 301.058 19.767 302.54 18.7634C304.021 17.7599 305.593 17.2581 307.273 17.2581C307.507 17.2581 307.706 17.276 307.851 17.2939V20.0538Z" fill="#B2B6C7"/>
<path d="M332.183 34.4803C331.84 35.5914 330.954 36.81 330.304 37.509C329.654 38.2079 328.877 38.7993 328.01 39.319C327.143 39.8387 326.186 40.233 325.12 40.5197C324.072 40.7885 322.988 40.9319 321.832 40.9319C320.116 40.9319 318.544 40.6093 317.117 39.9821C315.69 39.3549 314.444 38.4767 313.396 37.3656C312.33 36.2545 311.535 34.9821 310.939 33.5305C310.361 32.0789 310.072 30.5377 310.072 28.871C310.072 27.2581 310.361 25.6989 310.939 24.2832C311.517 22.8495 312.348 21.595 313.36 20.5018C314.408 19.4265 315.636 18.5663 317.081 17.9391C318.526 17.3118 320.098 16.9893 321.778 16.9893C323.494 16.9893 325.066 17.3118 326.493 17.9391C327.92 18.5663 329.148 19.4445 330.16 20.5197C331.189 21.6129 331.984 22.8674 332.544 24.3011C333.104 25.7169 333.411 27.2222 333.411 28.8351C333.411 29.0681 333.411 29.3011 333.411 29.5341C333.411 29.767 333.393 29.9283 333.375 30.0179H313.27C313.36 31.2545 313.649 32.4014 314.137 33.4588C314.624 34.4982 315.275 35.4122 316.052 36.1828C316.846 36.9534 317.731 37.5448 318.743 37.9749C319.755 38.405 320.82 38.6201 321.959 38.6201C322.699 38.6201 323.458 38.5126 324.198 38.3154C324.939 38.1183 325.644 37.8316 326.276 37.4731C326.908 37.1147 327.486 36.6846 327.992 36.1649C328.498 35.6452 328.895 35.0896 329.166 34.4624L332.183 34.4803ZM330.467 27.724C330.376 26.4875 330.087 25.3584 329.6 24.319C329.112 23.2975 328.462 22.4194 327.703 21.6846C326.944 20.9498 326.041 20.3763 325.047 19.9642C324.036 19.552 322.97 19.3369 321.832 19.3369C320.676 19.3369 319.61 19.552 318.58 19.9642C317.551 20.3763 316.666 20.9498 315.907 21.6846C315.148 22.4194 314.516 23.3154 314.064 24.3369C313.595 25.3764 313.324 26.4875 313.215 27.724H330.467Z" fill="#B2B6C7"/>
<path d="M348.946 20.0538C346.869 20.1075 345.081 20.681 343.545 21.7383C342.01 22.7957 340.944 24.2652 340.294 26.129V40.5018H337.223V17.3835H340.113V22.9391C340.98 21.1649 342.154 19.767 343.635 18.7634C345.117 17.7599 346.688 17.2581 348.368 17.2581C348.603 17.2581 348.802 17.276 348.946 17.2939V20.0538Z" fill="#B2B6C7"/>
<path d="M83.8536 9.0144H90.5012L102.135 40.5556H94.6018L92.127 33.4947H82.1917L79.7711 40.5556H72.2383L83.8536 9.0144ZM90.8986 28.4768L87.1774 17.3298L83.3658 28.4768H90.8986Z" fill="white"/>
<path d="M106.145 9.0144H113.316V40.5556H106.145V9.0144Z" fill="white"/>
<path d="M129.79 41.0037C127.966 41.0395 126.159 40.699 124.479 40.0539C122.98 39.4625 121.625 38.5843 120.487 37.4553C119.403 36.38 118.554 35.0718 117.994 33.656C117.434 32.2223 117.145 30.6811 117.145 29.1399C117.127 27.5091 117.416 25.8961 117.994 24.3549C118.536 22.8854 119.385 21.5592 120.469 20.4302C121.589 19.2833 122.944 18.3693 124.443 17.76C126.141 17.079 127.966 16.7564 129.808 16.7743C131.633 16.7385 133.457 17.079 135.155 17.76C136.637 18.3693 137.991 19.2653 139.111 20.4123C140.177 21.5234 141.008 22.8137 141.55 24.2474C142.11 25.7169 142.381 27.2582 142.381 28.8173C142.381 29.2295 142.363 29.6238 142.345 30.0359C142.327 30.3944 142.273 30.7349 142.2 31.0754H124.786C124.913 32.6524 125.491 33.8352 126.521 34.6596C127.514 35.466 128.761 35.8962 130.043 35.8782C131.109 35.8782 132.139 35.6094 133.078 35.1255C134.053 34.6238 134.704 33.9427 135.029 33.0825L141.984 33.0646C141.369 36.0395 138.768 38.1005 136.817 39.2474C134.83 40.4302 132.5 41.0037 129.79 41.0037ZM134.758 26.7026C134.613 25.2152 134.071 24.0503 133.15 23.19C132.211 22.3298 130.964 21.8639 129.7 21.8997C128.291 21.8997 127.135 22.3299 126.232 23.208C125.328 24.0861 124.786 25.251 124.642 26.7026H134.758Z" fill="white"/>
<path d="M159.073 41.0035C157.23 41.0394 155.406 40.6989 153.708 40.0179C152.209 39.4085 150.854 38.5125 149.734 37.3655C148.65 36.2544 147.819 34.9462 147.295 33.4946C146.193 30.5196 146.193 27.258 147.295 24.301C147.837 22.8673 148.668 21.5412 149.734 20.4301C150.854 19.2831 152.209 18.3691 153.708 17.7598C155.406 17.0609 157.23 16.7204 159.073 16.7562C160.898 16.7204 162.722 17.0609 164.42 17.7598C165.901 18.3691 167.238 19.2831 168.376 20.4301C169.46 21.5412 170.291 22.8494 170.851 24.301C171.429 25.7706 171.718 27.3297 171.7 28.9067C171.7 30.4838 171.429 32.043 170.869 33.5125C170.327 34.9462 169.496 36.2724 168.43 37.3835C167.31 38.5304 165.955 39.4265 164.456 40.0358C162.74 40.6989 160.916 41.0394 159.073 41.0035ZM153.816 28.9247C153.816 30.7705 154.304 32.2401 155.298 33.3512C156.02 34.1397 156.96 34.6953 158.007 34.9103C159.055 35.1254 160.157 35.0179 161.132 34.5698C161.765 34.2652 162.325 33.853 162.776 33.3333C163.264 32.7598 163.643 32.1146 163.878 31.3978C164.149 30.6093 164.294 29.767 164.294 28.9247C164.294 27.0967 163.806 25.6093 162.812 24.4982C162.361 23.9605 161.783 23.5304 161.132 23.2437C160.482 22.9569 159.778 22.8136 159.073 22.8315C158.369 22.8315 157.664 22.9748 157.014 23.2616C156.363 23.5483 155.785 23.9784 155.334 24.5161C154.846 25.0895 154.467 25.7347 154.232 26.4516C153.961 27.2401 153.816 28.0824 153.816 28.9247Z" fill="white"/>
<path d="M7.20761 49.4803C11.1883 49.4803 14.4152 46.2789 14.4152 42.3297C14.4152 38.3806 11.1883 35.1792 7.20761 35.1792C3.22696 35.1792 0 38.3806 0 42.3297C0 46.2789 3.22696 49.4803 7.20761 49.4803Z" fill="#6950FF"/>
<path d="M7.20761 49.4803C11.1883 49.4803 14.4152 46.2789 14.4152 42.3297C14.4152 38.3806 11.1883 35.1792 7.20761 35.1792C3.22696 35.1792 0 38.3806 0 42.3297C0 46.2789 3.22696 49.4803 7.20761 49.4803Z" fill="#6850FF"/>
<path d="M7.20761 49.4803C11.1883 49.4803 14.4152 46.2789 14.4152 42.3297C14.4152 38.3806 11.1883 35.1792 7.20761 35.1792C3.22696 35.1792 0 38.3806 0 42.3297C0 46.2789 3.22696 49.4803 7.20761 49.4803Z" fill="#6750FF"/>
<path d="M7.20761 49.4803C11.1883 49.4803 14.4152 46.2789 14.4152 42.3297C14.4152 38.3806 11.1883 35.1792 7.20761 35.1792C3.22696 35.1792 0 38.3806 0 42.3297C0 46.2789 3.22696 49.4803 7.20761 49.4803Z" fill="#6650FF"/>
<path d="M7.20761 49.4803C11.1883 49.4803 14.4152 46.2789 14.4152 42.3297C14.4152 38.3806 11.1883 35.1792 7.20761 35.1792C3.22696 35.1792 0 38.3806 0 42.3297C0 46.2789 3.22696 49.4803 7.20761 49.4803Z" fill="#6550FF"/>
<path d="M7.20761 49.4803C11.1883 49.4803 14.4152 46.2789 14.4152 42.3297C14.4152 38.3806 11.1883 35.1792 7.20761 35.1792C3.22696 35.1792 0 38.3806 0 42.3297C0 46.2789 3.22696 49.4803 7.20761 49.4803Z" fill="#6450FF"/>
<path d="M7.20761 49.4803C11.1883 49.4803 14.4152 46.2789 14.4152 42.3297C14.4152 38.3806 11.1883 35.1792 7.20761 35.1792C3.22696 35.1792 0 38.3806 0 42.3297C0 46.2789 3.22696 49.4803 7.20761 49.4803Z" fill="#6350FF"/>
<path d="M7.20761 49.4803C11.1883 49.4803 14.4152 46.2789 14.4152 42.3297C14.4152 38.3806 11.1883 35.1792 7.20761 35.1792C3.22696 35.1792 0 38.3806 0 42.3297C0 46.2789 3.22696 49.4803 7.20761 49.4803Z" fill="#6250FF"/>
<path d="M7.20761 49.4803C11.1883 49.4803 14.4152 46.2789 14.4152 42.3297C14.4152 38.3806 11.1883 35.1792 7.20761 35.1792C3.22696 35.1792 0 38.3806 0 42.3297C0 46.2789 3.22696 49.4803 7.20761 49.4803Z" fill="#6150FE"/>
<path d="M7.20761 49.4803C11.1883 49.4803 14.4152 46.2789 14.4152 42.3297C14.4152 38.3806 11.1883 35.1792 7.20761 35.1792C3.22696 35.1792 0 38.3806 0 42.3297C0 46.2789 3.22696 49.4803 7.20761 49.4803Z" fill="#604FFE"/>
<path d="M7.20761 49.4803C11.1883 49.4803 14.4152 46.2789 14.4152 42.3297C14.4152 38.3806 11.1883 35.1792 7.20761 35.1792C3.22696 35.1792 0 38.3806 0 42.3297C0 46.2789 3.22696 49.4803 7.20761 49.4803Z" fill="#5F4FFE"/>
<path d="M7.20761 49.4803C11.1883 49.4803 14.4152 46.2789 14.4152 42.3297C14.4152 38.3806 11.1883 35.1792 7.20761 35.1792C3.22696 35.1792 0 38.3806 0 42.3297C0 46.2789 3.22696 49.4803 7.20761 49.4803Z" fill="#5E4FFE"/>
<path d="M7.20761 49.4803C11.1883 49.4803 14.4152 46.2789 14.4152 42.3297C14.4152 38.3806 11.1883 35.1792 7.20761 35.1792C3.22696 35.1792 0 38.3806 0 42.3297C0 46.2789 3.22696 49.4803 7.20761 49.4803Z" fill="#5D4FFE"/>
<path d="M7.20761 49.4803C11.1883 49.4803 14.4152 46.2789 14.4152 42.3297C14.4152 38.3806 11.1883 35.1792 7.20761 35.1792C3.22696 35.1792 0 38.3806 0 42.3297C0 46.2789 3.22696 49.4803 7.20761 49.4803Z" fill="#5C4FFE"/>
<path d="M7.20761 49.4803C11.1883 49.4803 14.4152 46.2789 14.4152 42.3297C14.4152 38.3806 11.1883 35.1792 7.20761 35.1792C3.22696 35.1792 0 38.3806 0 42.3297C0 46.2789 3.22696 49.4803 7.20761 49.4803Z" fill="#5B4FFE"/>
<path d="M7.20761 49.4803C11.1883 49.4803 14.4152 46.2789 14.4152 42.3297C14.4152 38.3806 11.1883 35.1792 7.20761 35.1792C3.22696 35.1792 0 38.3806 0 42.3297C0 46.2789 3.22696 49.4803 7.20761 49.4803Z" fill="#5A4FFE"/>
<path d="M7.20761 49.4803C11.1883 49.4803 14.4152 46.2789 14.4152 42.3297C14.4152 38.3806 11.1883 35.1792 7.20761 35.1792C3.22696 35.1792 0 38.3806 0 42.3297C0 46.2789 3.22696 49.4803 7.20761 49.4803Z" fill="#594FFE"/>
<path d="M7.20761 49.4803C11.1883 49.4803 14.4152 46.2789 14.4152 42.3297C14.4152 38.3806 11.1883 35.1792 7.20761 35.1792C3.22696 35.1792 0 38.3806 0 42.3297C0 46.2789 3.22696 49.4803 7.20761 49.4803Z" fill="#584FFE"/>
<path d="M7.20761 49.4803C11.1883 49.4803 14.4152 46.2789 14.4152 42.3297C14.4152 38.3806 11.1883 35.1792 7.20761 35.1792C3.22696 35.1792 0 38.3806 0 42.3297C0 46.2789 3.22696 49.4803 7.20761 49.4803Z" fill="#574FFE"/>
<path d="M7.20761 49.4803C11.1883 49.4803 14.4152 46.2789 14.4152 42.3297C14.4152 38.3806 11.1883 35.1792 7.20761 35.1792C3.22696 35.1792 0 38.3806 0 42.3297C0 46.2789 3.22696 49.4803 7.20761 49.4803Z" fill="#564FFE"/>
<path d="M7.20761 49.4803C11.1883 49.4803 14.4152 46.2789 14.4152 42.3297C14.4152 38.3806 11.1883 35.1792 7.20761 35.1792C3.22696 35.1792 0 38.3806 0 42.3297C0 46.2789 3.22696 49.4803 7.20761 49.4803Z" fill="#554FFE"/>
<path d="M7.20761 49.4803C11.1883 49.4803 14.4152 46.2789 14.4152 42.3297C14.4152 38.3806 11.1883 35.1792 7.20761 35.1792C3.22696 35.1792 0 38.3806 0 42.3297C0 46.2789 3.22696 49.4803 7.20761 49.4803Z" fill="#544FFE"/>
<path d="M7.20761 49.4803C11.1883 49.4803 14.4152 46.2789 14.4152 42.3297C14.4152 38.3806 11.1883 35.1792 7.20761 35.1792C3.22696 35.1792 0 38.3806 0 42.3297C0 46.2789 3.22696 49.4803 7.20761 49.4803Z" fill="#534FFD"/>
<path d="M7.20761 49.4803C11.1883 49.4803 14.4152 46.2789 14.4152 42.3297C14.4152 38.3806 11.1883 35.1792 7.20761 35.1792C3.22696 35.1792 0 38.3806 0 42.3297C0 46.2789 3.22696 49.4803 7.20761 49.4803Z" fill="#524FFD"/>
<path d="M7.20761 49.4803C11.1883 49.4803 14.4152 46.2789 14.4152 42.3297C14.4152 38.3806 11.1883 35.1792 7.20761 35.1792C3.22696 35.1792 0 38.3806 0 42.3297C0 46.2789 3.22696 49.4803 7.20761 49.4803Z" fill="#514FFD"/>
<path d="M7.20761 49.4803C11.1883 49.4803 14.4152 46.2789 14.4152 42.3297C14.4152 38.3806 11.1883 35.1792 7.20761 35.1792C3.22696 35.1792 0 38.3806 0 42.3297C0 46.2789 3.22696 49.4803 7.20761 49.4803Z" fill="#504FFD"/>
<path d="M7.20761 49.4803C11.1883 49.4803 14.4152 46.2789 14.4152 42.3297C14.4152 38.3806 11.1883 35.1792 7.20761 35.1792C3.22696 35.1792 0 38.3806 0 42.3297C0 46.2789 3.22696 49.4803 7.20761 49.4803Z" fill="#4F4EFD"/>
<path d="M7.20761 49.4803C11.1883 49.4803 14.4152 46.2789 14.4152 42.3297C14.4152 38.3806 11.1883 35.1792 7.20761 35.1792C3.22696 35.1792 0 38.3806 0 42.3297C0 46.2789 3.22696 49.4803 7.20761 49.4803Z" fill="#4E4EFD"/>
<path d="M7.20761 49.4803C11.1883 49.4803 14.4152 46.2789 14.4152 42.3297C14.4152 38.3806 11.1883 35.1792 7.20761 35.1792C3.22696 35.1792 0 38.3806 0 42.3297C0 46.2789 3.22696 49.4803 7.20761 49.4803Z" fill="#4D4EFD"/>
<path d="M7.20761 49.4803C11.1883 49.4803 14.4152 46.2789 14.4152 42.3297C14.4152 38.3806 11.1883 35.1792 7.20761 35.1792C3.22696 35.1792 0 38.3806 0 42.3297C0 46.2789 3.22696 49.4803 7.20761 49.4803Z" fill="#4C4EFD"/>
<path d="M7.20761 49.4803C11.1883 49.4803 14.4152 46.2789 14.4152 42.3297C14.4152 38.3806 11.1883 35.1792 7.20761 35.1792C3.22696 35.1792 0 38.3806 0 42.3297C0 46.2789 3.22696 49.4803 7.20761 49.4803Z" fill="#4B4EFD"/>
<path d="M7.20761 49.4803C11.1883 49.4803 14.4152 46.2789 14.4152 42.3297C14.4152 38.3806 11.1883 35.1792 7.20761 35.1792C3.22696 35.1792 0 38.3806 0 42.3297C0 46.2789 3.22696 49.4803 7.20761 49.4803Z" fill="#4A4EFD"/>
<path d="M7.20761 49.4803C11.1883 49.4803 14.4152 46.2789 14.4152 42.3297C14.4152 38.3806 11.1883 35.1792 7.20761 35.1792C3.22696 35.1792 0 38.3806 0 42.3297C0 46.2789 3.22696 49.4803 7.20761 49.4803Z" fill="#494EFD"/>
<path d="M7.20761 49.4803C11.1883 49.4803 14.4152 46.2789 14.4152 42.3297C14.4152 38.3806 11.1883 35.1792 7.20761 35.1792C3.22696 35.1792 0 38.3806 0 42.3297C0 46.2789 3.22696 49.4803 7.20761 49.4803Z" fill="#484EFD"/>
<path d="M7.20761 49.4803C11.1883 49.4803 14.4152 46.2789 14.4152 42.3297C14.4152 38.3806 11.1883 35.1792 7.20761 35.1792C3.22696 35.1792 0 38.3806 0 42.3297C0 46.2789 3.22696 49.4803 7.20761 49.4803Z" fill="#474EFD"/>
<path d="M7.20761 49.4803C11.1883 49.4803 14.4152 46.2789 14.4152 42.3297C14.4152 38.3806 11.1883 35.1792 7.20761 35.1792C3.22696 35.1792 0 38.3806 0 42.3297C0 46.2789 3.22696 49.4803 7.20761 49.4803Z" fill="#464EFD"/>
<path d="M7.20761 49.4803C11.1883 49.4803 14.4152 46.2789 14.4152 42.3297C14.4152 38.3806 11.1883 35.1792 7.20761 35.1792C3.22696 35.1792 0 38.3806 0 42.3297C0 46.2789 3.22696 49.4803 7.20761 49.4803Z" fill="#454EFC"/>
<path d="M7.20761 49.4803C11.1883 49.4803 14.4152 46.2789 14.4152 42.3297C14.4152 38.3806 11.1883 35.1792 7.20761 35.1792C3.22696 35.1792 0 38.3806 0 42.3297C0 46.2789 3.22696 49.4803 7.20761 49.4803Z" fill="#444EFC"/>
<path d="M7.20761 49.4803C11.1883 49.4803 14.4152 46.2789 14.4152 42.3297C14.4152 38.3806 11.1883 35.1792 7.20761 35.1792C3.22696 35.1792 0 38.3806 0 42.3297C0 46.2789 3.22696 49.4803 7.20761 49.4803Z" fill="#434EFC"/>
<path d="M7.20761 49.4803C11.1883 49.4803 14.4152 46.2789 14.4152 42.3297C14.4152 38.3806 11.1883 35.1792 7.20761 35.1792C3.22696 35.1792 0 38.3806 0 42.3297C0 46.2789 3.22696 49.4803 7.20761 49.4803Z" fill="#424EFC"/>
<path d="M7.20761 49.4803C11.1883 49.4803 14.4152 46.2789 14.4152 42.3297C14.4152 38.3806 11.1883 35.1792 7.20761 35.1792C3.22696 35.1792 0 38.3806 0 42.3297C0 46.2789 3.22696 49.4803 7.20761 49.4803Z" fill="#414EFC"/>
<path d="M7.20761 49.4803C11.1883 49.4803 14.4152 46.2789 14.4152 42.3297C14.4152 38.3806 11.1883 35.1792 7.20761 35.1792C3.22696 35.1792 0 38.3806 0 42.3297C0 46.2789 3.22696 49.4803 7.20761 49.4803Z" fill="#404EFC"/>
<path d="M7.20761 49.4803C11.1883 49.4803 14.4152 46.2789 14.4152 42.3297C14.4152 38.3806 11.1883 35.1792 7.20761 35.1792C3.22696 35.1792 0 38.3806 0 42.3297C0 46.2789 3.22696 49.4803 7.20761 49.4803Z" fill="#3F4EFC"/>
<path d="M7.20761 49.4803C11.1883 49.4803 14.4152 46.2789 14.4152 42.3297C14.4152 38.3806 11.1883 35.1792 7.20761 35.1792C3.22696 35.1792 0 38.3806 0 42.3297C0 46.2789 3.22696 49.4803 7.20761 49.4803Z" fill="#3F4DFC"/>
<path d="M7.20761 49.4803C11.1883 49.4803 14.4152 46.2789 14.4152 42.3297C14.4152 38.3806 11.1883 35.1792 7.20761 35.1792C3.22696 35.1792 0 38.3806 0 42.3297C0 46.2789 3.22696 49.4803 7.20761 49.4803Z" fill="#3E4DFC"/>
<path d="M7.20761 49.4803C11.1883 49.4803 14.4152 46.2789 14.4152 42.3297C14.4152 38.3806 11.1883 35.1792 7.20761 35.1792C3.22696 35.1792 0 38.3806 0 42.3297C0 46.2789 3.22696 49.4803 7.20761 49.4803Z" fill="#3D4DFC"/>
<path d="M7.20761 49.4803C11.1883 49.4803 14.4152 46.2789 14.4152 42.3297C14.4152 38.3806 11.1883 35.1792 7.20761 35.1792C3.22696 35.1792 0 38.3806 0 42.3297C0 46.2789 3.22696 49.4803 7.20761 49.4803Z" fill="#3C4DFC"/>
<path d="M7.20761 49.4803C11.1883 49.4803 14.4152 46.2789 14.4152 42.3297C14.4152 38.3806 11.1883 35.1792 7.20761 35.1792C3.22696 35.1792 0 38.3806 0 42.3297C0 46.2789 3.22696 49.4803 7.20761 49.4803Z" fill="#3B4DFC"/>
<path d="M7.20761 49.4803C11.1883 49.4803 14.4152 46.2789 14.4152 42.3297C14.4152 38.3806 11.1883 35.1792 7.20761 35.1792C3.22696 35.1792 0 38.3806 0 42.3297C0 46.2789 3.22696 49.4803 7.20761 49.4803Z" fill="#3A4DFC"/>
<path d="M7.20761 49.4803C11.1883 49.4803 14.4152 46.2789 14.4152 42.3297C14.4152 38.3806 11.1883 35.1792 7.20761 35.1792C3.22696 35.1792 0 38.3806 0 42.3297C0 46.2789 3.22696 49.4803 7.20761 49.4803Z" fill="#394DFC"/>
<path d="M7.20761 49.4803C11.1883 49.4803 14.4152 46.2789 14.4152 42.3297C14.4152 38.3806 11.1883 35.1792 7.20761 35.1792C3.22696 35.1792 0 38.3806 0 42.3297C0 46.2789 3.22696 49.4803 7.20761 49.4803Z" fill="#384DFB"/>
<path d="M7.20761 49.4803C11.1883 49.4803 14.4152 46.2789 14.4152 42.3297C14.4152 38.3806 11.1883 35.1792 7.20761 35.1792C3.22696 35.1792 0 38.3806 0 42.3297C0 46.2789 3.22696 49.4803 7.20761 49.4803Z" fill="#374DFB"/>
<path d="M7.20761 49.4803C11.1883 49.4803 14.4152 46.2789 14.4152 42.3297C14.4152 38.3806 11.1883 35.1792 7.20761 35.1792C3.22696 35.1792 0 38.3806 0 42.3297C0 46.2789 3.22696 49.4803 7.20761 49.4803Z" fill="#364DFB"/>
<path d="M7.20761 49.4803C11.1883 49.4803 14.4152 46.2789 14.4152 42.3297C14.4152 38.3806 11.1883 35.1792 7.20761 35.1792C3.22696 35.1792 0 38.3806 0 42.3297C0 46.2789 3.22696 49.4803 7.20761 49.4803Z" fill="#354DFB"/>
<path d="M7.20761 49.4803C11.1883 49.4803 14.4152 46.2789 14.4152 42.3297C14.4152 38.3806 11.1883 35.1792 7.20761 35.1792C3.22696 35.1792 0 38.3806 0 42.3297C0 46.2789 3.22696 49.4803 7.20761 49.4803Z" fill="#344DFB"/>
<path d="M7.20761 49.4803C11.1883 49.4803 14.4152 46.2789 14.4152 42.3297C14.4152 38.3806 11.1883 35.1792 7.20761 35.1792C3.22696 35.1792 0 38.3806 0 42.3297C0 46.2789 3.22696 49.4803 7.20761 49.4803Z" fill="#334DFB"/>
<path d="M7.20761 49.4803C11.1883 49.4803 14.4152 46.2789 14.4152 42.3297C14.4152 38.3806 11.1883 35.1792 7.20761 35.1792C3.22696 35.1792 0 38.3806 0 42.3297C0 46.2789 3.22696 49.4803 7.20761 49.4803Z" fill="#324DFB"/>
<path d="M7.20761 49.4803C11.1883 49.4803 14.4152 46.2789 14.4152 42.3297C14.4152 38.3806 11.1883 35.1792 7.20761 35.1792C3.22696 35.1792 0 38.3806 0 42.3297C0 46.2789 3.22696 49.4803 7.20761 49.4803Z" fill="#314DFB"/>
<path d="M7.20761 49.4803C11.1883 49.4803 14.4152 46.2789 14.4152 42.3297C14.4152 38.3806 11.1883 35.1792 7.20761 35.1792C3.22696 35.1792 0 38.3806 0 42.3297C0 46.2789 3.22696 49.4803 7.20761 49.4803Z" fill="#304DFB"/>
<path d="M7.20761 49.4803C11.1883 49.4803 14.4152 46.2789 14.4152 42.3297C14.4152 38.3806 11.1883 35.1792 7.20761 35.1792C3.22696 35.1792 0 38.3806 0 42.3297C0 46.2789 3.22696 49.4803 7.20761 49.4803Z" fill="#2F4DFB"/>
<path d="M7.20761 49.4803C11.1883 49.4803 14.4152 46.2789 14.4152 42.3297C14.4152 38.3806 11.1883 35.1792 7.20761 35.1792C3.22696 35.1792 0 38.3806 0 42.3297C0 46.2789 3.22696 49.4803 7.20761 49.4803Z" fill="#2E4CFB"/>
<path d="M7.20761 49.4803C11.1883 49.4803 14.4152 46.2789 14.4152 42.3297C14.4152 38.3806 11.1883 35.1792 7.20761 35.1792C3.22696 35.1792 0 38.3806 0 42.3297C0 46.2789 3.22696 49.4803 7.20761 49.4803Z" fill="#2D4CFB"/>
<path d="M7.20761 49.4803C11.1883 49.4803 14.4152 46.2789 14.4152 42.3297C14.4152 38.3806 11.1883 35.1792 7.20761 35.1792C3.22696 35.1792 0 38.3806 0 42.3297C0 46.2789 3.22696 49.4803 7.20761 49.4803Z" fill="#2C4CFB"/>
<path d="M7.20761 49.4803C11.1883 49.4803 14.4152 46.2789 14.4152 42.3297C14.4152 38.3806 11.1883 35.1792 7.20761 35.1792C3.22696 35.1792 0 38.3806 0 42.3297C0 46.2789 3.22696 49.4803 7.20761 49.4803Z" fill="#2B4CFB"/>
<path d="M7.20761 49.4803C11.1883 49.4803 14.4152 46.2789 14.4152 42.3297C14.4152 38.3806 11.1883 35.1792 7.20761 35.1792C3.22696 35.1792 0 38.3806 0 42.3297C0 46.2789 3.22696 49.4803 7.20761 49.4803Z" fill="#2A4CFA"/>
<path d="M7.20761 49.4803C11.1883 49.4803 14.4152 46.2789 14.4152 42.3297C14.4152 38.3806 11.1883 35.1792 7.20761 35.1792C3.22696 35.1792 0 38.3806 0 42.3297C0 46.2789 3.22696 49.4803 7.20761 49.4803Z" fill="#294CFA"/>
<path d="M7.20761 49.4803C11.1883 49.4803 14.4152 46.2789 14.4152 42.3297C14.4152 38.3806 11.1883 35.1792 7.20761 35.1792C3.22696 35.1792 0 38.3806 0 42.3297C0 46.2789 3.22696 49.4803 7.20761 49.4803Z" fill="#284CFA"/>
<path d="M7.20761 49.4803C11.1883 49.4803 14.4152 46.2789 14.4152 42.3297C14.4152 38.3806 11.1883 35.1792 7.20761 35.1792C3.22696 35.1792 0 38.3806 0 42.3297C0 46.2789 3.22696 49.4803 7.20761 49.4803Z" fill="#274CFA"/>
<path d="M7.20761 49.4803C11.1883 49.4803 14.4152 46.2789 14.4152 42.3297C14.4152 38.3806 11.1883 35.1792 7.20761 35.1792C3.22696 35.1792 0 38.3806 0 42.3297C0 46.2789 3.22696 49.4803 7.20761 49.4803Z" fill="#264CFA"/>
<path d="M7.20761 49.4803C11.1883 49.4803 14.4152 46.2789 14.4152 42.3297C14.4152 38.3806 11.1883 35.1792 7.20761 35.1792C3.22696 35.1792 0 38.3806 0 42.3297C0 46.2789 3.22696 49.4803 7.20761 49.4803Z" fill="#254CFA"/>
<path d="M7.20761 49.4803C11.1883 49.4803 14.4152 46.2789 14.4152 42.3297C14.4152 38.3806 11.1883 35.1792 7.20761 35.1792C3.22696 35.1792 0 38.3806 0 42.3297C0 46.2789 3.22696 49.4803 7.20761 49.4803Z" fill="#244CFA"/>
<path d="M7.20761 49.4803C11.1883 49.4803 14.4152 46.2789 14.4152 42.3297C14.4152 38.3806 11.1883 35.1792 7.20761 35.1792C3.22696 35.1792 0 38.3806 0 42.3297C0 46.2789 3.22696 49.4803 7.20761 49.4803Z" fill="#234CFA"/>
<path d="M7.20761 49.4803C11.1883 49.4803 14.4152 46.2789 14.4152 42.3297C14.4152 38.3806 11.1883 35.1792 7.20761 35.1792C3.22696 35.1792 0 38.3806 0 42.3297C0 46.2789 3.22696 49.4803 7.20761 49.4803Z" fill="#224CFA"/>
<path d="M7.20761 49.4803C11.1883 49.4803 14.4152 46.2789 14.4152 42.3297C14.4152 38.3806 11.1883 35.1792 7.20761 35.1792C3.22696 35.1792 0 38.3806 0 42.3297C0 46.2789 3.22696 49.4803 7.20761 49.4803Z" fill="#214CFA"/>
<path d="M7.20761 49.4803C11.1883 49.4803 14.4152 46.2789 14.4152 42.3297C14.4152 38.3806 11.1883 35.1792 7.20761 35.1792C3.22696 35.1792 0 38.3806 0 42.3297C0 46.2789 3.22696 49.4803 7.20761 49.4803Z" fill="#204CFA"/>
<path d="M7.20761 49.4803C11.1883 49.4803 14.4152 46.2789 14.4152 42.3297C14.4152 38.3806 11.1883 35.1792 7.20761 35.1792C3.22696 35.1792 0 38.3806 0 42.3297C0 46.2789 3.22696 49.4803 7.20761 49.4803Z" fill="#1F4CFA"/>
<path d="M7.20761 49.4803C11.1883 49.4803 14.4152 46.2789 14.4152 42.3297C14.4152 38.3806 11.1883 35.1792 7.20761 35.1792C3.22696 35.1792 0 38.3806 0 42.3297C0 46.2789 3.22696 49.4803 7.20761 49.4803Z" fill="#1E4CFA"/>
<path d="M7.20761 49.4803C11.1883 49.4803 14.4152 46.2789 14.4152 42.3297C14.4152 38.3806 11.1883 35.1792 7.20761 35.1792C3.22696 35.1792 0 38.3806 0 42.3297C0 46.2789 3.22696 49.4803 7.20761 49.4803Z" fill="#1D4BFA"/>
<path d="M7.20761 49.4803C11.1883 49.4803 14.4152 46.2789 14.4152 42.3297C14.4152 38.3806 11.1883 35.1792 7.20761 35.1792C3.22696 35.1792 0 38.3806 0 42.3297C0 46.2789 3.22696 49.4803 7.20761 49.4803Z" fill="#1C4BF9"/>
<path d="M7.20761 49.4803C11.1883 49.4803 14.4152 46.2789 14.4152 42.3297C14.4152 38.3806 11.1883 35.1792 7.20761 35.1792C3.22696 35.1792 0 38.3806 0 42.3297C0 46.2789 3.22696 49.4803 7.20761 49.4803Z" fill="#1B4BF9"/>
<path d="M7.20761 49.4803C11.1883 49.4803 14.4152 46.2789 14.4152 42.3297C14.4152 38.3806 11.1883 35.1792 7.20761 35.1792C3.22696 35.1792 0 38.3806 0 42.3297C0 46.2789 3.22696 49.4803 7.20761 49.4803Z" fill="#1A4BF9"/>
<path d="M7.20761 49.4803C11.1883 49.4803 14.4152 46.2789 14.4152 42.3297C14.4152 38.3806 11.1883 35.1792 7.20761 35.1792C3.22696 35.1792 0 38.3806 0 42.3297C0 46.2789 3.22696 49.4803 7.20761 49.4803Z" fill="#194BF9"/>
<path d="M7.20761 49.4803C11.1883 49.4803 14.4152 46.2789 14.4152 42.3297C14.4152 38.3806 11.1883 35.1792 7.20761 35.1792C3.22696 35.1792 0 38.3806 0 42.3297C0 46.2789 3.22696 49.4803 7.20761 49.4803Z" fill="#184BF9"/>
<path d="M7.20761 49.4803C11.1883 49.4803 14.4152 46.2789 14.4152 42.3297C14.4152 38.3806 11.1883 35.1792 7.20761 35.1792C3.22696 35.1792 0 38.3806 0 42.3297C0 46.2789 3.22696 49.4803 7.20761 49.4803Z" fill="#174BF9"/>
<path d="M7.20761 49.4803C11.1883 49.4803 14.4152 46.2789 14.4152 42.3297C14.4152 38.3806 11.1883 35.1792 7.20761 35.1792C3.22696 35.1792 0 38.3806 0 42.3297C0 46.2789 3.22696 49.4803 7.20761 49.4803Z" fill="#164BF9"/>
<path d="M7.20761 49.4803C11.1883 49.4803 14.4152 46.2789 14.4152 42.3297C14.4152 38.3806 11.1883 35.1792 7.20761 35.1792C3.22696 35.1792 0 38.3806 0 42.3297C0 46.2789 3.22696 49.4803 7.20761 49.4803Z" fill="#154BF9"/>
<path d="M7.38925 49.1577C11.3699 49.1577 14.5969 45.9563 14.5969 42.0072C14.5969 38.0581 11.3699 34.8567 7.38925 34.8567C3.4086 34.8567 0.181641 38.0581 0.181641 42.0072C0.181641 45.9563 3.4086 49.1577 7.38925 49.1577Z" fill="#154CF9"/>
<path d="M7.56894 48.835C11.5496 48.835 14.7765 45.6336 14.7765 41.6845C14.7765 37.7353 11.5496 34.5339 7.56894 34.5339C3.58829 34.5339 0.361328 37.7353 0.361328 41.6845C0.361328 45.6336 3.58829 48.835 7.56894 48.835Z" fill="#144DF9"/>
<path d="M7.74863 48.5305C11.7293 48.5305 14.9562 45.3291 14.9562 41.38C14.9562 37.4309 11.7293 34.2295 7.74863 34.2295C3.76797 34.2295 0.541016 37.4309 0.541016 41.38C0.541016 45.3291 3.76797 48.5305 7.74863 48.5305Z" fill="#144EF9"/>
<path d="M7.93026 48.2078C11.9109 48.2078 15.1379 45.0064 15.1379 41.0573C15.1379 37.1081 11.9109 33.9067 7.93026 33.9067C3.94961 33.9067 0.722656 37.1081 0.722656 41.0573C0.722656 45.0064 3.94961 48.2078 7.93026 48.2078Z" fill="#134FF9"/>
<path d="M8.10995 47.8853C12.0906 47.8853 15.3176 44.6839 15.3176 40.7348C15.3176 36.7856 12.0906 33.5842 8.10995 33.5842C4.1293 33.5842 0.902344 36.7856 0.902344 40.7348C0.902344 44.6839 4.1293 47.8853 8.10995 47.8853Z" fill="#1350FA"/>
<path d="M8.29159 47.5628C12.2722 47.5628 15.4992 44.3614 15.4992 40.4123C15.4992 36.4631 12.2722 33.2617 8.29159 33.2617C4.31094 33.2617 1.08398 36.4631 1.08398 40.4123C1.08398 44.3614 4.31094 47.5628 8.29159 47.5628Z" fill="#1351FA"/>
<path d="M8.47128 47.24C12.4519 47.24 15.6789 44.0386 15.6789 40.0895C15.6789 36.1404 12.4519 32.939 8.47128 32.939C4.49063 32.939 1.26367 36.1404 1.26367 40.0895C1.26367 44.0386 4.49063 47.24 8.47128 47.24Z" fill="#1252FA"/>
<path d="M8.65292 46.9175C12.6336 46.9175 15.8605 43.7161 15.8605 39.767C15.8605 35.8178 12.6336 32.6165 8.65292 32.6165C4.67227 32.6165 1.44531 35.8178 1.44531 39.767C1.44531 43.7161 4.67227 46.9175 8.65292 46.9175Z" fill="#1253FA"/>
<path d="M8.85214 46.6129C12.8328 46.6129 16.0597 43.4114 16.0597 39.4623C16.0597 35.5132 12.8328 32.3118 8.85214 32.3118C4.87149 32.3118 1.64453 35.5132 1.64453 39.4623C1.64453 43.4114 4.87149 46.6129 8.85214 46.6129Z" fill="#1254FA"/>
<path d="M9.03183 46.2903C13.0125 46.2903 16.2394 43.0889 16.2394 39.1398C16.2394 35.1906 13.0125 31.9893 9.03183 31.9893C5.05118 31.9893 1.82422 35.1906 1.82422 39.1398C1.82422 43.0889 5.05118 46.2903 9.03183 46.2903Z" fill="#1155FA"/>
<path d="M9.21347 45.9678C13.1941 45.9678 16.4211 42.7664 16.4211 38.8173C16.4211 34.8682 13.1941 31.6667 9.21347 31.6667C5.23282 31.6667 2.00586 34.8682 2.00586 38.8173C2.00586 42.7664 5.23282 45.9678 9.21347 45.9678Z" fill="#1156FA"/>
<path d="M9.39316 45.6451C13.3738 45.6451 16.6008 42.4437 16.6008 38.4945C16.6008 34.5454 13.3738 31.344 9.39316 31.344C5.4125 31.344 2.18555 34.5454 2.18555 38.4945C2.18555 42.4437 5.4125 45.6451 9.39316 45.6451Z" fill="#1057FA"/>
<path d="M9.5748 45.3225C13.5554 45.3225 16.7824 42.1212 16.7824 38.172C16.7824 34.2229 13.5554 31.0215 9.5748 31.0215C5.59414 31.0215 2.36719 34.2229 2.36719 38.172C2.36719 42.1212 5.59414 45.3225 9.5748 45.3225Z" fill="#1058FA"/>
<path d="M9.75448 45.0001C13.7351 45.0001 16.9621 41.7986 16.9621 37.8495C16.9621 33.9004 13.7351 30.699 9.75448 30.699C5.77383 30.699 2.54688 33.9004 2.54688 37.8495C2.54688 41.7986 5.77383 45.0001 9.75448 45.0001Z" fill="#1059FB"/>
<path d="M9.93612 44.6775C13.9168 44.6775 17.1437 41.4761 17.1437 37.527C17.1437 33.5779 13.9168 30.3765 9.93612 30.3765C5.95547 30.3765 2.72852 33.5779 2.72852 37.527C2.72852 41.4761 5.95547 44.6775 9.93612 44.6775Z" fill="#0F5AFB"/>
<path d="M10.1158 44.3726C14.0965 44.3726 17.3234 41.1712 17.3234 37.2221C17.3234 33.2729 14.0965 30.0715 10.1158 30.0715C6.13516 30.0715 2.9082 33.2729 2.9082 37.2221C2.9082 41.1712 6.13516 44.3726 10.1158 44.3726Z" fill="#0F5BFB"/>
<path d="M10.2955 44.0501C14.2762 44.0501 17.5031 40.8487 17.5031 36.8995C17.5031 32.9504 14.2762 29.749 10.2955 29.749C6.31485 29.749 3.08789 32.9504 3.08789 36.8995C3.08789 40.8487 6.31485 44.0501 10.2955 44.0501Z" fill="#0F5CFB"/>
<path d="M10.4771 43.7276C14.4578 43.7276 17.6848 40.5262 17.6848 36.5771C17.6848 32.6279 14.4578 29.4265 10.4771 29.4265C6.49649 29.4265 3.26953 32.6279 3.26953 36.5771C3.26953 40.5262 6.49649 43.7276 10.4771 43.7276Z" fill="#0E5DFB"/>
<path d="M10.6588 43.4051C14.6394 43.4051 17.8664 40.2037 17.8664 36.2545C17.8664 32.3054 14.6394 29.104 10.6588 29.104C6.67813 29.104 3.45117 32.3054 3.45117 36.2545C3.45117 40.2037 6.67813 43.4051 10.6588 43.4051Z" fill="#0E5EFB"/>
<path d="M10.8385 43.0823C14.8191 43.0823 18.0461 39.8809 18.0461 35.9318C18.0461 31.9827 14.8191 28.7812 10.8385 28.7812C6.85782 28.7812 3.63086 31.9827 3.63086 35.9318C3.63086 39.8809 6.85782 43.0823 10.8385 43.0823Z" fill="#0D5FFB"/>
<path d="M11.0201 42.7598C15.0008 42.7598 18.2277 39.5584 18.2277 35.6093C18.2277 31.6601 15.0008 28.4587 11.0201 28.4587C7.03946 28.4587 3.8125 31.6601 3.8125 35.6093C3.8125 39.5584 7.03946 42.7598 11.0201 42.7598Z" fill="#0D60FB"/>
<path d="M11.1998 42.4551C15.1804 42.4551 18.4074 39.2537 18.4074 35.3046C18.4074 31.3555 15.1804 28.1541 11.1998 28.1541C7.21914 28.1541 3.99219 31.3555 3.99219 35.3046C3.99219 39.2537 7.21914 42.4551 11.1998 42.4551Z" fill="#0D61FB"/>
<path d="M11.3814 42.1326C15.3621 42.1326 18.589 38.9312 18.589 34.9821C18.589 31.033 15.3621 27.8315 11.3814 27.8315C7.40078 27.8315 4.17383 31.033 4.17383 34.9821C4.17383 38.9312 7.40078 42.1326 11.3814 42.1326Z" fill="#0C62FC"/>
<path d="M11.5611 41.8101C15.5418 41.8101 18.7687 38.6087 18.7687 34.6595C18.7687 30.7104 15.5418 27.509 11.5611 27.509C7.58047 27.509 4.35352 30.7104 4.35352 34.6595C4.35352 38.6087 7.58047 41.8101 11.5611 41.8101Z" fill="#0C63FC"/>
<path d="M11.7428 41.4874C15.7234 41.4874 18.9504 38.286 18.9504 34.3368C18.9504 30.3877 15.7234 27.1863 11.7428 27.1863C7.76211 27.1863 4.53516 30.3877 4.53516 34.3368C4.53516 38.286 7.76211 41.4874 11.7428 41.4874Z" fill="#0B64FC"/>
<path d="M11.9225 41.1649C15.9031 41.1649 19.1301 37.9634 19.1301 34.0143C19.1301 30.0652 15.9031 26.8638 11.9225 26.8638C7.9418 26.8638 4.71484 30.0652 4.71484 34.0143C4.71484 37.9634 7.9418 41.1649 11.9225 41.1649Z" fill="#0B65FC"/>
<path d="M12.1021 40.8423C16.0828 40.8423 19.3097 37.6409 19.3097 33.6918C19.3097 29.7427 16.0828 26.5413 12.1021 26.5413C8.12149 26.5413 4.89453 29.7427 4.89453 33.6918C4.89453 37.6409 8.12149 40.8423 12.1021 40.8423Z" fill="#0B66FC"/>
<path d="M12.2838 40.5377C16.2644 40.5377 19.4914 37.3362 19.4914 33.3871C19.4914 29.438 16.2644 26.2366 12.2838 26.2366C8.30313 26.2366 5.07617 29.438 5.07617 33.3871C5.07617 37.3362 8.30313 40.5377 12.2838 40.5377Z" fill="#0A66FC"/>
<path d="M12.4654 40.2151C16.4461 40.2151 19.673 37.0137 19.673 33.0646C19.673 29.1155 16.4461 25.9141 12.4654 25.9141C8.48477 25.9141 5.25781 29.1155 5.25781 33.0646C5.25781 37.0137 8.48477 40.2151 12.4654 40.2151Z" fill="#0A67FC"/>
<path d="M12.6451 39.8924C16.6258 39.8924 19.8527 36.691 19.8527 32.7418C19.8527 28.7927 16.6258 25.5913 12.6451 25.5913C8.66446 25.5913 5.4375 28.7927 5.4375 32.7418C5.4375 36.691 8.66446 39.8924 12.6451 39.8924Z" fill="#0A68FC"/>
<path d="M12.8248 39.5699C16.8055 39.5699 20.0324 36.3685 20.0324 32.4193C20.0324 28.4702 16.8055 25.2688 12.8248 25.2688C8.84414 25.2688 5.61719 28.4702 5.61719 32.4193C5.61719 36.3685 8.84414 39.5699 12.8248 39.5699Z" fill="#0969FC"/>
<path d="M13.0064 39.2474C16.9871 39.2474 20.214 36.046 20.214 32.0968C20.214 28.1477 16.9871 24.9463 13.0064 24.9463C9.02578 24.9463 5.79883 28.1477 5.79883 32.0968C5.79883 36.046 9.02578 39.2474 13.0064 39.2474Z" fill="#096AFC"/>
<path d="M13.1861 38.9246C17.1668 38.9246 20.3937 35.7232 20.3937 31.7741C20.3937 27.8249 17.1668 24.6235 13.1861 24.6235C9.20547 24.6235 5.97852 27.8249 5.97852 31.7741C5.97852 35.7232 9.20547 38.9246 13.1861 38.9246Z" fill="#086BFD"/>
<path d="M13.3678 38.6021C17.3484 38.6021 20.5754 35.4007 20.5754 31.4516C20.5754 27.5024 17.3484 24.301 13.3678 24.301C9.38711 24.301 6.16016 27.5024 6.16016 31.4516C6.16016 35.4007 9.38711 38.6021 13.3678 38.6021Z" fill="#086CFD"/>
<path d="M13.567 38.2974C17.5476 38.2974 20.7746 35.096 20.7746 31.1469C20.7746 27.1977 17.5476 23.9963 13.567 23.9963C9.58633 23.9963 6.35938 27.1977 6.35938 31.1469C6.35938 35.096 9.58633 38.2974 13.567 38.2974Z" fill="#086DFD"/>
<path d="M13.7467 37.9749C17.7273 37.9749 20.9543 34.7735 20.9543 30.8244C20.9543 26.8752 17.7273 23.6738 13.7467 23.6738C9.76602 23.6738 6.53906 26.8752 6.53906 30.8244C6.53906 34.7735 9.76602 37.9749 13.7467 37.9749Z" fill="#076EFD"/>
<path d="M13.9283 37.6524C17.909 37.6524 21.1359 34.451 21.1359 30.5019C21.1359 26.5527 17.909 23.3513 13.9283 23.3513C9.94766 23.3513 6.7207 26.5527 6.7207 30.5019C6.7207 34.451 9.94766 37.6524 13.9283 37.6524Z" fill="#076FFD"/>
<path d="M14.108 37.3299C18.0887 37.3299 21.3156 34.1285 21.3156 30.1793C21.3156 26.2302 18.0887 23.0288 14.108 23.0288C10.1273 23.0288 6.90039 26.2302 6.90039 30.1793C6.90039 34.1285 10.1273 37.3299 14.108 37.3299Z" fill="#0670FD"/>
<path d="M14.2896 37.0071C18.2703 37.0071 21.4972 33.8057 21.4972 29.8566C21.4972 25.9075 18.2703 22.7061 14.2896 22.7061C10.309 22.7061 7.08203 25.9075 7.08203 29.8566C7.08203 33.8057 10.309 37.0071 14.2896 37.0071Z" fill="#0671FD"/>
<path d="M14.4693 36.6846C18.45 36.6846 21.6769 33.4832 21.6769 29.5341C21.6769 25.585 18.45 22.3835 14.4693 22.3835C10.4887 22.3835 7.26172 25.585 7.26172 29.5341C7.26172 33.4832 10.4887 36.6846 14.4693 36.6846Z" fill="#0672FD"/>
<path d="M14.651 36.3799C18.6316 36.3799 21.8586 33.1785 21.8586 29.2294C21.8586 25.2803 18.6316 22.0789 14.651 22.0789C10.6703 22.0789 7.44336 25.2803 7.44336 29.2294C7.44336 33.1785 10.6703 36.3799 14.651 36.3799Z" fill="#0573FD"/>
<path d="M14.8307 36.0574C18.8113 36.0574 22.0383 32.856 22.0383 28.9069C22.0383 24.9578 18.8113 21.7563 14.8307 21.7563C10.85 21.7563 7.62305 24.9578 7.62305 28.9069C7.62305 32.856 10.85 36.0574 14.8307 36.0574Z" fill="#0574FE"/>
<path d="M15.0123 35.7347C18.993 35.7347 22.2199 32.5333 22.2199 28.5841C22.2199 24.635 18.993 21.4336 15.0123 21.4336C11.0316 21.4336 7.80469 24.635 7.80469 28.5841C7.80469 32.5333 11.0316 35.7347 15.0123 35.7347Z" fill="#0575FE"/>
<path d="M15.192 35.4122C19.1726 35.4122 22.3996 32.2108 22.3996 28.2616C22.3996 24.3125 19.1726 21.1111 15.192 21.1111C11.2113 21.1111 7.98438 24.3125 7.98438 28.2616C7.98438 32.2108 11.2113 35.4122 15.192 35.4122Z" fill="#0476FE"/>
<path d="M15.3736 35.0896C19.3543 35.0896 22.5812 31.8882 22.5812 27.9391C22.5812 23.99 19.3543 20.7886 15.3736 20.7886C11.393 20.7886 8.16602 23.99 8.16602 27.9391C8.16602 31.8882 11.393 35.0896 15.3736 35.0896Z" fill="#0477FE"/>
<path d="M15.5533 34.7671C19.534 34.7671 22.7609 31.5657 22.7609 27.6166C22.7609 23.6675 19.534 20.4661 15.5533 20.4661C11.5727 20.4661 8.3457 23.6675 8.3457 27.6166C8.3457 31.5657 11.5727 34.7671 15.5533 34.7671Z" fill="#0378FE"/>
<path d="M15.735 34.4444C19.7156 34.4444 22.9426 31.243 22.9426 27.2939C22.9426 23.3447 19.7156 20.1433 15.735 20.1433C11.7543 20.1433 8.52734 23.3447 8.52734 27.2939C8.52734 31.243 11.7543 34.4444 15.735 34.4444Z" fill="#0379FE"/>
<path d="M15.9146 34.1397C19.8953 34.1397 23.1222 30.9383 23.1222 26.9892C23.1222 23.04 19.8953 19.8386 15.9146 19.8386C11.934 19.8386 8.70703 23.04 8.70703 26.9892C8.70703 30.9383 11.934 34.1397 15.9146 34.1397Z" fill="#037AFE"/>
<path d="M16.0963 33.8172C20.0769 33.8172 23.3039 30.6158 23.3039 26.6667C23.3039 22.7175 20.0769 19.5161 16.0963 19.5161C12.1156 19.5161 8.88867 22.7175 8.88867 26.6667C8.88867 30.6158 12.1156 33.8172 16.0963 33.8172Z" fill="#027BFE"/>
<path d="M16.276 33.4947C20.2566 33.4947 23.4836 30.2933 23.4836 26.3441C23.4836 22.395 20.2566 19.1936 16.276 19.1936C12.2953 19.1936 9.06836 22.395 9.06836 26.3441C9.06836 30.2933 12.2953 33.4947 16.276 33.4947Z" fill="#027CFE"/>
<path d="M16.4576 33.1719C20.4383 33.1719 23.6652 29.9705 23.6652 26.0214C23.6652 22.0723 20.4383 18.8708 16.4576 18.8708C12.477 18.8708 9.25 22.0723 9.25 26.0214C9.25 29.9705 12.477 33.1719 16.4576 33.1719Z" fill="#027DFF"/>
<path d="M16.6373 32.8494C20.6179 32.8494 23.8449 29.648 23.8449 25.6989C23.8449 21.7497 20.6179 18.5483 16.6373 18.5483C12.6566 18.5483 9.42969 21.7497 9.42969 25.6989C9.42969 29.648 12.6566 32.8494 16.6373 32.8494Z" fill="#017EFF"/>
<path d="M16.8189 32.5269C20.7996 32.5269 24.0265 29.3255 24.0265 25.3764C24.0265 21.4272 20.7996 18.2258 16.8189 18.2258C12.8383 18.2258 9.61133 21.4272 9.61133 25.3764C9.61133 29.3255 12.8383 32.5269 16.8189 32.5269Z" fill="#017FFF"/>
<path d="M16.9986 32.2222C20.9793 32.2222 24.2062 29.0208 24.2062 25.0717C24.2062 21.1225 20.9793 17.9211 16.9986 17.9211C13.018 17.9211 9.79102 21.1225 9.79102 25.0717C9.79102 29.0208 13.018 32.2222 16.9986 32.2222Z" fill="#0080FF"/>
<path d="M17.1783 31.8997C21.159 31.8997 24.3859 28.6983 24.3859 24.7492C24.3859 20.8 21.159 17.5986 17.1783 17.5986C13.1977 17.5986 9.9707 20.8 9.9707 24.7492C9.9707 28.6983 13.1977 31.8997 17.1783 31.8997Z" fill="#0081FF"/>
<path d="M17.3424 31.6128C21.323 31.6128 24.55 28.4114 24.55 24.4623C24.55 20.5132 21.323 17.3118 17.3424 17.3118C13.3617 17.3118 10.1348 20.5132 10.1348 24.4623C10.1348 28.4114 13.3617 31.6128 17.3424 31.6128Z" fill="#0082FF"/>
<path d="M17.5045 31.344C21.4851 31.344 24.7121 28.1426 24.7121 24.1935C24.7121 20.2444 21.4851 17.043 17.5045 17.043C13.5238 17.043 10.2969 20.2444 10.2969 24.1935C10.2969 28.1426 13.5238 31.344 17.5045 31.344Z" fill="#0083FF"/>
<path d="M17.649 31.0752C21.6297 31.0752 24.8566 27.8738 24.8566 23.9247C24.8566 19.9756 21.6297 16.7742 17.649 16.7742C13.6684 16.7742 10.4414 19.9756 10.4414 23.9247C10.4414 27.8738 13.6684 31.0752 17.649 31.0752Z" fill="#0084FF"/>
<path d="M17.8111 30.7886C21.7918 30.7886 25.0187 27.5872 25.0187 23.6381C25.0187 19.6889 21.7918 16.4875 17.8111 16.4875C13.8305 16.4875 10.6035 19.6889 10.6035 23.6381C10.6035 27.5872 13.8305 30.7886 17.8111 30.7886Z" fill="#0085FF"/>
<path d="M17.9557 30.5198C21.9363 30.5198 25.1633 27.3184 25.1633 23.3693C25.1633 19.4201 21.9363 16.2188 17.9557 16.2188C13.975 16.2188 10.748 19.4201 10.748 23.3693C10.748 27.3184 13.975 30.5198 17.9557 30.5198Z" fill="#0086FF"/>
<path d="M18.1178 30.251C22.0984 30.251 25.3254 27.0496 25.3254 23.1005C25.3254 19.1513 22.0984 15.95 18.1178 15.95C14.1371 15.95 10.9102 19.1513 10.9102 23.1005C10.9102 27.0496 14.1371 30.251 18.1178 30.251Z" fill="#0087FE"/>
<path d="M18.2799 29.9642C22.2605 29.9642 25.4875 26.7628 25.4875 22.8136C25.4875 18.8645 22.2605 15.6631 18.2799 15.6631C14.2992 15.6631 11.0723 18.8645 11.0723 22.8136C11.0723 26.7628 14.2992 29.9642 18.2799 29.9642Z" fill="#0088FE"/>
<path d="M18.4264 29.6954C22.407 29.6954 25.634 26.494 25.634 22.5448C25.634 18.5957 22.407 15.3943 18.4264 15.3943C14.4457 15.3943 11.2188 18.5957 11.2188 22.5448C11.2188 26.494 14.4457 29.6954 18.4264 29.6954Z" fill="#0089FE"/>
<path d="M18.5885 29.4266C22.5691 29.4266 25.7961 26.2252 25.7961 22.276C25.7961 18.3269 22.5691 15.1255 18.5885 15.1255C14.6078 15.1255 11.3809 18.3269 11.3809 22.276C11.3809 26.2252 14.6078 29.4266 18.5885 29.4266Z" fill="#008AFE"/>
<path d="M18.7506 29.1397C22.7312 29.1397 25.9582 25.9383 25.9582 21.9892C25.9582 18.04 22.7312 14.8386 18.7506 14.8386C14.7699 14.8386 11.543 18.04 11.543 21.9892C11.543 25.9383 14.7699 29.1397 18.7506 29.1397Z" fill="#008BFE"/>
<path d="M18.8951 28.8709C22.8758 28.8709 26.1027 25.6695 26.1027 21.7204C26.1027 17.7712 22.8758 14.5698 18.8951 14.5698C14.9145 14.5698 11.6875 17.7712 11.6875 21.7204C11.6875 25.6695 14.9145 28.8709 18.8951 28.8709Z" fill="#008CFE"/>
<path d="M19.0572 28.6021C23.0379 28.6021 26.2648 25.4007 26.2648 21.4516C26.2648 17.5024 23.0379 14.301 19.0572 14.301C15.0766 14.301 11.8496 17.5024 11.8496 21.4516C11.8496 25.4007 15.0766 28.6021 19.0572 28.6021Z" fill="#008DFE"/>
<path d="M19.2017 28.3155C23.1824 28.3155 26.4094 25.1141 26.4094 21.1649C26.4094 17.2158 23.1824 14.0144 19.2017 14.0144C15.2211 14.0144 11.9941 17.2158 11.9941 21.1649C11.9941 25.1141 15.2211 28.3155 19.2017 28.3155Z" fill="#008EFE"/>
<path d="M19.3639 28.0467C23.3445 28.0467 26.5715 24.8453 26.5715 20.8961C26.5715 16.947 23.3445 13.7456 19.3639 13.7456C15.3832 13.7456 12.1562 16.947 12.1562 20.8961C12.1562 24.8453 15.3832 28.0467 19.3639 28.0467Z" fill="#008FFE"/>
<path d="M19.5279 27.7779C23.5086 27.7779 26.7355 24.5765 26.7355 20.6273C26.7355 16.6782 23.5086 13.4768 19.5279 13.4768C15.5473 13.4768 12.3203 16.6782 12.3203 20.6273C12.3203 24.5765 15.5473 27.7779 19.5279 27.7779Z" fill="#0090FE"/>
<path d="M19.6725 27.491C23.6531 27.491 26.8801 24.2896 26.8801 20.3405C26.8801 16.3914 23.6531 13.1899 19.6725 13.1899C15.6918 13.1899 12.4648 16.3914 12.4648 20.3405C12.4648 24.2896 15.6918 27.491 19.6725 27.491Z" fill="#0091FE"/>
<path d="M19.8346 27.2222C23.8152 27.2222 27.0422 24.0208 27.0422 20.0717C27.0422 16.1225 23.8152 12.9211 19.8346 12.9211C15.8539 12.9211 12.627 16.1225 12.627 20.0717C12.627 24.0208 15.8539 27.2222 19.8346 27.2222Z" fill="#0092FD"/>
<path d="M19.9967 26.9534C23.9773 26.9534 27.2043 23.752 27.2043 19.8029C27.2043 15.8538 23.9773 12.6523 19.9967 12.6523C16.016 12.6523 12.7891 15.8538 12.7891 19.8029C12.7891 23.752 16.016 26.9534 19.9967 26.9534Z" fill="#0093FD"/>
<path d="M20.1412 26.6668C24.1219 26.6668 27.3488 23.4654 27.3488 19.5162C27.3488 15.5671 24.1219 12.3657 20.1412 12.3657C16.1605 12.3657 12.9336 15.5671 12.9336 19.5162C12.9336 23.4654 16.1605 26.6668 20.1412 26.6668Z" fill="#0094FD"/>
<path d="M20.3033 26.398C24.284 26.398 27.5109 23.1966 27.5109 19.2474C27.5109 15.2983 24.284 12.0969 20.3033 12.0969C16.3227 12.0969 13.0957 15.2983 13.0957 19.2474C13.0957 23.1966 16.3227 26.398 20.3033 26.398Z" fill="#0095FD"/>
<path d="M20.4478 26.1289C24.4285 26.1289 27.6555 22.9275 27.6555 18.9784C27.6555 15.0293 24.4285 11.8279 20.4478 11.8279C16.4672 11.8279 13.2402 15.0293 13.2402 18.9784C13.2402 22.9275 16.4672 26.1289 20.4478 26.1289Z" fill="#0096FD"/>
<path d="M20.6119 25.8423C24.5926 25.8423 27.8195 22.6409 27.8195 18.6918C27.8195 14.7427 24.5926 11.5413 20.6119 11.5413C16.6313 11.5413 13.4043 14.7427 13.4043 18.6918C13.4043 22.6409 16.6313 25.8423 20.6119 25.8423Z" fill="#0097FD"/>
<path d="M20.774 25.5735C24.7547 25.5735 27.9816 22.3721 27.9816 18.423C27.9816 14.4739 24.7547 11.2725 20.774 11.2725C16.7934 11.2725 13.5664 14.4739 13.5664 18.423C13.5664 22.3721 16.7934 25.5735 20.774 25.5735Z" fill="#0098FD"/>
<path d="M20.9185 25.3047C24.8992 25.3047 28.1261 22.1033 28.1261 18.1542C28.1261 14.2051 24.8992 11.0037 20.9185 11.0037C16.9379 11.0037 13.7109 14.2051 13.7109 18.1542C13.7109 22.1033 16.9379 25.3047 20.9185 25.3047Z" fill="#0099FD"/>
<path d="M21.0807 25.0179C25.0613 25.0179 28.2883 21.8165 28.2883 17.8673C28.2883 13.9182 25.0613 10.7168 21.0807 10.7168C17.1 10.7168 13.873 13.9182 13.873 17.8673C13.873 21.8165 17.1 25.0179 21.0807 25.0179Z" fill="#009AFD"/>
<path d="M21.2447 24.7491C25.2254 24.7491 28.4523 21.5477 28.4523 17.5985C28.4523 13.6494 25.2254 10.448 21.2447 10.448C17.2641 10.448 14.0371 13.6494 14.0371 17.5985C14.0371 21.5477 17.2641 24.7491 21.2447 24.7491Z" fill="#009BFD"/>
<path d="M21.3873 24.4803C25.368 24.4803 28.5949 21.2789 28.5949 17.3297C28.5949 13.3806 25.368 10.1792 21.3873 10.1792C17.4066 10.1792 14.1797 13.3806 14.1797 17.3297C14.1797 21.2789 17.4066 24.4803 21.3873 24.4803Z" fill="#009CFC"/>
<path d="M21.5494 24.1937C25.5301 24.1937 28.757 20.9923 28.757 17.0431C28.757 13.094 25.5301 9.89258 21.5494 9.89258C17.5688 9.89258 14.3418 13.094 14.3418 17.0431C14.3418 20.9923 17.5688 24.1937 21.5494 24.1937Z" fill="#009DFC"/>
<path d="M21.6959 23.9249C25.6765 23.9249 28.9035 20.7235 28.9035 16.7743C28.9035 12.8252 25.6765 9.62378 21.6959 9.62378C17.7152 9.62378 14.4883 12.8252 14.4883 16.7743C14.4883 20.7235 17.7152 23.9249 21.6959 23.9249Z" fill="#009EFC"/>
<path d="M21.858 23.6561C25.8387 23.6561 29.0656 20.4547 29.0656 16.5055C29.0656 12.5564 25.8387 9.35498 21.858 9.35498C17.8773 9.35498 14.6504 12.5564 14.6504 16.5055C14.6504 20.4547 17.8773 23.6561 21.858 23.6561Z" fill="#009FFC"/>
<path d="M22.0201 23.3692C26.0008 23.3692 29.2277 20.1678 29.2277 16.2187C29.2277 12.2695 26.0008 9.06812 22.0201 9.06812C18.0395 9.06812 14.8125 12.2695 14.8125 16.2187C14.8125 20.1678 18.0395 23.3692 22.0201 23.3692Z" fill="#00A0FC"/>
<path d="M22.1646 23.1004C26.1453 23.1004 29.3723 19.899 29.3723 15.9499C29.3723 12.0007 26.1453 8.79932 22.1646 8.79932C18.184 8.79932 14.957 12.0007 14.957 15.9499C14.957 19.899 18.184 23.1004 22.1646 23.1004Z" fill="#00A1FC"/>
<path d="M22.3267 22.8316C26.3074 22.8316 29.5344 19.6302 29.5344 15.6811C29.5344 11.7319 26.3074 8.53052 22.3267 8.53052C18.3461 8.53052 15.1191 11.7319 15.1191 15.6811C15.1191 19.6302 18.3461 22.8316 22.3267 22.8316Z" fill="#00A1FC"/>
<path d="M22.4908 22.5447C26.4715 22.5447 29.6984 19.3433 29.6984 15.3942C29.6984 11.445 26.4715 8.24365 22.4908 8.24365C18.5102 8.24365 15.2832 11.445 15.2832 15.3942C15.2832 19.3433 18.5102 22.5447 22.4908 22.5447Z" fill="#00A2FC"/>
<path d="M22.6334 22.2759C26.614 22.2759 29.841 19.0745 29.841 15.1254C29.841 11.1762 26.614 7.97485 22.6334 7.97485C18.6527 7.97485 15.4258 11.1762 15.4258 15.1254C15.4258 19.0745 18.6527 22.2759 22.6334 22.2759Z" fill="#00A3FC"/>
<path d="M22.7955 22.0071C26.7761 22.0071 30.0031 18.8057 30.0031 14.8566C30.0031 10.9074 26.7761 7.70605 22.7955 7.70605C18.8148 7.70605 15.5879 10.9074 15.5879 14.8566C15.5879 18.8057 18.8148 22.0071 22.7955 22.0071Z" fill="#00A4FC"/>
<path d="M22.942 21.7205C26.9226 21.7205 30.1496 18.5191 30.1496 14.57C30.1496 10.6208 26.9226 7.41943 22.942 7.41943C18.9613 7.41943 15.7344 10.6208 15.7344 14.57C15.7344 18.5191 18.9613 21.7205 22.942 21.7205Z" fill="#00A5FC"/>
<path d="M23.1041 21.4517C27.0847 21.4517 30.3117 18.2503 30.3117 14.3012C30.3117 10.352 27.0847 7.15063 23.1041 7.15063C19.1234 7.15063 15.8965 10.352 15.8965 14.3012C15.8965 18.2503 19.1234 21.4517 23.1041 21.4517Z" fill="#00A6FB"/>
<path d="M23.2662 21.1829C27.2469 21.1829 30.4738 17.9815 30.4738 14.0324C30.4738 10.0832 27.2469 6.88184 23.2662 6.88184C19.2856 6.88184 16.0586 10.0832 16.0586 14.0324C16.0586 17.9815 19.2856 21.1829 23.2662 21.1829Z" fill="#00A7FB"/>
<path d="M23.4107 20.8961C27.3914 20.8961 30.6183 17.6946 30.6183 13.7455C30.6183 9.79638 27.3914 6.59497 23.4107 6.59497C19.4301 6.59497 16.2031 9.79638 16.2031 13.7455C16.2031 17.6946 19.4301 20.8961 23.4107 20.8961Z" fill="#00A8FB"/>
<path d="M23.5728 20.6273C27.5535 20.6273 30.7805 17.4258 30.7805 13.4767C30.7805 9.52758 27.5535 6.32617 23.5728 6.32617C19.5922 6.32617 16.3652 9.52758 16.3652 13.4767C16.3652 17.4258 19.5922 20.6273 23.5728 20.6273Z" fill="#00A9FB"/>
<path d="M23.7369 20.3585C27.7176 20.3585 30.9445 17.157 30.9445 13.2079C30.9445 9.25878 27.7176 6.05737 23.7369 6.05737C19.7563 6.05737 16.5293 9.25878 16.5293 13.2079C16.5293 17.157 19.7563 20.3585 23.7369 20.3585Z" fill="#00AAFB"/>
<path d="M23.8814 20.0718C27.8621 20.0718 31.089 16.8704 31.089 12.9213C31.089 8.97216 27.8621 5.77075 23.8814 5.77075C19.9008 5.77075 16.6738 8.97216 16.6738 12.9213C16.6738 16.8704 19.9008 20.0718 23.8814 20.0718Z" fill="#00ABFB"/>
<path d="M24.0435 19.8028C28.0242 19.8028 31.2512 16.6014 31.2512 12.6522C31.2512 8.70312 28.0242 5.50171 24.0435 5.50171C20.0629 5.50171 16.8359 8.70312 16.8359 12.6522C16.8359 16.6014 20.0629 19.8028 24.0435 19.8028Z" fill="#00ACFB"/>
<path d="M24.1881 19.534C28.1687 19.534 31.3957 16.3326 31.3957 12.3835C31.3957 8.43432 28.1687 5.23291 24.1881 5.23291C20.2074 5.23291 16.9805 8.43432 16.9805 12.3835C16.9805 16.3326 20.2074 19.534 24.1881 19.534Z" fill="#00ADFB"/>
<path d="M24.3502 19.2474C28.3308 19.2474 31.5578 16.046 31.5578 12.0968C31.5578 8.1477 28.3308 4.94629 24.3502 4.94629C20.3695 4.94629 17.1426 8.1477 17.1426 12.0968C17.1426 16.046 20.3695 19.2474 24.3502 19.2474Z" fill="#00AEFB"/>
<path d="M24.5123 18.9786C28.4929 18.9786 31.7199 15.7772 31.7199 11.828C31.7199 7.8789 28.4929 4.67749 24.5123 4.67749C20.5316 4.67749 17.3047 7.8789 17.3047 11.828C17.3047 15.7772 20.5316 18.9786 24.5123 18.9786Z" fill="#00AFFB"/>
<path d="M24.6568 18.7095C28.6375 18.7095 31.8644 15.5081 31.8644 11.559C31.8644 7.60986 28.6375 4.40845 24.6568 4.40845C20.6762 4.40845 17.4492 7.60986 17.4492 11.559C17.4492 15.5081 20.6762 18.7095 24.6568 18.7095Z" fill="#00B0FB"/>
<path d="M24.8209 18.4229C28.8015 18.4229 32.0285 15.2215 32.0285 11.2724C32.0285 7.32322 28.8015 4.12183 24.8209 4.12183C20.8402 4.12183 17.6133 7.32322 17.6133 11.2724C17.6133 15.2215 20.8402 18.4229 24.8209 18.4229Z" fill="#00B1FA"/>
<path d="M24.983 18.1541C28.9637 18.1541 32.1906 14.9527 32.1906 11.0036C32.1906 7.05443 28.9637 3.85303 24.983 3.85303C21.0023 3.85303 17.7754 7.05443 17.7754 11.0036C17.7754 14.9527 21.0023 18.1541 24.983 18.1541Z" fill="#00B2FA"/>
<path d="M25.1275 17.8853C29.1082 17.8853 32.3351 14.6839 32.3351 10.7348C32.3351 6.78563 29.1082 3.58423 25.1275 3.58423C21.1469 3.58423 17.9199 6.78563 17.9199 10.7348C17.9199 14.6839 21.1469 17.8853 25.1275 17.8853Z" fill="#00B3FA"/>
<path d="M25.2896 17.5987C29.2703 17.5987 32.4972 14.3973 32.4972 10.4481C32.4972 6.49901 29.2703 3.29761 25.2896 3.29761C21.309 3.29761 18.082 6.49901 18.082 10.4481C18.082 14.3973 21.309 17.5987 25.2896 17.5987Z" fill="#00B4FA"/>
<path d="M25.4342 17.3299C29.4148 17.3299 32.6418 14.1285 32.6418 10.1793C32.6418 6.23021 29.4148 3.02881 25.4342 3.02881C21.4535 3.02881 18.2266 6.23021 18.2266 10.1793C18.2266 14.1285 21.4535 17.3299 25.4342 17.3299Z" fill="#00B5FA"/>
<path d="M25.5963 17.0611C29.5769 17.0611 32.8039 13.8597 32.8039 9.91054C32.8039 5.96141 29.5769 2.76001 25.5963 2.76001C21.6156 2.76001 18.3887 5.96141 18.3887 9.91054C18.3887 13.8597 21.6156 17.0611 25.5963 17.0611Z" fill="#00B6FA"/>
<path d="M25.7603 16.7742C29.741 16.7742 32.968 13.5728 32.968 9.62369C32.968 5.67455 29.741 2.47314 25.7603 2.47314C21.7797 2.47314 18.5527 5.67455 18.5527 9.62369C18.5527 13.5728 21.7797 16.7742 25.7603 16.7742Z" fill="#00B7FA"/>
<path d="M25.9049 16.5054C29.8855 16.5054 33.1125 13.304 33.1125 9.35489C33.1125 5.40575 29.8855 2.20435 25.9049 2.20435C21.9242 2.20435 18.6973 5.40575 18.6973 9.35489C18.6973 13.304 21.9242 16.5054 25.9049 16.5054Z" fill="#00B8FA"/>
<path d="M26.067 16.2366C30.0476 16.2366 33.2746 13.0352 33.2746 9.08609C33.2746 5.13696 30.0476 1.93555 26.067 1.93555C22.0863 1.93555 18.8594 5.13696 18.8594 9.08609C18.8594 13.0352 22.0863 16.2366 26.067 16.2366Z" fill="#00B9FA"/>
<path d="M26.2291 15.9498C30.2097 15.9498 33.4367 12.7484 33.4367 8.79922C33.4367 4.85009 30.2097 1.64868 26.2291 1.64868C22.2484 1.64868 19.0215 4.85009 19.0215 8.79922C19.0215 12.7484 22.2484 15.9498 26.2291 15.9498Z" fill="#00BAFA"/>
<path d="M26.3736 15.681C30.3543 15.681 33.5812 12.4796 33.5812 8.53043C33.5812 4.58129 30.3543 1.37988 26.3736 1.37988C22.393 1.37988 19.166 4.58129 19.166 8.53043C19.166 12.4796 22.393 15.681 26.3736 15.681Z" fill="#00BBF9"/>
<path d="M26.5357 15.4122C30.5164 15.4122 33.7433 12.2108 33.7433 8.26162C33.7433 4.31249 30.5164 1.11108 26.5357 1.11108C22.5551 1.11108 19.3281 4.31249 19.3281 8.26162C19.3281 12.2108 22.5551 15.4122 26.5357 15.4122Z" fill="#00BCF9"/>
<path d="M26.6803 15.1253C30.6609 15.1253 33.8879 11.9239 33.8879 7.97476C33.8879 4.02563 30.6609 0.824219 26.6803 0.824219C22.6996 0.824219 19.4727 4.02563 19.4727 7.97476C19.4727 11.9239 22.6996 15.1253 26.6803 15.1253Z" fill="#00BDF9"/>
<path d="M26.8443 14.8565C30.825 14.8565 34.0519 11.6551 34.0519 7.70596C34.0519 3.75683 30.825 0.55542 26.8443 0.55542C22.8637 0.55542 19.6367 3.75683 19.6367 7.70596C19.6367 11.6551 22.8637 14.8565 26.8443 14.8565Z" fill="#00BEF9"/>
<path d="M27.0064 14.5877C30.9871 14.5877 34.2141 11.3863 34.2141 7.43715C34.2141 3.48802 30.9871 0.286621 27.0064 0.286621C23.0258 0.286621 19.7988 3.48802 19.7988 7.43715C19.7988 11.3863 23.0258 14.5877 27.0064 14.5877Z" fill="#00BFF9"/>
<path d="M27.151 14.3011C31.1316 14.3011 34.3586 11.0997 34.3586 7.15054C34.3586 3.20141 31.1316 0 27.151 0C23.1703 0 19.9434 3.20141 19.9434 7.15054C19.9434 11.0997 23.1703 14.3011 27.151 14.3011Z" fill="#00C0F9"/>
<path d="M27.6197 15.1253C31.6004 15.1253 34.8273 11.9239 34.8273 7.97476C34.8273 4.02563 31.6004 0.824219 27.6197 0.824219C23.6391 0.824219 20.4121 4.02563 20.4121 7.97476C20.4121 11.9239 23.6391 15.1253 27.6197 15.1253Z" fill="#00C1F9"/>
<path d="M28.0904 15.9498C32.0711 15.9498 35.298 12.7484 35.298 8.79922C35.298 4.85009 32.0711 1.64868 28.0904 1.64868C24.1098 1.64868 20.8828 4.85009 20.8828 8.79922C20.8828 12.7484 24.1098 15.9498 28.0904 15.9498Z" fill="#00C2F9"/>
<path d="M28.5416 16.7564C32.5222 16.7564 35.7492 13.555 35.7492 9.60587C35.7492 5.65673 32.5222 2.45532 28.5416 2.45532C24.5609 2.45532 21.334 5.65673 21.334 9.60587C21.334 13.555 24.5609 16.7564 28.5416 16.7564Z" fill="#00C3F8"/>
<path d="M29.0123 17.5806C32.9929 17.5806 36.2199 14.3792 36.2199 10.4301C36.2199 6.48095 32.9929 3.27954 29.0123 3.27954C25.0316 3.27954 21.8047 6.48095 21.8047 10.4301C21.8047 14.3792 25.0316 17.5806 29.0123 17.5806Z" fill="#00C4F8"/>
<path d="M29.481 18.387C33.4617 18.387 36.6887 15.1856 36.6887 11.2365C36.6887 7.28735 33.4617 4.08594 29.481 4.08594C25.5004 4.08594 22.2734 7.28735 22.2734 11.2365C22.2734 15.1856 25.5004 18.387 29.481 18.387Z" fill="#00C5F8"/>
<path d="M29.9322 19.2115C33.9129 19.2115 37.1398 16.0101 37.1398 12.0609C37.1398 8.1118 33.9129 4.9104 29.9322 4.9104C25.9516 4.9104 22.7246 8.1118 22.7246 12.0609C22.7246 16.0101 25.9516 19.2115 29.9322 19.2115Z" fill="#00C6F8"/>
<path d="M30.401 20.0357C34.3816 20.0357 37.6086 16.8343 37.6086 12.8851C37.6086 8.93602 34.3816 5.73462 30.401 5.73462C26.4203 5.73462 23.1934 8.93602 23.1934 12.8851C23.1934 16.8343 26.4203 20.0357 30.401 20.0357Z" fill="#00C7F7"/>
<path d="M30.8717 20.8423C34.8523 20.8423 38.0793 17.6409 38.0793 13.6918C38.0793 9.74266 34.8523 6.54126 30.8717 6.54126C26.891 6.54126 23.6641 9.74266 23.6641 13.6918C23.6641 17.6409 26.891 20.8423 30.8717 20.8423Z" fill="#00C8F7"/>
<path d="M31.3228 21.6665C35.3035 21.6665 38.5304 18.4652 38.5304 14.516C38.5304 10.5669 35.3035 7.36548 31.3228 7.36548C27.3422 7.36548 24.1152 10.5669 24.1152 14.516C24.1152 18.4652 27.3422 21.6665 31.3228 21.6665Z" fill="#00C9F7"/>
<path d="M31.7935 22.491C35.7742 22.491 39.0012 19.2896 39.0012 15.3405C39.0012 11.3914 35.7742 8.18994 31.7935 8.18994C27.8129 8.18994 24.5859 11.3914 24.5859 15.3405C24.5859 19.2896 27.8129 22.491 31.7935 22.491Z" fill="#00CAF7"/>
<path d="M32.2623 23.2977C36.243 23.2977 39.4699 20.0963 39.4699 16.1471C39.4699 12.198 36.243 8.99658 32.2623 8.99658C28.2816 8.99658 25.0547 12.198 25.0547 16.1471C25.0547 20.0963 28.2816 23.2977 32.2623 23.2977Z" fill="#00CBF6"/>
<path d="M32.7154 24.1219C36.6961 24.1219 39.923 20.9205 39.923 16.9713C39.923 13.0222 36.6961 9.8208 32.7154 9.8208C28.7348 9.8208 25.5078 13.0222 25.5078 16.9713C25.5078 20.9205 28.7348 24.1219 32.7154 24.1219Z" fill="#00CCF6"/>
<path d="M33.1842 24.9463C37.1648 24.9463 40.3918 21.7449 40.3918 17.7958C40.3918 13.8467 37.1648 10.6453 33.1842 10.6453C29.2035 10.6453 25.9766 13.8467 25.9766 17.7958C25.9766 21.7449 29.2035 24.9463 33.1842 24.9463Z" fill="#00CDF6"/>
<path d="M33.6529 25.7527C37.6336 25.7527 40.8605 22.5513 40.8605 18.6022C40.8605 14.6531 37.6336 11.4517 33.6529 11.4517C29.6723 11.4517 26.4453 14.6531 26.4453 18.6022C26.4453 22.5513 29.6723 25.7527 33.6529 25.7527Z" fill="#00CEF6"/>
<path d="M34.1236 26.5772C38.1043 26.5772 41.3312 23.3758 41.3312 19.4266C41.3312 15.4775 38.1043 12.2761 34.1236 12.2761C30.143 12.2761 26.916 15.4775 26.916 19.4266C26.916 23.3758 30.143 26.5772 34.1236 26.5772Z" fill="#00CFF6"/>
<path d="M34.5748 27.4014C38.5554 27.4014 41.7824 24.2 41.7824 20.2509C41.7824 16.3018 38.5554 13.1003 34.5748 13.1003C30.5941 13.1003 27.3672 16.3018 27.3672 20.2509C27.3672 24.2 30.5941 27.4014 34.5748 27.4014Z" fill="#00D0F5"/>
<path d="M35.0455 28.2078C39.0261 28.2078 42.2531 25.0064 42.2531 21.0573C42.2531 17.1081 39.0261 13.9067 35.0455 13.9067C31.0648 13.9067 27.8379 17.1081 27.8379 21.0573C27.8379 25.0064 31.0648 28.2078 35.0455 28.2078Z" fill="#00D1F5"/>
<path d="M35.5142 29.0323C39.4949 29.0323 42.7219 25.8309 42.7219 21.8817C42.7219 17.9326 39.4949 14.7312 35.5142 14.7312C31.5336 14.7312 28.3066 17.9326 28.3066 21.8817C28.3066 25.8309 31.5336 29.0323 35.5142 29.0323Z" fill="#00D2F5"/>
<path d="M35.9654 29.8567C39.9461 29.8567 43.173 26.6553 43.173 22.7062C43.173 18.7571 39.9461 15.5557 35.9654 15.5557C31.9848 15.5557 28.7578 18.7571 28.7578 22.7062C28.7578 26.6553 31.9848 29.8567 35.9654 29.8567Z" fill="#00D3F5"/>
<path d="M36.4361 30.6631C40.4168 30.6631 43.6437 27.4617 43.6437 23.5126C43.6437 19.5635 40.4168 16.3621 36.4361 16.3621C32.4555 16.3621 29.2285 19.5635 29.2285 23.5126C29.2285 27.4617 32.4555 30.6631 36.4361 30.6631Z" fill="#00D4F4"/>
<path d="M36.9049 31.4874C40.8855 31.4874 44.1125 28.286 44.1125 24.3368C44.1125 20.3877 40.8855 17.1863 36.9049 17.1863C32.9242 17.1863 29.6973 20.3877 29.6973 24.3368C29.6973 28.286 32.9242 31.4874 36.9049 31.4874Z" fill="#00D5F4"/>
<path d="M37.3561 32.3118C41.3367 32.3118 44.5637 29.1104 44.5637 25.1613C44.5637 21.2121 41.3367 18.0107 37.3561 18.0107C33.3754 18.0107 30.1484 21.2121 30.1484 25.1613C30.1484 29.1104 33.3754 32.3118 37.3561 32.3118Z" fill="#01D5F4"/>
<path d="M37.8267 33.1182C41.8074 33.1182 45.0344 29.9168 45.0344 25.9677C45.0344 22.0185 41.8074 18.8171 37.8267 18.8171C33.8461 18.8171 30.6191 22.0185 30.6191 25.9677C30.6191 29.9168 33.8461 33.1182 37.8267 33.1182Z" fill="#01D6F4"/>
<path d="M38.2955 33.9427C42.2761 33.9427 45.5031 30.7413 45.5031 26.7921C45.5031 22.843 42.2761 19.6416 38.2955 19.6416C34.3148 19.6416 31.0879 22.843 31.0879 26.7921C31.0879 30.7413 34.3148 33.9427 38.2955 33.9427Z" fill="#01D7F3"/>
<path d="M38.7486 34.7491C42.7293 34.7491 45.9562 31.5477 45.9562 27.5985C45.9562 23.6494 42.7293 20.448 38.7486 20.448C34.768 20.448 31.541 23.6494 31.541 27.5985C31.541 31.5477 34.768 34.7491 38.7486 34.7491Z" fill="#01D8F3"/>
<path d="M39.2174 35.5735C43.198 35.5735 46.425 32.3721 46.425 28.423C46.425 24.4739 43.198 21.2725 39.2174 21.2725C35.2367 21.2725 32.0098 24.4739 32.0098 28.423C32.0098 32.3721 35.2367 35.5735 39.2174 35.5735Z" fill="#01D9F3"/>
<path d="M39.6861 36.3978C43.6668 36.3978 46.8937 33.1964 46.8937 29.2472C46.8937 25.2981 43.6668 22.0967 39.6861 22.0967C35.7055 22.0967 32.4785 25.2981 32.4785 29.2472C32.4785 33.1964 35.7055 36.3978 39.6861 36.3978Z" fill="#01DAF3"/>
<path d="M40.1393 37.2042C44.1199 37.2042 47.3469 34.0028 47.3469 30.0536C47.3469 26.1045 44.1199 22.9031 40.1393 22.9031C36.1586 22.9031 32.9316 26.1045 32.9316 30.0536C32.9316 34.0028 36.1586 37.2042 40.1393 37.2042Z" fill="#01DBF2"/>
<path d="M40.608 38.0286C44.5887 38.0286 47.8156 34.8272 47.8156 30.8781C47.8156 26.9289 44.5887 23.7275 40.608 23.7275C36.6273 23.7275 33.4004 26.9289 33.4004 30.8781C33.4004 34.8272 36.6273 38.0286 40.608 38.0286Z" fill="#01DCF2"/>
<path d="M41.0787 38.8531C45.0594 38.8531 48.2863 35.6517 48.2863 31.7025C48.2863 27.7534 45.0594 24.552 41.0787 24.552C37.098 24.552 33.8711 27.7534 33.8711 31.7025C33.8711 35.6517 37.098 38.8531 41.0787 38.8531Z" fill="#01DDF2"/>
<path d="M41.5299 39.6595C45.5105 39.6595 48.7375 36.458 48.7375 32.5089C48.7375 28.5598 45.5105 25.3584 41.5299 25.3584C37.5492 25.3584 34.3223 28.5598 34.3223 32.5089C34.3223 36.458 37.5492 39.6595 41.5299 39.6595Z" fill="#01DEF2"/>
<path d="M41.9986 40.4839C45.9793 40.4839 49.2062 37.2825 49.2062 33.3334C49.2062 29.3843 45.9793 26.1829 41.9986 26.1829C38.018 26.1829 34.791 29.3843 34.791 33.3334C34.791 37.2825 38.018 40.4839 41.9986 40.4839Z" fill="#01DFF2"/>
<path d="M42.4693 41.3082C46.45 41.3082 49.6769 38.1068 49.6769 34.1576C49.6769 30.2085 46.45 27.0071 42.4693 27.0071C38.4887 27.0071 35.2617 30.2085 35.2617 34.1576C35.2617 38.1068 38.4887 41.3082 42.4693 41.3082Z" fill="#01E0F1"/>
<path d="M42.9205 42.1148C46.9012 42.1148 50.1281 38.9134 50.1281 34.9643C50.1281 31.0151 46.9012 27.8137 42.9205 27.8137C38.9398 27.8137 35.7129 31.0151 35.7129 34.9643C35.7129 38.9134 38.9398 42.1148 42.9205 42.1148Z" fill="#01E1F1"/>
<path d="M43.3893 42.939C47.3699 42.939 50.5969 39.7376 50.5969 35.7885C50.5969 31.8393 47.3699 28.6379 43.3893 28.6379C39.4086 28.6379 36.1816 31.8393 36.1816 35.7885C36.1816 39.7376 39.4086 42.939 43.3893 42.939Z" fill="#01E2F1"/>
<path d="M43.86 43.7635C47.8406 43.7635 51.0676 40.5621 51.0676 36.6129C51.0676 32.6638 47.8406 29.4624 43.86 29.4624C39.8793 29.4624 36.6523 32.6638 36.6523 36.6129C36.6523 40.5621 39.8793 43.7635 43.86 43.7635Z" fill="#01E3F1"/>
<path d="M44.3111 44.5699C48.2918 44.5699 51.5187 41.3685 51.5187 37.4193C51.5187 33.4702 48.2918 30.2688 44.3111 30.2688C40.3305 30.2688 37.1035 33.4702 37.1035 37.4193C37.1035 41.3685 40.3305 44.5699 44.3111 44.5699Z" fill="#01E4F0"/>
<path d="M44.7818 45.3943C48.7625 45.3943 51.9894 42.1929 51.9894 38.2438C51.9894 34.2946 48.7625 31.0933 44.7818 31.0933C40.8012 31.0933 37.5742 34.2946 37.5742 38.2438C37.5742 42.1929 40.8012 45.3943 44.7818 45.3943Z" fill="#01E5F0"/>
<path d="M45.2506 46.2185C49.2312 46.2185 52.4582 43.0172 52.4582 39.068C52.4582 35.1189 49.2312 31.9175 45.2506 31.9175C41.2699 31.9175 38.043 35.1189 38.043 39.068C38.043 43.0172 41.2699 46.2185 45.2506 46.2185Z" fill="#01E6F0"/>
<path d="M45.7017 47.0252C49.6824 47.0252 52.9094 43.8238 52.9094 39.8747C52.9094 35.9255 49.6824 32.7241 45.7017 32.7241C41.7211 32.7241 38.4941 35.9255 38.4941 39.8747C38.4941 43.8238 41.7211 47.0252 45.7017 47.0252Z" fill="#01E7F0"/>
<path d="M46.1724 47.8494C50.1531 47.8494 53.3801 44.648 53.3801 40.6989C53.3801 36.7498 50.1531 33.5483 46.1724 33.5483C42.1918 33.5483 38.9648 36.7498 38.9648 40.6989C38.9648 44.648 42.1918 47.8494 46.1724 47.8494Z" fill="#01E8EF"/>
<path d="M46.6412 48.6739C50.6218 48.6739 53.8488 45.4725 53.8488 41.5234C53.8488 37.5742 50.6218 34.3728 46.6412 34.3728C42.6605 34.3728 39.4336 37.5742 39.4336 41.5234C39.4336 45.4725 42.6605 48.6739 46.6412 48.6739Z" fill="#01E9EF"/>
<path d="M47.1119 49.4803C51.0926 49.4803 54.3195 46.2789 54.3195 42.3297C54.3195 38.3806 51.0926 35.1792 47.1119 35.1792C43.1313 35.1792 39.9043 38.3806 39.9043 42.3297C39.9043 46.2789 43.1313 49.4803 47.1119 49.4803Z" fill="#01EAEF"/>
</svg>
