<svg width="348" height="50" viewBox="0 0 348 50" fill="none" xmlns="http://www.w3.org/2000/svg">
<path d="M183.259 8.88696L194.649 36.2191L205.984 8.88696H209.251L195.984 40.0354H193.259L179.992 8.88696H183.259Z" fill="#B2B6C7"/>
<path d="M218.491 40.4771C216.795 40.4771 215.242 40.1591 213.834 39.5407C212.427 38.9047 211.217 38.0566 210.188 36.9789C209.16 35.9011 208.365 34.6467 207.788 33.1979C207.228 31.7668 206.939 30.2651 206.939 28.675C206.939 27.0672 207.228 25.5478 207.806 24.1167C208.383 22.6856 209.196 21.4312 210.225 20.3357C211.253 19.258 212.481 18.3923 213.871 17.7386C215.278 17.1025 216.813 16.7668 218.491 16.7668C220.17 16.7668 221.704 17.0849 223.13 17.7386C224.556 18.3746 225.783 19.2403 226.812 20.3357C227.841 21.4135 228.653 22.6679 229.231 24.1167C229.809 25.5478 230.097 27.0672 230.097 28.675C230.097 30.2474 229.809 31.7668 229.249 33.1979C228.689 34.629 227.877 35.8835 226.848 36.9789C225.82 38.0566 224.592 38.9223 223.166 39.5407C221.758 40.1591 220.206 40.4771 218.491 40.4771ZM210.026 28.728C210.026 30.0177 210.243 31.2015 210.694 32.2969C211.145 33.3923 211.741 34.364 212.517 35.1944C213.275 36.0248 214.177 36.6785 215.206 37.1555C216.235 37.6326 217.336 37.8622 218.509 37.8622C219.683 37.8622 220.766 37.6149 221.812 37.1379C222.841 36.6608 223.744 35.9895 224.52 35.1591C225.296 34.3287 225.91 33.3569 226.361 32.2439C226.812 31.1308 227.029 29.9294 227.029 28.6396C227.029 27.3852 226.812 26.1838 226.361 25.0707C225.91 23.94 225.296 22.9683 224.52 22.1379C223.744 21.3075 222.841 20.6538 221.812 20.1591C220.784 19.682 219.683 19.4347 218.509 19.4347C217.336 19.4347 216.253 19.682 215.242 20.1591C214.232 20.6361 213.329 21.3075 212.553 22.1555C211.777 23.0036 211.163 23.993 210.712 25.1237C210.243 26.2191 210.026 27.4382 210.026 28.728Z" fill="#B2B6C7"/>
<path d="M253.598 17.1731L240.512 49.3816H237.101C237.101 49.3462 237.227 48.9929 237.498 48.3215C237.769 47.6501 238.093 46.8374 238.49 45.8834C238.87 44.9293 239.303 43.9222 239.754 42.8798C240.205 41.8197 240.602 40.8833 240.963 40.0353L230.783 17.1731H234.014L242.624 37.2614L250.656 17.1731H253.598V17.1731Z" fill="#B2B6C7"/>
<path d="M266.542 40.4771C264.899 40.4771 263.401 40.1591 262.029 39.5054C260.675 38.8693 259.502 38.0036 258.527 36.9082C257.553 35.8304 256.795 34.576 256.271 33.1273C255.73 31.6962 255.459 30.1944 255.459 28.6573C255.459 27.0495 255.73 25.5124 256.289 24.0637C256.849 22.6149 257.607 21.3428 258.6 20.2651C259.592 19.1873 260.73 18.3216 262.047 17.7032C263.365 17.0672 264.773 16.7668 266.307 16.7668C268.274 16.7668 270.025 17.2615 271.523 18.2333C273.04 19.205 274.213 20.4594 275.079 21.9789V17.3499H278.13V40.0354H275.079V35.4241C274.213 36.9435 273.039 38.1626 271.559 39.0813C270.115 40.0177 268.419 40.4771 266.542 40.4771ZM275.115 25.3004C274.79 24.4524 274.339 23.675 273.798 22.9506C273.238 22.2262 272.624 21.6078 271.938 21.0778C271.253 20.5478 270.494 20.1414 269.682 19.8411C268.852 19.5407 268.004 19.3994 267.101 19.3994C265.838 19.3994 264.7 19.6644 263.654 20.2121C262.607 20.7598 261.704 21.4665 260.964 22.3322C260.224 23.2156 259.647 24.205 259.231 25.3181C258.834 26.4312 258.618 27.5442 258.618 28.6573C258.618 29.8941 258.834 31.0601 259.249 32.1732C259.665 33.2863 260.26 34.258 261.018 35.0884C261.776 35.9188 262.679 36.5902 263.726 37.0849C264.773 37.5796 265.928 37.8269 267.173 37.8269C269.05 37.8269 270.675 37.2792 272.029 36.2015C273.382 35.1237 274.411 33.781 275.097 32.2085V25.3004H275.115Z" fill="#B2B6C7"/>
<path d="M293.309 40.3534C291.703 40.3534 290.223 40.0177 288.887 39.364C287.551 38.7103 286.414 37.8446 285.44 36.7492C284.465 35.6714 283.707 34.417 283.183 33.0213C282.642 31.6255 282.371 30.1767 282.371 28.675C282.371 27.1025 282.624 25.5831 283.147 24.1343C283.671 22.6856 284.411 21.4135 285.367 20.3358C286.324 19.258 287.461 18.3923 288.797 17.7386C290.132 17.1025 291.595 16.7668 293.219 16.7668C295.223 16.7668 296.955 17.2615 298.417 18.2333C299.879 19.205 301.143 20.4418 302.19 21.9435V17.1732H304.915V40.1237C304.915 41.6962 304.608 43.0919 303.995 44.311C303.381 45.5301 302.569 46.5372 301.522 47.3676C300.493 48.1803 299.284 48.7987 297.894 49.205C296.504 49.6114 295.024 49.8234 293.472 49.8234C290.782 49.8234 288.616 49.3464 286.974 48.4276C285.331 47.4912 283.996 46.2368 282.985 44.6467L284.862 43.1979C285.782 44.6644 287.01 45.7421 288.544 46.4312C290.06 47.1202 291.703 47.4559 293.472 47.4559C294.609 47.4559 295.674 47.2969 296.703 46.9965C297.713 46.6962 298.616 46.2368 299.374 45.6361C300.132 45.0354 300.746 44.2757 301.197 43.357C301.648 42.4382 301.865 41.3605 301.865 40.1237V35.6008C300.962 37.0672 299.735 38.2156 298.183 39.0637C296.63 39.9294 295.006 40.3534 293.309 40.3534ZM294.158 37.8446C295.06 37.8446 295.926 37.6856 296.811 37.3676C297.677 37.0495 298.453 36.6078 299.157 36.0778C299.861 35.5301 300.457 34.9294 300.926 34.258C301.396 33.5866 301.72 32.8976 301.865 32.1909V25.1237C301.54 24.311 301.089 23.5513 300.511 22.8446C299.952 22.1379 299.302 21.5372 298.58 21.0425C297.858 20.5478 297.1 20.1591 296.269 19.8587C295.439 19.5584 294.627 19.417 293.779 19.417C292.461 19.417 291.288 19.682 290.259 20.2297C289.23 20.7774 288.346 21.4842 287.642 22.3499C286.92 23.2333 286.378 24.2227 285.999 25.3357C285.62 26.4488 285.44 27.5796 285.44 28.7103C285.44 29.9471 285.656 31.1131 286.107 32.2262C286.559 33.3393 287.172 34.311 287.967 35.1414C288.761 35.9718 289.681 36.6255 290.728 37.1202C291.793 37.5972 292.93 37.8446 294.158 37.8446Z" fill="#B2B6C7"/>
<path d="M320.815 40.477C319.119 40.477 317.548 40.159 316.122 39.5406C314.697 38.9046 313.469 38.0565 312.422 36.9434C311.375 35.848 310.563 34.576 309.986 33.1449C309.408 31.7138 309.119 30.1767 309.119 28.5335C309.119 26.9258 309.408 25.4063 309.986 23.9929C310.563 22.5795 311.375 21.3251 312.404 20.265C313.433 19.2049 314.66 18.3569 316.104 17.7208C317.53 17.0848 319.101 16.7844 320.761 16.7844C322.458 16.7844 324.028 17.1024 325.454 17.7208C326.88 18.3569 328.09 19.2049 329.1 20.2827C330.111 21.3604 330.905 22.6148 331.483 24.0106C332.042 25.4063 332.331 26.9081 332.331 28.4805C332.331 28.7102 332.331 28.9576 332.331 29.1873C332.331 29.4169 332.313 29.576 332.295 29.6643H312.296C312.386 30.901 312.675 32.0318 313.162 33.0565C313.65 34.0989 314.281 35 315.076 35.7597C315.852 36.5194 316.736 37.1201 317.747 37.5442C318.74 37.9682 319.823 38.1802 320.96 38.1802C321.7 38.1802 322.458 38.0742 323.198 37.8798C323.938 37.6678 324.624 37.4028 325.256 37.0495C325.887 36.6961 326.447 36.2721 326.952 35.7597C327.458 35.2473 327.855 34.682 328.126 34.0636L330.779 34.7703C330.418 35.6184 329.913 36.3781 329.263 37.0671C328.613 37.7562 327.837 38.3569 326.97 38.8692C326.104 39.3816 325.147 39.7703 324.101 40.053C323.054 40.3357 321.953 40.477 320.815 40.477ZM329.425 27.4028C329.335 26.1661 329.046 25.053 328.559 24.0459C328.071 23.0388 327.44 22.1731 326.682 21.4311C325.924 20.7067 325.039 20.1236 324.028 19.7173C323.036 19.3109 321.953 19.0989 320.815 19.0989C319.678 19.0989 318.595 19.3109 317.585 19.7173C316.574 20.1236 315.671 20.689 314.913 21.4311C314.155 22.1555 313.541 23.0388 313.072 24.0636C312.603 25.0883 312.332 26.2014 312.242 27.4028H329.425Z" fill="#B2B6C7"/>
<path d="M347.801 19.8057C345.743 19.8587 343.938 20.4241 342.422 21.4665C340.906 22.5266 339.823 23.9754 339.191 25.8128V40.0354H336.141V17.1732H339.011V22.6503C339.877 20.9012 341.05 19.5231 342.512 18.5337C343.974 17.5443 345.545 17.0496 347.223 17.0496C347.458 17.0496 347.656 17.0672 347.801 17.0849V19.8057Z" fill="#B2B6C7"/>
<path d="M83.7877 8.88696H90.43L102.054 39.9824H94.5273L92.0545 33.0212H82.1271L79.7084 39.9824H72.1816L83.7877 8.88696ZM90.8271 28.0742L87.1088 17.0848L83.3003 28.0742H90.8271Z" fill="#12141D"/>
<path d="M106.061 8.88696H113.226V39.9824H106.061V8.88696Z" fill="#12141D"/>
<path d="M129.688 40.4241C127.865 40.4595 126.06 40.1238 124.382 39.4877C122.884 38.9047 121.53 38.039 120.393 36.9259C119.31 35.8658 118.461 34.5761 117.902 33.1803C117.342 31.7669 117.054 30.2651 117.054 28.728C117.035 27.1202 117.324 25.5301 117.902 24.0107C118.443 22.5619 119.292 21.2545 120.375 20.1414C121.494 19.0107 122.848 18.1096 124.346 17.5089C126.042 16.8375 127.865 16.5195 129.706 16.5372C131.529 16.5019 133.352 16.8375 135.049 17.5089C136.529 18.1096 137.883 18.993 139.002 20.1238C140.067 21.2192 140.897 22.4913 141.439 23.9047C141.998 25.3535 142.269 26.8729 142.269 28.41C142.269 28.8163 142.251 29.205 142.233 29.6114C142.215 29.9648 142.161 30.3004 142.089 30.6361H124.689C124.815 32.1909 125.393 33.357 126.421 34.1697C127.414 34.9648 128.66 35.3888 129.941 35.3711C131.006 35.3711 132.035 35.1061 132.973 34.6291C133.948 34.1344 134.598 33.463 134.923 32.6149L141.872 32.5973C141.258 35.5301 138.659 37.5619 136.71 38.6927C134.724 39.8588 132.396 40.4241 129.688 40.4241ZM134.652 26.3252C134.508 24.8588 133.966 23.7103 133.046 22.8623C132.107 22.0142 130.862 21.5549 129.598 21.5902C128.19 21.5902 127.035 22.0142 126.133 22.88C125.23 23.7457 124.689 24.8941 124.544 26.3252H134.652Z" fill="#12141D"/>
<path d="M158.946 40.424C157.105 40.4593 155.282 40.1236 153.585 39.4522C152.087 38.8515 150.733 37.9681 149.614 36.8374C148.531 35.742 147.701 34.4522 147.177 33.0211C146.076 30.0883 146.076 26.8727 147.177 23.9575C147.719 22.5441 148.549 21.2367 149.614 20.1413C150.733 19.0105 152.087 18.1271 153.585 17.5088C155.282 16.8197 157.105 16.484 158.946 16.5194C160.769 16.484 162.592 16.8197 164.289 17.5088C165.769 18.1271 167.104 19.0105 168.241 20.1413C169.324 21.2367 170.155 22.5264 170.714 23.9575C171.292 25.4063 171.581 26.9434 171.563 28.4982C171.563 30.0529 171.292 31.59 170.732 33.0388C170.191 34.4522 169.361 35.7597 168.296 36.8551C167.177 37.9858 165.823 38.8692 164.325 39.4699C162.61 40.1236 160.787 40.4593 158.946 40.424ZM153.693 28.5158C153.693 30.3356 154.181 31.7844 155.173 32.8798C155.895 33.6572 156.834 34.2049 157.881 34.4169C158.928 34.6289 160.029 34.5229 161.003 34.0812C161.635 33.7809 162.195 33.3745 162.646 32.8621C163.133 32.2968 163.512 31.6607 163.747 30.954C164.018 30.1766 164.162 29.3462 164.162 28.5158C164.162 26.7137 163.675 25.2473 162.682 24.1519C162.231 23.6218 161.653 23.1978 161.003 22.9151C160.354 22.6324 159.65 22.4911 158.946 22.5088C158.242 22.5088 157.538 22.6501 156.888 22.9328C156.238 23.2155 155.661 23.6395 155.21 24.1695C154.722 24.7349 154.343 25.371 154.108 26.0777C153.838 26.8551 153.693 27.6854 153.693 28.5158Z" fill="#12141D"/>
<path d="M7.20187 48.7808C11.1793 48.7808 14.4037 45.6247 14.4037 41.7314C14.4037 37.838 11.1793 34.6819 7.20187 34.6819C3.22439 34.6819 0 37.838 0 41.7314C0 45.6247 3.22439 48.7808 7.20187 48.7808Z" fill="#6950FF"/>
<path d="M7.20187 48.7808C11.1793 48.7808 14.4037 45.6247 14.4037 41.7314C14.4037 37.838 11.1793 34.6819 7.20187 34.6819C3.22439 34.6819 0 37.838 0 41.7314C0 45.6247 3.22439 48.7808 7.20187 48.7808Z" fill="#6850FF"/>
<path d="M7.20187 48.7808C11.1793 48.7808 14.4037 45.6247 14.4037 41.7314C14.4037 37.838 11.1793 34.6819 7.20187 34.6819C3.22439 34.6819 0 37.838 0 41.7314C0 45.6247 3.22439 48.7808 7.20187 48.7808Z" fill="#6750FF"/>
<path d="M7.20187 48.7808C11.1793 48.7808 14.4037 45.6247 14.4037 41.7314C14.4037 37.838 11.1793 34.6819 7.20187 34.6819C3.22439 34.6819 0 37.838 0 41.7314C0 45.6247 3.22439 48.7808 7.20187 48.7808Z" fill="#6650FF"/>
<path d="M7.20187 48.7808C11.1793 48.7808 14.4037 45.6247 14.4037 41.7314C14.4037 37.838 11.1793 34.6819 7.20187 34.6819C3.22439 34.6819 0 37.838 0 41.7314C0 45.6247 3.22439 48.7808 7.20187 48.7808Z" fill="#6550FF"/>
<path d="M7.20187 48.7808C11.1793 48.7808 14.4037 45.6247 14.4037 41.7314C14.4037 37.838 11.1793 34.6819 7.20187 34.6819C3.22439 34.6819 0 37.838 0 41.7314C0 45.6247 3.22439 48.7808 7.20187 48.7808Z" fill="#6450FF"/>
<path d="M7.20187 48.7808C11.1793 48.7808 14.4037 45.6247 14.4037 41.7314C14.4037 37.838 11.1793 34.6819 7.20187 34.6819C3.22439 34.6819 0 37.838 0 41.7314C0 45.6247 3.22439 48.7808 7.20187 48.7808Z" fill="#6350FF"/>
<path d="M7.20187 48.7808C11.1793 48.7808 14.4037 45.6247 14.4037 41.7314C14.4037 37.838 11.1793 34.6819 7.20187 34.6819C3.22439 34.6819 0 37.838 0 41.7314C0 45.6247 3.22439 48.7808 7.20187 48.7808Z" fill="#6250FF"/>
<path d="M7.20187 48.7808C11.1793 48.7808 14.4037 45.6247 14.4037 41.7314C14.4037 37.838 11.1793 34.6819 7.20187 34.6819C3.22439 34.6819 0 37.838 0 41.7314C0 45.6247 3.22439 48.7808 7.20187 48.7808Z" fill="#6150FE"/>
<path d="M7.20187 48.7808C11.1793 48.7808 14.4037 45.6247 14.4037 41.7314C14.4037 37.838 11.1793 34.6819 7.20187 34.6819C3.22439 34.6819 0 37.838 0 41.7314C0 45.6247 3.22439 48.7808 7.20187 48.7808Z" fill="#604FFE"/>
<path d="M7.20187 48.7808C11.1793 48.7808 14.4037 45.6247 14.4037 41.7314C14.4037 37.838 11.1793 34.6819 7.20187 34.6819C3.22439 34.6819 0 37.838 0 41.7314C0 45.6247 3.22439 48.7808 7.20187 48.7808Z" fill="#5F4FFE"/>
<path d="M7.20187 48.7808C11.1793 48.7808 14.4037 45.6247 14.4037 41.7314C14.4037 37.838 11.1793 34.6819 7.20187 34.6819C3.22439 34.6819 0 37.838 0 41.7314C0 45.6247 3.22439 48.7808 7.20187 48.7808Z" fill="#5E4FFE"/>
<path d="M7.20187 48.7808C11.1793 48.7808 14.4037 45.6247 14.4037 41.7314C14.4037 37.838 11.1793 34.6819 7.20187 34.6819C3.22439 34.6819 0 37.838 0 41.7314C0 45.6247 3.22439 48.7808 7.20187 48.7808Z" fill="#5D4FFE"/>
<path d="M7.20187 48.7808C11.1793 48.7808 14.4037 45.6247 14.4037 41.7314C14.4037 37.838 11.1793 34.6819 7.20187 34.6819C3.22439 34.6819 0 37.838 0 41.7314C0 45.6247 3.22439 48.7808 7.20187 48.7808Z" fill="#5C4FFE"/>
<path d="M7.20187 48.7808C11.1793 48.7808 14.4037 45.6247 14.4037 41.7314C14.4037 37.838 11.1793 34.6819 7.20187 34.6819C3.22439 34.6819 0 37.838 0 41.7314C0 45.6247 3.22439 48.7808 7.20187 48.7808Z" fill="#5B4FFE"/>
<path d="M7.20187 48.7808C11.1793 48.7808 14.4037 45.6247 14.4037 41.7314C14.4037 37.838 11.1793 34.6819 7.20187 34.6819C3.22439 34.6819 0 37.838 0 41.7314C0 45.6247 3.22439 48.7808 7.20187 48.7808Z" fill="#5A4FFE"/>
<path d="M7.20187 48.7808C11.1793 48.7808 14.4037 45.6247 14.4037 41.7314C14.4037 37.838 11.1793 34.6819 7.20187 34.6819C3.22439 34.6819 0 37.838 0 41.7314C0 45.6247 3.22439 48.7808 7.20187 48.7808Z" fill="#594FFE"/>
<path d="M7.20187 48.7808C11.1793 48.7808 14.4037 45.6247 14.4037 41.7314C14.4037 37.838 11.1793 34.6819 7.20187 34.6819C3.22439 34.6819 0 37.838 0 41.7314C0 45.6247 3.22439 48.7808 7.20187 48.7808Z" fill="#584FFE"/>
<path d="M7.20187 48.7808C11.1793 48.7808 14.4037 45.6247 14.4037 41.7314C14.4037 37.838 11.1793 34.6819 7.20187 34.6819C3.22439 34.6819 0 37.838 0 41.7314C0 45.6247 3.22439 48.7808 7.20187 48.7808Z" fill="#574FFE"/>
<path d="M7.20187 48.7808C11.1793 48.7808 14.4037 45.6247 14.4037 41.7314C14.4037 37.838 11.1793 34.6819 7.20187 34.6819C3.22439 34.6819 0 37.838 0 41.7314C0 45.6247 3.22439 48.7808 7.20187 48.7808Z" fill="#564FFE"/>
<path d="M7.20187 48.7808C11.1793 48.7808 14.4037 45.6247 14.4037 41.7314C14.4037 37.838 11.1793 34.6819 7.20187 34.6819C3.22439 34.6819 0 37.838 0 41.7314C0 45.6247 3.22439 48.7808 7.20187 48.7808Z" fill="#554FFE"/>
<path d="M7.20187 48.7808C11.1793 48.7808 14.4037 45.6247 14.4037 41.7314C14.4037 37.838 11.1793 34.6819 7.20187 34.6819C3.22439 34.6819 0 37.838 0 41.7314C0 45.6247 3.22439 48.7808 7.20187 48.7808Z" fill="#544FFE"/>
<path d="M7.20187 48.7808C11.1793 48.7808 14.4037 45.6247 14.4037 41.7314C14.4037 37.838 11.1793 34.6819 7.20187 34.6819C3.22439 34.6819 0 37.838 0 41.7314C0 45.6247 3.22439 48.7808 7.20187 48.7808Z" fill="#534FFD"/>
<path d="M7.20187 48.7808C11.1793 48.7808 14.4037 45.6247 14.4037 41.7314C14.4037 37.838 11.1793 34.6819 7.20187 34.6819C3.22439 34.6819 0 37.838 0 41.7314C0 45.6247 3.22439 48.7808 7.20187 48.7808Z" fill="#524FFD"/>
<path d="M7.20187 48.7808C11.1793 48.7808 14.4037 45.6247 14.4037 41.7314C14.4037 37.838 11.1793 34.6819 7.20187 34.6819C3.22439 34.6819 0 37.838 0 41.7314C0 45.6247 3.22439 48.7808 7.20187 48.7808Z" fill="#514FFD"/>
<path d="M7.20187 48.7808C11.1793 48.7808 14.4037 45.6247 14.4037 41.7314C14.4037 37.838 11.1793 34.6819 7.20187 34.6819C3.22439 34.6819 0 37.838 0 41.7314C0 45.6247 3.22439 48.7808 7.20187 48.7808Z" fill="#504FFD"/>
<path d="M7.20187 48.7808C11.1793 48.7808 14.4037 45.6247 14.4037 41.7314C14.4037 37.838 11.1793 34.6819 7.20187 34.6819C3.22439 34.6819 0 37.838 0 41.7314C0 45.6247 3.22439 48.7808 7.20187 48.7808Z" fill="#4F4EFD"/>
<path d="M7.20187 48.7808C11.1793 48.7808 14.4037 45.6247 14.4037 41.7314C14.4037 37.838 11.1793 34.6819 7.20187 34.6819C3.22439 34.6819 0 37.838 0 41.7314C0 45.6247 3.22439 48.7808 7.20187 48.7808Z" fill="#4E4EFD"/>
<path d="M7.20187 48.7808C11.1793 48.7808 14.4037 45.6247 14.4037 41.7314C14.4037 37.838 11.1793 34.6819 7.20187 34.6819C3.22439 34.6819 0 37.838 0 41.7314C0 45.6247 3.22439 48.7808 7.20187 48.7808Z" fill="#4D4EFD"/>
<path d="M7.20187 48.7808C11.1793 48.7808 14.4037 45.6247 14.4037 41.7314C14.4037 37.838 11.1793 34.6819 7.20187 34.6819C3.22439 34.6819 0 37.838 0 41.7314C0 45.6247 3.22439 48.7808 7.20187 48.7808Z" fill="#4C4EFD"/>
<path d="M7.20187 48.7808C11.1793 48.7808 14.4037 45.6247 14.4037 41.7314C14.4037 37.838 11.1793 34.6819 7.20187 34.6819C3.22439 34.6819 0 37.838 0 41.7314C0 45.6247 3.22439 48.7808 7.20187 48.7808Z" fill="#4B4EFD"/>
<path d="M7.20187 48.7808C11.1793 48.7808 14.4037 45.6247 14.4037 41.7314C14.4037 37.838 11.1793 34.6819 7.20187 34.6819C3.22439 34.6819 0 37.838 0 41.7314C0 45.6247 3.22439 48.7808 7.20187 48.7808Z" fill="#4A4EFD"/>
<path d="M7.20187 48.7808C11.1793 48.7808 14.4037 45.6247 14.4037 41.7314C14.4037 37.838 11.1793 34.6819 7.20187 34.6819C3.22439 34.6819 0 37.838 0 41.7314C0 45.6247 3.22439 48.7808 7.20187 48.7808Z" fill="#494EFD"/>
<path d="M7.20187 48.7808C11.1793 48.7808 14.4037 45.6247 14.4037 41.7314C14.4037 37.838 11.1793 34.6819 7.20187 34.6819C3.22439 34.6819 0 37.838 0 41.7314C0 45.6247 3.22439 48.7808 7.20187 48.7808Z" fill="#484EFD"/>
<path d="M7.20187 48.7808C11.1793 48.7808 14.4037 45.6247 14.4037 41.7314C14.4037 37.838 11.1793 34.6819 7.20187 34.6819C3.22439 34.6819 0 37.838 0 41.7314C0 45.6247 3.22439 48.7808 7.20187 48.7808Z" fill="#474EFD"/>
<path d="M7.20187 48.7808C11.1793 48.7808 14.4037 45.6247 14.4037 41.7314C14.4037 37.838 11.1793 34.6819 7.20187 34.6819C3.22439 34.6819 0 37.838 0 41.7314C0 45.6247 3.22439 48.7808 7.20187 48.7808Z" fill="#464EFD"/>
<path d="M7.20187 48.7808C11.1793 48.7808 14.4037 45.6247 14.4037 41.7314C14.4037 37.838 11.1793 34.6819 7.20187 34.6819C3.22439 34.6819 0 37.838 0 41.7314C0 45.6247 3.22439 48.7808 7.20187 48.7808Z" fill="#454EFC"/>
<path d="M7.20187 48.7808C11.1793 48.7808 14.4037 45.6247 14.4037 41.7314C14.4037 37.838 11.1793 34.6819 7.20187 34.6819C3.22439 34.6819 0 37.838 0 41.7314C0 45.6247 3.22439 48.7808 7.20187 48.7808Z" fill="#444EFC"/>
<path d="M7.20187 48.7808C11.1793 48.7808 14.4037 45.6247 14.4037 41.7314C14.4037 37.838 11.1793 34.6819 7.20187 34.6819C3.22439 34.6819 0 37.838 0 41.7314C0 45.6247 3.22439 48.7808 7.20187 48.7808Z" fill="#434EFC"/>
<path d="M7.20187 48.7808C11.1793 48.7808 14.4037 45.6247 14.4037 41.7314C14.4037 37.838 11.1793 34.6819 7.20187 34.6819C3.22439 34.6819 0 37.838 0 41.7314C0 45.6247 3.22439 48.7808 7.20187 48.7808Z" fill="#424EFC"/>
<path d="M7.20187 48.7808C11.1793 48.7808 14.4037 45.6247 14.4037 41.7314C14.4037 37.838 11.1793 34.6819 7.20187 34.6819C3.22439 34.6819 0 37.838 0 41.7314C0 45.6247 3.22439 48.7808 7.20187 48.7808Z" fill="#414EFC"/>
<path d="M7.20187 48.7808C11.1793 48.7808 14.4037 45.6247 14.4037 41.7314C14.4037 37.838 11.1793 34.6819 7.20187 34.6819C3.22439 34.6819 0 37.838 0 41.7314C0 45.6247 3.22439 48.7808 7.20187 48.7808Z" fill="#404EFC"/>
<path d="M7.20187 48.7808C11.1793 48.7808 14.4037 45.6247 14.4037 41.7314C14.4037 37.838 11.1793 34.6819 7.20187 34.6819C3.22439 34.6819 0 37.838 0 41.7314C0 45.6247 3.22439 48.7808 7.20187 48.7808Z" fill="#3F4EFC"/>
<path d="M7.20187 48.7808C11.1793 48.7808 14.4037 45.6247 14.4037 41.7314C14.4037 37.838 11.1793 34.6819 7.20187 34.6819C3.22439 34.6819 0 37.838 0 41.7314C0 45.6247 3.22439 48.7808 7.20187 48.7808Z" fill="#3F4DFC"/>
<path d="M7.20187 48.7808C11.1793 48.7808 14.4037 45.6247 14.4037 41.7314C14.4037 37.838 11.1793 34.6819 7.20187 34.6819C3.22439 34.6819 0 37.838 0 41.7314C0 45.6247 3.22439 48.7808 7.20187 48.7808Z" fill="#3E4DFC"/>
<path d="M7.20187 48.7808C11.1793 48.7808 14.4037 45.6247 14.4037 41.7314C14.4037 37.838 11.1793 34.6819 7.20187 34.6819C3.22439 34.6819 0 37.838 0 41.7314C0 45.6247 3.22439 48.7808 7.20187 48.7808Z" fill="#3D4DFC"/>
<path d="M7.20187 48.7808C11.1793 48.7808 14.4037 45.6247 14.4037 41.7314C14.4037 37.838 11.1793 34.6819 7.20187 34.6819C3.22439 34.6819 0 37.838 0 41.7314C0 45.6247 3.22439 48.7808 7.20187 48.7808Z" fill="#3C4DFC"/>
<path d="M7.20187 48.7808C11.1793 48.7808 14.4037 45.6247 14.4037 41.7314C14.4037 37.838 11.1793 34.6819 7.20187 34.6819C3.22439 34.6819 0 37.838 0 41.7314C0 45.6247 3.22439 48.7808 7.20187 48.7808Z" fill="#3B4DFC"/>
<path d="M7.20187 48.7808C11.1793 48.7808 14.4037 45.6247 14.4037 41.7314C14.4037 37.838 11.1793 34.6819 7.20187 34.6819C3.22439 34.6819 0 37.838 0 41.7314C0 45.6247 3.22439 48.7808 7.20187 48.7808Z" fill="#3A4DFC"/>
<path d="M7.20187 48.7808C11.1793 48.7808 14.4037 45.6247 14.4037 41.7314C14.4037 37.838 11.1793 34.6819 7.20187 34.6819C3.22439 34.6819 0 37.838 0 41.7314C0 45.6247 3.22439 48.7808 7.20187 48.7808Z" fill="#394DFC"/>
<path d="M7.20187 48.7808C11.1793 48.7808 14.4037 45.6247 14.4037 41.7314C14.4037 37.838 11.1793 34.6819 7.20187 34.6819C3.22439 34.6819 0 37.838 0 41.7314C0 45.6247 3.22439 48.7808 7.20187 48.7808Z" fill="#384DFB"/>
<path d="M7.20187 48.7808C11.1793 48.7808 14.4037 45.6247 14.4037 41.7314C14.4037 37.838 11.1793 34.6819 7.20187 34.6819C3.22439 34.6819 0 37.838 0 41.7314C0 45.6247 3.22439 48.7808 7.20187 48.7808Z" fill="#374DFB"/>
<path d="M7.20187 48.7808C11.1793 48.7808 14.4037 45.6247 14.4037 41.7314C14.4037 37.838 11.1793 34.6819 7.20187 34.6819C3.22439 34.6819 0 37.838 0 41.7314C0 45.6247 3.22439 48.7808 7.20187 48.7808Z" fill="#364DFB"/>
<path d="M7.20187 48.7808C11.1793 48.7808 14.4037 45.6247 14.4037 41.7314C14.4037 37.838 11.1793 34.6819 7.20187 34.6819C3.22439 34.6819 0 37.838 0 41.7314C0 45.6247 3.22439 48.7808 7.20187 48.7808Z" fill="#354DFB"/>
<path d="M7.20187 48.7808C11.1793 48.7808 14.4037 45.6247 14.4037 41.7314C14.4037 37.838 11.1793 34.6819 7.20187 34.6819C3.22439 34.6819 0 37.838 0 41.7314C0 45.6247 3.22439 48.7808 7.20187 48.7808Z" fill="#344DFB"/>
<path d="M7.20187 48.7808C11.1793 48.7808 14.4037 45.6247 14.4037 41.7314C14.4037 37.838 11.1793 34.6819 7.20187 34.6819C3.22439 34.6819 0 37.838 0 41.7314C0 45.6247 3.22439 48.7808 7.20187 48.7808Z" fill="#334DFB"/>
<path d="M7.20187 48.7808C11.1793 48.7808 14.4037 45.6247 14.4037 41.7314C14.4037 37.838 11.1793 34.6819 7.20187 34.6819C3.22439 34.6819 0 37.838 0 41.7314C0 45.6247 3.22439 48.7808 7.20187 48.7808Z" fill="#324DFB"/>
<path d="M7.20187 48.7808C11.1793 48.7808 14.4037 45.6247 14.4037 41.7314C14.4037 37.838 11.1793 34.6819 7.20187 34.6819C3.22439 34.6819 0 37.838 0 41.7314C0 45.6247 3.22439 48.7808 7.20187 48.7808Z" fill="#314DFB"/>
<path d="M7.20187 48.7808C11.1793 48.7808 14.4037 45.6247 14.4037 41.7314C14.4037 37.838 11.1793 34.6819 7.20187 34.6819C3.22439 34.6819 0 37.838 0 41.7314C0 45.6247 3.22439 48.7808 7.20187 48.7808Z" fill="#304DFB"/>
<path d="M7.20187 48.7808C11.1793 48.7808 14.4037 45.6247 14.4037 41.7314C14.4037 37.838 11.1793 34.6819 7.20187 34.6819C3.22439 34.6819 0 37.838 0 41.7314C0 45.6247 3.22439 48.7808 7.20187 48.7808Z" fill="#2F4DFB"/>
<path d="M7.20187 48.7808C11.1793 48.7808 14.4037 45.6247 14.4037 41.7314C14.4037 37.838 11.1793 34.6819 7.20187 34.6819C3.22439 34.6819 0 37.838 0 41.7314C0 45.6247 3.22439 48.7808 7.20187 48.7808Z" fill="#2E4CFB"/>
<path d="M7.20187 48.7808C11.1793 48.7808 14.4037 45.6247 14.4037 41.7314C14.4037 37.838 11.1793 34.6819 7.20187 34.6819C3.22439 34.6819 0 37.838 0 41.7314C0 45.6247 3.22439 48.7808 7.20187 48.7808Z" fill="#2D4CFB"/>
<path d="M7.20187 48.7808C11.1793 48.7808 14.4037 45.6247 14.4037 41.7314C14.4037 37.838 11.1793 34.6819 7.20187 34.6819C3.22439 34.6819 0 37.838 0 41.7314C0 45.6247 3.22439 48.7808 7.20187 48.7808Z" fill="#2C4CFB"/>
<path d="M7.20187 48.7808C11.1793 48.7808 14.4037 45.6247 14.4037 41.7314C14.4037 37.838 11.1793 34.6819 7.20187 34.6819C3.22439 34.6819 0 37.838 0 41.7314C0 45.6247 3.22439 48.7808 7.20187 48.7808Z" fill="#2B4CFB"/>
<path d="M7.20187 48.7808C11.1793 48.7808 14.4037 45.6247 14.4037 41.7314C14.4037 37.838 11.1793 34.6819 7.20187 34.6819C3.22439 34.6819 0 37.838 0 41.7314C0 45.6247 3.22439 48.7808 7.20187 48.7808Z" fill="#2A4CFA"/>
<path d="M7.20187 48.7808C11.1793 48.7808 14.4037 45.6247 14.4037 41.7314C14.4037 37.838 11.1793 34.6819 7.20187 34.6819C3.22439 34.6819 0 37.838 0 41.7314C0 45.6247 3.22439 48.7808 7.20187 48.7808Z" fill="#294CFA"/>
<path d="M7.20187 48.7808C11.1793 48.7808 14.4037 45.6247 14.4037 41.7314C14.4037 37.838 11.1793 34.6819 7.20187 34.6819C3.22439 34.6819 0 37.838 0 41.7314C0 45.6247 3.22439 48.7808 7.20187 48.7808Z" fill="#284CFA"/>
<path d="M7.20187 48.7808C11.1793 48.7808 14.4037 45.6247 14.4037 41.7314C14.4037 37.838 11.1793 34.6819 7.20187 34.6819C3.22439 34.6819 0 37.838 0 41.7314C0 45.6247 3.22439 48.7808 7.20187 48.7808Z" fill="#274CFA"/>
<path d="M7.20187 48.7808C11.1793 48.7808 14.4037 45.6247 14.4037 41.7314C14.4037 37.838 11.1793 34.6819 7.20187 34.6819C3.22439 34.6819 0 37.838 0 41.7314C0 45.6247 3.22439 48.7808 7.20187 48.7808Z" fill="#264CFA"/>
<path d="M7.20187 48.7808C11.1793 48.7808 14.4037 45.6247 14.4037 41.7314C14.4037 37.838 11.1793 34.6819 7.20187 34.6819C3.22439 34.6819 0 37.838 0 41.7314C0 45.6247 3.22439 48.7808 7.20187 48.7808Z" fill="#254CFA"/>
<path d="M7.20187 48.7808C11.1793 48.7808 14.4037 45.6247 14.4037 41.7314C14.4037 37.838 11.1793 34.6819 7.20187 34.6819C3.22439 34.6819 0 37.838 0 41.7314C0 45.6247 3.22439 48.7808 7.20187 48.7808Z" fill="#244CFA"/>
<path d="M7.20187 48.7808C11.1793 48.7808 14.4037 45.6247 14.4037 41.7314C14.4037 37.838 11.1793 34.6819 7.20187 34.6819C3.22439 34.6819 0 37.838 0 41.7314C0 45.6247 3.22439 48.7808 7.20187 48.7808Z" fill="#234CFA"/>
<path d="M7.20187 48.7808C11.1793 48.7808 14.4037 45.6247 14.4037 41.7314C14.4037 37.838 11.1793 34.6819 7.20187 34.6819C3.22439 34.6819 0 37.838 0 41.7314C0 45.6247 3.22439 48.7808 7.20187 48.7808Z" fill="#224CFA"/>
<path d="M7.20187 48.7808C11.1793 48.7808 14.4037 45.6247 14.4037 41.7314C14.4037 37.838 11.1793 34.6819 7.20187 34.6819C3.22439 34.6819 0 37.838 0 41.7314C0 45.6247 3.22439 48.7808 7.20187 48.7808Z" fill="#214CFA"/>
<path d="M7.20187 48.7808C11.1793 48.7808 14.4037 45.6247 14.4037 41.7314C14.4037 37.838 11.1793 34.6819 7.20187 34.6819C3.22439 34.6819 0 37.838 0 41.7314C0 45.6247 3.22439 48.7808 7.20187 48.7808Z" fill="#204CFA"/>
<path d="M7.20187 48.7808C11.1793 48.7808 14.4037 45.6247 14.4037 41.7314C14.4037 37.838 11.1793 34.6819 7.20187 34.6819C3.22439 34.6819 0 37.838 0 41.7314C0 45.6247 3.22439 48.7808 7.20187 48.7808Z" fill="#1F4CFA"/>
<path d="M7.20187 48.7808C11.1793 48.7808 14.4037 45.6247 14.4037 41.7314C14.4037 37.838 11.1793 34.6819 7.20187 34.6819C3.22439 34.6819 0 37.838 0 41.7314C0 45.6247 3.22439 48.7808 7.20187 48.7808Z" fill="#1E4CFA"/>
<path d="M7.20187 48.7808C11.1793 48.7808 14.4037 45.6247 14.4037 41.7314C14.4037 37.838 11.1793 34.6819 7.20187 34.6819C3.22439 34.6819 0 37.838 0 41.7314C0 45.6247 3.22439 48.7808 7.20187 48.7808Z" fill="#1D4BFA"/>
<path d="M7.20187 48.7808C11.1793 48.7808 14.4037 45.6247 14.4037 41.7314C14.4037 37.838 11.1793 34.6819 7.20187 34.6819C3.22439 34.6819 0 37.838 0 41.7314C0 45.6247 3.22439 48.7808 7.20187 48.7808Z" fill="#1C4BF9"/>
<path d="M7.20187 48.7808C11.1793 48.7808 14.4037 45.6247 14.4037 41.7314C14.4037 37.838 11.1793 34.6819 7.20187 34.6819C3.22439 34.6819 0 37.838 0 41.7314C0 45.6247 3.22439 48.7808 7.20187 48.7808Z" fill="#1B4BF9"/>
<path d="M7.20187 48.7808C11.1793 48.7808 14.4037 45.6247 14.4037 41.7314C14.4037 37.838 11.1793 34.6819 7.20187 34.6819C3.22439 34.6819 0 37.838 0 41.7314C0 45.6247 3.22439 48.7808 7.20187 48.7808Z" fill="#1A4BF9"/>
<path d="M7.20187 48.7808C11.1793 48.7808 14.4037 45.6247 14.4037 41.7314C14.4037 37.838 11.1793 34.6819 7.20187 34.6819C3.22439 34.6819 0 37.838 0 41.7314C0 45.6247 3.22439 48.7808 7.20187 48.7808Z" fill="#194BF9"/>
<path d="M7.20187 48.7808C11.1793 48.7808 14.4037 45.6247 14.4037 41.7314C14.4037 37.838 11.1793 34.6819 7.20187 34.6819C3.22439 34.6819 0 37.838 0 41.7314C0 45.6247 3.22439 48.7808 7.20187 48.7808Z" fill="#184BF9"/>
<path d="M7.20187 48.7808C11.1793 48.7808 14.4037 45.6247 14.4037 41.7314C14.4037 37.838 11.1793 34.6819 7.20187 34.6819C3.22439 34.6819 0 37.838 0 41.7314C0 45.6247 3.22439 48.7808 7.20187 48.7808Z" fill="#174BF9"/>
<path d="M7.20187 48.7808C11.1793 48.7808 14.4037 45.6247 14.4037 41.7314C14.4037 37.838 11.1793 34.6819 7.20187 34.6819C3.22439 34.6819 0 37.838 0 41.7314C0 45.6247 3.22439 48.7808 7.20187 48.7808Z" fill="#164BF9"/>
<path d="M7.20187 48.7808C11.1793 48.7808 14.4037 45.6247 14.4037 41.7314C14.4037 37.838 11.1793 34.6819 7.20187 34.6819C3.22439 34.6819 0 37.838 0 41.7314C0 45.6247 3.22439 48.7808 7.20187 48.7808Z" fill="#154BF9"/>
<path d="M7.38156 48.463C11.359 48.463 14.5834 45.3068 14.5834 41.4135C14.5834 37.5202 11.359 34.364 7.38156 34.364C3.40407 34.364 0.179688 37.5202 0.179688 41.4135C0.179688 45.3068 3.40407 48.463 7.38156 48.463Z" fill="#154CF9"/>
<path d="M7.5632 48.1449C11.5407 48.1449 14.7651 44.9887 14.7651 41.0954C14.7651 37.2021 11.5407 34.0459 7.5632 34.0459C3.58571 34.0459 0.361328 37.2021 0.361328 41.0954C0.361328 44.9887 3.58571 48.1449 7.5632 48.1449Z" fill="#144DF9"/>
<path d="M7.74288 47.8445C11.7204 47.8445 14.9448 44.6884 14.9448 40.7951C14.9448 36.9018 11.7204 33.7456 7.74288 33.7456C3.7654 33.7456 0.541016 36.9018 0.541016 40.7951C0.541016 44.6884 3.7654 47.8445 7.74288 47.8445Z" fill="#144EF9"/>
<path d="M7.92452 47.5264C11.902 47.5264 15.1264 44.3703 15.1264 40.477C15.1264 36.5837 11.902 33.4275 7.92452 33.4275C3.94704 33.4275 0.722656 36.5837 0.722656 40.477C0.722656 44.3703 3.94704 47.5264 7.92452 47.5264Z" fill="#134FF9"/>
<path d="M8.10421 47.2086C12.0817 47.2086 15.3061 44.0524 15.3061 40.1591C15.3061 36.2658 12.0817 33.1096 8.10421 33.1096C4.12673 33.1096 0.902344 36.2658 0.902344 40.1591C0.902344 44.0524 4.12673 47.2086 8.10421 47.2086Z" fill="#1350FA"/>
<path d="M8.2839 46.8904C12.2614 46.8904 15.4858 43.7343 15.4858 39.841C15.4858 35.9477 12.2614 32.7915 8.2839 32.7915C4.30642 32.7915 1.08203 35.9477 1.08203 39.841C1.08203 43.7343 4.30642 46.8904 8.2839 46.8904Z" fill="#1351FA"/>
<path d="M8.46554 46.5723C12.443 46.5723 15.6674 43.4162 15.6674 39.5229C15.6674 35.6295 12.443 32.4734 8.46554 32.4734C4.48806 32.4734 1.26367 35.6295 1.26367 39.5229C1.26367 43.4162 4.48806 46.5723 8.46554 46.5723Z" fill="#1252FA"/>
<path d="M8.64523 46.2545C12.6227 46.2545 15.8471 43.0983 15.8471 39.205C15.8471 35.3117 12.6227 32.1555 8.64523 32.1555C4.66775 32.1555 1.44336 35.3117 1.44336 39.205C1.44336 43.0983 4.66775 46.2545 8.64523 46.2545Z" fill="#1253FA"/>
<path d="M8.84445 45.9542C12.8219 45.9542 16.0463 42.798 16.0463 38.9047C16.0463 35.0114 12.8219 31.8552 8.84445 31.8552C4.86696 31.8552 1.64258 35.0114 1.64258 38.9047C1.64258 42.798 4.86696 45.9542 8.84445 45.9542Z" fill="#1254FA"/>
<path d="M9.02413 45.636C13.0016 45.636 16.226 42.4799 16.226 38.5866C16.226 34.6933 13.0016 31.5371 9.02413 31.5371C5.04665 31.5371 1.82227 34.6933 1.82227 38.5866C1.82227 42.4799 5.04665 45.636 9.02413 45.636Z" fill="#1155FA"/>
<path d="M9.20577 45.3179C13.1833 45.3179 16.4076 42.1618 16.4076 38.2685C16.4076 34.3752 13.1833 31.219 9.20577 31.219C5.22829 31.219 2.00391 34.3752 2.00391 38.2685C2.00391 42.1618 5.22829 45.3179 9.20577 45.3179Z" fill="#1156FA"/>
<path d="M9.38546 45.0001C13.3629 45.0001 16.5873 41.8439 16.5873 37.9506C16.5873 34.0573 13.3629 30.9011 9.38546 30.9011C5.40798 30.9011 2.18359 34.0573 2.18359 37.9506C2.18359 41.8439 5.40798 45.0001 9.38546 45.0001Z" fill="#1057FA"/>
<path d="M9.5671 44.682C13.5446 44.682 16.769 41.5258 16.769 37.6325C16.769 33.7392 13.5446 30.583 9.5671 30.583C5.58962 30.583 2.36523 33.7392 2.36523 37.6325C2.36523 41.5258 5.58962 44.682 9.5671 44.682Z" fill="#1058FA"/>
<path d="M9.74679 44.3638C13.7243 44.3638 16.9487 41.2077 16.9487 37.3144C16.9487 33.421 13.7243 30.2649 9.74679 30.2649C5.76931 30.2649 2.54492 33.421 2.54492 37.3144C2.54492 41.2077 5.76931 44.3638 9.74679 44.3638Z" fill="#1059FB"/>
<path d="M9.92648 44.0459C13.904 44.0459 17.1283 40.8898 17.1283 36.9965C17.1283 33.1032 13.904 29.947 9.92648 29.947C5.949 29.947 2.72461 33.1032 2.72461 36.9965C2.72461 40.8898 5.949 44.0459 9.92648 44.0459Z" fill="#0F5AFB"/>
<path d="M10.1081 43.7457C14.0856 43.7457 17.31 40.5895 17.31 36.6962C17.31 32.8029 14.0856 29.6467 10.1081 29.6467C6.13064 29.6467 2.90625 32.8029 2.90625 36.6962C2.90625 40.5895 6.13064 43.7457 10.1081 43.7457Z" fill="#0F5BFB"/>
<path d="M10.2878 43.4275C14.2653 43.4275 17.4897 40.2714 17.4897 36.3781C17.4897 32.4848 14.2653 29.3286 10.2878 29.3286C6.31032 29.3286 3.08594 32.4848 3.08594 36.3781C3.08594 40.2714 6.31032 43.4275 10.2878 43.4275Z" fill="#0F5CFB"/>
<path d="M10.4694 43.1094C14.4469 43.1094 17.6713 39.9533 17.6713 36.06C17.6713 32.1667 14.4469 29.0105 10.4694 29.0105C6.49196 29.0105 3.26758 32.1667 3.26758 36.06C3.26758 39.9533 6.49196 43.1094 10.4694 43.1094Z" fill="#0E5DFB"/>
<path d="M10.6491 42.7916C14.6266 42.7916 17.851 39.6354 17.851 35.7421C17.851 31.8488 14.6266 28.6926 10.6491 28.6926C6.67165 28.6926 3.44727 31.8488 3.44727 35.7421C3.44727 39.6354 6.67165 42.7916 10.6491 42.7916Z" fill="#0E5EFB"/>
<path d="M10.8288 42.4734C14.8063 42.4734 18.0307 39.3173 18.0307 35.424C18.0307 31.5307 14.8063 28.3745 10.8288 28.3745C6.85134 28.3745 3.62695 31.5307 3.62695 35.424C3.62695 39.3173 6.85134 42.4734 10.8288 42.4734Z" fill="#0D5FFB"/>
<path d="M11.0105 42.1556C14.9879 42.1556 18.2123 38.9994 18.2123 35.1061C18.2123 31.2128 14.9879 28.0566 11.0105 28.0566C7.03298 28.0566 3.80859 31.2128 3.80859 35.1061C3.80859 38.9994 7.03298 42.1556 11.0105 42.1556Z" fill="#0D60FB"/>
<path d="M11.1901 41.855C15.1676 41.855 18.392 38.6989 18.392 34.8056C18.392 30.9123 15.1676 27.7561 11.1901 27.7561C7.21267 27.7561 3.98828 30.9123 3.98828 34.8056C3.98828 38.6989 7.21267 41.855 11.1901 41.855Z" fill="#0D61FB"/>
<path d="M11.3718 41.5372C15.3493 41.5372 18.5737 38.381 18.5737 34.4877C18.5737 30.5944 15.3493 27.4382 11.3718 27.4382C7.39431 27.4382 4.16992 30.5944 4.16992 34.4877C4.16992 38.381 7.39431 41.5372 11.3718 41.5372Z" fill="#0C62FC"/>
<path d="M11.5515 41.2191C15.529 41.2191 18.7533 38.0629 18.7533 34.1696C18.7533 30.2763 15.529 27.1201 11.5515 27.1201C7.574 27.1201 4.34961 30.2763 4.34961 34.1696C4.34961 38.0629 7.574 41.2191 11.5515 41.2191Z" fill="#0C63FC"/>
<path d="M11.7331 40.9012C15.7106 40.9012 18.935 37.745 18.935 33.8517C18.935 29.9584 15.7106 26.8022 11.7331 26.8022C7.75564 26.8022 4.53125 29.9584 4.53125 33.8517C4.53125 37.745 7.75564 40.9012 11.7331 40.9012Z" fill="#0B64FC"/>
<path d="M11.9128 40.5831C15.8903 40.5831 19.1147 37.4269 19.1147 33.5336C19.1147 29.6403 15.8903 26.4841 11.9128 26.4841C7.93532 26.4841 4.71094 29.6403 4.71094 33.5336C4.71094 37.4269 7.93532 40.5831 11.9128 40.5831Z" fill="#0B65FC"/>
<path d="M12.0925 40.265C16.07 40.265 19.2944 37.1088 19.2944 33.2155C19.2944 29.3222 16.07 26.166 12.0925 26.166C8.11501 26.166 4.89062 29.3222 4.89062 33.2155C4.89062 37.1088 8.11501 40.265 12.0925 40.265Z" fill="#0B66FC"/>
<path d="M12.2741 39.9471C16.2516 39.9471 19.476 36.7909 19.476 32.8976C19.476 29.0043 16.2516 25.8481 12.2741 25.8481C8.29665 25.8481 5.07227 29.0043 5.07227 32.8976C5.07227 36.7909 8.29665 39.9471 12.2741 39.9471Z" fill="#0A66FC"/>
<path d="M12.4538 39.6465C16.4313 39.6465 19.6557 36.4904 19.6557 32.5971C19.6557 28.7038 16.4313 25.5476 12.4538 25.5476C8.47634 25.5476 5.25195 28.7038 5.25195 32.5971C5.25195 36.4904 8.47634 39.6465 12.4538 39.6465Z" fill="#0A67FC"/>
<path d="M12.6355 39.3287C16.6129 39.3287 19.8373 36.1725 19.8373 32.2792C19.8373 28.3859 16.6129 25.2297 12.6355 25.2297C8.65798 25.2297 5.43359 28.3859 5.43359 32.2792C5.43359 36.1725 8.65798 39.3287 12.6355 39.3287Z" fill="#0A68FC"/>
<path d="M12.8151 39.0106C16.7926 39.0106 20.017 35.8544 20.017 31.9611C20.017 28.0678 16.7926 24.9116 12.8151 24.9116C8.83767 24.9116 5.61328 28.0678 5.61328 31.9611C5.61328 35.8544 8.83767 39.0106 12.8151 39.0106Z" fill="#0969FC"/>
<path d="M12.9968 38.6927C16.9743 38.6927 20.1987 35.5365 20.1987 31.6432C20.1987 27.7499 16.9743 24.5938 12.9968 24.5938C9.01931 24.5938 5.79492 27.7499 5.79492 31.6432C5.79492 35.5365 9.01931 38.6927 12.9968 38.6927Z" fill="#096AFC"/>
<path d="M13.1765 38.3746C17.154 38.3746 20.3783 35.2184 20.3783 31.3251C20.3783 27.4318 17.154 24.2756 13.1765 24.2756C9.199 24.2756 5.97461 27.4318 5.97461 31.3251C5.97461 35.2184 9.199 38.3746 13.1765 38.3746Z" fill="#086BFD"/>
<path d="M13.3562 38.0565C17.3336 38.0565 20.558 34.9003 20.558 31.007C20.558 27.1137 17.3336 23.9575 13.3562 23.9575C9.37868 23.9575 6.1543 27.1137 6.1543 31.007C6.1543 34.9003 9.37868 38.0565 13.3562 38.0565Z" fill="#086CFD"/>
<path d="M13.5554 37.7562C17.5329 37.7562 20.7572 34.6 20.7572 30.7067C20.7572 26.8134 17.5329 23.6572 13.5554 23.6572C9.5779 23.6572 6.35352 26.8134 6.35352 30.7067C6.35352 34.6 9.5779 37.7562 13.5554 37.7562Z" fill="#086DFD"/>
<path d="M13.737 37.4383C17.7145 37.4383 20.9389 34.2821 20.9389 30.3888C20.9389 26.4955 17.7145 23.3394 13.737 23.3394C9.75954 23.3394 6.53516 26.4955 6.53516 30.3888C6.53516 34.2821 9.75954 37.4383 13.737 37.4383Z" fill="#076EFD"/>
<path d="M13.9167 37.1202C17.8942 37.1202 21.1186 33.964 21.1186 30.0707C21.1186 26.1774 17.8942 23.0212 13.9167 23.0212C9.93923 23.0212 6.71484 26.1774 6.71484 30.0707C6.71484 33.964 9.93923 37.1202 13.9167 37.1202Z" fill="#076FFD"/>
<path d="M14.0964 36.8021C18.0739 36.8021 21.2983 33.6459 21.2983 29.7526C21.2983 25.8593 18.0739 22.7031 14.0964 22.7031C10.1189 22.7031 6.89453 25.8593 6.89453 29.7526C6.89453 33.6459 10.1189 36.8021 14.0964 36.8021Z" fill="#0670FD"/>
<path d="M14.278 36.4842C18.2555 36.4842 21.4799 33.328 21.4799 29.4347C21.4799 25.5414 18.2555 22.3853 14.278 22.3853C10.3006 22.3853 7.07617 25.5414 7.07617 29.4347C7.07617 33.328 10.3006 36.4842 14.278 36.4842Z" fill="#0671FD"/>
<path d="M14.4577 36.1661C18.4352 36.1661 21.6596 33.0099 21.6596 29.1166C21.6596 25.2233 18.4352 22.0671 14.4577 22.0671C10.4802 22.0671 7.25586 25.2233 7.25586 29.1166C7.25586 33.0099 10.4802 36.1661 14.4577 36.1661Z" fill="#0672FD"/>
<path d="M14.6394 35.848C18.6169 35.848 21.8412 32.6918 21.8412 28.7985C21.8412 24.9052 18.6169 21.749 14.6394 21.749C10.6619 21.749 7.4375 24.9052 7.4375 28.7985C7.4375 32.6918 10.6619 35.848 14.6394 35.848Z" fill="#0573FD"/>
<path d="M14.8191 35.5477C18.7965 35.5477 22.0209 32.3915 22.0209 28.4982C22.0209 24.6049 18.7965 21.4487 14.8191 21.4487C10.8416 21.4487 7.61719 24.6049 7.61719 28.4982C7.61719 32.3915 10.8416 35.5477 14.8191 35.5477Z" fill="#0574FE"/>
<path d="M14.9987 35.2298C18.9762 35.2298 22.2006 32.0736 22.2006 28.1803C22.2006 24.287 18.9762 21.1309 14.9987 21.1309C11.0213 21.1309 7.79688 24.287 7.79688 28.1803C7.79688 32.0736 11.0213 35.2298 14.9987 35.2298Z" fill="#0575FE"/>
<path d="M15.1804 34.9117C19.1579 34.9117 22.3823 31.7555 22.3823 27.8622C22.3823 23.9689 19.1579 20.8127 15.1804 20.8127C11.2029 20.8127 7.97852 23.9689 7.97852 27.8622C7.97852 31.7555 11.2029 34.9117 15.1804 34.9117Z" fill="#0476FE"/>
<path d="M15.3601 34.5936C19.3376 34.5936 22.5619 31.4374 22.5619 27.5441C22.5619 23.6508 19.3376 20.4946 15.3601 20.4946C11.3826 20.4946 8.1582 23.6508 8.1582 27.5441C8.1582 31.4374 11.3826 34.5936 15.3601 34.5936Z" fill="#0477FE"/>
<path d="M15.5417 34.2757C19.5192 34.2757 22.7436 31.1195 22.7436 27.2262C22.7436 23.3329 19.5192 20.1768 15.5417 20.1768C11.5642 20.1768 8.33984 23.3329 8.33984 27.2262C8.33984 31.1195 11.5642 34.2757 15.5417 34.2757Z" fill="#0378FE"/>
<path d="M15.7214 33.9576C19.6989 33.9576 22.9233 30.8014 22.9233 26.9081C22.9233 23.0148 19.6989 19.8586 15.7214 19.8586C11.7439 19.8586 8.51953 23.0148 8.51953 26.9081C8.51953 30.8014 11.7439 33.9576 15.7214 33.9576Z" fill="#0379FE"/>
<path d="M15.903 33.6573C19.8805 33.6573 23.1049 30.5011 23.1049 26.6078C23.1049 22.7145 19.8805 19.5583 15.903 19.5583C11.9256 19.5583 8.70117 22.7145 8.70117 26.6078C8.70117 30.5011 11.9256 33.6573 15.903 33.6573Z" fill="#037AFE"/>
<path d="M16.0827 33.3392C20.0602 33.3392 23.2846 30.183 23.2846 26.2897C23.2846 22.3964 20.0602 19.2402 16.0827 19.2402C12.1052 19.2402 8.88086 22.3964 8.88086 26.2897C8.88086 30.183 12.1052 33.3392 16.0827 33.3392Z" fill="#027BFE"/>
<path d="M16.2624 33.0213C20.2399 33.0213 23.4643 29.8651 23.4643 25.9718C23.4643 22.0785 20.2399 18.9224 16.2624 18.9224C12.2849 18.9224 9.06055 22.0785 9.06055 25.9718C9.06055 29.8651 12.2849 33.0213 16.2624 33.0213Z" fill="#027CFE"/>
<path d="M16.4441 32.7032C20.4215 32.7032 23.6459 29.547 23.6459 25.6537C23.6459 21.7604 20.4215 18.6042 16.4441 18.6042C12.4666 18.6042 9.24219 21.7604 9.24219 25.6537C9.24219 29.547 12.4666 32.7032 16.4441 32.7032Z" fill="#027DFF"/>
<path d="M16.6237 32.3851C20.6012 32.3851 23.8256 29.2289 23.8256 25.3356C23.8256 21.4423 20.6012 18.2861 16.6237 18.2861C12.6463 18.2861 9.42188 21.4423 9.42188 25.3356C9.42188 29.2289 12.6463 32.3851 16.6237 32.3851Z" fill="#017EFF"/>
<path d="M16.8054 32.0672C20.7829 32.0672 24.0072 28.911 24.0072 25.0177C24.0072 21.1244 20.7829 17.9683 16.8054 17.9683C12.8279 17.9683 9.60352 21.1244 9.60352 25.0177C9.60352 28.911 12.8279 32.0672 16.8054 32.0672Z" fill="#017FFF"/>
<path d="M16.9851 31.7667C20.9626 31.7667 24.1869 28.6105 24.1869 24.7172C24.1869 20.8239 20.9626 17.6677 16.9851 17.6677C13.0076 17.6677 9.7832 20.8239 9.7832 24.7172C9.7832 28.6105 13.0076 31.7667 16.9851 31.7667Z" fill="#0080FF"/>
<path d="M17.1667 31.4488C21.1442 31.4488 24.3686 28.2926 24.3686 24.3993C24.3686 20.506 21.1442 17.3499 17.1667 17.3499C13.1892 17.3499 9.96484 20.506 9.96484 24.3993C9.96484 28.2926 13.1892 31.4488 17.1667 31.4488Z" fill="#0081FF"/>
<path d="M17.3288 31.1661C21.3063 31.1661 24.5307 28.0099 24.5307 24.1166C24.5307 20.2233 21.3063 17.0671 17.3288 17.0671C13.3513 17.0671 10.127 20.2233 10.127 24.1166C10.127 28.0099 13.3513 31.1661 17.3288 31.1661Z" fill="#0082FF"/>
<path d="M17.4909 30.9012C21.4684 30.9012 24.6928 27.745 24.6928 23.8517C24.6928 19.9584 21.4684 16.8022 17.4909 16.8022C13.5134 16.8022 10.2891 19.9584 10.2891 23.8517C10.2891 27.745 13.5134 30.9012 17.4909 30.9012Z" fill="#0083FF"/>
<path d="M17.6355 30.6361C21.6129 30.6361 24.8373 27.4799 24.8373 23.5866C24.8373 19.6933 21.6129 16.5371 17.6355 16.5371C13.658 16.5371 10.4336 19.6933 10.4336 23.5866C10.4336 27.4799 13.658 30.6361 17.6355 30.6361Z" fill="#0084FF"/>
<path d="M17.7976 30.3533C21.7751 30.3533 24.9994 27.1972 24.9994 23.3039C24.9994 19.4105 21.7751 16.2544 17.7976 16.2544C13.8201 16.2544 10.5957 19.4105 10.5957 23.3039C10.5957 27.1972 13.8201 30.3533 17.7976 30.3533Z" fill="#0085FF"/>
<path d="M17.9421 30.0884C21.9196 30.0884 25.144 26.9323 25.144 23.039C25.144 19.1457 21.9196 15.9895 17.9421 15.9895C13.9646 15.9895 10.7402 19.1457 10.7402 23.039C10.7402 26.9323 13.9646 30.0884 17.9421 30.0884Z" fill="#0086FF"/>
<path d="M18.1042 29.8233C22.0817 29.8233 25.3061 26.6671 25.3061 22.7738C25.3061 18.8805 22.0817 15.7244 18.1042 15.7244C14.1267 15.7244 10.9023 18.8805 10.9023 22.7738C10.9023 26.6671 14.1267 29.8233 18.1042 29.8233Z" fill="#0087FE"/>
<path d="M18.2663 29.5406C22.2438 29.5406 25.4682 26.3844 25.4682 22.4911C25.4682 18.5978 22.2438 15.4417 18.2663 15.4417C14.2888 15.4417 11.0645 18.5978 11.0645 22.4911C11.0645 26.3844 14.2888 29.5406 18.2663 29.5406Z" fill="#0088FE"/>
<path d="M18.4109 29.2757C22.3883 29.2757 25.6127 26.1195 25.6127 22.2262C25.6127 18.3329 22.3883 15.1768 18.4109 15.1768C14.4334 15.1768 11.209 18.3329 11.209 22.2262C11.209 26.1195 14.4334 29.2757 18.4109 29.2757Z" fill="#0089FE"/>
<path d="M18.573 29.0106C22.5504 29.0106 25.7748 25.8544 25.7748 21.9611C25.7748 18.0678 22.5504 14.9116 18.573 14.9116C14.5955 14.9116 11.3711 18.0678 11.3711 21.9611C11.3711 25.8544 14.5955 29.0106 18.573 29.0106Z" fill="#008AFE"/>
<path d="M18.7351 28.7278C22.7125 28.7278 25.9369 25.5717 25.9369 21.6784C25.9369 17.7851 22.7125 14.6289 18.7351 14.6289C14.7576 14.6289 11.5332 17.7851 11.5332 21.6784C11.5332 25.5717 14.7576 28.7278 18.7351 28.7278Z" fill="#008BFE"/>
<path d="M18.8796 28.463C22.8571 28.463 26.0815 25.3068 26.0815 21.4135C26.0815 17.5202 22.8571 14.364 18.8796 14.364C14.9021 14.364 11.6777 17.5202 11.6777 21.4135C11.6777 25.3068 14.9021 28.463 18.8796 28.463Z" fill="#008CFE"/>
<path d="M19.0417 28.1978C23.0192 28.1978 26.2436 25.0417 26.2436 21.1484C26.2436 17.255 23.0192 14.0989 19.0417 14.0989C15.0642 14.0989 11.8398 17.255 11.8398 21.1484C11.8398 25.0417 15.0642 28.1978 19.0417 28.1978Z" fill="#008DFE"/>
<path d="M19.1862 27.9151C23.1637 27.9151 26.3881 24.7589 26.3881 20.8656C26.3881 16.9723 23.1637 13.8162 19.1862 13.8162C15.2088 13.8162 11.9844 16.9723 11.9844 20.8656C11.9844 24.7589 15.2088 27.9151 19.1862 27.9151Z" fill="#008EFE"/>
<path d="M19.3483 27.6502C23.3258 27.6502 26.5502 24.4941 26.5502 20.6007C26.5502 16.7074 23.3258 13.5513 19.3483 13.5513C15.3709 13.5513 12.1465 16.7074 12.1465 20.6007C12.1465 24.4941 15.3709 27.6502 19.3483 27.6502Z" fill="#008FFE"/>
<path d="M19.5124 27.3851C23.4899 27.3851 26.7143 24.2289 26.7143 20.3356C26.7143 16.4423 23.4899 13.2861 19.5124 13.2861C15.5349 13.2861 12.3105 16.4423 12.3105 20.3356C12.3105 24.2289 15.5349 27.3851 19.5124 27.3851Z" fill="#0090FE"/>
<path d="M19.6569 27.1026C23.6344 27.1026 26.8588 23.9465 26.8588 20.0531C26.8588 16.1598 23.6344 13.0037 19.6569 13.0037C15.6795 13.0037 12.4551 16.1598 12.4551 20.0531C12.4551 23.9465 15.6795 27.1026 19.6569 27.1026Z" fill="#0091FE"/>
<path d="M19.8191 26.8375C23.7965 26.8375 27.0209 23.6813 27.0209 19.788C27.0209 15.8947 23.7965 12.7385 19.8191 12.7385C15.8416 12.7385 12.6172 15.8947 12.6172 19.788C12.6172 23.6813 15.8416 26.8375 19.8191 26.8375Z" fill="#0092FD"/>
<path d="M19.9812 26.5723C23.9586 26.5723 27.183 23.4162 27.183 19.5229C27.183 15.6295 23.9586 12.4734 19.9812 12.4734C16.0037 12.4734 12.7793 15.6295 12.7793 19.5229C12.7793 23.4162 16.0037 26.5723 19.9812 26.5723Z" fill="#0093FD"/>
<path d="M20.1257 26.2899C24.1032 26.2899 27.3276 23.1337 27.3276 19.2404C27.3276 15.3471 24.1032 12.1909 20.1257 12.1909C16.1482 12.1909 12.9238 15.3471 12.9238 19.2404C12.9238 23.1337 16.1482 26.2899 20.1257 26.2899Z" fill="#0094FD"/>
<path d="M20.2878 26.0247C24.2653 26.0247 27.4897 22.8686 27.4897 18.9753C27.4897 15.0819 24.2653 11.9258 20.2878 11.9258C16.3103 11.9258 13.0859 15.0819 13.0859 18.9753C13.0859 22.8686 16.3103 26.0247 20.2878 26.0247Z" fill="#0095FD"/>
<path d="M20.4323 25.7598C24.4098 25.7598 27.6342 22.6037 27.6342 18.7104C27.6342 14.817 24.4098 11.6609 20.4323 11.6609C16.4549 11.6609 13.2305 14.817 13.2305 18.7104C13.2305 22.6037 16.4549 25.7598 20.4323 25.7598Z" fill="#0096FD"/>
<path d="M20.5944 25.4771C24.5719 25.4771 27.7963 22.321 27.7963 18.4276C27.7963 14.5343 24.5719 11.3782 20.5944 11.3782C16.617 11.3782 13.3926 14.5343 13.3926 18.4276C13.3926 22.321 16.617 25.4771 20.5944 25.4771Z" fill="#0097FD"/>
<path d="M20.7566 25.212C24.734 25.212 27.9584 22.0558 27.9584 18.1625C27.9584 14.2692 24.734 11.113 20.7566 11.113C16.7791 11.113 13.5547 14.2692 13.5547 18.1625C13.5547 22.0558 16.7791 25.212 20.7566 25.212Z" fill="#0098FD"/>
<path d="M20.9011 24.9471C24.8786 24.9471 28.103 21.7909 28.103 17.8976C28.103 14.0043 24.8786 10.8481 20.9011 10.8481C16.9236 10.8481 13.6992 14.0043 13.6992 17.8976C13.6992 21.7909 16.9236 24.9471 20.9011 24.9471Z" fill="#0099FD"/>
<path d="M21.0632 24.6644C25.0407 24.6644 28.2651 21.5082 28.2651 17.6149C28.2651 13.7216 25.0407 10.5654 21.0632 10.5654C17.0857 10.5654 13.8613 13.7216 13.8613 17.6149C13.8613 21.5082 17.0857 24.6644 21.0632 24.6644Z" fill="#009AFD"/>
<path d="M21.2273 24.3992C25.2047 24.3992 28.4291 21.2431 28.4291 17.3498C28.4291 13.4564 25.2047 10.3003 21.2273 10.3003C17.2498 10.3003 14.0254 13.4564 14.0254 17.3498C14.0254 21.2431 17.2498 24.3992 21.2273 24.3992Z" fill="#009BFD"/>
<path d="M21.3718 24.1343C25.3493 24.1343 28.5737 20.9782 28.5737 17.0849C28.5737 13.1916 25.3493 10.0354 21.3718 10.0354C17.3943 10.0354 14.1699 13.1916 14.1699 17.0849C14.1699 20.9782 17.3943 24.1343 21.3718 24.1343Z" fill="#009CFC"/>
<path d="M21.5339 23.8516C25.5114 23.8516 28.7358 20.6955 28.7358 16.8022C28.7358 12.9088 25.5114 9.75269 21.5339 9.75269C17.5564 9.75269 14.332 12.9088 14.332 16.8022C14.332 20.6955 17.5564 23.8516 21.5339 23.8516Z" fill="#009DFC"/>
<path d="M21.6784 23.5865C25.6559 23.5865 28.8803 20.4303 28.8803 16.537C28.8803 12.6437 25.6559 9.48755 21.6784 9.48755C17.7009 9.48755 14.4766 12.6437 14.4766 16.537C14.4766 20.4303 17.7009 23.5865 21.6784 23.5865Z" fill="#009EFC"/>
<path d="M21.8405 23.3216C25.818 23.3216 29.0424 20.1654 29.0424 16.2721C29.0424 12.3788 25.818 9.22266 21.8405 9.22266C17.8631 9.22266 14.6387 12.3788 14.6387 16.2721C14.6387 20.1654 17.8631 23.3216 21.8405 23.3216Z" fill="#009FFC"/>
<path d="M22.0026 23.0389C25.9801 23.0389 29.2045 19.8827 29.2045 15.9894C29.2045 12.0961 25.9801 8.93994 22.0026 8.93994C18.0252 8.93994 14.8008 12.0961 14.8008 15.9894C14.8008 19.8827 18.0252 23.0389 22.0026 23.0389Z" fill="#00A0FC"/>
<path d="M22.1472 22.7737C26.1247 22.7737 29.349 19.6176 29.349 15.7243C29.349 11.831 26.1247 8.6748 22.1472 8.6748C18.1697 8.6748 14.9453 11.831 14.9453 15.7243C14.9453 19.6176 18.1697 22.7737 22.1472 22.7737Z" fill="#00A1FC"/>
<path d="M22.3093 22.5089C26.2868 22.5089 29.5112 19.3527 29.5112 15.4594C29.5112 11.5661 26.2868 8.40991 22.3093 8.40991C18.3318 8.40991 15.1074 11.5661 15.1074 15.4594C15.1074 19.3527 18.3318 22.5089 22.3093 22.5089Z" fill="#00A1FC"/>
<path d="M22.4714 22.2261C26.4489 22.2261 29.6733 19.07 29.6733 15.1767C29.6733 11.2834 26.4489 8.1272 22.4714 8.1272C18.4939 8.1272 15.2695 11.2834 15.2695 15.1767C15.2695 19.07 18.4939 22.2261 22.4714 22.2261Z" fill="#00A2FC"/>
<path d="M22.6159 21.9612C26.5934 21.9612 29.8178 18.8051 29.8178 14.9118C29.8178 11.0185 26.5934 7.8623 22.6159 7.8623C18.6384 7.8623 15.4141 11.0185 15.4141 14.9118C15.4141 18.8051 18.6384 21.9612 22.6159 21.9612Z" fill="#00A3FC"/>
<path d="M22.778 21.6961C26.7555 21.6961 29.9799 18.54 29.9799 14.6466C29.9799 10.7533 26.7555 7.59717 22.778 7.59717C18.8006 7.59717 15.5762 10.7533 15.5762 14.6466C15.5762 18.54 18.8006 21.6961 22.778 21.6961Z" fill="#00A4FC"/>
<path d="M22.9245 21.4134C26.902 21.4134 30.1264 18.2572 30.1264 14.3639C30.1264 10.4706 26.902 7.31445 22.9245 7.31445C18.947 7.31445 15.7227 10.4706 15.7227 14.3639C15.7227 18.2572 18.947 21.4134 22.9245 21.4134Z" fill="#00A5FC"/>
<path d="M23.0847 21.1485C27.0622 21.1485 30.2865 17.9923 30.2865 14.099C30.2865 10.2057 27.0622 7.04956 23.0847 7.04956C19.1072 7.04956 15.8828 10.2057 15.8828 14.099C15.8828 17.9923 19.1072 21.1485 23.0847 21.1485Z" fill="#00A6FB"/>
<path d="M23.2487 20.8834C27.2262 20.8834 30.4506 17.7272 30.4506 13.8339C30.4506 9.94058 27.2262 6.78442 23.2487 6.78442C19.2713 6.78442 16.0469 9.94058 16.0469 13.8339C16.0469 17.7272 19.2713 20.8834 23.2487 20.8834Z" fill="#00A7FB"/>
<path d="M23.3933 20.6006C27.3708 20.6006 30.5951 17.4445 30.5951 13.5512C30.5951 9.65786 27.3708 6.50171 23.3933 6.50171C19.4158 6.50171 16.1914 9.65786 16.1914 13.5512C16.1914 17.4445 19.4158 20.6006 23.3933 20.6006Z" fill="#00A8FB"/>
<path d="M23.5554 20.3358C27.5329 20.3358 30.7573 17.1796 30.7573 13.2863C30.7573 9.39297 27.5329 6.23682 23.5554 6.23682C19.5779 6.23682 16.3535 9.39297 16.3535 13.2863C16.3535 17.1796 19.5779 20.3358 23.5554 20.3358Z" fill="#00A9FB"/>
<path d="M23.7175 20.0706C27.695 20.0706 30.9194 16.9145 30.9194 13.0212C30.9194 9.12783 27.695 5.97168 23.7175 5.97168C19.74 5.97168 16.5156 9.12783 16.5156 13.0212C16.5156 16.9145 19.74 20.0706 23.7175 20.0706Z" fill="#00AAFB"/>
<path d="M23.862 19.7879C27.8395 19.7879 31.0639 16.6317 31.0639 12.7384C31.0639 8.84512 27.8395 5.68896 23.862 5.68896C19.8845 5.68896 16.6602 8.84512 16.6602 12.7384C16.6602 16.6317 19.8845 19.7879 23.862 19.7879Z" fill="#00ABFB"/>
<path d="M24.0241 19.523C28.0016 19.523 31.226 16.3669 31.226 12.4735C31.226 8.58023 28.0016 5.42407 24.0241 5.42407C20.0467 5.42407 16.8223 8.58023 16.8223 12.4735C16.8223 16.3669 20.0467 19.523 24.0241 19.523Z" fill="#00ACFB"/>
<path d="M24.1687 19.2581C28.1461 19.2581 31.3705 16.102 31.3705 12.2086C31.3705 8.31533 28.1461 5.15918 24.1687 5.15918C20.1912 5.15918 16.9668 8.31533 16.9668 12.2086C16.9668 16.102 20.1912 19.2581 24.1687 19.2581Z" fill="#00ADFB"/>
<path d="M24.3308 18.9754C28.3083 18.9754 31.5326 15.8192 31.5326 11.9259C31.5326 8.03262 28.3083 4.87646 24.3308 4.87646C20.3533 4.87646 17.1289 8.03262 17.1289 11.9259C17.1289 15.8192 20.3533 18.9754 24.3308 18.9754Z" fill="#00AEFB"/>
<path d="M24.4929 18.7103C28.4704 18.7103 31.6948 15.5541 31.6948 11.6608C31.6948 7.76748 28.4704 4.61133 24.4929 4.61133C20.5154 4.61133 17.291 7.76748 17.291 11.6608C17.291 15.5541 20.5154 18.7103 24.4929 18.7103Z" fill="#00AFFB"/>
<path d="M24.6374 18.4451C28.6149 18.4451 31.8393 15.289 31.8393 11.3957C31.8393 7.50235 28.6149 4.34619 24.6374 4.34619C20.6599 4.34619 17.4355 7.50235 17.4355 11.3957C17.4355 15.289 20.6599 18.4451 24.6374 18.4451Z" fill="#00B0FB"/>
<path d="M24.7995 18.1627C28.777 18.1627 32.0014 15.0065 32.0014 11.1132C32.0014 7.21988 28.777 4.06372 24.7995 4.06372C20.822 4.06372 17.5977 7.21988 17.5977 11.1132C17.5977 15.0065 20.822 18.1627 24.7995 18.1627Z" fill="#00B1FA"/>
<path d="M24.9636 17.8975C28.9411 17.8975 32.1654 14.7414 32.1654 10.8481C32.1654 6.95474 28.9411 3.79858 24.9636 3.79858C20.9861 3.79858 17.7617 6.95474 17.7617 10.8481C17.7617 14.7414 20.9861 17.8975 24.9636 17.8975Z" fill="#00B2FA"/>
<path d="M25.1081 17.6326C29.0856 17.6326 32.31 14.4765 32.31 10.5832C32.31 6.68985 29.0856 3.53369 25.1081 3.53369C21.1306 3.53369 17.9062 6.68985 17.9062 10.5832C17.9062 14.4765 21.1306 17.6326 25.1081 17.6326Z" fill="#00B3FA"/>
<path d="M25.2702 17.3499C29.2477 17.3499 32.4721 14.1938 32.4721 10.3004C32.4721 6.40713 29.2477 3.25098 25.2702 3.25098C21.2927 3.25098 18.0684 6.40713 18.0684 10.3004C18.0684 14.1938 21.2927 17.3499 25.2702 17.3499Z" fill="#00B4FA"/>
<path d="M25.4148 17.0848C29.3922 17.0848 32.6166 13.9286 32.6166 10.0353C32.6166 6.142 29.3922 2.98584 25.4148 2.98584C21.4373 2.98584 18.2129 6.142 18.2129 10.0353C18.2129 13.9286 21.4373 17.0848 25.4148 17.0848Z" fill="#00B5FA"/>
<path d="M25.5769 16.8196C29.5543 16.8196 32.7787 13.6635 32.7787 9.77017C32.7787 5.87686 29.5543 2.7207 25.5769 2.7207C21.5994 2.7207 18.375 5.87686 18.375 9.77017C18.375 13.6635 21.5994 16.8196 25.5769 16.8196Z" fill="#00B6FA"/>
<path d="M25.739 16.5372C29.7165 16.5372 32.9408 13.381 32.9408 9.4877C32.9408 5.59439 29.7165 2.43823 25.739 2.43823C21.7615 2.43823 18.5371 5.59439 18.5371 9.4877C18.5371 13.381 21.7615 16.5372 25.739 16.5372Z" fill="#00B7FA"/>
<path d="M25.8835 16.272C29.861 16.272 33.0854 13.1159 33.0854 9.22256C33.0854 5.32925 29.861 2.1731 25.8835 2.1731C21.906 2.1731 18.6816 5.32925 18.6816 9.22256C18.6816 13.1159 21.906 16.272 25.8835 16.272Z" fill="#00B8FA"/>
<path d="M26.0456 16.0071C30.0231 16.0071 33.2475 12.851 33.2475 8.95767C33.2475 5.06436 30.0231 1.9082 26.0456 1.9082C22.0681 1.9082 18.8438 5.06436 18.8438 8.95767C18.8438 12.851 22.0681 16.0071 26.0456 16.0071Z" fill="#00B9FA"/>
<path d="M26.2077 15.7244C30.1852 15.7244 33.4096 12.5683 33.4096 8.67496C33.4096 4.78164 30.1852 1.62549 26.2077 1.62549C22.2302 1.62549 19.0059 4.78164 19.0059 8.67496C19.0059 12.5683 22.2302 15.7244 26.2077 15.7244Z" fill="#00BAFA"/>
<path d="M26.3523 15.4593C30.3297 15.4593 33.5541 12.3031 33.5541 8.40982C33.5541 4.51651 30.3297 1.36035 26.3523 1.36035C22.3748 1.36035 19.1504 4.51651 19.1504 8.40982C19.1504 12.3031 22.3748 15.4593 26.3523 15.4593Z" fill="#00BBF9"/>
<path d="M26.5144 15.1944C30.4918 15.1944 33.7162 12.0382 33.7162 8.14493C33.7162 4.25161 30.4918 1.09546 26.5144 1.09546C22.5369 1.09546 19.3125 4.25161 19.3125 8.14493C19.3125 12.0382 22.5369 15.1944 26.5144 15.1944Z" fill="#00BCF9"/>
<path d="M26.6589 14.9117C30.6364 14.9117 33.8608 11.7555 33.8608 7.86222C33.8608 3.9689 30.6364 0.812744 26.6589 0.812744C22.6814 0.812744 19.457 3.9689 19.457 7.86222C19.457 11.7555 22.6814 14.9117 26.6589 14.9117Z" fill="#00BDF9"/>
<path d="M26.823 14.6465C30.8004 14.6465 34.0248 11.4904 34.0248 7.59708C34.0248 3.70376 30.8004 0.547607 26.823 0.547607C22.8455 0.547607 19.6211 3.70376 19.6211 7.59708C19.6211 11.4904 22.8455 14.6465 26.823 14.6465Z" fill="#00BEF9"/>
<path d="M26.9851 14.3817C30.9626 14.3817 34.1869 11.2255 34.1869 7.33219C34.1869 3.43887 30.9626 0.282715 26.9851 0.282715C23.0076 0.282715 19.7832 3.43887 19.7832 7.33219C19.7832 11.2255 23.0076 14.3817 26.9851 14.3817Z" fill="#00BFF9"/>
<path d="M27.1296 14.0989C31.1071 14.0989 34.3315 10.9428 34.3315 7.04947C34.3315 3.15616 31.1071 0 27.1296 0C23.1521 0 19.9277 3.15616 19.9277 7.04947C19.9277 10.9428 23.1521 14.0989 27.1296 14.0989Z" fill="#00C0F9"/>
<path d="M27.5984 14.9117C31.5758 14.9117 34.8002 11.7555 34.8002 7.86222C34.8002 3.9689 31.5758 0.812744 27.5984 0.812744C23.6209 0.812744 20.3965 3.9689 20.3965 7.86222C20.3965 11.7555 23.6209 14.9117 27.5984 14.9117Z" fill="#00C1F9"/>
<path d="M28.0671 15.7066C32.0446 15.7066 35.269 12.5505 35.269 8.65714C35.269 4.76382 32.0446 1.60767 28.0671 1.60767C24.0896 1.60767 20.8652 4.76382 20.8652 8.65714C20.8652 12.5505 24.0896 15.7066 28.0671 15.7066Z" fill="#00C2F9"/>
<path d="M28.5183 16.5194C32.4957 16.5194 35.7201 13.3632 35.7201 9.46988C35.7201 5.57657 32.4957 2.42041 28.5183 2.42041C24.5408 2.42041 21.3164 5.57657 21.3164 9.46988C21.3164 13.3632 24.5408 16.5194 28.5183 16.5194Z" fill="#00C3F8"/>
<path d="M28.989 17.3321C32.9665 17.3321 36.1909 14.1759 36.1909 10.2826C36.1909 6.38931 32.9665 3.23315 28.989 3.23315C25.0115 3.23315 21.7871 6.38931 21.7871 10.2826C21.7871 14.1759 25.0115 17.3321 28.989 17.3321Z" fill="#00C4F8"/>
<path d="M29.4577 18.1273C33.4352 18.1273 36.6596 14.9711 36.6596 11.0778C36.6596 7.18448 33.4352 4.02832 29.4577 4.02832C25.4802 4.02832 22.2559 7.18448 22.2559 11.0778C22.2559 14.9711 25.4802 18.1273 29.4577 18.1273Z" fill="#00C5F8"/>
<path d="M29.9089 18.94C33.8864 18.94 37.1108 15.7839 37.1108 11.8905C37.1108 7.99722 33.8864 4.84106 29.9089 4.84106C25.9314 4.84106 22.707 7.99722 22.707 11.8905C22.707 15.7839 25.9314 18.94 29.9089 18.94Z" fill="#00C6F8"/>
<path d="M30.3776 19.7527C34.3551 19.7527 37.5795 16.5966 37.5795 12.7033C37.5795 8.80996 34.3551 5.65381 30.3776 5.65381C26.4002 5.65381 23.1758 8.80996 23.1758 12.7033C23.1758 16.5966 26.4002 19.7527 30.3776 19.7527Z" fill="#00C7F7"/>
<path d="M30.8464 20.5477C34.8239 20.5477 38.0483 17.3915 38.0483 13.4982C38.0483 9.60489 34.8239 6.44873 30.8464 6.44873C26.8689 6.44873 23.6445 9.60489 23.6445 13.4982C23.6445 17.3915 26.8689 20.5477 30.8464 20.5477Z" fill="#00C8F7"/>
<path d="M31.2976 21.3604C35.2751 21.3604 38.4994 18.2043 38.4994 14.3109C38.4994 10.4176 35.2751 7.26147 31.2976 7.26147C27.3201 7.26147 24.0957 10.4176 24.0957 14.3109C24.0957 18.2043 27.3201 21.3604 31.2976 21.3604Z" fill="#00C9F7"/>
<path d="M31.7683 22.1732C35.7458 22.1732 38.9701 19.017 38.9701 15.1237C38.9701 11.2304 35.7458 8.07422 31.7683 8.07422C27.7908 8.07422 24.5664 11.2304 24.5664 15.1237C24.5664 19.017 27.7908 22.1732 31.7683 22.1732Z" fill="#00CAF7"/>
<path d="M32.237 22.9683C36.2145 22.9683 39.4389 19.8122 39.4389 15.9189C39.4389 12.0255 36.2145 8.86938 32.237 8.86938C28.2595 8.86938 25.0352 12.0255 25.0352 15.9189C25.0352 19.8122 28.2595 22.9683 32.237 22.9683Z" fill="#00CBF6"/>
<path d="M32.6882 23.7808C36.6657 23.7808 39.8901 20.6247 39.8901 16.7314C39.8901 12.838 36.6657 9.68188 32.6882 9.68188C28.7107 9.68188 25.4863 12.838 25.4863 16.7314C25.4863 20.6247 28.7107 23.7808 32.6882 23.7808Z" fill="#00CCF6"/>
<path d="M33.1569 24.5936C37.1344 24.5936 40.3588 21.4374 40.3588 17.5441C40.3588 13.6508 37.1344 10.4946 33.1569 10.4946C29.1795 10.4946 25.9551 13.6508 25.9551 17.5441C25.9551 21.4374 29.1795 24.5936 33.1569 24.5936Z" fill="#00CDF6"/>
<path d="M33.6276 25.3887C37.6051 25.3887 40.8295 22.2326 40.8295 18.3393C40.8295 14.4459 37.6051 11.2898 33.6276 11.2898C29.6502 11.2898 26.4258 14.4459 26.4258 18.3393C26.4258 22.2326 29.6502 25.3887 33.6276 25.3887Z" fill="#00CEF6"/>
<path d="M34.0964 26.2015C38.0739 26.2015 41.2983 23.0453 41.2983 19.152C41.2983 15.2587 38.0739 12.1025 34.0964 12.1025C30.1189 12.1025 26.8945 15.2587 26.8945 19.152C26.8945 23.0453 30.1189 26.2015 34.0964 26.2015Z" fill="#00CFF6"/>
<path d="M34.5476 27.0142C38.5251 27.0142 41.7494 23.8581 41.7494 19.9648C41.7494 16.0714 38.5251 12.9153 34.5476 12.9153C30.5701 12.9153 27.3457 16.0714 27.3457 19.9648C27.3457 23.8581 30.5701 27.0142 34.5476 27.0142Z" fill="#00D0F5"/>
<path d="M35.0163 27.8091C38.9938 27.8091 42.2182 24.653 42.2182 20.7597C42.2182 16.8664 38.9938 13.7102 35.0163 13.7102C31.0388 13.7102 27.8145 16.8664 27.8145 20.7597C27.8145 24.653 31.0388 27.8091 35.0163 27.8091Z" fill="#00D1F5"/>
<path d="M35.487 28.6219C39.4645 28.6219 42.6889 25.4657 42.6889 21.5724C42.6889 17.6791 39.4645 14.5229 35.487 14.5229C31.5095 14.5229 28.2852 17.6791 28.2852 21.5724C28.2852 25.4657 31.5095 28.6219 35.487 28.6219Z" fill="#00D2F5"/>
<path d="M35.9382 29.4346C39.9157 29.4346 43.1401 26.2785 43.1401 22.3852C43.1401 18.4918 39.9157 15.3357 35.9382 15.3357C31.9607 15.3357 28.7363 18.4918 28.7363 22.3852C28.7363 26.2785 31.9607 29.4346 35.9382 29.4346Z" fill="#00D3F5"/>
<path d="M36.4069 30.2296C40.3844 30.2296 43.6088 27.0734 43.6088 23.1801C43.6088 19.2868 40.3844 16.1306 36.4069 16.1306C32.4295 16.1306 29.2051 19.2868 29.2051 23.1801C29.2051 27.0734 32.4295 30.2296 36.4069 30.2296Z" fill="#00D4F4"/>
<path d="M36.8757 31.0423C40.8532 31.0423 44.0776 27.8861 44.0776 23.9928C44.0776 20.0995 40.8532 16.9434 36.8757 16.9434C32.8982 16.9434 29.6738 20.0995 29.6738 23.9928C29.6738 27.8861 32.8982 31.0423 36.8757 31.0423Z" fill="#00D5F4"/>
<path d="M37.3269 31.8375C41.3044 31.8375 44.5287 28.6813 44.5287 24.788C44.5287 20.8947 41.3044 17.7385 37.3269 17.7385C33.3494 17.7385 30.125 20.8947 30.125 24.788C30.125 28.6813 33.3494 31.8375 37.3269 31.8375Z" fill="#01D5F4"/>
<path d="M37.7956 32.6502C41.7731 32.6502 44.9975 29.4941 44.9975 25.6007C44.9975 21.7074 41.7731 18.5513 37.7956 18.5513C33.8181 18.5513 30.5938 21.7074 30.5938 25.6007C30.5938 29.4941 33.8181 32.6502 37.7956 32.6502Z" fill="#01D6F4"/>
<path d="M38.2663 33.463C42.2438 33.463 45.4682 30.3068 45.4682 26.4135C45.4682 22.5202 42.2438 19.364 38.2663 19.364C34.2888 19.364 31.0645 22.5202 31.0645 26.4135C31.0645 30.3068 34.2888 33.463 38.2663 33.463Z" fill="#01D7F3"/>
<path d="M38.7175 34.2579C42.695 34.2579 45.9193 31.1017 45.9193 27.2084C45.9193 23.3151 42.695 20.1589 38.7175 20.1589C34.74 20.1589 31.5156 23.3151 31.5156 27.2084C31.5156 31.1017 34.74 34.2579 38.7175 34.2579Z" fill="#01D8F3"/>
<path d="M39.1862 35.0706C43.1637 35.0706 46.3881 31.9145 46.3881 28.0212C46.3881 24.1278 43.1637 20.9717 39.1862 20.9717C35.2088 20.9717 31.9844 24.1278 31.9844 28.0212C31.9844 31.9145 35.2088 35.0706 39.1862 35.0706Z" fill="#01D9F3"/>
<path d="M39.655 35.8834C43.6325 35.8834 46.8568 32.7272 46.8568 28.8339C46.8568 24.9406 43.6325 21.7844 39.655 21.7844C35.6775 21.7844 32.4531 24.9406 32.4531 28.8339C32.4531 32.7272 35.6775 35.8834 39.655 35.8834Z" fill="#01DAF3"/>
<path d="M40.1062 36.6785C44.0836 36.6785 47.308 33.5224 47.308 29.6291C47.308 25.7357 44.0836 22.5796 40.1062 22.5796C36.1287 22.5796 32.9043 25.7357 32.9043 29.6291C32.9043 33.5224 36.1287 36.6785 40.1062 36.6785Z" fill="#01DBF2"/>
<path d="M40.5749 37.4913C44.5524 37.4913 47.7768 34.3351 47.7768 30.4418C47.7768 26.5485 44.5524 23.3923 40.5749 23.3923C36.5974 23.3923 33.373 26.5485 33.373 30.4418C33.373 34.3351 36.5974 37.4913 40.5749 37.4913Z" fill="#01DCF2"/>
<path d="M41.0456 38.3038C45.0231 38.3038 48.2475 35.1476 48.2475 31.2543C48.2475 27.361 45.0231 24.2048 41.0456 24.2048C37.0681 24.2048 33.8438 27.361 33.8438 31.2543C33.8438 35.1476 37.0681 38.3038 41.0456 38.3038Z" fill="#01DDF2"/>
<path d="M41.4968 39.0989C45.4743 39.0989 48.6987 35.9428 48.6987 32.0495C48.6987 28.1562 45.4743 25 41.4968 25C37.5193 25 34.2949 28.1562 34.2949 32.0495C34.2949 35.9428 37.5193 39.0989 41.4968 39.0989Z" fill="#01DEF2"/>
<path d="M41.9655 39.9117C45.943 39.9117 49.1674 36.7555 49.1674 32.8622C49.1674 28.9689 45.943 25.8127 41.9655 25.8127C37.9881 25.8127 34.7637 28.9689 34.7637 32.8622C34.7637 36.7555 37.9881 39.9117 41.9655 39.9117Z" fill="#01DFF2"/>
<path d="M42.4362 40.7244C46.4137 40.7244 49.6381 37.5683 49.6381 33.675C49.6381 29.7816 46.4137 26.6255 42.4362 26.6255C38.4588 26.6255 35.2344 29.7816 35.2344 33.675C35.2344 37.5683 38.4588 40.7244 42.4362 40.7244Z" fill="#01E0F1"/>
<path d="M42.8874 41.5194C46.8649 41.5194 50.0893 38.3632 50.0893 34.4699C50.0893 30.5766 46.8649 27.4204 42.8874 27.4204C38.9099 27.4204 35.6855 30.5766 35.6855 34.4699C35.6855 38.3632 38.9099 41.5194 42.8874 41.5194Z" fill="#01E1F1"/>
<path d="M43.3562 42.3321C47.3336 42.3321 50.558 39.1759 50.558 35.2826C50.558 31.3893 47.3336 28.2332 43.3562 28.2332C39.3787 28.2332 36.1543 31.3893 36.1543 35.2826C36.1543 39.1759 39.3787 42.3321 43.3562 42.3321Z" fill="#01E2F1"/>
<path d="M43.8249 43.1448C47.8024 43.1448 51.0268 39.9887 51.0268 36.0954C51.0268 32.2021 47.8024 29.0459 43.8249 29.0459C39.8474 29.0459 36.623 32.2021 36.623 36.0954C36.623 39.9887 39.8474 43.1448 43.8249 43.1448Z" fill="#01E3F1"/>
<path d="M44.2761 43.94C48.2536 43.94 51.478 40.7838 51.478 36.8905C51.478 32.9972 48.2536 29.8411 44.2761 29.8411C40.2986 29.8411 37.0742 32.9972 37.0742 36.8905C37.0742 40.7838 40.2986 43.94 44.2761 43.94Z" fill="#01E4F0"/>
<path d="M44.7448 44.7528C48.7223 44.7528 51.9467 41.5966 51.9467 37.7033C51.9467 33.81 48.7223 30.6538 44.7448 30.6538C40.7674 30.6538 37.543 33.81 37.543 37.7033C37.543 41.5966 40.7674 44.7528 44.7448 44.7528Z" fill="#01E5F0"/>
<path d="M45.2155 45.5655C49.193 45.5655 52.4174 42.4093 52.4174 38.516C52.4174 34.6227 49.193 31.4666 45.2155 31.4666C41.2381 31.4666 38.0137 34.6227 38.0137 38.516C38.0137 42.4093 41.2381 45.5655 45.2155 45.5655Z" fill="#01E6F0"/>
<path d="M45.6667 46.3604C49.6442 46.3604 52.8686 43.2043 52.8686 39.3109C52.8686 35.4176 49.6442 32.2615 45.6667 32.2615C41.6892 32.2615 38.4648 35.4176 38.4648 39.3109C38.4648 43.2043 41.6892 46.3604 45.6667 46.3604Z" fill="#01E7F0"/>
<path d="M46.1355 47.1732C50.1129 47.1732 53.3373 44.017 53.3373 40.1237C53.3373 36.2304 50.1129 33.0742 46.1355 33.0742C42.158 33.0742 38.9336 36.2304 38.9336 40.1237C38.9336 44.017 42.158 47.1732 46.1355 47.1732Z" fill="#01E8EF"/>
<path d="M46.6042 47.9683C50.5817 47.9683 53.8061 44.8122 53.8061 40.9189C53.8061 37.0255 50.5817 33.8694 46.6042 33.8694C42.6267 33.8694 39.4023 37.0255 39.4023 40.9189C39.4023 44.8122 42.6267 47.9683 46.6042 47.9683Z" fill="#01E9EF"/>
<path d="M47.073 48.7808C51.0504 48.7808 54.2748 45.6247 54.2748 41.7314C54.2748 37.838 51.0504 34.6819 47.073 34.6819C43.0955 34.6819 39.8711 37.838 39.8711 41.7314C39.8711 45.6247 43.0955 48.7808 47.073 48.7808Z" fill="#01EAEF"/>
</svg>
