<svg width="120" height="110" viewBox="0 0 120 110" fill="none" xmlns="http://www.w3.org/2000/svg">
<path d="M45.6235 8.27493C49.9543 0.507333 59.819 -2.28103 67.6385 2.02102C75.458 6.32307 78.2651 16.1222 73.9342 23.8898L30.3453 101.725C26.0145 109.493 16.1498 112.281 8.33027 107.979C0.510726 103.637 -2.29629 93.838 2.03453 86.0704L45.6235 8.27493Z" fill="url(#paint0_linear)"/>
<path d="M74.3765 8.27493C70.0457 0.507333 60.1811 -2.28103 52.3615 2.02102C44.542 6.32307 41.735 16.1222 46.0658 23.8898L89.6547 101.685C93.9855 109.453 103.85 112.241 111.67 107.939C119.489 103.637 122.296 93.838 117.965 86.0704L74.3765 8.27493Z" fill="#12141D"/>
<defs>
<linearGradient id="paint0_linear" x1="7.48724" y1="107.477" x2="67.888" y2="2.15992" gradientUnits="userSpaceOnUse">
<stop offset="0.031498" stop-color="#12141D" stop-opacity="0"/>
<stop offset="0.8828" stop-color="#12141D"/>
</linearGradient>
</defs>
</svg>
