<svg width="241" height="50" viewBox="0 0 241 50" fill="none" xmlns="http://www.w3.org/2000/svg">
<path d="M182.574 40.9388V9.04346H195.582C196.937 9.04346 198.183 9.33227 199.321 9.90988C200.46 10.4875 201.435 11.2637 202.266 12.2023C203.097 13.1409 203.729 14.224 204.217 15.4153C204.687 16.6247 204.922 17.816 204.922 19.0615C204.922 20.3792 204.705 21.6427 204.253 22.8702C203.802 24.0976 203.187 25.1445 202.393 26.0832C201.598 27.0037 200.658 27.7619 199.538 28.3214C198.436 28.881 197.208 29.1698 195.853 29.1698H185.682V40.9568H182.574V40.9388ZM185.663 26.372H195.69C196.611 26.372 197.443 26.1734 198.183 25.7763C198.942 25.3792 199.574 24.8377 200.098 24.1518C200.64 23.4839 201.056 22.6897 201.327 21.8232C201.616 20.9388 201.778 20.0182 201.778 19.0615C201.778 18.0868 201.616 17.1301 201.272 16.2637C200.929 15.3792 200.478 14.603 199.899 13.9532C199.321 13.3034 198.653 12.7619 197.858 12.4009C197.063 12.0218 196.268 11.8413 195.401 11.8413H185.627L185.663 26.372Z" fill="#B2B6C7"/>
<path d="M237.892 40.9388V14.7294L226.438 35.0001H224.631L213.178 14.7294V40.9207H210.07V9.04346H213.268L225.517 30.8846L237.856 9.04346H240.999V40.9388H237.892V40.9388Z" fill="#B2B6C7"/>
<path d="M83.8625 9.07959H90.5108L102.145 40.8485H94.6117L92.1367 33.7366H82.2004L79.7796 40.8485H72.2461L83.8625 9.07959ZM90.9082 28.6825L87.1866 17.455L83.3747 28.6825H90.9082Z" fill="#12141D"/>
<path d="M106.156 9.07959H113.328V40.8485H106.156V9.07959Z" fill="#12141D"/>
<path d="M129.803 41.2995C127.979 41.3356 126.172 40.9926 124.492 40.3428C122.992 39.7471 121.637 38.8627 120.499 37.7255C119.415 36.6424 118.566 35.3248 118.006 33.8988C117.446 32.4547 117.157 30.9204 117.157 29.35C117.139 27.7074 117.428 26.0829 118.006 24.5305C118.548 23.0504 119.397 21.7147 120.481 20.5775C121.601 19.4222 122.956 18.5017 124.456 17.8879C126.154 17.202 127.979 16.8771 129.821 16.8952C131.646 16.8591 133.471 17.202 135.169 17.8879C136.65 18.5017 138.005 19.4042 139.125 20.5594C140.191 21.6786 141.022 22.9782 141.564 24.4222C142.124 25.9024 142.395 27.4547 142.395 29.0251C142.395 29.4403 142.377 29.8374 142.359 30.2526C142.341 30.6136 142.287 30.9565 142.215 31.2995H124.799C124.925 32.8879 125.504 34.0793 126.533 34.9096C127.527 35.7219 128.773 36.1551 130.056 36.137C131.122 36.137 132.152 35.8663 133.091 35.3789C134.067 34.8735 134.717 34.1876 135.042 33.3211L141.998 33.3031C141.383 36.2995 138.782 38.3753 136.831 39.5305C134.844 40.7219 132.513 41.2995 129.803 41.2995ZM134.771 26.8952C134.627 25.397 134.085 24.2237 133.163 23.3573C132.224 22.4908 130.978 22.0215 129.713 22.0576C128.304 22.0576 127.148 22.4908 126.244 23.3753C125.341 24.2598 124.799 25.4331 124.654 26.8952H134.771Z" fill="#12141D"/>
<path d="M159.09 41.2995C157.247 41.3356 155.423 40.9926 153.724 40.3067C152.225 39.693 150.87 38.7905 149.75 37.6352C148.666 36.5161 147.835 35.1984 147.311 33.7363C146.209 30.7399 146.209 27.4547 147.311 24.4764C147.853 23.0323 148.684 21.6966 149.75 20.5775C150.87 19.4222 152.225 18.5197 153.724 17.8879C155.423 17.184 157.247 16.841 159.09 16.8771C160.915 16.841 162.739 17.184 164.437 17.8879C165.919 18.5197 167.256 19.4222 168.394 20.5775C169.478 21.6966 170.309 23.0143 170.869 24.4764C171.447 25.9565 171.736 27.5269 171.718 29.1154C171.718 30.7038 171.447 32.2742 170.887 33.7543C170.345 35.1984 169.514 36.5341 168.448 37.6533C167.328 38.8085 165.973 39.711 164.474 40.3247C162.757 40.9926 160.933 41.3356 159.09 41.2995ZM153.833 29.1334C153.833 30.9926 154.32 32.4728 155.314 33.5919C156.037 34.3861 156.976 34.9457 158.024 35.1623C159.072 35.3789 160.174 35.2706 161.149 34.8193C161.782 34.5125 162.342 34.0973 162.793 33.5738C163.281 32.9962 163.661 32.3464 163.895 31.6244C164.166 30.8302 164.311 29.9818 164.311 29.1334C164.311 27.2923 163.823 25.7941 162.83 24.6749C162.378 24.1334 161.8 23.7002 161.149 23.4114C160.499 23.1226 159.794 22.9782 159.09 22.9962C158.385 22.9962 157.681 23.1406 157.03 23.4294C156.38 23.7182 155.802 24.1515 155.35 24.693C154.862 25.2706 154.483 25.9204 154.248 26.6424C153.977 27.4367 153.833 28.285 153.833 29.1334Z" fill="#12141D"/>
<path d="M7.20832 49.8374C11.1894 49.8374 14.4166 46.6129 14.4166 42.6353C14.4166 38.6576 11.1894 35.4331 7.20832 35.4331C3.22728 35.4331 0 38.6576 0 42.6353C0 46.6129 3.22728 49.8374 7.20832 49.8374Z" fill="#6950FF"/>
<path d="M7.20832 49.8374C11.1894 49.8374 14.4166 46.6129 14.4166 42.6353C14.4166 38.6576 11.1894 35.4331 7.20832 35.4331C3.22728 35.4331 0 38.6576 0 42.6353C0 46.6129 3.22728 49.8374 7.20832 49.8374Z" fill="#6850FF"/>
<path d="M7.20832 49.8374C11.1894 49.8374 14.4166 46.6129 14.4166 42.6353C14.4166 38.6576 11.1894 35.4331 7.20832 35.4331C3.22728 35.4331 0 38.6576 0 42.6353C0 46.6129 3.22728 49.8374 7.20832 49.8374Z" fill="#6750FF"/>
<path d="M7.20832 49.8374C11.1894 49.8374 14.4166 46.6129 14.4166 42.6353C14.4166 38.6576 11.1894 35.4331 7.20832 35.4331C3.22728 35.4331 0 38.6576 0 42.6353C0 46.6129 3.22728 49.8374 7.20832 49.8374Z" fill="#6650FF"/>
<path d="M7.20832 49.8374C11.1894 49.8374 14.4166 46.6129 14.4166 42.6353C14.4166 38.6576 11.1894 35.4331 7.20832 35.4331C3.22728 35.4331 0 38.6576 0 42.6353C0 46.6129 3.22728 49.8374 7.20832 49.8374Z" fill="#6550FF"/>
<path d="M7.20832 49.8374C11.1894 49.8374 14.4166 46.6129 14.4166 42.6353C14.4166 38.6576 11.1894 35.4331 7.20832 35.4331C3.22728 35.4331 0 38.6576 0 42.6353C0 46.6129 3.22728 49.8374 7.20832 49.8374Z" fill="#6450FF"/>
<path d="M7.20832 49.8374C11.1894 49.8374 14.4166 46.6129 14.4166 42.6353C14.4166 38.6576 11.1894 35.4331 7.20832 35.4331C3.22728 35.4331 0 38.6576 0 42.6353C0 46.6129 3.22728 49.8374 7.20832 49.8374Z" fill="#6350FF"/>
<path d="M7.20832 49.8374C11.1894 49.8374 14.4166 46.6129 14.4166 42.6353C14.4166 38.6576 11.1894 35.4331 7.20832 35.4331C3.22728 35.4331 0 38.6576 0 42.6353C0 46.6129 3.22728 49.8374 7.20832 49.8374Z" fill="#6250FF"/>
<path d="M7.20832 49.8374C11.1894 49.8374 14.4166 46.6129 14.4166 42.6353C14.4166 38.6576 11.1894 35.4331 7.20832 35.4331C3.22728 35.4331 0 38.6576 0 42.6353C0 46.6129 3.22728 49.8374 7.20832 49.8374Z" fill="#6150FE"/>
<path d="M7.20832 49.8374C11.1894 49.8374 14.4166 46.6129 14.4166 42.6353C14.4166 38.6576 11.1894 35.4331 7.20832 35.4331C3.22728 35.4331 0 38.6576 0 42.6353C0 46.6129 3.22728 49.8374 7.20832 49.8374Z" fill="#604FFE"/>
<path d="M7.20832 49.8374C11.1894 49.8374 14.4166 46.6129 14.4166 42.6353C14.4166 38.6576 11.1894 35.4331 7.20832 35.4331C3.22728 35.4331 0 38.6576 0 42.6353C0 46.6129 3.22728 49.8374 7.20832 49.8374Z" fill="#5F4FFE"/>
<path d="M7.20832 49.8374C11.1894 49.8374 14.4166 46.6129 14.4166 42.6353C14.4166 38.6576 11.1894 35.4331 7.20832 35.4331C3.22728 35.4331 0 38.6576 0 42.6353C0 46.6129 3.22728 49.8374 7.20832 49.8374Z" fill="#5E4FFE"/>
<path d="M7.20832 49.8374C11.1894 49.8374 14.4166 46.6129 14.4166 42.6353C14.4166 38.6576 11.1894 35.4331 7.20832 35.4331C3.22728 35.4331 0 38.6576 0 42.6353C0 46.6129 3.22728 49.8374 7.20832 49.8374Z" fill="#5D4FFE"/>
<path d="M7.20832 49.8374C11.1894 49.8374 14.4166 46.6129 14.4166 42.6353C14.4166 38.6576 11.1894 35.4331 7.20832 35.4331C3.22728 35.4331 0 38.6576 0 42.6353C0 46.6129 3.22728 49.8374 7.20832 49.8374Z" fill="#5C4FFE"/>
<path d="M7.20832 49.8374C11.1894 49.8374 14.4166 46.6129 14.4166 42.6353C14.4166 38.6576 11.1894 35.4331 7.20832 35.4331C3.22728 35.4331 0 38.6576 0 42.6353C0 46.6129 3.22728 49.8374 7.20832 49.8374Z" fill="#5B4FFE"/>
<path d="M7.20832 49.8374C11.1894 49.8374 14.4166 46.6129 14.4166 42.6353C14.4166 38.6576 11.1894 35.4331 7.20832 35.4331C3.22728 35.4331 0 38.6576 0 42.6353C0 46.6129 3.22728 49.8374 7.20832 49.8374Z" fill="#5A4FFE"/>
<path d="M7.20832 49.8374C11.1894 49.8374 14.4166 46.6129 14.4166 42.6353C14.4166 38.6576 11.1894 35.4331 7.20832 35.4331C3.22728 35.4331 0 38.6576 0 42.6353C0 46.6129 3.22728 49.8374 7.20832 49.8374Z" fill="#594FFE"/>
<path d="M7.20832 49.8374C11.1894 49.8374 14.4166 46.6129 14.4166 42.6353C14.4166 38.6576 11.1894 35.4331 7.20832 35.4331C3.22728 35.4331 0 38.6576 0 42.6353C0 46.6129 3.22728 49.8374 7.20832 49.8374Z" fill="#584FFE"/>
<path d="M7.20832 49.8374C11.1894 49.8374 14.4166 46.6129 14.4166 42.6353C14.4166 38.6576 11.1894 35.4331 7.20832 35.4331C3.22728 35.4331 0 38.6576 0 42.6353C0 46.6129 3.22728 49.8374 7.20832 49.8374Z" fill="#574FFE"/>
<path d="M7.20832 49.8374C11.1894 49.8374 14.4166 46.6129 14.4166 42.6353C14.4166 38.6576 11.1894 35.4331 7.20832 35.4331C3.22728 35.4331 0 38.6576 0 42.6353C0 46.6129 3.22728 49.8374 7.20832 49.8374Z" fill="#564FFE"/>
<path d="M7.20832 49.8374C11.1894 49.8374 14.4166 46.6129 14.4166 42.6353C14.4166 38.6576 11.1894 35.4331 7.20832 35.4331C3.22728 35.4331 0 38.6576 0 42.6353C0 46.6129 3.22728 49.8374 7.20832 49.8374Z" fill="#554FFE"/>
<path d="M7.20832 49.8374C11.1894 49.8374 14.4166 46.6129 14.4166 42.6353C14.4166 38.6576 11.1894 35.4331 7.20832 35.4331C3.22728 35.4331 0 38.6576 0 42.6353C0 46.6129 3.22728 49.8374 7.20832 49.8374Z" fill="#544FFE"/>
<path d="M7.20832 49.8374C11.1894 49.8374 14.4166 46.6129 14.4166 42.6353C14.4166 38.6576 11.1894 35.4331 7.20832 35.4331C3.22728 35.4331 0 38.6576 0 42.6353C0 46.6129 3.22728 49.8374 7.20832 49.8374Z" fill="#534FFD"/>
<path d="M7.20832 49.8374C11.1894 49.8374 14.4166 46.6129 14.4166 42.6353C14.4166 38.6576 11.1894 35.4331 7.20832 35.4331C3.22728 35.4331 0 38.6576 0 42.6353C0 46.6129 3.22728 49.8374 7.20832 49.8374Z" fill="#524FFD"/>
<path d="M7.20832 49.8374C11.1894 49.8374 14.4166 46.6129 14.4166 42.6353C14.4166 38.6576 11.1894 35.4331 7.20832 35.4331C3.22728 35.4331 0 38.6576 0 42.6353C0 46.6129 3.22728 49.8374 7.20832 49.8374Z" fill="#514FFD"/>
<path d="M7.20832 49.8374C11.1894 49.8374 14.4166 46.6129 14.4166 42.6353C14.4166 38.6576 11.1894 35.4331 7.20832 35.4331C3.22728 35.4331 0 38.6576 0 42.6353C0 46.6129 3.22728 49.8374 7.20832 49.8374Z" fill="#504FFD"/>
<path d="M7.20832 49.8374C11.1894 49.8374 14.4166 46.6129 14.4166 42.6353C14.4166 38.6576 11.1894 35.4331 7.20832 35.4331C3.22728 35.4331 0 38.6576 0 42.6353C0 46.6129 3.22728 49.8374 7.20832 49.8374Z" fill="#4F4EFD"/>
<path d="M7.20832 49.8374C11.1894 49.8374 14.4166 46.6129 14.4166 42.6353C14.4166 38.6576 11.1894 35.4331 7.20832 35.4331C3.22728 35.4331 0 38.6576 0 42.6353C0 46.6129 3.22728 49.8374 7.20832 49.8374Z" fill="#4E4EFD"/>
<path d="M7.20832 49.8374C11.1894 49.8374 14.4166 46.6129 14.4166 42.6353C14.4166 38.6576 11.1894 35.4331 7.20832 35.4331C3.22728 35.4331 0 38.6576 0 42.6353C0 46.6129 3.22728 49.8374 7.20832 49.8374Z" fill="#4D4EFD"/>
<path d="M7.20832 49.8374C11.1894 49.8374 14.4166 46.6129 14.4166 42.6353C14.4166 38.6576 11.1894 35.4331 7.20832 35.4331C3.22728 35.4331 0 38.6576 0 42.6353C0 46.6129 3.22728 49.8374 7.20832 49.8374Z" fill="#4C4EFD"/>
<path d="M7.20832 49.8374C11.1894 49.8374 14.4166 46.6129 14.4166 42.6353C14.4166 38.6576 11.1894 35.4331 7.20832 35.4331C3.22728 35.4331 0 38.6576 0 42.6353C0 46.6129 3.22728 49.8374 7.20832 49.8374Z" fill="#4B4EFD"/>
<path d="M7.20832 49.8374C11.1894 49.8374 14.4166 46.6129 14.4166 42.6353C14.4166 38.6576 11.1894 35.4331 7.20832 35.4331C3.22728 35.4331 0 38.6576 0 42.6353C0 46.6129 3.22728 49.8374 7.20832 49.8374Z" fill="#4A4EFD"/>
<path d="M7.20832 49.8374C11.1894 49.8374 14.4166 46.6129 14.4166 42.6353C14.4166 38.6576 11.1894 35.4331 7.20832 35.4331C3.22728 35.4331 0 38.6576 0 42.6353C0 46.6129 3.22728 49.8374 7.20832 49.8374Z" fill="#494EFD"/>
<path d="M7.20832 49.8374C11.1894 49.8374 14.4166 46.6129 14.4166 42.6353C14.4166 38.6576 11.1894 35.4331 7.20832 35.4331C3.22728 35.4331 0 38.6576 0 42.6353C0 46.6129 3.22728 49.8374 7.20832 49.8374Z" fill="#484EFD"/>
<path d="M7.20832 49.8374C11.1894 49.8374 14.4166 46.6129 14.4166 42.6353C14.4166 38.6576 11.1894 35.4331 7.20832 35.4331C3.22728 35.4331 0 38.6576 0 42.6353C0 46.6129 3.22728 49.8374 7.20832 49.8374Z" fill="#474EFD"/>
<path d="M7.20832 49.8374C11.1894 49.8374 14.4166 46.6129 14.4166 42.6353C14.4166 38.6576 11.1894 35.4331 7.20832 35.4331C3.22728 35.4331 0 38.6576 0 42.6353C0 46.6129 3.22728 49.8374 7.20832 49.8374Z" fill="#464EFD"/>
<path d="M7.20832 49.8374C11.1894 49.8374 14.4166 46.6129 14.4166 42.6353C14.4166 38.6576 11.1894 35.4331 7.20832 35.4331C3.22728 35.4331 0 38.6576 0 42.6353C0 46.6129 3.22728 49.8374 7.20832 49.8374Z" fill="#454EFC"/>
<path d="M7.20832 49.8374C11.1894 49.8374 14.4166 46.6129 14.4166 42.6353C14.4166 38.6576 11.1894 35.4331 7.20832 35.4331C3.22728 35.4331 0 38.6576 0 42.6353C0 46.6129 3.22728 49.8374 7.20832 49.8374Z" fill="#444EFC"/>
<path d="M7.20832 49.8374C11.1894 49.8374 14.4166 46.6129 14.4166 42.6353C14.4166 38.6576 11.1894 35.4331 7.20832 35.4331C3.22728 35.4331 0 38.6576 0 42.6353C0 46.6129 3.22728 49.8374 7.20832 49.8374Z" fill="#434EFC"/>
<path d="M7.20832 49.8374C11.1894 49.8374 14.4166 46.6129 14.4166 42.6353C14.4166 38.6576 11.1894 35.4331 7.20832 35.4331C3.22728 35.4331 0 38.6576 0 42.6353C0 46.6129 3.22728 49.8374 7.20832 49.8374Z" fill="#424EFC"/>
<path d="M7.20832 49.8374C11.1894 49.8374 14.4166 46.6129 14.4166 42.6353C14.4166 38.6576 11.1894 35.4331 7.20832 35.4331C3.22728 35.4331 0 38.6576 0 42.6353C0 46.6129 3.22728 49.8374 7.20832 49.8374Z" fill="#414EFC"/>
<path d="M7.20832 49.8374C11.1894 49.8374 14.4166 46.6129 14.4166 42.6353C14.4166 38.6576 11.1894 35.4331 7.20832 35.4331C3.22728 35.4331 0 38.6576 0 42.6353C0 46.6129 3.22728 49.8374 7.20832 49.8374Z" fill="#404EFC"/>
<path d="M7.20832 49.8374C11.1894 49.8374 14.4166 46.6129 14.4166 42.6353C14.4166 38.6576 11.1894 35.4331 7.20832 35.4331C3.22728 35.4331 0 38.6576 0 42.6353C0 46.6129 3.22728 49.8374 7.20832 49.8374Z" fill="#3F4EFC"/>
<path d="M7.20832 49.8374C11.1894 49.8374 14.4166 46.6129 14.4166 42.6353C14.4166 38.6576 11.1894 35.4331 7.20832 35.4331C3.22728 35.4331 0 38.6576 0 42.6353C0 46.6129 3.22728 49.8374 7.20832 49.8374Z" fill="#3F4DFC"/>
<path d="M7.20832 49.8374C11.1894 49.8374 14.4166 46.6129 14.4166 42.6353C14.4166 38.6576 11.1894 35.4331 7.20832 35.4331C3.22728 35.4331 0 38.6576 0 42.6353C0 46.6129 3.22728 49.8374 7.20832 49.8374Z" fill="#3E4DFC"/>
<path d="M7.20832 49.8374C11.1894 49.8374 14.4166 46.6129 14.4166 42.6353C14.4166 38.6576 11.1894 35.4331 7.20832 35.4331C3.22728 35.4331 0 38.6576 0 42.6353C0 46.6129 3.22728 49.8374 7.20832 49.8374Z" fill="#3D4DFC"/>
<path d="M7.20832 49.8374C11.1894 49.8374 14.4166 46.6129 14.4166 42.6353C14.4166 38.6576 11.1894 35.4331 7.20832 35.4331C3.22728 35.4331 0 38.6576 0 42.6353C0 46.6129 3.22728 49.8374 7.20832 49.8374Z" fill="#3C4DFC"/>
<path d="M7.20832 49.8374C11.1894 49.8374 14.4166 46.6129 14.4166 42.6353C14.4166 38.6576 11.1894 35.4331 7.20832 35.4331C3.22728 35.4331 0 38.6576 0 42.6353C0 46.6129 3.22728 49.8374 7.20832 49.8374Z" fill="#3B4DFC"/>
<path d="M7.20832 49.8374C11.1894 49.8374 14.4166 46.6129 14.4166 42.6353C14.4166 38.6576 11.1894 35.4331 7.20832 35.4331C3.22728 35.4331 0 38.6576 0 42.6353C0 46.6129 3.22728 49.8374 7.20832 49.8374Z" fill="#3A4DFC"/>
<path d="M7.20832 49.8374C11.1894 49.8374 14.4166 46.6129 14.4166 42.6353C14.4166 38.6576 11.1894 35.4331 7.20832 35.4331C3.22728 35.4331 0 38.6576 0 42.6353C0 46.6129 3.22728 49.8374 7.20832 49.8374Z" fill="#394DFC"/>
<path d="M7.20832 49.8374C11.1894 49.8374 14.4166 46.6129 14.4166 42.6353C14.4166 38.6576 11.1894 35.4331 7.20832 35.4331C3.22728 35.4331 0 38.6576 0 42.6353C0 46.6129 3.22728 49.8374 7.20832 49.8374Z" fill="#384DFB"/>
<path d="M7.20832 49.8374C11.1894 49.8374 14.4166 46.6129 14.4166 42.6353C14.4166 38.6576 11.1894 35.4331 7.20832 35.4331C3.22728 35.4331 0 38.6576 0 42.6353C0 46.6129 3.22728 49.8374 7.20832 49.8374Z" fill="#374DFB"/>
<path d="M7.20832 49.8374C11.1894 49.8374 14.4166 46.6129 14.4166 42.6353C14.4166 38.6576 11.1894 35.4331 7.20832 35.4331C3.22728 35.4331 0 38.6576 0 42.6353C0 46.6129 3.22728 49.8374 7.20832 49.8374Z" fill="#364DFB"/>
<path d="M7.20832 49.8374C11.1894 49.8374 14.4166 46.6129 14.4166 42.6353C14.4166 38.6576 11.1894 35.4331 7.20832 35.4331C3.22728 35.4331 0 38.6576 0 42.6353C0 46.6129 3.22728 49.8374 7.20832 49.8374Z" fill="#354DFB"/>
<path d="M7.20832 49.8374C11.1894 49.8374 14.4166 46.6129 14.4166 42.6353C14.4166 38.6576 11.1894 35.4331 7.20832 35.4331C3.22728 35.4331 0 38.6576 0 42.6353C0 46.6129 3.22728 49.8374 7.20832 49.8374Z" fill="#344DFB"/>
<path d="M7.20832 49.8374C11.1894 49.8374 14.4166 46.6129 14.4166 42.6353C14.4166 38.6576 11.1894 35.4331 7.20832 35.4331C3.22728 35.4331 0 38.6576 0 42.6353C0 46.6129 3.22728 49.8374 7.20832 49.8374Z" fill="#334DFB"/>
<path d="M7.20832 49.8374C11.1894 49.8374 14.4166 46.6129 14.4166 42.6353C14.4166 38.6576 11.1894 35.4331 7.20832 35.4331C3.22728 35.4331 0 38.6576 0 42.6353C0 46.6129 3.22728 49.8374 7.20832 49.8374Z" fill="#324DFB"/>
<path d="M7.20832 49.8374C11.1894 49.8374 14.4166 46.6129 14.4166 42.6353C14.4166 38.6576 11.1894 35.4331 7.20832 35.4331C3.22728 35.4331 0 38.6576 0 42.6353C0 46.6129 3.22728 49.8374 7.20832 49.8374Z" fill="#314DFB"/>
<path d="M7.20832 49.8374C11.1894 49.8374 14.4166 46.6129 14.4166 42.6353C14.4166 38.6576 11.1894 35.4331 7.20832 35.4331C3.22728 35.4331 0 38.6576 0 42.6353C0 46.6129 3.22728 49.8374 7.20832 49.8374Z" fill="#304DFB"/>
<path d="M7.20832 49.8374C11.1894 49.8374 14.4166 46.6129 14.4166 42.6353C14.4166 38.6576 11.1894 35.4331 7.20832 35.4331C3.22728 35.4331 0 38.6576 0 42.6353C0 46.6129 3.22728 49.8374 7.20832 49.8374Z" fill="#2F4DFB"/>
<path d="M7.20832 49.8374C11.1894 49.8374 14.4166 46.6129 14.4166 42.6353C14.4166 38.6576 11.1894 35.4331 7.20832 35.4331C3.22728 35.4331 0 38.6576 0 42.6353C0 46.6129 3.22728 49.8374 7.20832 49.8374Z" fill="#2E4CFB"/>
<path d="M7.20832 49.8374C11.1894 49.8374 14.4166 46.6129 14.4166 42.6353C14.4166 38.6576 11.1894 35.4331 7.20832 35.4331C3.22728 35.4331 0 38.6576 0 42.6353C0 46.6129 3.22728 49.8374 7.20832 49.8374Z" fill="#2D4CFB"/>
<path d="M7.20832 49.8374C11.1894 49.8374 14.4166 46.6129 14.4166 42.6353C14.4166 38.6576 11.1894 35.4331 7.20832 35.4331C3.22728 35.4331 0 38.6576 0 42.6353C0 46.6129 3.22728 49.8374 7.20832 49.8374Z" fill="#2C4CFB"/>
<path d="M7.20832 49.8374C11.1894 49.8374 14.4166 46.6129 14.4166 42.6353C14.4166 38.6576 11.1894 35.4331 7.20832 35.4331C3.22728 35.4331 0 38.6576 0 42.6353C0 46.6129 3.22728 49.8374 7.20832 49.8374Z" fill="#2B4CFB"/>
<path d="M7.20832 49.8374C11.1894 49.8374 14.4166 46.6129 14.4166 42.6353C14.4166 38.6576 11.1894 35.4331 7.20832 35.4331C3.22728 35.4331 0 38.6576 0 42.6353C0 46.6129 3.22728 49.8374 7.20832 49.8374Z" fill="#2A4CFA"/>
<path d="M7.20832 49.8374C11.1894 49.8374 14.4166 46.6129 14.4166 42.6353C14.4166 38.6576 11.1894 35.4331 7.20832 35.4331C3.22728 35.4331 0 38.6576 0 42.6353C0 46.6129 3.22728 49.8374 7.20832 49.8374Z" fill="#294CFA"/>
<path d="M7.20832 49.8374C11.1894 49.8374 14.4166 46.6129 14.4166 42.6353C14.4166 38.6576 11.1894 35.4331 7.20832 35.4331C3.22728 35.4331 0 38.6576 0 42.6353C0 46.6129 3.22728 49.8374 7.20832 49.8374Z" fill="#284CFA"/>
<path d="M7.20832 49.8374C11.1894 49.8374 14.4166 46.6129 14.4166 42.6353C14.4166 38.6576 11.1894 35.4331 7.20832 35.4331C3.22728 35.4331 0 38.6576 0 42.6353C0 46.6129 3.22728 49.8374 7.20832 49.8374Z" fill="#274CFA"/>
<path d="M7.20832 49.8374C11.1894 49.8374 14.4166 46.6129 14.4166 42.6353C14.4166 38.6576 11.1894 35.4331 7.20832 35.4331C3.22728 35.4331 0 38.6576 0 42.6353C0 46.6129 3.22728 49.8374 7.20832 49.8374Z" fill="#264CFA"/>
<path d="M7.20832 49.8374C11.1894 49.8374 14.4166 46.6129 14.4166 42.6353C14.4166 38.6576 11.1894 35.4331 7.20832 35.4331C3.22728 35.4331 0 38.6576 0 42.6353C0 46.6129 3.22728 49.8374 7.20832 49.8374Z" fill="#254CFA"/>
<path d="M7.20832 49.8374C11.1894 49.8374 14.4166 46.6129 14.4166 42.6353C14.4166 38.6576 11.1894 35.4331 7.20832 35.4331C3.22728 35.4331 0 38.6576 0 42.6353C0 46.6129 3.22728 49.8374 7.20832 49.8374Z" fill="#244CFA"/>
<path d="M7.20832 49.8374C11.1894 49.8374 14.4166 46.6129 14.4166 42.6353C14.4166 38.6576 11.1894 35.4331 7.20832 35.4331C3.22728 35.4331 0 38.6576 0 42.6353C0 46.6129 3.22728 49.8374 7.20832 49.8374Z" fill="#234CFA"/>
<path d="M7.20832 49.8374C11.1894 49.8374 14.4166 46.6129 14.4166 42.6353C14.4166 38.6576 11.1894 35.4331 7.20832 35.4331C3.22728 35.4331 0 38.6576 0 42.6353C0 46.6129 3.22728 49.8374 7.20832 49.8374Z" fill="#224CFA"/>
<path d="M7.20832 49.8374C11.1894 49.8374 14.4166 46.6129 14.4166 42.6353C14.4166 38.6576 11.1894 35.4331 7.20832 35.4331C3.22728 35.4331 0 38.6576 0 42.6353C0 46.6129 3.22728 49.8374 7.20832 49.8374Z" fill="#214CFA"/>
<path d="M7.20832 49.8374C11.1894 49.8374 14.4166 46.6129 14.4166 42.6353C14.4166 38.6576 11.1894 35.4331 7.20832 35.4331C3.22728 35.4331 0 38.6576 0 42.6353C0 46.6129 3.22728 49.8374 7.20832 49.8374Z" fill="#204CFA"/>
<path d="M7.20832 49.8374C11.1894 49.8374 14.4166 46.6129 14.4166 42.6353C14.4166 38.6576 11.1894 35.4331 7.20832 35.4331C3.22728 35.4331 0 38.6576 0 42.6353C0 46.6129 3.22728 49.8374 7.20832 49.8374Z" fill="#1F4CFA"/>
<path d="M7.20832 49.8374C11.1894 49.8374 14.4166 46.6129 14.4166 42.6353C14.4166 38.6576 11.1894 35.4331 7.20832 35.4331C3.22728 35.4331 0 38.6576 0 42.6353C0 46.6129 3.22728 49.8374 7.20832 49.8374Z" fill="#1E4CFA"/>
<path d="M7.20832 49.8374C11.1894 49.8374 14.4166 46.6129 14.4166 42.6353C14.4166 38.6576 11.1894 35.4331 7.20832 35.4331C3.22728 35.4331 0 38.6576 0 42.6353C0 46.6129 3.22728 49.8374 7.20832 49.8374Z" fill="#1D4BFA"/>
<path d="M7.20832 49.8374C11.1894 49.8374 14.4166 46.6129 14.4166 42.6353C14.4166 38.6576 11.1894 35.4331 7.20832 35.4331C3.22728 35.4331 0 38.6576 0 42.6353C0 46.6129 3.22728 49.8374 7.20832 49.8374Z" fill="#1C4BF9"/>
<path d="M7.20832 49.8374C11.1894 49.8374 14.4166 46.6129 14.4166 42.6353C14.4166 38.6576 11.1894 35.4331 7.20832 35.4331C3.22728 35.4331 0 38.6576 0 42.6353C0 46.6129 3.22728 49.8374 7.20832 49.8374Z" fill="#1B4BF9"/>
<path d="M7.20832 49.8374C11.1894 49.8374 14.4166 46.6129 14.4166 42.6353C14.4166 38.6576 11.1894 35.4331 7.20832 35.4331C3.22728 35.4331 0 38.6576 0 42.6353C0 46.6129 3.22728 49.8374 7.20832 49.8374Z" fill="#1A4BF9"/>
<path d="M7.20832 49.8374C11.1894 49.8374 14.4166 46.6129 14.4166 42.6353C14.4166 38.6576 11.1894 35.4331 7.20832 35.4331C3.22728 35.4331 0 38.6576 0 42.6353C0 46.6129 3.22728 49.8374 7.20832 49.8374Z" fill="#194BF9"/>
<path d="M7.20832 49.8374C11.1894 49.8374 14.4166 46.6129 14.4166 42.6353C14.4166 38.6576 11.1894 35.4331 7.20832 35.4331C3.22728 35.4331 0 38.6576 0 42.6353C0 46.6129 3.22728 49.8374 7.20832 49.8374Z" fill="#184BF9"/>
<path d="M7.20832 49.8374C11.1894 49.8374 14.4166 46.6129 14.4166 42.6353C14.4166 38.6576 11.1894 35.4331 7.20832 35.4331C3.22728 35.4331 0 38.6576 0 42.6353C0 46.6129 3.22728 49.8374 7.20832 49.8374Z" fill="#174BF9"/>
<path d="M7.20832 49.8374C11.1894 49.8374 14.4166 46.6129 14.4166 42.6353C14.4166 38.6576 11.1894 35.4331 7.20832 35.4331C3.22728 35.4331 0 38.6576 0 42.6353C0 46.6129 3.22728 49.8374 7.20832 49.8374Z" fill="#164BF9"/>
<path d="M7.20832 49.8374C11.1894 49.8374 14.4166 46.6129 14.4166 42.6353C14.4166 38.6576 11.1894 35.4331 7.20832 35.4331C3.22728 35.4331 0 38.6576 0 42.6353C0 46.6129 3.22728 49.8374 7.20832 49.8374Z" fill="#154BF9"/>
<path d="M7.38996 49.5127C11.371 49.5127 14.5983 46.2882 14.5983 42.3106C14.5983 38.3329 11.371 35.1084 7.38996 35.1084C3.40892 35.1084 0.181641 38.3329 0.181641 42.3106C0.181641 46.2882 3.40892 49.5127 7.38996 49.5127Z" fill="#154CF9"/>
<path d="M7.56965 49.1876C11.5507 49.1876 14.778 45.963 14.778 41.9854C14.778 38.0077 11.5507 34.7832 7.56965 34.7832C3.5886 34.7832 0.361328 38.0077 0.361328 41.9854C0.361328 45.963 3.5886 49.1876 7.56965 49.1876Z" fill="#144DF9"/>
<path d="M7.75129 48.8809C11.7323 48.8809 14.9596 45.6564 14.9596 41.6787C14.9596 37.7011 11.7323 34.4766 7.75129 34.4766C3.77024 34.4766 0.542969 37.7011 0.542969 41.6787C0.542969 45.6564 3.77024 48.8809 7.75129 48.8809Z" fill="#144EF9"/>
<path d="M7.93098 48.5562C11.912 48.5562 15.1393 45.3317 15.1393 41.354C15.1393 37.3764 11.912 34.1519 7.93098 34.1519C3.94993 34.1519 0.722656 37.3764 0.722656 41.354C0.722656 45.3317 3.94993 48.5562 7.93098 48.5562Z" fill="#134FF9"/>
<path d="M8.11262 48.231C12.0937 48.231 15.3209 45.0065 15.3209 41.0288C15.3209 37.0512 12.0937 33.8267 8.11262 33.8267C4.13157 33.8267 0.904297 37.0512 0.904297 41.0288C0.904297 45.0065 4.13157 48.231 8.11262 48.231Z" fill="#1350FA"/>
<path d="M8.29231 47.9063C12.2734 47.9063 15.5006 44.6818 15.5006 40.7041C15.5006 36.7265 12.2734 33.502 8.29231 33.502C4.31126 33.502 1.08398 36.7265 1.08398 40.7041C1.08398 44.6818 4.31126 47.9063 8.29231 47.9063Z" fill="#1351FA"/>
<path d="M8.47199 47.5811C12.453 47.5811 15.6803 44.3566 15.6803 40.3789C15.6803 36.4013 12.453 33.1768 8.47199 33.1768C4.49095 33.1768 1.26367 36.4013 1.26367 40.3789C1.26367 44.3566 4.49095 47.5811 8.47199 47.5811Z" fill="#1252FA"/>
<path d="M8.65363 47.2564C12.6347 47.2564 15.862 44.0319 15.862 40.0542C15.862 36.0766 12.6347 32.8521 8.65363 32.8521C4.67259 32.8521 1.44531 36.0766 1.44531 40.0542C1.44531 44.0319 4.67259 47.2564 8.65363 47.2564Z" fill="#1253FA"/>
<path d="M8.85285 46.9493C12.8339 46.9493 16.0612 43.7247 16.0612 39.7471C16.0612 35.7694 12.8339 32.5449 8.85285 32.5449C4.87181 32.5449 1.64453 35.7694 1.64453 39.7471C1.64453 43.7247 4.87181 46.9493 8.85285 46.9493Z" fill="#1254FA"/>
<path d="M9.03254 46.6245C13.0136 46.6245 16.2409 43.4 16.2409 39.4224C16.2409 35.4447 13.0136 32.2202 9.03254 32.2202C5.05149 32.2202 1.82422 35.4447 1.82422 39.4224C1.82422 43.4 5.05149 46.6245 9.03254 46.6245Z" fill="#1155FA"/>
<path d="M9.21418 46.2998C13.1952 46.2998 16.4225 43.0753 16.4225 39.0977C16.4225 35.12 13.1952 31.8955 9.21418 31.8955C5.23313 31.8955 2.00586 35.12 2.00586 39.0977C2.00586 43.0753 5.23313 46.2998 9.21418 46.2998Z" fill="#1156FA"/>
<path d="M9.39387 45.9746C13.3749 45.9746 16.6022 42.7501 16.6022 38.7725C16.6022 34.7948 13.3749 31.5703 9.39387 31.5703C5.41282 31.5703 2.18555 34.7948 2.18555 38.7725C2.18555 42.7501 5.41282 45.9746 9.39387 45.9746Z" fill="#1057FA"/>
<path d="M9.57551 45.6499C13.5566 45.6499 16.7838 42.4254 16.7838 38.4478C16.7838 34.4701 13.5566 31.2456 9.57551 31.2456C5.59446 31.2456 2.36719 34.4701 2.36719 38.4478C2.36719 42.4254 5.59446 45.6499 9.57551 45.6499Z" fill="#1058FA"/>
<path d="M9.7552 45.3247C13.7362 45.3247 16.9635 42.1002 16.9635 38.1226C16.9635 34.1449 13.7362 30.9204 9.7552 30.9204C5.77415 30.9204 2.54688 34.1449 2.54688 38.1226C2.54688 42.1002 5.77415 45.3247 9.7552 45.3247Z" fill="#1059FB"/>
<path d="M9.93684 45C13.9179 45 17.1452 41.7755 17.1452 37.7979C17.1452 33.8202 13.9179 30.5957 9.93684 30.5957C5.95579 30.5957 2.72852 33.8202 2.72852 37.7979C2.72852 41.7755 5.95579 45 9.93684 45Z" fill="#0F5AFB"/>
<path d="M10.1165 44.6929C14.0976 44.6929 17.3248 41.4684 17.3248 37.4907C17.3248 33.5131 14.0976 30.2886 10.1165 30.2886C6.13548 30.2886 2.9082 33.5131 2.9082 37.4907C2.9082 41.4684 6.13548 44.6929 10.1165 44.6929Z" fill="#0F5BFB"/>
<path d="M10.2982 44.3682C14.2792 44.3682 17.5065 41.1437 17.5065 37.166C17.5065 33.1884 14.2792 29.9639 10.2982 29.9639C6.31712 29.9639 3.08984 33.1884 3.08984 37.166C3.08984 41.1437 6.31712 44.3682 10.2982 44.3682Z" fill="#0F5CFB"/>
<path d="M10.4779 44.0435C14.4589 44.0435 17.6862 40.819 17.6862 36.8413C17.6862 32.8637 14.4589 29.6392 10.4779 29.6392C6.49681 29.6392 3.26953 32.8637 3.26953 36.8413C3.26953 40.819 6.49681 44.0435 10.4779 44.0435Z" fill="#0E5DFB"/>
<path d="M10.6595 43.7183C14.6405 43.7183 17.8678 40.4938 17.8678 36.5161C17.8678 32.5385 14.6405 29.314 10.6595 29.314C6.67845 29.314 3.45117 32.5385 3.45117 36.5161C3.45117 40.4938 6.67845 43.7183 10.6595 43.7183Z" fill="#0E5EFB"/>
<path d="M10.8392 43.3936C14.8202 43.3936 18.0475 40.1691 18.0475 36.1914C18.0475 32.2138 14.8202 28.9893 10.8392 28.9893C6.85814 28.9893 3.63086 32.2138 3.63086 36.1914C3.63086 40.1691 6.85814 43.3936 10.8392 43.3936Z" fill="#0D5FFB"/>
<path d="M11.0208 43.0684C15.0019 43.0684 18.2291 39.8439 18.2291 35.8662C18.2291 31.8886 15.0019 28.6641 11.0208 28.6641C7.03978 28.6641 3.8125 31.8886 3.8125 35.8662C3.8125 39.8439 7.03978 43.0684 11.0208 43.0684Z" fill="#0D60FB"/>
<path d="M11.2005 42.7618C15.1816 42.7618 18.4088 39.5372 18.4088 35.5596C18.4088 31.5819 15.1816 28.3574 11.2005 28.3574C7.21946 28.3574 3.99219 31.5819 3.99219 35.5596C3.99219 39.5372 7.21946 42.7618 11.2005 42.7618Z" fill="#0D61FB"/>
<path d="M11.3821 42.4366C15.3632 42.4366 18.5905 39.212 18.5905 35.2344C18.5905 31.2567 15.3632 28.0322 11.3821 28.0322C7.4011 28.0322 4.17383 31.2567 4.17383 35.2344C4.17383 39.212 7.4011 42.4366 11.3821 42.4366Z" fill="#0C62FC"/>
<path d="M11.5618 42.1119C15.5429 42.1119 18.7702 38.8873 18.7702 34.9097C18.7702 30.932 15.5429 27.7075 11.5618 27.7075C7.58079 27.7075 4.35352 30.932 4.35352 34.9097C4.35352 38.8873 7.58079 42.1119 11.5618 42.1119Z" fill="#0C63FC"/>
<path d="M11.7435 41.7871C15.7245 41.7871 18.9518 38.5626 18.9518 34.585C18.9518 30.6073 15.7245 27.3828 11.7435 27.3828C7.76243 27.3828 4.53516 30.6073 4.53516 34.585C4.53516 38.5626 7.76243 41.7871 11.7435 41.7871Z" fill="#0B64FC"/>
<path d="M11.9232 41.462C15.9042 41.462 19.1315 38.2374 19.1315 34.2598C19.1315 30.2821 15.9042 27.0576 11.9232 27.0576C7.94212 27.0576 4.71484 30.2821 4.71484 34.2598C4.71484 38.2374 7.94212 41.462 11.9232 41.462Z" fill="#0B65FC"/>
<path d="M12.1048 41.1372C16.0858 41.1372 19.3131 37.9127 19.3131 33.9351C19.3131 29.9574 16.0858 26.7329 12.1048 26.7329C8.12376 26.7329 4.89648 29.9574 4.89648 33.9351C4.89648 37.9127 8.12376 41.1372 12.1048 41.1372Z" fill="#0B66FC"/>
<path d="M12.2845 40.8121C16.2655 40.8121 19.4928 37.5875 19.4928 33.6099C19.4928 29.6322 16.2655 26.4077 12.2845 26.4077C8.30345 26.4077 5.07617 29.6322 5.07617 33.6099C5.07617 37.5875 8.30345 40.8121 12.2845 40.8121Z" fill="#0A66FC"/>
<path d="M12.4661 40.5054C16.4472 40.5054 19.6744 37.2809 19.6744 33.3032C19.6744 29.3256 16.4472 26.1011 12.4661 26.1011C8.48509 26.1011 5.25781 29.3256 5.25781 33.3032C5.25781 37.2809 8.48509 40.5054 12.4661 40.5054Z" fill="#0A67FC"/>
<path d="M12.6458 40.1807C16.6269 40.1807 19.8541 36.9562 19.8541 32.9785C19.8541 29.0009 16.6269 25.7764 12.6458 25.7764C8.66477 25.7764 5.4375 29.0009 5.4375 32.9785C5.4375 36.9562 8.66477 40.1807 12.6458 40.1807Z" fill="#0A68FC"/>
<path d="M12.8275 39.8555C16.8085 39.8555 20.0358 36.631 20.0358 32.6533C20.0358 28.6757 16.8085 25.4512 12.8275 25.4512C8.84642 25.4512 5.61914 28.6757 5.61914 32.6533C5.61914 36.631 8.84642 39.8555 12.8275 39.8555Z" fill="#0969FC"/>
<path d="M13.0071 39.5308C16.9882 39.5308 20.2155 36.3063 20.2155 32.3286C20.2155 28.351 16.9882 25.1265 13.0071 25.1265C9.0261 25.1265 5.79883 28.351 5.79883 32.3286C5.79883 36.3063 9.0261 39.5308 13.0071 39.5308Z" fill="#096AFC"/>
<path d="M13.1888 39.2056C17.1698 39.2056 20.3971 35.9811 20.3971 32.0034C20.3971 28.0258 17.1698 24.8013 13.1888 24.8013C9.20774 24.8013 5.98047 28.0258 5.98047 32.0034C5.98047 35.9811 9.20774 39.2056 13.1888 39.2056Z" fill="#086BFD"/>
<path d="M13.3685 38.8809C17.3495 38.8809 20.5768 35.6564 20.5768 31.6787C20.5768 27.7011 17.3495 24.4766 13.3685 24.4766C9.38743 24.4766 6.16016 27.7011 6.16016 31.6787C6.16016 35.6564 9.38743 38.8809 13.3685 38.8809Z" fill="#086CFD"/>
<path d="M13.5677 38.5742C17.5487 38.5742 20.776 35.3497 20.776 31.3721C20.776 27.3944 17.5487 24.1699 13.5677 24.1699C9.58665 24.1699 6.35938 27.3944 6.35938 31.3721C6.35938 35.3497 9.58665 38.5742 13.5677 38.5742Z" fill="#086DFD"/>
<path d="M13.7493 38.2491C17.7304 38.2491 20.9577 35.0245 20.9577 31.0469C20.9577 27.0692 17.7304 23.8447 13.7493 23.8447C9.76829 23.8447 6.54102 27.0692 6.54102 31.0469C6.54102 35.0245 9.76829 38.2491 13.7493 38.2491Z" fill="#076EFD"/>
<path d="M13.929 37.9243C17.9101 37.9243 21.1374 34.6998 21.1374 30.7222C21.1374 26.7445 17.9101 23.52 13.929 23.52C9.94798 23.52 6.7207 26.7445 6.7207 30.7222C6.7207 34.6998 9.94798 37.9243 13.929 37.9243Z" fill="#076FFD"/>
<path d="M14.1107 37.5992C18.0917 37.5992 21.319 34.3746 21.319 30.397C21.319 26.4193 18.0917 23.1948 14.1107 23.1948C10.1296 23.1948 6.90234 26.4193 6.90234 30.397C6.90234 34.3746 10.1296 37.5992 14.1107 37.5992Z" fill="#0670FD"/>
<path d="M14.2904 37.2745C18.2714 37.2745 21.4987 34.0499 21.4987 30.0723C21.4987 26.0946 18.2714 22.8701 14.2904 22.8701C10.3093 22.8701 7.08203 26.0946 7.08203 30.0723C7.08203 34.0499 10.3093 37.2745 14.2904 37.2745Z" fill="#0671FD"/>
<path d="M14.472 36.9497C18.453 36.9497 21.6803 33.7252 21.6803 29.7476C21.6803 25.7699 18.453 22.5454 14.472 22.5454C10.4909 22.5454 7.26367 25.7699 7.26367 29.7476C7.26367 33.7252 10.4909 36.9497 14.472 36.9497Z" fill="#0672FD"/>
<path d="M14.6517 36.6245C18.6327 36.6245 21.86 33.4 21.86 29.4224C21.86 25.4447 18.6327 22.2202 14.6517 22.2202C10.6706 22.2202 7.44336 25.4447 7.44336 29.4224C7.44336 33.4 10.6706 36.6245 14.6517 36.6245Z" fill="#0573FD"/>
<path d="M14.8333 36.3179C18.8144 36.3179 22.0416 33.0934 22.0416 29.1157C22.0416 25.1381 18.8144 21.9136 14.8333 21.9136C10.8523 21.9136 7.625 25.1381 7.625 29.1157C7.625 33.0934 10.8523 36.3179 14.8333 36.3179Z" fill="#0574FE"/>
<path d="M15.013 35.9927C18.9941 35.9927 22.2213 32.7682 22.2213 28.7905C22.2213 24.8129 18.9941 21.5884 15.013 21.5884C11.032 21.5884 7.80469 24.8129 7.80469 28.7905C7.80469 32.7682 11.032 35.9927 15.013 35.9927Z" fill="#0575FE"/>
<path d="M15.1947 35.668C19.1757 35.668 22.403 32.4435 22.403 28.4658C22.403 24.4882 19.1757 21.2637 15.1947 21.2637C11.2136 21.2637 7.98633 24.4882 7.98633 28.4658C7.98633 32.4435 11.2136 35.668 15.1947 35.668Z" fill="#0476FE"/>
<path d="M15.3743 35.3428C19.3554 35.3428 22.5827 32.1183 22.5827 28.1406C22.5827 24.163 19.3554 20.9385 15.3743 20.9385C11.3933 20.9385 8.16602 24.163 8.16602 28.1406C8.16602 32.1183 11.3933 35.3428 15.3743 35.3428Z" fill="#0477FE"/>
<path d="M15.556 35.0181C19.537 35.0181 22.7643 31.7936 22.7643 27.8159C22.7643 23.8383 19.537 20.6138 15.556 20.6138C11.5749 20.6138 8.34766 23.8383 8.34766 27.8159C8.34766 31.7936 11.5749 35.0181 15.556 35.0181Z" fill="#0378FE"/>
<path d="M15.7357 34.6934C19.7167 34.6934 22.944 31.4689 22.944 27.4912C22.944 23.5136 19.7167 20.2891 15.7357 20.2891C11.7546 20.2891 8.52734 23.5136 8.52734 27.4912C8.52734 31.4689 11.7546 34.6934 15.7357 34.6934Z" fill="#0379FE"/>
<path d="M15.9173 34.3863C19.8983 34.3863 23.1256 31.1617 23.1256 27.1841C23.1256 23.2065 19.8983 19.9819 15.9173 19.9819C11.9363 19.9819 8.70898 23.2065 8.70898 27.1841C8.70898 31.1617 11.9363 34.3863 15.9173 34.3863Z" fill="#037AFE"/>
<path d="M16.097 34.0616C20.078 34.0616 23.3053 30.837 23.3053 26.8594C23.3053 22.8817 20.078 19.6572 16.097 19.6572C12.1159 19.6572 8.88867 22.8817 8.88867 26.8594C8.88867 30.837 12.1159 34.0616 16.097 34.0616Z" fill="#027BFE"/>
<path d="M16.2786 33.7364C20.2597 33.7364 23.487 30.5118 23.487 26.5342C23.487 22.5566 20.2597 19.332 16.2786 19.332C12.2976 19.332 9.07031 22.5566 9.07031 26.5342C9.07031 30.5118 12.2976 33.7364 16.2786 33.7364Z" fill="#027CFE"/>
<path d="M16.4583 33.4117C20.4394 33.4117 23.6666 30.1871 23.6666 26.2095C23.6666 22.2318 20.4394 19.0073 16.4583 19.0073C12.4773 19.0073 9.25 22.2318 9.25 26.2095C9.25 30.1871 12.4773 33.4117 16.4583 33.4117Z" fill="#027DFF"/>
<path d="M16.64 33.0865C20.621 33.0865 23.8483 29.8619 23.8483 25.8843C23.8483 21.9066 20.621 18.6821 16.64 18.6821C12.6589 18.6821 9.43164 21.9066 9.43164 25.8843C9.43164 29.8619 12.6589 33.0865 16.64 33.0865Z" fill="#017EFF"/>
<path d="M16.8196 32.7618C20.8007 32.7618 24.028 29.5372 24.028 25.5596C24.028 21.5819 20.8007 18.3574 16.8196 18.3574C12.8386 18.3574 9.61133 21.5819 9.61133 25.5596C9.61133 29.5372 12.8386 32.7618 16.8196 32.7618Z" fill="#017FFF"/>
<path d="M16.9993 32.4546C20.9804 32.4546 24.2077 29.2301 24.2077 25.2525C24.2077 21.2748 20.9804 18.0503 16.9993 18.0503C13.0183 18.0503 9.79102 21.2748 9.79102 25.2525C9.79102 29.2301 13.0183 32.4546 16.9993 32.4546Z" fill="#0080FF"/>
<path d="M17.181 32.1299C21.162 32.1299 24.3893 28.9054 24.3893 24.9278C24.3893 20.9501 21.162 17.7256 17.181 17.7256C13.1999 17.7256 9.97266 20.9501 9.97266 24.9278C9.97266 28.9054 13.1999 32.1299 17.181 32.1299Z" fill="#0081FF"/>
<path d="M17.3431 31.8409C21.3241 31.8409 24.5514 28.6163 24.5514 24.6387C24.5514 20.661 21.3241 17.4365 17.3431 17.4365C13.362 17.4365 10.1348 20.661 10.1348 24.6387C10.1348 28.6163 13.362 31.8409 17.3431 31.8409Z" fill="#0082FF"/>
<path d="M17.5052 31.5703C21.4862 31.5703 24.7135 28.3458 24.7135 24.3682C24.7135 20.3905 21.4862 17.166 17.5052 17.166C13.5242 17.166 10.2969 20.3905 10.2969 24.3682C10.2969 28.3458 13.5242 31.5703 17.5052 31.5703Z" fill="#0083FF"/>
<path d="M17.6497 31.2993C21.6308 31.2993 24.858 28.0748 24.858 24.0972C24.858 20.1195 21.6308 16.895 17.6497 16.895C13.6687 16.895 10.4414 20.1195 10.4414 24.0972C10.4414 28.0748 13.6687 31.2993 17.6497 31.2993Z" fill="#0084FF"/>
<path d="M17.8138 31.0108C21.7948 31.0108 25.0221 27.7863 25.0221 23.8086C25.0221 19.831 21.7948 16.6064 17.8138 16.6064C13.8327 16.6064 10.6055 19.831 10.6055 23.8086C10.6055 27.7863 13.8327 31.0108 17.8138 31.0108Z" fill="#0085FF"/>
<path d="M17.9583 30.7403C21.9394 30.7403 25.1666 27.5157 25.1666 23.5381C25.1666 19.5605 21.9394 16.3359 17.9583 16.3359C13.9773 16.3359 10.75 19.5605 10.75 23.5381C10.75 27.5157 13.9773 30.7403 17.9583 30.7403Z" fill="#0086FF"/>
<path d="M18.1204 30.4693C22.1015 30.4693 25.3287 27.2448 25.3287 23.2671C25.3287 19.2895 22.1015 16.0649 18.1204 16.0649C14.1394 16.0649 10.9121 19.2895 10.9121 23.2671C10.9121 27.2448 14.1394 30.4693 18.1204 30.4693Z" fill="#0087FE"/>
<path d="M18.2825 30.1807C22.2636 30.1807 25.4909 26.9562 25.4909 22.9785C25.4909 19.0009 22.2636 15.7764 18.2825 15.7764C14.3015 15.7764 11.0742 19.0009 11.0742 22.9785C11.0742 26.9562 14.3015 30.1807 18.2825 30.1807Z" fill="#0088FE"/>
<path d="M18.4271 29.9097C22.4081 29.9097 25.6354 26.6852 25.6354 22.7075C25.6354 18.7299 22.4081 15.5054 18.4271 15.5054C14.446 15.5054 11.2188 18.7299 11.2188 22.7075C11.2188 26.6852 14.446 29.9097 18.4271 29.9097Z" fill="#0089FE"/>
<path d="M18.5892 29.6392C22.5702 29.6392 25.7975 26.4147 25.7975 22.437C25.7975 18.4594 22.5702 15.2349 18.5892 15.2349C14.6081 15.2349 11.3809 18.4594 11.3809 22.437C11.3809 26.4147 14.6081 29.6392 18.5892 29.6392Z" fill="#008AFE"/>
<path d="M18.7532 29.3501C22.7343 29.3501 25.9616 26.1256 25.9616 22.148C25.9616 18.1703 22.7343 14.9458 18.7532 14.9458C14.7722 14.9458 11.5449 18.1703 11.5449 22.148C11.5449 26.1256 14.7722 29.3501 18.7532 29.3501Z" fill="#008BFE"/>
<path d="M18.8978 29.0796C22.8788 29.0796 26.1061 25.8551 26.1061 21.8775C26.1061 17.8998 22.8788 14.6753 18.8978 14.6753C14.9167 14.6753 11.6895 17.8998 11.6895 21.8775C11.6895 25.8551 14.9167 29.0796 18.8978 29.0796Z" fill="#008CFE"/>
<path d="M19.0599 28.8086C23.0409 28.8086 26.2682 25.5841 26.2682 21.6065C26.2682 17.6288 23.0409 14.4043 19.0599 14.4043C15.0788 14.4043 11.8516 17.6288 11.8516 21.6065C11.8516 25.5841 15.0788 28.8086 19.0599 28.8086Z" fill="#008DFE"/>
<path d="M19.2044 28.5201C23.1855 28.5201 26.4127 25.2955 26.4127 21.3179C26.4127 17.3402 23.1855 14.1157 19.2044 14.1157C15.2234 14.1157 11.9961 17.3402 11.9961 21.3179C11.9961 25.2955 15.2234 28.5201 19.2044 28.5201Z" fill="#008EFE"/>
<path d="M19.3665 28.2491C23.3476 28.2491 26.5748 25.0245 26.5748 21.0469C26.5748 17.0692 23.3476 13.8447 19.3665 13.8447C15.3855 13.8447 12.1582 17.0692 12.1582 21.0469C12.1582 25.0245 15.3855 28.2491 19.3665 28.2491Z" fill="#008FFE"/>
<path d="M19.5286 27.9785C23.5097 27.9785 26.737 24.754 26.737 20.7764C26.737 16.7987 23.5097 13.5742 19.5286 13.5742C15.5476 13.5742 12.3203 16.7987 12.3203 20.7764C12.3203 24.754 15.5476 27.9785 19.5286 27.9785Z" fill="#0090FE"/>
<path d="M19.6751 27.6895C23.6562 27.6895 26.8834 24.465 26.8834 20.4873C26.8834 16.5097 23.6562 13.2852 19.6751 13.2852C15.6941 13.2852 12.4668 16.5097 12.4668 20.4873C12.4668 24.465 15.6941 27.6895 19.6751 27.6895Z" fill="#0091FE"/>
<path d="M19.8372 27.4185C23.8183 27.4185 27.0456 24.194 27.0456 20.2163C27.0456 16.2387 23.8183 13.0142 19.8372 13.0142C15.8562 13.0142 12.6289 16.2387 12.6289 20.2163C12.6289 24.194 15.8562 27.4185 19.8372 27.4185Z" fill="#0092FD"/>
<path d="M19.9993 27.148C23.9804 27.148 27.2077 23.9235 27.2077 19.9458C27.2077 15.9682 23.9804 12.7437 19.9993 12.7437C16.0183 12.7437 12.791 15.9682 12.791 19.9458C12.791 23.9235 16.0183 27.148 19.9993 27.148Z" fill="#0093FD"/>
<path d="M20.1439 26.8594C24.1249 26.8594 27.3522 23.6349 27.3522 19.6572C27.3522 15.6796 24.1249 12.4551 20.1439 12.4551C16.1628 12.4551 12.9355 15.6796 12.9355 19.6572C12.9355 23.6349 16.1628 26.8594 20.1439 26.8594Z" fill="#0094FD"/>
<path d="M20.306 26.5884C24.287 26.5884 27.5143 23.3639 27.5143 19.3862C27.5143 15.4086 24.287 12.1841 20.306 12.1841C16.3249 12.1841 13.0977 15.4086 13.0977 19.3862C13.0977 23.3639 16.3249 26.5884 20.306 26.5884Z" fill="#0095FD"/>
<path d="M20.4505 26.3174C24.4316 26.3174 27.6588 23.0929 27.6588 19.1153C27.6588 15.1376 24.4316 11.9131 20.4505 11.9131C16.4695 11.9131 13.2422 15.1376 13.2422 19.1153C13.2422 23.0929 16.4695 26.3174 20.4505 26.3174Z" fill="#0096FD"/>
<path d="M20.6146 26.0288C24.5956 26.0288 27.8229 22.8043 27.8229 18.8267C27.8229 14.849 24.5956 11.6245 20.6146 11.6245C16.6335 11.6245 13.4062 14.849 13.4062 18.8267C13.4062 22.8043 16.6335 26.0288 20.6146 26.0288Z" fill="#0097FD"/>
<path d="M20.7767 25.7583C24.7577 25.7583 27.985 22.5338 27.985 18.5562C27.985 14.5785 24.7577 11.354 20.7767 11.354C16.7956 11.354 13.5684 14.5785 13.5684 18.5562C13.5684 22.5338 16.7956 25.7583 20.7767 25.7583Z" fill="#0098FD"/>
<path d="M20.9212 25.4873C24.9023 25.4873 28.1295 22.2628 28.1295 18.2852C28.1295 14.3075 24.9023 11.083 20.9212 11.083C16.9402 11.083 13.7129 14.3075 13.7129 18.2852C13.7129 22.2628 16.9402 25.4873 20.9212 25.4873Z" fill="#0099FD"/>
<path d="M21.0833 25.1988C25.0644 25.1988 28.2916 21.9743 28.2916 17.9966C28.2916 14.019 25.0644 10.7944 21.0833 10.7944C17.1023 10.7944 13.875 14.019 13.875 17.9966C13.875 21.9743 17.1023 25.1988 21.0833 25.1988Z" fill="#009AFD"/>
<path d="M21.2454 24.9278C25.2265 24.9278 28.4538 21.7032 28.4538 17.7256C28.4538 13.748 25.2265 10.5234 21.2454 10.5234C17.2644 10.5234 14.0371 13.748 14.0371 17.7256C14.0371 21.7032 17.2644 24.9278 21.2454 24.9278Z" fill="#009BFD"/>
<path d="M21.39 24.6573C25.371 24.6573 28.5983 21.4327 28.5983 17.4551C28.5983 13.4774 25.371 10.2529 21.39 10.2529C17.4089 10.2529 14.1816 13.4774 14.1816 17.4551C14.1816 21.4327 17.4089 24.6573 21.39 24.6573Z" fill="#009CFC"/>
<path d="M21.5521 24.3682C25.5331 24.3682 28.7604 21.1437 28.7604 17.166C28.7604 13.1884 25.5331 9.96387 21.5521 9.96387C17.571 9.96387 14.3438 13.1884 14.3438 17.166C14.3438 21.1437 17.571 24.3682 21.5521 24.3682Z" fill="#009DFC"/>
<path d="M21.6966 24.0977C25.6776 24.0977 28.9049 20.8732 28.9049 16.8955C28.9049 12.9179 25.6776 9.69336 21.6966 9.69336C17.7156 9.69336 14.4883 12.9179 14.4883 16.8955C14.4883 20.8732 17.7156 24.0977 21.6966 24.0977Z" fill="#009EFC"/>
<path d="M21.8607 23.8267C25.8417 23.8267 29.069 20.6022 29.069 16.6245C29.069 12.6469 25.8417 9.42236 21.8607 9.42236C17.8796 9.42236 14.6523 12.6469 14.6523 16.6245C14.6523 20.6022 17.8796 23.8267 21.8607 23.8267Z" fill="#009FFC"/>
<path d="M22.0228 23.5381C26.0038 23.5381 29.2311 20.3136 29.2311 16.336C29.2311 12.3583 26.0038 9.13379 22.0228 9.13379C18.0417 9.13379 14.8145 12.3583 14.8145 16.336C14.8145 20.3136 18.0417 23.5381 22.0228 23.5381Z" fill="#00A0FC"/>
<path d="M22.1673 23.2671C26.1483 23.2671 29.3756 20.0426 29.3756 16.065C29.3756 12.0873 26.1483 8.86279 22.1673 8.86279C18.1863 8.86279 14.959 12.0873 14.959 16.065C14.959 20.0426 18.1863 23.2671 22.1673 23.2671Z" fill="#00A1FC"/>
<path d="M22.3294 22.9961C26.3105 22.9961 29.5377 19.7716 29.5377 15.794C29.5377 11.8163 26.3105 8.5918 22.3294 8.5918C18.3484 8.5918 15.1211 11.8163 15.1211 15.794C15.1211 19.7716 18.3484 22.9961 22.3294 22.9961Z" fill="#00A1FC"/>
<path d="M22.4915 22.7076C26.4726 22.7076 29.6998 19.483 29.6998 15.5054C29.6998 11.5277 26.4726 8.30322 22.4915 8.30322C18.5105 8.30322 15.2832 11.5277 15.2832 15.5054C15.2832 19.483 18.5105 22.7076 22.4915 22.7076Z" fill="#00A2FC"/>
<path d="M22.6361 22.437C26.6171 22.437 29.8444 19.2125 29.8444 15.2349C29.8444 11.2572 26.6171 8.03271 22.6361 8.03271C18.655 8.03271 15.4277 11.2572 15.4277 15.2349C15.4277 19.2125 18.655 22.437 22.6361 22.437Z" fill="#00A3FC"/>
<path d="M22.7982 22.166C26.7792 22.166 30.0065 18.9415 30.0065 14.9639C30.0065 10.9862 26.7792 7.76172 22.7982 7.76172C18.8171 7.76172 15.5898 10.9862 15.5898 14.9639C15.5898 18.9415 18.8171 22.166 22.7982 22.166Z" fill="#00A4FC"/>
<path d="M22.9427 21.8775C26.9237 21.8775 30.151 18.653 30.151 14.6753C30.151 10.6977 26.9237 7.47314 22.9427 7.47314C18.9617 7.47314 15.7344 10.6977 15.7344 14.6753C15.7344 18.653 18.9617 21.8775 22.9427 21.8775Z" fill="#00A5FC"/>
<path d="M23.1068 21.6065C27.0878 21.6065 30.3151 18.382 30.3151 14.4043C30.3151 10.4267 27.0878 7.20215 23.1068 7.20215C19.1257 7.20215 15.8984 10.4267 15.8984 14.4043C15.8984 18.382 19.1257 21.6065 23.1068 21.6065Z" fill="#00A6FB"/>
<path d="M23.2689 21.336C27.2499 21.336 30.4772 18.1115 30.4772 14.1338C30.4772 10.1562 27.2499 6.93164 23.2689 6.93164C19.2878 6.93164 16.0605 10.1562 16.0605 14.1338C16.0605 18.1115 19.2878 21.336 23.2689 21.336Z" fill="#00A7FB"/>
<path d="M23.4134 21.0469C27.3944 21.0469 30.6217 17.8224 30.6217 13.8447C30.6217 9.8671 27.3944 6.64258 23.4134 6.64258C19.4324 6.64258 16.2051 9.8671 16.2051 13.8447C16.2051 17.8224 19.4324 21.0469 23.4134 21.0469Z" fill="#00A8FB"/>
<path d="M23.5755 20.7764C27.5566 20.7764 30.7838 17.5519 30.7838 13.5742C30.7838 9.59659 27.5566 6.37207 23.5755 6.37207C19.5945 6.37207 16.3672 9.59659 16.3672 13.5742C16.3672 17.5519 19.5945 20.7764 23.5755 20.7764Z" fill="#00A9FB"/>
<path d="M23.7376 20.5054C27.7187 20.5054 30.9459 17.2809 30.9459 13.3032C30.9459 9.32559 27.7187 6.10107 23.7376 6.10107C19.7566 6.10107 16.5293 9.32559 16.5293 13.3032C16.5293 17.2809 19.7566 20.5054 23.7376 20.5054Z" fill="#00AAFB"/>
<path d="M23.8822 20.2168C27.8632 20.2168 31.0905 16.9923 31.0905 13.0147C31.0905 9.03702 27.8632 5.8125 23.8822 5.8125C19.9011 5.8125 16.6738 9.03702 16.6738 13.0147C16.6738 16.9923 19.9011 20.2168 23.8822 20.2168Z" fill="#00ABFB"/>
<path d="M24.0462 19.9458C28.0273 19.9458 31.2545 16.7213 31.2545 12.7437C31.2545 8.76602 28.0273 5.5415 24.0462 5.5415C20.0652 5.5415 16.8379 8.76602 16.8379 12.7437C16.8379 16.7213 20.0652 19.9458 24.0462 19.9458Z" fill="#00ACFB"/>
<path d="M24.1907 19.6753C28.1718 19.6753 31.3991 16.4508 31.3991 12.4732C31.3991 8.49552 28.1718 5.271 24.1907 5.271C20.2097 5.271 16.9824 8.49552 16.9824 12.4732C16.9824 16.4508 20.2097 19.6753 24.1907 19.6753Z" fill="#00ADFB"/>
<path d="M24.3529 19.3863C28.3339 19.3863 31.5612 16.1617 31.5612 12.1841C31.5612 8.20645 28.3339 4.98193 24.3529 4.98193C20.3718 4.98193 17.1445 8.20645 17.1445 12.1841C17.1445 16.1617 20.3718 19.3863 24.3529 19.3863Z" fill="#00AEFB"/>
<path d="M24.515 19.1153C28.496 19.1153 31.7233 15.8908 31.7233 11.9131C31.7233 7.93546 28.496 4.71094 24.515 4.71094C20.5339 4.71094 17.3066 7.93546 17.3066 11.9131C17.3066 15.8908 20.5339 19.1153 24.515 19.1153Z" fill="#00AFFB"/>
<path d="M24.6595 18.8448C28.6405 18.8448 31.8678 15.6202 31.8678 11.6426C31.8678 7.66495 28.6405 4.44043 24.6595 4.44043C20.6784 4.44043 17.4512 7.66495 17.4512 11.6426C17.4512 15.6202 20.6784 18.8448 24.6595 18.8448Z" fill="#00B0FB"/>
<path d="M24.8236 18.5557C28.8046 18.5557 32.0319 15.3312 32.0319 11.3535C32.0319 7.37589 28.8046 4.15137 24.8236 4.15137C20.8425 4.15137 17.6152 7.37589 17.6152 11.3535C17.6152 15.3312 20.8425 18.5557 24.8236 18.5557Z" fill="#00B1FA"/>
<path d="M24.9857 18.2852C28.9667 18.2852 32.194 15.0607 32.194 11.083C32.194 7.10538 28.9667 3.88086 24.9857 3.88086C21.0046 3.88086 17.7773 7.10538 17.7773 11.083C17.7773 15.0607 21.0046 18.2852 24.9857 18.2852Z" fill="#00B2FA"/>
<path d="M25.1302 18.0142C29.1112 18.0142 32.3385 14.7897 32.3385 10.812C32.3385 6.83438 29.1112 3.60986 25.1302 3.60986C21.1492 3.60986 17.9219 6.83438 17.9219 10.812C17.9219 14.7897 21.1492 18.0142 25.1302 18.0142Z" fill="#00B3FA"/>
<path d="M25.2923 17.7256C29.2733 17.7256 32.5006 14.5011 32.5006 10.5235C32.5006 6.54581 29.2733 3.32129 25.2923 3.32129C21.3113 3.32129 18.084 6.54581 18.084 10.5235C18.084 14.5011 21.3113 17.7256 25.2923 17.7256Z" fill="#00B4FA"/>
<path d="M25.4368 17.4551C29.4179 17.4551 32.6452 14.2306 32.6452 10.2529C32.6452 6.2753 29.4179 3.05078 25.4368 3.05078C21.4558 3.05078 18.2285 6.2753 18.2285 10.2529C18.2285 14.2306 21.4558 17.4551 25.4368 17.4551Z" fill="#00B5FA"/>
<path d="M25.5989 17.1841C29.58 17.1841 32.8073 13.9596 32.8073 9.98195C32.8073 6.0043 29.58 2.77979 25.5989 2.77979C21.6179 2.77979 18.3906 6.0043 18.3906 9.98195C18.3906 13.9596 21.6179 17.1841 25.5989 17.1841Z" fill="#00B6FA"/>
<path d="M25.763 16.8951C29.7441 16.8951 32.9713 13.6705 32.9713 9.69289C32.9713 5.71524 29.7441 2.49072 25.763 2.49072C21.782 2.49072 18.5547 5.71524 18.5547 9.69289C18.5547 13.6705 21.782 16.8951 25.763 16.8951Z" fill="#00B7FA"/>
<path d="M25.9056 16.6245C29.8866 16.6245 33.1139 13.4 33.1139 9.42238C33.1139 5.44474 29.8866 2.22021 25.9056 2.22021C21.9245 2.22021 18.6973 5.44474 18.6973 9.42238C18.6973 13.4 21.9245 16.6245 25.9056 16.6245Z" fill="#00B8FA"/>
<path d="M26.0696 16.3536C30.0507 16.3536 33.278 13.129 33.278 9.15139C33.278 5.17374 30.0507 1.94922 26.0696 1.94922C22.0886 1.94922 18.8613 5.17374 18.8613 9.15139C18.8613 13.129 22.0886 16.3536 26.0696 16.3536Z" fill="#00B9FA"/>
<path d="M26.2318 16.065C30.2128 16.065 33.4401 12.8405 33.4401 8.86281C33.4401 4.88516 30.2128 1.66064 26.2318 1.66064C22.2507 1.66064 19.0234 4.88516 19.0234 8.86281C19.0234 12.8405 22.2507 16.065 26.2318 16.065Z" fill="#00BAFA"/>
<path d="M26.3763 15.7945C30.3573 15.7945 33.5846 12.57 33.5846 8.5923C33.5846 4.61466 30.3573 1.39014 26.3763 1.39014C22.3952 1.39014 19.168 4.61466 19.168 8.5923C19.168 12.57 22.3952 15.7945 26.3763 15.7945Z" fill="#00BBF9"/>
<path d="M26.5384 15.5235C30.5194 15.5235 33.7467 12.299 33.7467 8.32131C33.7467 4.34366 30.5194 1.11914 26.5384 1.11914C22.5574 1.11914 19.3301 4.34366 19.3301 8.32131C19.3301 12.299 22.5574 15.5235 26.5384 15.5235Z" fill="#00BCF9"/>
<path d="M26.6829 15.2344C30.664 15.2344 33.8913 12.0099 33.8913 8.03225C33.8913 4.0546 30.664 0.830078 26.6829 0.830078C22.7019 0.830078 19.4746 4.0546 19.4746 8.03225C19.4746 12.0099 22.7019 15.2344 26.6829 15.2344Z" fill="#00BDF9"/>
<path d="M26.847 14.9639C30.828 14.9639 34.0553 11.7394 34.0553 7.76174C34.0553 3.78409 30.828 0.55957 26.847 0.55957C22.8659 0.55957 19.6387 3.78409 19.6387 7.76174C19.6387 11.7394 22.8659 14.9639 26.847 14.9639Z" fill="#00BEF9"/>
<path d="M27.0091 14.6929C30.9902 14.6929 34.2174 11.4684 34.2174 7.49074C34.2174 3.51309 30.9902 0.288574 27.0091 0.288574C23.0281 0.288574 19.8008 3.51309 19.8008 7.49074C19.8008 11.4684 23.0281 14.6929 27.0091 14.6929Z" fill="#00BFF9"/>
<path d="M27.1536 14.4043C31.1347 14.4043 34.3619 11.1798 34.3619 7.20217C34.3619 3.22452 31.1347 0 27.1536 0C23.1726 0 19.9453 3.22452 19.9453 7.20217C19.9453 11.1798 23.1726 14.4043 27.1536 14.4043Z" fill="#00C0F9"/>
<path d="M27.6224 15.2344C31.6034 15.2344 34.8307 12.0099 34.8307 8.03225C34.8307 4.0546 31.6034 0.830078 27.6224 0.830078C23.6413 0.830078 20.4141 4.0546 20.4141 8.03225C20.4141 12.0099 23.6413 15.2344 27.6224 15.2344Z" fill="#00C1F9"/>
<path d="M28.0931 16.0469C32.0741 16.0469 35.3014 12.8224 35.3014 8.84475C35.3014 4.8671 32.0741 1.64258 28.0931 1.64258C24.112 1.64258 20.8848 4.8671 20.8848 8.84475C20.8848 12.8224 24.112 16.0469 28.0931 16.0469Z" fill="#00C2F9"/>
<path d="M28.5443 16.8775C32.5253 16.8775 35.7526 13.653 35.7526 9.67531C35.7526 5.69766 32.5253 2.47314 28.5443 2.47314C24.5632 2.47314 21.3359 5.69766 21.3359 9.67531C21.3359 13.653 24.5632 16.8775 28.5443 16.8775Z" fill="#00C3F8"/>
<path d="M29.015 17.7076C32.996 17.7076 36.2233 14.483 36.2233 10.5054C36.2233 6.52774 32.996 3.30322 29.015 3.30322C25.0339 3.30322 21.8066 6.52774 21.8066 10.5054C21.8066 14.483 25.0339 17.7076 29.015 17.7076Z" fill="#00C4F8"/>
<path d="M29.4837 18.5201C33.4647 18.5201 36.692 15.2955 36.692 11.3179C36.692 7.34024 33.4647 4.11572 29.4837 4.11572C25.5027 4.11572 22.2754 7.34024 22.2754 11.3179C22.2754 15.2955 25.5027 18.5201 29.4837 18.5201Z" fill="#00C5F8"/>
<path d="M29.9349 19.3501C33.9159 19.3501 37.1432 16.1256 37.1432 12.148C37.1432 8.17032 33.9159 4.9458 29.9349 4.9458C25.9538 4.9458 22.7266 8.17032 22.7266 12.148C22.7266 16.1256 25.9538 19.3501 29.9349 19.3501Z" fill="#00C6F8"/>
<path d="M30.4056 20.1807C34.3866 20.1807 37.6139 16.9562 37.6139 12.9785C37.6139 9.00089 34.3866 5.77637 30.4056 5.77637C26.4245 5.77637 23.1973 9.00089 23.1973 12.9785C23.1973 16.9562 26.4245 20.1807 30.4056 20.1807Z" fill="#00C7F7"/>
<path d="M30.8743 20.9927C34.8554 20.9927 38.0827 17.7682 38.0827 13.7905C38.0827 9.8129 34.8554 6.58838 30.8743 6.58838C26.8933 6.58838 23.666 9.8129 23.666 13.7905C23.666 17.7682 26.8933 20.9927 30.8743 20.9927Z" fill="#00C8F7"/>
<path d="M31.3255 21.8233C35.3066 21.8233 38.5338 18.5988 38.5338 14.6211C38.5338 10.6435 35.3066 7.41895 31.3255 7.41895C27.3445 7.41895 24.1172 10.6435 24.1172 14.6211C24.1172 18.5988 27.3445 21.8233 31.3255 21.8233Z" fill="#00C9F7"/>
<path d="M31.7962 22.6534C35.7773 22.6534 39.0045 19.4288 39.0045 15.4512C39.0045 11.4735 35.7773 8.24902 31.7962 8.24902C27.8152 8.24902 24.5879 11.4735 24.5879 15.4512C24.5879 19.4288 27.8152 22.6534 31.7962 22.6534Z" fill="#00CAF7"/>
<path d="M32.2669 23.4659C36.248 23.4659 39.4752 20.2413 39.4752 16.2637C39.4752 12.286 36.248 9.06152 32.2669 9.06152C28.2859 9.06152 25.0586 12.286 25.0586 16.2637C25.0586 20.2413 28.2859 23.4659 32.2669 23.4659Z" fill="#00CBF6"/>
<path d="M32.7181 24.2959C36.6991 24.2959 39.9264 21.0714 39.9264 17.0938C39.9264 13.1161 36.6991 9.8916 32.7181 9.8916C28.737 9.8916 25.5098 13.1161 25.5098 17.0938C25.5098 21.0714 28.737 24.2959 32.7181 24.2959Z" fill="#00CCF6"/>
<path d="M33.1868 25.1265C37.1679 25.1265 40.3952 21.902 40.3952 17.9243C40.3952 13.9467 37.1679 10.7222 33.1868 10.7222C29.2058 10.7222 25.9785 13.9467 25.9785 17.9243C25.9785 21.902 29.2058 25.1265 33.1868 25.1265Z" fill="#00CDF6"/>
<path d="M33.6575 25.9385C37.6386 25.9385 40.8659 22.714 40.8659 18.7363C40.8659 14.7587 37.6386 11.5342 33.6575 11.5342C29.6765 11.5342 26.4492 14.7587 26.4492 18.7363C26.4492 22.714 29.6765 25.9385 33.6575 25.9385Z" fill="#00CEF6"/>
<path d="M34.1263 26.7691C38.1073 26.7691 41.3346 23.5446 41.3346 19.5669C41.3346 15.5893 38.1073 12.3647 34.1263 12.3647C30.1452 12.3647 26.918 15.5893 26.918 19.5669C26.918 23.5446 30.1452 26.7691 34.1263 26.7691Z" fill="#00CFF6"/>
<path d="M34.5775 27.5992C38.5585 27.5992 41.7858 24.3746 41.7858 20.397C41.7858 16.4193 38.5585 13.1948 34.5775 13.1948C30.5964 13.1948 27.3691 16.4193 27.3691 20.397C27.3691 24.3746 30.5964 27.5992 34.5775 27.5992Z" fill="#00D0F5"/>
<path d="M35.0482 28.4117C39.0292 28.4117 42.2565 25.1871 42.2565 21.2095C42.2565 17.2318 39.0292 14.0073 35.0482 14.0073C31.0671 14.0073 27.8398 17.2318 27.8398 21.2095C27.8398 25.1871 31.0671 28.4117 35.0482 28.4117Z" fill="#00D1F5"/>
<path d="M35.5189 29.2417C39.4999 29.2417 42.7272 26.0172 42.7272 22.0396C42.7272 18.0619 39.4999 14.8374 35.5189 14.8374C31.5378 14.8374 28.3105 18.0619 28.3105 22.0396C28.3105 26.0172 31.5378 29.2417 35.5189 29.2417Z" fill="#00D2F5"/>
<path d="M35.97 30.0723C39.9511 30.0723 43.1784 26.8478 43.1784 22.8701C43.1784 18.8925 39.9511 15.668 35.97 15.668C31.989 15.668 28.7617 18.8925 28.7617 22.8701C28.7617 26.8478 31.989 30.0723 35.97 30.0723Z" fill="#00D3F5"/>
<path d="M36.4388 30.8843C40.4198 30.8843 43.6471 27.6598 43.6471 23.6821C43.6471 19.7045 40.4198 16.48 36.4388 16.48C32.4577 16.48 29.2305 19.7045 29.2305 23.6821C29.2305 27.6598 32.4577 30.8843 36.4388 30.8843Z" fill="#00D4F4"/>
<path d="M36.9095 31.7149C40.8905 31.7149 44.1178 28.4904 44.1178 24.5127C44.1178 20.5351 40.8905 17.3105 36.9095 17.3105C32.9284 17.3105 29.7012 20.5351 29.7012 24.5127C29.7012 28.4904 32.9284 31.7149 36.9095 31.7149Z" fill="#00D5F4"/>
<path d="M37.3607 32.5274C41.3417 32.5274 44.569 29.3029 44.569 25.3252C44.569 21.3476 41.3417 18.123 37.3607 18.123C33.3796 18.123 30.1523 21.3476 30.1523 25.3252C30.1523 29.3029 33.3796 32.5274 37.3607 32.5274Z" fill="#01D5F4"/>
<path d="M37.8294 33.3575C41.8105 33.3575 45.0377 30.1329 45.0377 26.1553C45.0377 22.1776 41.8105 18.9531 37.8294 18.9531C33.8484 18.9531 30.6211 22.1776 30.6211 26.1553C30.6211 30.1329 33.8484 33.3575 37.8294 33.3575Z" fill="#01D6F4"/>
<path d="M38.3001 34.1875C42.2812 34.1875 45.5084 30.963 45.5084 26.9854C45.5084 23.0077 42.2812 19.7832 38.3001 19.7832C34.3191 19.7832 31.0918 23.0077 31.0918 26.9854C31.0918 30.963 34.3191 34.1875 38.3001 34.1875Z" fill="#01D7F3"/>
<path d="M38.7513 35C42.7323 35 45.9596 31.7755 45.9596 27.7979C45.9596 23.8202 42.7323 20.5957 38.7513 20.5957C34.7702 20.5957 31.543 23.8202 31.543 27.7979C31.543 31.7755 34.7702 35 38.7513 35Z" fill="#01D8F3"/>
<path d="M39.222 35.8301C43.2031 35.8301 46.4303 32.6056 46.4303 28.628C46.4303 24.6503 43.2031 21.4258 39.222 21.4258C35.241 21.4258 32.0137 24.6503 32.0137 28.628C32.0137 32.6056 35.241 35.8301 39.222 35.8301Z" fill="#01D9F3"/>
<path d="M39.6907 36.6607C43.6718 36.6607 46.8991 33.4362 46.8991 29.4585C46.8991 25.4809 43.6718 22.2563 39.6907 22.2563C35.7097 22.2563 32.4824 25.4809 32.4824 29.4585C32.4824 33.4362 35.7097 36.6607 39.6907 36.6607Z" fill="#01DAF3"/>
<path d="M40.1419 37.4727C44.123 37.4727 47.3502 34.2482 47.3502 30.2705C47.3502 26.2929 44.123 23.0684 40.1419 23.0684C36.1609 23.0684 32.9336 26.2929 32.9336 30.2705C32.9336 34.2482 36.1609 37.4727 40.1419 37.4727Z" fill="#01DBF2"/>
<path d="M40.6126 38.3033C44.5937 38.3033 47.821 35.0787 47.821 31.1011C47.821 27.1234 44.5937 23.8989 40.6126 23.8989C36.6316 23.8989 33.4043 27.1234 33.4043 31.1011C33.4043 35.0787 36.6316 38.3033 40.6126 38.3033Z" fill="#01DCF2"/>
<path d="M41.0814 39.1333C45.0624 39.1333 48.2897 35.9088 48.2897 31.9312C48.2897 27.9535 45.0624 24.729 41.0814 24.729C37.1003 24.729 33.873 27.9535 33.873 31.9312C33.873 35.9088 37.1003 39.1333 41.0814 39.1333Z" fill="#01DDF2"/>
<path d="M41.5345 39.9458C45.5155 39.9458 48.7428 36.7213 48.7428 32.7437C48.7428 28.766 45.5155 25.5415 41.5345 25.5415C37.5534 25.5415 34.3262 28.766 34.3262 32.7437C34.3262 36.7213 37.5534 39.9458 41.5345 39.9458Z" fill="#01DEF2"/>
<path d="M42.0032 40.7759C45.9843 40.7759 49.2116 37.5514 49.2116 33.5737C49.2116 29.5961 45.9843 26.3716 42.0032 26.3716C38.0222 26.3716 34.7949 29.5961 34.7949 33.5737C34.7949 37.5514 38.0222 40.7759 42.0032 40.7759Z" fill="#01DFF2"/>
<path d="M42.4739 41.6065C46.455 41.6065 49.6822 38.382 49.6822 34.4043C49.6822 30.4267 46.455 27.2021 42.4739 27.2021C38.4929 27.2021 35.2656 30.4267 35.2656 34.4043C35.2656 38.382 38.4929 41.6065 42.4739 41.6065Z" fill="#01E0F1"/>
<path d="M42.9251 42.419C46.9062 42.419 50.1334 39.1945 50.1334 35.2168C50.1334 31.2392 46.9062 28.0146 42.9251 28.0146C38.9441 28.0146 35.7168 31.2392 35.7168 35.2168C35.7168 39.1945 38.9441 42.419 42.9251 42.419Z" fill="#01E1F1"/>
<path d="M43.3939 43.2491C47.3749 43.2491 50.6022 40.0245 50.6022 36.0469C50.6022 32.0692 47.3749 28.8447 43.3939 28.8447C39.4128 28.8447 36.1855 32.0692 36.1855 36.0469C36.1855 40.0245 39.4128 43.2491 43.3939 43.2491Z" fill="#01E2F1"/>
<path d="M43.8646 44.0796C47.8456 44.0796 51.0729 40.8551 51.0729 36.8775C51.0729 32.8998 47.8456 29.6753 43.8646 29.6753C39.8835 29.6753 36.6562 32.8998 36.6562 36.8775C36.6562 40.8551 39.8835 44.0796 43.8646 44.0796Z" fill="#01E3F1"/>
<path d="M44.3157 44.8916C48.2968 44.8916 51.5241 41.6671 51.5241 37.6895C51.5241 33.7118 48.2968 30.4873 44.3157 30.4873C40.3347 30.4873 37.1074 33.7118 37.1074 37.6895C37.1074 41.6671 40.3347 44.8916 44.3157 44.8916Z" fill="#01E4F0"/>
<path d="M44.7845 45.7222C48.7655 45.7222 51.9928 42.4977 51.9928 38.52C51.9928 34.5424 48.7655 31.3179 44.7845 31.3179C40.8034 31.3179 37.5762 34.5424 37.5762 38.52C37.5762 42.4977 40.8034 45.7222 44.7845 45.7222Z" fill="#01E5F0"/>
<path d="M45.2552 46.5523C49.2362 46.5523 52.4635 43.3278 52.4635 39.3501C52.4635 35.3725 49.2362 32.1479 45.2552 32.1479C41.2741 32.1479 38.0469 35.3725 38.0469 39.3501C38.0469 43.3278 41.2741 46.5523 45.2552 46.5523Z" fill="#01E6F0"/>
<path d="M45.7064 47.3648C49.6874 47.3648 52.9147 44.1403 52.9147 40.1626C52.9147 36.185 49.6874 32.9604 45.7064 32.9604C41.7253 32.9604 38.498 36.185 38.498 40.1626C38.498 44.1403 41.7253 47.3648 45.7064 47.3648Z" fill="#01E7F0"/>
<path d="M46.1771 48.1949C50.1581 48.1949 53.3854 44.9703 53.3854 40.9927C53.3854 37.015 50.1581 33.7905 46.1771 33.7905C42.196 33.7905 38.9688 37.015 38.9688 40.9927C38.9688 44.9703 42.196 48.1949 46.1771 48.1949Z" fill="#01E8EF"/>
<path d="M46.6458 49.0074C50.6269 49.0074 53.8541 45.7828 53.8541 41.8052C53.8541 37.8275 50.6269 34.603 46.6458 34.603C42.6648 34.603 39.4375 37.8275 39.4375 41.8052C39.4375 45.7828 42.6648 49.0074 46.6458 49.0074Z" fill="#01E9EF"/>
<path d="M47.1165 49.8374C51.0976 49.8374 54.3248 46.6129 54.3248 42.6353C54.3248 38.6576 51.0976 35.4331 47.1165 35.4331C43.1355 35.4331 39.9082 38.6576 39.9082 42.6353C39.9082 46.6129 43.1355 49.8374 47.1165 49.8374Z" fill="#01EAEF"/>
</svg>
