<svg width="433" height="126" viewBox="0 0 433 126" fill="none" xmlns="http://www.w3.org/2000/svg">
<path d="M211.355 22.8804H228.11L257.432 102.938H238.446L232.208 85.0161H207.166L201.065 102.938H182.078L211.355 22.8804ZM229.112 72.2797L219.732 43.9865L210.125 72.2797H229.112Z" fill="white"/>
<path d="M267.541 22.8804H285.617V102.938H267.541V22.8804Z" fill="white"/>
<path d="M327.139 104.075C322.541 104.166 317.988 103.302 313.753 101.664C309.974 100.163 306.559 97.9345 303.691 95.0688C300.959 92.3395 298.819 89.0189 297.408 85.4254C295.996 81.7864 295.268 77.92 295.268 73.9626C295.222 69.8233 295.951 65.7294 297.408 61.8175C298.774 58.0875 300.913 54.7215 303.645 51.8558C306.468 48.9446 309.883 46.6247 313.662 45.0781C317.942 43.3496 322.541 42.5308 327.185 42.5763C331.783 42.4854 336.382 43.3496 340.662 45.0781C344.396 46.6247 347.81 48.8991 350.633 51.8103C353.32 54.6305 355.414 57.9056 356.78 61.5446C358.191 65.2745 358.874 69.1864 358.874 73.1438C358.874 74.1901 358.829 75.1908 358.783 76.237C358.738 77.1467 358.601 78.011 358.419 78.8753H314.527C314.846 82.8782 316.303 85.8803 318.898 87.9727C321.402 90.0197 324.544 91.1114 327.777 91.0659C330.463 91.0659 333.058 90.3836 335.426 89.1554C337.885 87.8818 339.524 86.1532 340.343 83.9698L357.873 83.9244C356.325 91.4753 349.768 96.7063 344.851 99.6175C339.843 102.62 333.969 104.075 327.139 104.075ZM339.66 67.7763C339.296 64.0009 337.93 61.0442 335.608 58.8608C333.24 56.6774 330.099 55.4948 326.912 55.5857C323.36 55.5857 320.446 56.6774 318.17 58.9063C315.893 61.1352 314.527 64.0919 314.163 67.7763H339.66V67.7763Z" fill="white"/>
<path d="M400.947 104.075C396.303 104.166 391.704 103.302 387.424 101.574C383.645 100.027 380.23 97.7526 377.407 94.8414C374.676 92.0212 372.581 88.7006 371.261 85.0161C368.483 77.4652 368.483 69.1865 371.261 61.6811C372.627 58.0421 374.721 54.676 377.407 51.8558C380.23 48.9446 383.645 46.6248 387.424 45.0782C391.704 43.3042 396.303 42.4399 400.947 42.5309C405.546 42.4399 410.144 43.3042 414.424 45.0782C418.158 46.6703 421.527 48.9446 424.395 51.8558C427.127 54.676 429.222 57.9966 430.633 61.6811C432.09 65.411 432.819 69.3685 432.773 73.3713C432.773 77.3742 432.09 81.3316 430.679 85.0616C429.313 88.7006 427.218 92.0666 424.532 94.8869C421.709 97.7981 418.294 100.072 414.515 101.619C410.19 103.302 405.591 104.166 400.947 104.075ZM387.697 73.4168C387.697 78.102 388.927 81.832 391.431 84.6522C393.252 86.6536 395.62 88.0638 398.261 88.6096C400.901 89.1555 403.679 88.8826 406.138 87.7454C407.731 86.9721 409.143 85.9259 410.281 84.6067C411.51 83.1511 412.466 81.5136 413.058 79.6941C413.741 77.6927 414.105 75.5548 414.105 73.4168C414.105 68.7771 412.876 65.0017 410.372 62.1815C409.234 60.8168 407.777 59.7251 406.138 58.9973C404.498 58.2696 402.723 57.9057 400.947 57.9511C399.171 57.9511 397.396 58.315 395.756 59.0428C394.117 59.7706 392.66 60.8623 391.522 62.2269C390.293 63.6825 389.337 65.3201 388.745 67.1396C388.062 69.141 387.697 71.2789 387.697 73.4168Z" fill="white"/>
<path d="M18.1669 125.591C28.2002 125.591 36.3338 117.465 36.3338 107.441C36.3338 97.4178 28.2002 89.292 18.1669 89.292C8.13359 89.292 0 97.4178 0 107.441C0 117.465 8.13359 125.591 18.1669 125.591Z" fill="#6950FF"/>
<path d="M18.1669 125.591C28.2002 125.591 36.3338 117.465 36.3338 107.441C36.3338 97.4178 28.2002 89.292 18.1669 89.292C8.13359 89.292 0 97.4178 0 107.441C0 117.465 8.13359 125.591 18.1669 125.591Z" fill="#6850FF"/>
<path d="M18.1669 125.591C28.2002 125.591 36.3338 117.465 36.3338 107.441C36.3338 97.4178 28.2002 89.292 18.1669 89.292C8.13359 89.292 0 97.4178 0 107.441C0 117.465 8.13359 125.591 18.1669 125.591Z" fill="#6750FF"/>
<path d="M18.1669 125.591C28.2002 125.591 36.3338 117.465 36.3338 107.441C36.3338 97.4178 28.2002 89.292 18.1669 89.292C8.13359 89.292 0 97.4178 0 107.441C0 117.465 8.13359 125.591 18.1669 125.591Z" fill="#6650FF"/>
<path d="M18.1669 125.591C28.2002 125.591 36.3338 117.465 36.3338 107.441C36.3338 97.4178 28.2002 89.292 18.1669 89.292C8.13359 89.292 0 97.4178 0 107.441C0 117.465 8.13359 125.591 18.1669 125.591Z" fill="#6550FF"/>
<path d="M18.1669 125.591C28.2002 125.591 36.3338 117.465 36.3338 107.441C36.3338 97.4178 28.2002 89.292 18.1669 89.292C8.13359 89.292 0 97.4178 0 107.441C0 117.465 8.13359 125.591 18.1669 125.591Z" fill="#6450FF"/>
<path d="M18.1669 125.591C28.2002 125.591 36.3338 117.465 36.3338 107.441C36.3338 97.4178 28.2002 89.292 18.1669 89.292C8.13359 89.292 0 97.4178 0 107.441C0 117.465 8.13359 125.591 18.1669 125.591Z" fill="#6350FF"/>
<path d="M18.1669 125.591C28.2002 125.591 36.3338 117.465 36.3338 107.441C36.3338 97.4178 28.2002 89.292 18.1669 89.292C8.13359 89.292 0 97.4178 0 107.441C0 117.465 8.13359 125.591 18.1669 125.591Z" fill="#6250FF"/>
<path d="M18.1669 125.591C28.2002 125.591 36.3338 117.465 36.3338 107.441C36.3338 97.4178 28.2002 89.292 18.1669 89.292C8.13359 89.292 0 97.4178 0 107.441C0 117.465 8.13359 125.591 18.1669 125.591Z" fill="#6150FE"/>
<path d="M18.1669 125.591C28.2002 125.591 36.3338 117.465 36.3338 107.441C36.3338 97.4178 28.2002 89.292 18.1669 89.292C8.13359 89.292 0 97.4178 0 107.441C0 117.465 8.13359 125.591 18.1669 125.591Z" fill="#604FFE"/>
<path d="M18.1669 125.591C28.2002 125.591 36.3338 117.465 36.3338 107.441C36.3338 97.4178 28.2002 89.292 18.1669 89.292C8.13359 89.292 0 97.4178 0 107.441C0 117.465 8.13359 125.591 18.1669 125.591Z" fill="#5F4FFE"/>
<path d="M18.1669 125.591C28.2002 125.591 36.3338 117.465 36.3338 107.441C36.3338 97.4178 28.2002 89.292 18.1669 89.292C8.13359 89.292 0 97.4178 0 107.441C0 117.465 8.13359 125.591 18.1669 125.591Z" fill="#5E4FFE"/>
<path d="M18.1669 125.591C28.2002 125.591 36.3338 117.465 36.3338 107.441C36.3338 97.4178 28.2002 89.292 18.1669 89.292C8.13359 89.292 0 97.4178 0 107.441C0 117.465 8.13359 125.591 18.1669 125.591Z" fill="#5D4FFE"/>
<path d="M18.1669 125.591C28.2002 125.591 36.3338 117.465 36.3338 107.441C36.3338 97.4178 28.2002 89.292 18.1669 89.292C8.13359 89.292 0 97.4178 0 107.441C0 117.465 8.13359 125.591 18.1669 125.591Z" fill="#5C4FFE"/>
<path d="M18.1669 125.591C28.2002 125.591 36.3338 117.465 36.3338 107.441C36.3338 97.4178 28.2002 89.292 18.1669 89.292C8.13359 89.292 0 97.4178 0 107.441C0 117.465 8.13359 125.591 18.1669 125.591Z" fill="#5B4FFE"/>
<path d="M18.1669 125.591C28.2002 125.591 36.3338 117.465 36.3338 107.441C36.3338 97.4178 28.2002 89.292 18.1669 89.292C8.13359 89.292 0 97.4178 0 107.441C0 117.465 8.13359 125.591 18.1669 125.591Z" fill="#5A4FFE"/>
<path d="M18.1669 125.591C28.2002 125.591 36.3338 117.465 36.3338 107.441C36.3338 97.4178 28.2002 89.292 18.1669 89.292C8.13359 89.292 0 97.4178 0 107.441C0 117.465 8.13359 125.591 18.1669 125.591Z" fill="#594FFE"/>
<path d="M18.1669 125.591C28.2002 125.591 36.3338 117.465 36.3338 107.441C36.3338 97.4178 28.2002 89.292 18.1669 89.292C8.13359 89.292 0 97.4178 0 107.441C0 117.465 8.13359 125.591 18.1669 125.591Z" fill="#584FFE"/>
<path d="M18.1669 125.591C28.2002 125.591 36.3338 117.465 36.3338 107.441C36.3338 97.4178 28.2002 89.292 18.1669 89.292C8.13359 89.292 0 97.4178 0 107.441C0 117.465 8.13359 125.591 18.1669 125.591Z" fill="#574FFE"/>
<path d="M18.1669 125.591C28.2002 125.591 36.3338 117.465 36.3338 107.441C36.3338 97.4178 28.2002 89.292 18.1669 89.292C8.13359 89.292 0 97.4178 0 107.441C0 117.465 8.13359 125.591 18.1669 125.591Z" fill="#564FFE"/>
<path d="M18.1669 125.591C28.2002 125.591 36.3338 117.465 36.3338 107.441C36.3338 97.4178 28.2002 89.292 18.1669 89.292C8.13359 89.292 0 97.4178 0 107.441C0 117.465 8.13359 125.591 18.1669 125.591Z" fill="#554FFE"/>
<path d="M18.1669 125.591C28.2002 125.591 36.3338 117.465 36.3338 107.441C36.3338 97.4178 28.2002 89.292 18.1669 89.292C8.13359 89.292 0 97.4178 0 107.441C0 117.465 8.13359 125.591 18.1669 125.591Z" fill="#544FFE"/>
<path d="M18.1669 125.591C28.2002 125.591 36.3338 117.465 36.3338 107.441C36.3338 97.4178 28.2002 89.292 18.1669 89.292C8.13359 89.292 0 97.4178 0 107.441C0 117.465 8.13359 125.591 18.1669 125.591Z" fill="#534FFD"/>
<path d="M18.1669 125.591C28.2002 125.591 36.3338 117.465 36.3338 107.441C36.3338 97.4178 28.2002 89.292 18.1669 89.292C8.13359 89.292 0 97.4178 0 107.441C0 117.465 8.13359 125.591 18.1669 125.591Z" fill="#524FFD"/>
<path d="M18.1669 125.591C28.2002 125.591 36.3338 117.465 36.3338 107.441C36.3338 97.4178 28.2002 89.292 18.1669 89.292C8.13359 89.292 0 97.4178 0 107.441C0 117.465 8.13359 125.591 18.1669 125.591Z" fill="#514FFD"/>
<path d="M18.1669 125.591C28.2002 125.591 36.3338 117.465 36.3338 107.441C36.3338 97.4178 28.2002 89.292 18.1669 89.292C8.13359 89.292 0 97.4178 0 107.441C0 117.465 8.13359 125.591 18.1669 125.591Z" fill="#504FFD"/>
<path d="M18.1669 125.591C28.2002 125.591 36.3338 117.465 36.3338 107.441C36.3338 97.4178 28.2002 89.292 18.1669 89.292C8.13359 89.292 0 97.4178 0 107.441C0 117.465 8.13359 125.591 18.1669 125.591Z" fill="#4F4EFD"/>
<path d="M18.1669 125.591C28.2002 125.591 36.3338 117.465 36.3338 107.441C36.3338 97.4178 28.2002 89.292 18.1669 89.292C8.13359 89.292 0 97.4178 0 107.441C0 117.465 8.13359 125.591 18.1669 125.591Z" fill="#4E4EFD"/>
<path d="M18.1669 125.591C28.2002 125.591 36.3338 117.465 36.3338 107.441C36.3338 97.4178 28.2002 89.292 18.1669 89.292C8.13359 89.292 0 97.4178 0 107.441C0 117.465 8.13359 125.591 18.1669 125.591Z" fill="#4D4EFD"/>
<path d="M18.1669 125.591C28.2002 125.591 36.3338 117.465 36.3338 107.441C36.3338 97.4178 28.2002 89.292 18.1669 89.292C8.13359 89.292 0 97.4178 0 107.441C0 117.465 8.13359 125.591 18.1669 125.591Z" fill="#4C4EFD"/>
<path d="M18.1669 125.591C28.2002 125.591 36.3338 117.465 36.3338 107.441C36.3338 97.4178 28.2002 89.292 18.1669 89.292C8.13359 89.292 0 97.4178 0 107.441C0 117.465 8.13359 125.591 18.1669 125.591Z" fill="#4B4EFD"/>
<path d="M18.1669 125.591C28.2002 125.591 36.3338 117.465 36.3338 107.441C36.3338 97.4178 28.2002 89.292 18.1669 89.292C8.13359 89.292 0 97.4178 0 107.441C0 117.465 8.13359 125.591 18.1669 125.591Z" fill="#4A4EFD"/>
<path d="M18.1669 125.591C28.2002 125.591 36.3338 117.465 36.3338 107.441C36.3338 97.4178 28.2002 89.292 18.1669 89.292C8.13359 89.292 0 97.4178 0 107.441C0 117.465 8.13359 125.591 18.1669 125.591Z" fill="#494EFD"/>
<path d="M18.1669 125.591C28.2002 125.591 36.3338 117.465 36.3338 107.441C36.3338 97.4178 28.2002 89.292 18.1669 89.292C8.13359 89.292 0 97.4178 0 107.441C0 117.465 8.13359 125.591 18.1669 125.591Z" fill="#484EFD"/>
<path d="M18.1669 125.591C28.2002 125.591 36.3338 117.465 36.3338 107.441C36.3338 97.4178 28.2002 89.292 18.1669 89.292C8.13359 89.292 0 97.4178 0 107.441C0 117.465 8.13359 125.591 18.1669 125.591Z" fill="#474EFD"/>
<path d="M18.1669 125.591C28.2002 125.591 36.3338 117.465 36.3338 107.441C36.3338 97.4178 28.2002 89.292 18.1669 89.292C8.13359 89.292 0 97.4178 0 107.441C0 117.465 8.13359 125.591 18.1669 125.591Z" fill="#464EFD"/>
<path d="M18.1669 125.591C28.2002 125.591 36.3338 117.465 36.3338 107.441C36.3338 97.4178 28.2002 89.292 18.1669 89.292C8.13359 89.292 0 97.4178 0 107.441C0 117.465 8.13359 125.591 18.1669 125.591Z" fill="#454EFC"/>
<path d="M18.1669 125.591C28.2002 125.591 36.3338 117.465 36.3338 107.441C36.3338 97.4178 28.2002 89.292 18.1669 89.292C8.13359 89.292 0 97.4178 0 107.441C0 117.465 8.13359 125.591 18.1669 125.591Z" fill="#444EFC"/>
<path d="M18.1669 125.591C28.2002 125.591 36.3338 117.465 36.3338 107.441C36.3338 97.4178 28.2002 89.292 18.1669 89.292C8.13359 89.292 0 97.4178 0 107.441C0 117.465 8.13359 125.591 18.1669 125.591Z" fill="#434EFC"/>
<path d="M18.1669 125.591C28.2002 125.591 36.3338 117.465 36.3338 107.441C36.3338 97.4178 28.2002 89.292 18.1669 89.292C8.13359 89.292 0 97.4178 0 107.441C0 117.465 8.13359 125.591 18.1669 125.591Z" fill="#424EFC"/>
<path d="M18.1669 125.591C28.2002 125.591 36.3338 117.465 36.3338 107.441C36.3338 97.4178 28.2002 89.292 18.1669 89.292C8.13359 89.292 0 97.4178 0 107.441C0 117.465 8.13359 125.591 18.1669 125.591Z" fill="#414EFC"/>
<path d="M18.1669 125.591C28.2002 125.591 36.3338 117.465 36.3338 107.441C36.3338 97.4178 28.2002 89.292 18.1669 89.292C8.13359 89.292 0 97.4178 0 107.441C0 117.465 8.13359 125.591 18.1669 125.591Z" fill="#404EFC"/>
<path d="M18.1669 125.591C28.2002 125.591 36.3338 117.465 36.3338 107.441C36.3338 97.4178 28.2002 89.292 18.1669 89.292C8.13359 89.292 0 97.4178 0 107.441C0 117.465 8.13359 125.591 18.1669 125.591Z" fill="#3F4EFC"/>
<path d="M18.1669 125.591C28.2002 125.591 36.3338 117.465 36.3338 107.441C36.3338 97.4178 28.2002 89.292 18.1669 89.292C8.13359 89.292 0 97.4178 0 107.441C0 117.465 8.13359 125.591 18.1669 125.591Z" fill="#3F4DFC"/>
<path d="M18.1669 125.591C28.2002 125.591 36.3338 117.465 36.3338 107.441C36.3338 97.4178 28.2002 89.292 18.1669 89.292C8.13359 89.292 0 97.4178 0 107.441C0 117.465 8.13359 125.591 18.1669 125.591Z" fill="#3E4DFC"/>
<path d="M18.1669 125.591C28.2002 125.591 36.3338 117.465 36.3338 107.441C36.3338 97.4178 28.2002 89.292 18.1669 89.292C8.13359 89.292 0 97.4178 0 107.441C0 117.465 8.13359 125.591 18.1669 125.591Z" fill="#3D4DFC"/>
<path d="M18.1669 125.591C28.2002 125.591 36.3338 117.465 36.3338 107.441C36.3338 97.4178 28.2002 89.292 18.1669 89.292C8.13359 89.292 0 97.4178 0 107.441C0 117.465 8.13359 125.591 18.1669 125.591Z" fill="#3C4DFC"/>
<path d="M18.1669 125.591C28.2002 125.591 36.3338 117.465 36.3338 107.441C36.3338 97.4178 28.2002 89.292 18.1669 89.292C8.13359 89.292 0 97.4178 0 107.441C0 117.465 8.13359 125.591 18.1669 125.591Z" fill="#3B4DFC"/>
<path d="M18.1669 125.591C28.2002 125.591 36.3338 117.465 36.3338 107.441C36.3338 97.4178 28.2002 89.292 18.1669 89.292C8.13359 89.292 0 97.4178 0 107.441C0 117.465 8.13359 125.591 18.1669 125.591Z" fill="#3A4DFC"/>
<path d="M18.1669 125.591C28.2002 125.591 36.3338 117.465 36.3338 107.441C36.3338 97.4178 28.2002 89.292 18.1669 89.292C8.13359 89.292 0 97.4178 0 107.441C0 117.465 8.13359 125.591 18.1669 125.591Z" fill="#394DFC"/>
<path d="M18.1669 125.591C28.2002 125.591 36.3338 117.465 36.3338 107.441C36.3338 97.4178 28.2002 89.292 18.1669 89.292C8.13359 89.292 0 97.4178 0 107.441C0 117.465 8.13359 125.591 18.1669 125.591Z" fill="#384DFB"/>
<path d="M18.1669 125.591C28.2002 125.591 36.3338 117.465 36.3338 107.441C36.3338 97.4178 28.2002 89.292 18.1669 89.292C8.13359 89.292 0 97.4178 0 107.441C0 117.465 8.13359 125.591 18.1669 125.591Z" fill="#374DFB"/>
<path d="M18.1669 125.591C28.2002 125.591 36.3338 117.465 36.3338 107.441C36.3338 97.4178 28.2002 89.292 18.1669 89.292C8.13359 89.292 0 97.4178 0 107.441C0 117.465 8.13359 125.591 18.1669 125.591Z" fill="#364DFB"/>
<path d="M18.1669 125.591C28.2002 125.591 36.3338 117.465 36.3338 107.441C36.3338 97.4178 28.2002 89.292 18.1669 89.292C8.13359 89.292 0 97.4178 0 107.441C0 117.465 8.13359 125.591 18.1669 125.591Z" fill="#354DFB"/>
<path d="M18.1669 125.591C28.2002 125.591 36.3338 117.465 36.3338 107.441C36.3338 97.4178 28.2002 89.292 18.1669 89.292C8.13359 89.292 0 97.4178 0 107.441C0 117.465 8.13359 125.591 18.1669 125.591Z" fill="#344DFB"/>
<path d="M18.1669 125.591C28.2002 125.591 36.3338 117.465 36.3338 107.441C36.3338 97.4178 28.2002 89.292 18.1669 89.292C8.13359 89.292 0 97.4178 0 107.441C0 117.465 8.13359 125.591 18.1669 125.591Z" fill="#334DFB"/>
<path d="M18.1669 125.591C28.2002 125.591 36.3338 117.465 36.3338 107.441C36.3338 97.4178 28.2002 89.292 18.1669 89.292C8.13359 89.292 0 97.4178 0 107.441C0 117.465 8.13359 125.591 18.1669 125.591Z" fill="#324DFB"/>
<path d="M18.1669 125.591C28.2002 125.591 36.3338 117.465 36.3338 107.441C36.3338 97.4178 28.2002 89.292 18.1669 89.292C8.13359 89.292 0 97.4178 0 107.441C0 117.465 8.13359 125.591 18.1669 125.591Z" fill="#314DFB"/>
<path d="M18.1669 125.591C28.2002 125.591 36.3338 117.465 36.3338 107.441C36.3338 97.4178 28.2002 89.292 18.1669 89.292C8.13359 89.292 0 97.4178 0 107.441C0 117.465 8.13359 125.591 18.1669 125.591Z" fill="#304DFB"/>
<path d="M18.1669 125.591C28.2002 125.591 36.3338 117.465 36.3338 107.441C36.3338 97.4178 28.2002 89.292 18.1669 89.292C8.13359 89.292 0 97.4178 0 107.441C0 117.465 8.13359 125.591 18.1669 125.591Z" fill="#2F4DFB"/>
<path d="M18.1669 125.591C28.2002 125.591 36.3338 117.465 36.3338 107.441C36.3338 97.4178 28.2002 89.292 18.1669 89.292C8.13359 89.292 0 97.4178 0 107.441C0 117.465 8.13359 125.591 18.1669 125.591Z" fill="#2E4CFB"/>
<path d="M18.1669 125.591C28.2002 125.591 36.3338 117.465 36.3338 107.441C36.3338 97.4178 28.2002 89.292 18.1669 89.292C8.13359 89.292 0 97.4178 0 107.441C0 117.465 8.13359 125.591 18.1669 125.591Z" fill="#2D4CFB"/>
<path d="M18.1669 125.591C28.2002 125.591 36.3338 117.465 36.3338 107.441C36.3338 97.4178 28.2002 89.292 18.1669 89.292C8.13359 89.292 0 97.4178 0 107.441C0 117.465 8.13359 125.591 18.1669 125.591Z" fill="#2C4CFB"/>
<path d="M18.1669 125.591C28.2002 125.591 36.3338 117.465 36.3338 107.441C36.3338 97.4178 28.2002 89.292 18.1669 89.292C8.13359 89.292 0 97.4178 0 107.441C0 117.465 8.13359 125.591 18.1669 125.591Z" fill="#2B4CFB"/>
<path d="M18.1669 125.591C28.2002 125.591 36.3338 117.465 36.3338 107.441C36.3338 97.4178 28.2002 89.292 18.1669 89.292C8.13359 89.292 0 97.4178 0 107.441C0 117.465 8.13359 125.591 18.1669 125.591Z" fill="#2A4CFA"/>
<path d="M18.1669 125.591C28.2002 125.591 36.3338 117.465 36.3338 107.441C36.3338 97.4178 28.2002 89.292 18.1669 89.292C8.13359 89.292 0 97.4178 0 107.441C0 117.465 8.13359 125.591 18.1669 125.591Z" fill="#294CFA"/>
<path d="M18.1669 125.591C28.2002 125.591 36.3338 117.465 36.3338 107.441C36.3338 97.4178 28.2002 89.292 18.1669 89.292C8.13359 89.292 0 97.4178 0 107.441C0 117.465 8.13359 125.591 18.1669 125.591Z" fill="#284CFA"/>
<path d="M18.1669 125.591C28.2002 125.591 36.3338 117.465 36.3338 107.441C36.3338 97.4178 28.2002 89.292 18.1669 89.292C8.13359 89.292 0 97.4178 0 107.441C0 117.465 8.13359 125.591 18.1669 125.591Z" fill="#274CFA"/>
<path d="M18.1669 125.591C28.2002 125.591 36.3338 117.465 36.3338 107.441C36.3338 97.4178 28.2002 89.292 18.1669 89.292C8.13359 89.292 0 97.4178 0 107.441C0 117.465 8.13359 125.591 18.1669 125.591Z" fill="#264CFA"/>
<path d="M18.1669 125.591C28.2002 125.591 36.3338 117.465 36.3338 107.441C36.3338 97.4178 28.2002 89.292 18.1669 89.292C8.13359 89.292 0 97.4178 0 107.441C0 117.465 8.13359 125.591 18.1669 125.591Z" fill="#254CFA"/>
<path d="M18.1669 125.591C28.2002 125.591 36.3338 117.465 36.3338 107.441C36.3338 97.4178 28.2002 89.292 18.1669 89.292C8.13359 89.292 0 97.4178 0 107.441C0 117.465 8.13359 125.591 18.1669 125.591Z" fill="#244CFA"/>
<path d="M18.1669 125.591C28.2002 125.591 36.3338 117.465 36.3338 107.441C36.3338 97.4178 28.2002 89.292 18.1669 89.292C8.13359 89.292 0 97.4178 0 107.441C0 117.465 8.13359 125.591 18.1669 125.591Z" fill="#234CFA"/>
<path d="M18.1669 125.591C28.2002 125.591 36.3338 117.465 36.3338 107.441C36.3338 97.4178 28.2002 89.292 18.1669 89.292C8.13359 89.292 0 97.4178 0 107.441C0 117.465 8.13359 125.591 18.1669 125.591Z" fill="#224CFA"/>
<path d="M18.1669 125.591C28.2002 125.591 36.3338 117.465 36.3338 107.441C36.3338 97.4178 28.2002 89.292 18.1669 89.292C8.13359 89.292 0 97.4178 0 107.441C0 117.465 8.13359 125.591 18.1669 125.591Z" fill="#214CFA"/>
<path d="M18.1669 125.591C28.2002 125.591 36.3338 117.465 36.3338 107.441C36.3338 97.4178 28.2002 89.292 18.1669 89.292C8.13359 89.292 0 97.4178 0 107.441C0 117.465 8.13359 125.591 18.1669 125.591Z" fill="#204CFA"/>
<path d="M18.1669 125.591C28.2002 125.591 36.3338 117.465 36.3338 107.441C36.3338 97.4178 28.2002 89.292 18.1669 89.292C8.13359 89.292 0 97.4178 0 107.441C0 117.465 8.13359 125.591 18.1669 125.591Z" fill="#1F4CFA"/>
<path d="M18.1669 125.591C28.2002 125.591 36.3338 117.465 36.3338 107.441C36.3338 97.4178 28.2002 89.292 18.1669 89.292C8.13359 89.292 0 97.4178 0 107.441C0 117.465 8.13359 125.591 18.1669 125.591Z" fill="#1E4CFA"/>
<path d="M18.1669 125.591C28.2002 125.591 36.3338 117.465 36.3338 107.441C36.3338 97.4178 28.2002 89.292 18.1669 89.292C8.13359 89.292 0 97.4178 0 107.441C0 117.465 8.13359 125.591 18.1669 125.591Z" fill="#1D4BFA"/>
<path d="M18.1669 125.591C28.2002 125.591 36.3338 117.465 36.3338 107.441C36.3338 97.4178 28.2002 89.292 18.1669 89.292C8.13359 89.292 0 97.4178 0 107.441C0 117.465 8.13359 125.591 18.1669 125.591Z" fill="#1C4BF9"/>
<path d="M18.1669 125.591C28.2002 125.591 36.3338 117.465 36.3338 107.441C36.3338 97.4178 28.2002 89.292 18.1669 89.292C8.13359 89.292 0 97.4178 0 107.441C0 117.465 8.13359 125.591 18.1669 125.591Z" fill="#1B4BF9"/>
<path d="M18.1669 125.591C28.2002 125.591 36.3338 117.465 36.3338 107.441C36.3338 97.4178 28.2002 89.292 18.1669 89.292C8.13359 89.292 0 97.4178 0 107.441C0 117.465 8.13359 125.591 18.1669 125.591Z" fill="#1A4BF9"/>
<path d="M18.1669 125.591C28.2002 125.591 36.3338 117.465 36.3338 107.441C36.3338 97.4178 28.2002 89.292 18.1669 89.292C8.13359 89.292 0 97.4178 0 107.441C0 117.465 8.13359 125.591 18.1669 125.591Z" fill="#194BF9"/>
<path d="M18.1669 125.591C28.2002 125.591 36.3338 117.465 36.3338 107.441C36.3338 97.4178 28.2002 89.292 18.1669 89.292C8.13359 89.292 0 97.4178 0 107.441C0 117.465 8.13359 125.591 18.1669 125.591Z" fill="#184BF9"/>
<path d="M18.1669 125.591C28.2002 125.591 36.3338 117.465 36.3338 107.441C36.3338 97.4178 28.2002 89.292 18.1669 89.292C8.13359 89.292 0 97.4178 0 107.441C0 117.465 8.13359 125.591 18.1669 125.591Z" fill="#174BF9"/>
<path d="M18.1669 125.591C28.2002 125.591 36.3338 117.465 36.3338 107.441C36.3338 97.4178 28.2002 89.292 18.1669 89.292C8.13359 89.292 0 97.4178 0 107.441C0 117.465 8.13359 125.591 18.1669 125.591Z" fill="#164BF9"/>
<path d="M18.1669 125.591C28.2002 125.591 36.3338 117.465 36.3338 107.441C36.3338 97.4178 28.2002 89.292 18.1669 89.292C8.13359 89.292 0 97.4178 0 107.441C0 117.465 8.13359 125.591 18.1669 125.591Z" fill="#154BF9"/>
<path d="M18.622 124.772C28.6552 124.772 36.7888 116.646 36.7888 106.623C36.7888 96.5989 28.6552 88.4731 18.622 88.4731C8.58867 88.4731 0.455078 96.5989 0.455078 106.623C0.455078 116.646 8.58867 124.772 18.622 124.772Z" fill="#154CF9"/>
<path d="M19.077 123.999C29.1103 123.999 37.2439 115.873 37.2439 105.849C37.2439 95.8255 29.1103 87.6997 19.077 87.6997C9.04375 87.6997 0.910156 95.8255 0.910156 105.849C0.910156 115.873 9.04375 123.999 19.077 123.999Z" fill="#144DF9"/>
<path d="M19.5321 123.18C29.5654 123.18 37.699 115.054 37.699 105.03C37.699 95.0067 29.5654 86.8809 19.5321 86.8809C9.49882 86.8809 1.36523 95.0067 1.36523 105.03C1.36523 115.054 9.49882 123.18 19.5321 123.18Z" fill="#144EF9"/>
<path d="M19.9872 122.361C30.0205 122.361 38.1541 114.235 38.1541 104.211C38.1541 94.1878 30.0205 86.062 19.9872 86.062C9.9539 86.062 1.82031 94.1878 1.82031 104.211C1.82031 114.235 9.9539 122.361 19.9872 122.361Z" fill="#134FF9"/>
<path d="M20.4442 121.542C30.4775 121.542 38.6111 113.416 38.6111 103.393C38.6111 93.3689 30.4775 85.2432 20.4442 85.2432C10.4109 85.2432 2.27734 93.3689 2.27734 103.393C2.27734 113.416 10.4109 121.542 20.4442 121.542Z" fill="#1350FA"/>
<path d="M20.8993 120.724C30.9326 120.724 39.0662 112.598 39.0662 102.574C39.0662 92.5506 30.9326 84.4248 20.8993 84.4248C10.866 84.4248 2.73242 92.5506 2.73242 102.574C2.73242 112.598 10.866 120.724 20.8993 120.724Z" fill="#1351FA"/>
<path d="M21.3544 119.905C31.3877 119.905 39.5213 111.779 39.5213 101.755C39.5213 91.7318 31.3877 83.606 21.3544 83.606C11.3211 83.606 3.1875 91.7318 3.1875 101.755C3.1875 111.779 11.3211 119.905 21.3544 119.905Z" fill="#1252FA"/>
<path d="M21.8095 119.131C31.8427 119.131 39.9763 111.006 39.9763 100.982C39.9763 90.9583 31.8427 82.8325 21.8095 82.8325C11.7762 82.8325 3.64258 90.9583 3.64258 100.982C3.64258 111.006 11.7762 119.131 21.8095 119.131Z" fill="#1253FA"/>
<path d="M22.3095 118.313C32.3427 118.313 40.4763 110.187 40.4763 100.163C40.4763 90.1395 32.3427 82.0137 22.3095 82.0137C12.2762 82.0137 4.14258 90.1395 4.14258 100.163C4.14258 110.187 12.2762 118.313 22.3095 118.313Z" fill="#1254FA"/>
<path d="M22.7665 117.494C32.7998 117.494 40.9334 109.368 40.9334 99.3443C40.9334 89.3206 32.7998 81.1948 22.7665 81.1948C12.7332 81.1948 4.59961 89.3206 4.59961 99.3443C4.59961 109.368 12.7332 117.494 22.7665 117.494Z" fill="#1155FA"/>
<path d="M23.2216 116.675C33.2549 116.675 41.3884 108.549 41.3884 98.5254C41.3884 88.5017 33.2549 80.376 23.2216 80.376C13.1883 80.376 5.05469 88.5017 5.05469 98.5254C5.05469 108.549 13.1883 116.675 23.2216 116.675Z" fill="#1156FA"/>
<path d="M23.6766 115.856C33.7099 115.856 41.8435 107.73 41.8435 97.7066C41.8435 87.6829 33.7099 79.5571 23.6766 79.5571C13.6434 79.5571 5.50977 87.6829 5.50977 97.7066C5.50977 107.73 13.6434 115.856 23.6766 115.856Z" fill="#1057FA"/>
<path d="M24.1317 115.038C34.165 115.038 42.2986 106.912 42.2986 96.8882C42.2986 86.8646 34.165 78.7388 24.1317 78.7388C14.0984 78.7388 5.96484 86.8646 5.96484 96.8882C5.96484 106.912 14.0984 115.038 24.1317 115.038Z" fill="#1058FA"/>
<path d="M24.5868 114.264C34.6201 114.264 42.7537 106.138 42.7537 96.1148C42.7537 86.0911 34.6201 77.9653 24.5868 77.9653C14.5535 77.9653 6.41992 86.0911 6.41992 96.1148C6.41992 106.138 14.5535 114.264 24.5868 114.264Z" fill="#1059FB"/>
<path d="M25.0419 113.446C35.0752 113.446 43.2088 105.32 43.2088 95.2964C43.2088 85.2728 35.0752 77.147 25.0419 77.147C15.0086 77.147 6.875 85.2728 6.875 95.2964C6.875 105.32 15.0086 113.446 25.0419 113.446Z" fill="#0F5AFB"/>
<path d="M25.497 112.627C35.5302 112.627 43.6638 104.501 43.6638 94.4776C43.6638 84.4539 35.5302 76.3281 25.497 76.3281C15.4637 76.3281 7.33008 84.4539 7.33008 94.4776C7.33008 104.501 15.4637 112.627 25.497 112.627Z" fill="#0F5BFB"/>
<path d="M25.952 111.808C35.9853 111.808 44.1189 103.682 44.1189 93.6583C44.1189 83.6346 35.9853 75.5088 25.952 75.5088C15.9187 75.5088 7.78516 83.6346 7.78516 93.6583C7.78516 103.682 15.9187 111.808 25.952 111.808Z" fill="#0F5CFB"/>
<path d="M26.4091 110.989C36.4424 110.989 44.5759 102.863 44.5759 92.8394C44.5759 82.8157 36.4424 74.6899 26.4091 74.6899C16.3758 74.6899 8.24219 82.8157 8.24219 92.8394C8.24219 102.863 16.3758 110.989 26.4091 110.989Z" fill="#0E5DFB"/>
<path d="M26.8641 110.17C36.8974 110.17 45.031 102.044 45.031 92.0205C45.031 81.9969 36.8974 73.8711 26.8641 73.8711C16.8309 73.8711 8.69727 81.9969 8.69727 92.0205C8.69727 102.044 16.8309 110.17 26.8641 110.17Z" fill="#0E5EFB"/>
<path d="M27.3192 109.352C37.3525 109.352 45.4861 101.226 45.4861 91.2022C45.4861 81.1785 37.3525 73.0527 27.3192 73.0527C17.2859 73.0527 9.15234 81.1785 9.15234 91.2022C9.15234 101.226 17.2859 109.352 27.3192 109.352Z" fill="#0D5FFB"/>
<path d="M27.7743 108.578C37.8076 108.578 45.9412 100.452 45.9412 90.4287C45.9412 80.4051 37.8076 72.2793 27.7743 72.2793C17.741 72.2793 9.60742 80.4051 9.60742 90.4287C9.60742 100.452 17.741 108.578 27.7743 108.578Z" fill="#0D60FB"/>
<path d="M28.2294 107.76C38.2627 107.76 46.3963 99.6341 46.3963 89.6104C46.3963 79.5867 38.2627 71.4609 28.2294 71.4609C18.1961 71.4609 10.0625 79.5867 10.0625 89.6104C10.0625 99.6341 18.1961 107.76 28.2294 107.76Z" fill="#0D61FB"/>
<path d="M28.6845 106.941C38.7177 106.941 46.8513 98.8152 46.8513 88.7916C46.8513 78.7679 38.7177 70.6421 28.6845 70.6421C18.6512 70.6421 10.5176 78.7679 10.5176 88.7916C10.5176 98.8152 18.6512 106.941 28.6845 106.941Z" fill="#0C62FC"/>
<path d="M29.1395 106.122C39.1728 106.122 47.3064 97.9964 47.3064 87.9727C47.3064 77.949 39.1728 69.8232 29.1395 69.8232C19.1062 69.8232 10.9727 77.949 10.9727 87.9727C10.9727 97.9964 19.1062 106.122 29.1395 106.122Z" fill="#0C63FC"/>
<path d="M29.5946 105.303C39.6279 105.303 47.7615 97.1775 47.7615 87.1538C47.7615 77.1302 39.6279 69.0044 29.5946 69.0044C19.5613 69.0044 11.4277 77.1302 11.4277 87.1538C11.4277 97.1775 19.5613 105.303 29.5946 105.303Z" fill="#0B64FC"/>
<path d="M30.0516 104.484C40.0849 104.484 48.2185 96.3587 48.2185 86.335C48.2185 76.3113 40.0849 68.1855 30.0516 68.1855C20.0184 68.1855 11.8848 76.3113 11.8848 86.335C11.8848 96.3587 20.0184 104.484 30.0516 104.484Z" fill="#0B65FC"/>
<path d="M30.5067 103.711C40.54 103.711 48.6736 95.5852 48.6736 85.5616C48.6736 75.5379 40.54 67.4121 30.5067 67.4121C20.4734 67.4121 12.3398 75.5379 12.3398 85.5616C12.3398 95.5852 20.4734 103.711 30.5067 103.711Z" fill="#0B66FC"/>
<path d="M30.9618 102.892C40.9951 102.892 49.1287 94.7664 49.1287 84.7427C49.1287 74.719 40.9951 66.5933 30.9618 66.5933C20.9285 66.5933 12.7949 74.719 12.7949 84.7427C12.7949 94.7664 20.9285 102.892 30.9618 102.892Z" fill="#0A66FC"/>
<path d="M31.4169 102.074C41.4502 102.074 49.5838 93.948 49.5838 83.9244C49.5838 73.9007 41.4502 65.7749 31.4169 65.7749C21.3836 65.7749 13.25 73.9007 13.25 83.9244C13.25 93.948 21.3836 102.074 31.4169 102.074Z" fill="#0A67FC"/>
<path d="M31.872 101.255C41.9052 101.255 50.0388 93.1292 50.0388 83.1055C50.0388 73.0819 41.9052 64.9561 31.872 64.9561C21.8387 64.9561 13.7051 73.0819 13.7051 83.1055C13.7051 93.1292 21.8387 101.255 31.872 101.255Z" fill="#0A68FC"/>
<path d="M32.327 100.436C42.3603 100.436 50.4939 92.3103 50.4939 82.2867C50.4939 72.263 42.3603 64.1372 32.327 64.1372C22.2937 64.1372 14.1602 72.263 14.1602 82.2867C14.1602 92.3103 22.2937 100.436 32.327 100.436Z" fill="#0969FC"/>
<path d="M32.7821 99.6173C42.8154 99.6173 50.949 91.4915 50.949 81.4678C50.949 71.4441 42.8154 63.3184 32.7821 63.3184C22.7488 63.3184 14.6152 71.4441 14.6152 81.4678C14.6152 91.4915 22.7488 99.6173 32.7821 99.6173Z" fill="#096AFC"/>
<path d="M33.2372 98.7984C43.2705 98.7984 51.4041 90.6726 51.4041 80.649C51.4041 70.6253 43.2705 62.4995 33.2372 62.4995C23.2039 62.4995 15.0703 70.6253 15.0703 80.649C15.0703 90.6726 23.2039 98.7984 33.2372 98.7984Z" fill="#086BFD"/>
<path d="M33.6923 98.025C43.7256 98.025 51.8591 89.8992 51.8591 79.8755C51.8591 69.8518 43.7256 61.7261 33.6923 61.7261C23.659 61.7261 15.5254 69.8518 15.5254 79.8755C15.5254 89.8992 23.659 98.025 33.6923 98.025Z" fill="#086CFD"/>
<path d="M34.1942 97.2061C44.2275 97.2061 52.3611 89.0803 52.3611 79.0567C52.3611 69.033 44.2275 60.9072 34.1942 60.9072C24.1609 60.9072 16.0273 69.033 16.0273 79.0567C16.0273 89.0803 24.1609 97.2061 34.1942 97.2061Z" fill="#086DFD"/>
<path d="M34.6493 96.3878C44.6826 96.3878 52.8162 88.262 52.8162 78.2383C52.8162 68.2147 44.6826 60.0889 34.6493 60.0889C24.616 60.0889 16.4824 68.2147 16.4824 78.2383C16.4824 88.262 24.616 96.3878 34.6493 96.3878Z" fill="#076EFD"/>
<path d="M35.1044 95.5689C45.1377 95.5689 53.2713 87.4432 53.2713 77.4195C53.2713 67.3958 45.1377 59.27 35.1044 59.27C25.0711 59.27 16.9375 67.3958 16.9375 77.4195C16.9375 87.4432 25.0711 95.5689 35.1044 95.5689Z" fill="#076FFD"/>
<path d="M35.5595 94.7501C45.5927 94.7501 53.7263 86.6243 53.7263 76.6006C53.7263 66.577 45.5927 58.4512 35.5595 58.4512C25.5262 58.4512 17.3926 66.577 17.3926 76.6006C17.3926 86.6243 25.5262 94.7501 35.5595 94.7501Z" fill="#0670FD"/>
<path d="M36.0145 93.9312C46.0478 93.9312 54.1814 85.8054 54.1814 75.7818C54.1814 65.7581 46.0478 57.6323 36.0145 57.6323C25.9812 57.6323 17.8477 65.7581 17.8477 75.7818C17.8477 85.8054 25.9812 93.9312 36.0145 93.9312Z" fill="#0671FD"/>
<path d="M36.4716 93.1583C46.5048 93.1583 54.6384 85.0325 54.6384 75.0088C54.6384 64.9852 46.5048 56.8594 36.4716 56.8594C26.4383 56.8594 18.3047 64.9852 18.3047 75.0088C18.3047 85.0325 26.4383 93.1583 36.4716 93.1583Z" fill="#0672FD"/>
<path d="M36.9266 92.3394C46.9599 92.3394 55.0935 84.2136 55.0935 74.19C55.0935 64.1663 46.9599 56.0405 36.9266 56.0405C26.8934 56.0405 18.7598 64.1663 18.7598 74.19C18.7598 84.2136 26.8934 92.3394 36.9266 92.3394Z" fill="#0573FD"/>
<path d="M37.3817 91.5206C47.415 91.5206 55.5486 83.3948 55.5486 73.3711C55.5486 63.3475 47.415 55.2217 37.3817 55.2217C27.3484 55.2217 19.2148 63.3475 19.2148 73.3711C19.2148 83.3948 27.3484 91.5206 37.3817 91.5206Z" fill="#0574FE"/>
<path d="M37.8368 90.7023C47.8701 90.7023 56.0037 82.5765 56.0037 72.5528C56.0037 62.5291 47.8701 54.4033 37.8368 54.4033C27.8035 54.4033 19.6699 62.5291 19.6699 72.5528C19.6699 82.5765 27.8035 90.7023 37.8368 90.7023Z" fill="#0575FE"/>
<path d="M38.2919 89.8829C48.3252 89.8829 56.4588 81.7571 56.4588 71.7335C56.4588 61.7098 48.3252 53.584 38.2919 53.584C28.2586 53.584 20.125 61.7098 20.125 71.7335C20.125 81.7571 28.2586 89.8829 38.2919 89.8829Z" fill="#0476FE"/>
<path d="M38.747 89.064C48.7802 89.064 56.9138 80.9383 56.9138 70.9146C56.9138 60.8909 48.7802 52.7651 38.747 52.7651C28.7137 52.7651 20.5801 60.8909 20.5801 70.9146C20.5801 80.9383 28.7137 89.064 38.747 89.064Z" fill="#0477FE"/>
<path d="M39.202 88.2452C49.2353 88.2452 57.3689 80.1194 57.3689 70.0957C57.3689 60.0721 49.2353 51.9463 39.202 51.9463C29.1687 51.9463 21.0352 60.0721 21.0352 70.0957C21.0352 80.1194 29.1687 88.2452 39.202 88.2452Z" fill="#0378FE"/>
<path d="M39.6571 87.4723C49.6904 87.4723 57.824 79.3465 57.824 69.3228C57.824 59.2991 49.6904 51.1733 39.6571 51.1733C29.6238 51.1733 21.4902 59.2991 21.4902 69.3228C21.4902 79.3465 29.6238 87.4723 39.6571 87.4723Z" fill="#0379FE"/>
<path d="M40.1141 86.6534C50.1474 86.6534 58.281 78.5276 58.281 68.5039C58.281 58.4803 50.1474 50.3545 40.1141 50.3545C30.0809 50.3545 21.9473 58.4803 21.9473 68.5039C21.9473 78.5276 30.0809 86.6534 40.1141 86.6534Z" fill="#037AFE"/>
<path d="M40.5692 85.8346C50.6025 85.8346 58.7361 77.7088 58.7361 67.6851C58.7361 57.6614 50.6025 49.5356 40.5692 49.5356C30.5359 49.5356 22.4023 57.6614 22.4023 67.6851C22.4023 77.7088 30.5359 85.8346 40.5692 85.8346Z" fill="#027BFE"/>
<path d="M41.0243 85.0162C51.0576 85.0162 59.1912 76.8904 59.1912 66.8667C59.1912 56.8431 51.0576 48.7173 41.0243 48.7173C30.991 48.7173 22.8574 56.8431 22.8574 66.8667C22.8574 76.8904 30.991 85.0162 41.0243 85.0162Z" fill="#027CFE"/>
<path d="M41.4794 84.1973C51.5127 84.1973 59.6463 76.0716 59.6463 66.0479C59.6463 56.0242 51.5127 47.8984 41.4794 47.8984C31.4461 47.8984 23.3125 56.0242 23.3125 66.0479C23.3125 76.0716 31.4461 84.1973 41.4794 84.1973Z" fill="#027DFF"/>
<path d="M41.9345 83.3785C51.9677 83.3785 60.1013 75.2527 60.1013 65.2291C60.1013 55.2054 51.9677 47.0796 41.9345 47.0796C31.9012 47.0796 23.7676 55.2054 23.7676 65.2291C23.7676 75.2527 31.9012 83.3785 41.9345 83.3785Z" fill="#017EFF"/>
<path d="M42.3895 82.6051C52.4228 82.6051 60.5564 74.4793 60.5564 64.4556C60.5564 54.432 52.4228 46.3062 42.3895 46.3062C32.3562 46.3062 24.2227 54.432 24.2227 64.4556C24.2227 74.4793 32.3562 82.6051 42.3895 82.6051Z" fill="#017FFF"/>
<path d="M42.8446 81.7862C52.8779 81.7862 61.0115 73.6604 61.0115 63.6368C61.0115 53.6131 52.8779 45.4873 42.8446 45.4873C32.8113 45.4873 24.6777 53.6131 24.6777 63.6368C24.6777 73.6604 32.8113 81.7862 42.8446 81.7862Z" fill="#0080FF"/>
<path d="M43.2997 80.9674C53.333 80.9674 61.4666 72.8416 61.4666 62.8179C61.4666 52.7942 53.333 44.6685 43.2997 44.6685C33.2664 44.6685 25.1328 52.7942 25.1328 62.8179C25.1328 72.8416 33.2664 80.9674 43.2997 80.9674Z" fill="#0081FF"/>
<path d="M43.7098 80.2852C53.7431 80.2852 61.8767 72.1594 61.8767 62.1358C61.8767 52.1121 53.7431 43.9863 43.7098 43.9863C33.6766 43.9863 25.543 52.1121 25.543 62.1358C25.543 72.1594 33.6766 80.2852 43.7098 80.2852Z" fill="#0082FF"/>
<path d="M44.12 79.5577C54.1533 79.5577 62.2869 71.4319 62.2869 61.4083C62.2869 51.3846 54.1533 43.2588 44.12 43.2588C34.0867 43.2588 25.9531 51.3846 25.9531 61.4083C25.9531 71.4319 34.0867 79.5577 44.12 79.5577Z" fill="#0083FF"/>
<path d="M44.4833 78.8751C54.5166 78.8751 62.6502 70.7493 62.6502 60.7256C62.6502 50.702 54.5166 42.5762 44.4833 42.5762C34.45 42.5762 26.3164 50.702 26.3164 60.7256C26.3164 70.7493 34.45 78.8751 44.4833 78.8751Z" fill="#0084FF"/>
<path d="M44.8934 78.193C54.9267 78.193 63.0603 70.0672 63.0603 60.0435C63.0603 50.0198 54.9267 41.894 44.8934 41.894C34.8601 41.894 26.7266 50.0198 26.7266 60.0435C26.7266 70.0672 34.8601 78.193 44.8934 78.193Z" fill="#0085FF"/>
<path d="M45.2587 77.4649C55.292 77.4649 63.4256 69.3392 63.4256 59.3155C63.4256 49.2918 55.292 41.166 45.2587 41.166C35.2254 41.166 27.0918 49.2918 27.0918 59.3155C27.0918 69.3392 35.2254 77.4649 45.2587 77.4649Z" fill="#0086FF"/>
<path d="M45.6669 76.7828C55.7002 76.7828 63.8337 68.657 63.8337 58.6334C63.8337 48.6097 55.7002 40.4839 45.6669 40.4839C35.6336 40.4839 27.5 48.6097 27.5 58.6334C27.5 68.657 35.6336 76.7828 45.6669 76.7828Z" fill="#0087FE"/>
<path d="M46.077 76.1002C56.1103 76.1002 64.2439 67.9744 64.2439 57.9507C64.2439 47.9271 56.1103 39.8013 46.077 39.8013C36.0437 39.8013 27.9102 47.9271 27.9102 57.9507C27.9102 67.9744 36.0437 76.1002 46.077 76.1002Z" fill="#0088FE"/>
<path d="M46.4423 75.3722C56.4756 75.3722 64.6091 67.2464 64.6091 57.2227C64.6091 47.199 56.4756 39.0732 46.4423 39.0732C36.409 39.0732 28.2754 47.199 28.2754 57.2227C28.2754 67.2464 36.409 75.3722 46.4423 75.3722Z" fill="#0089FE"/>
<path d="M46.8505 74.69C56.8838 74.69 65.0174 66.5642 65.0174 56.5406C65.0174 46.5169 56.8838 38.3911 46.8505 38.3911C36.8172 38.3911 28.6836 46.5169 28.6836 56.5406C28.6836 66.5642 36.8172 74.69 46.8505 74.69Z" fill="#008AFE"/>
<path d="M47.2606 74.0079C57.2939 74.0079 65.4275 65.8821 65.4275 55.8584C65.4275 45.8348 57.2939 37.709 47.2606 37.709C37.2273 37.709 29.0938 45.8348 29.0938 55.8584C29.0938 65.8821 37.2273 74.0079 47.2606 74.0079Z" fill="#008BFE"/>
<path d="M47.6259 73.2803C57.6592 73.2803 65.7927 65.1546 65.7927 55.1309C65.7927 45.1072 57.6592 36.9814 47.6259 36.9814C37.5926 36.9814 29.459 45.1072 29.459 55.1309C29.459 65.1546 37.5926 73.2803 47.6259 73.2803Z" fill="#008CFE"/>
<path d="M48.036 72.5977C58.0693 72.5977 66.2029 64.472 66.2029 54.4483C66.2029 44.4246 58.0693 36.2988 48.036 36.2988C38.0027 36.2988 29.8691 44.4246 29.8691 54.4483C29.8691 64.472 38.0027 72.5977 48.036 72.5977Z" fill="#008DFE"/>
<path d="M48.3993 71.9156C58.4326 71.9156 66.5662 63.7898 66.5662 53.7662C66.5662 43.7425 58.4326 35.6167 48.3993 35.6167C38.366 35.6167 30.2324 43.7425 30.2324 53.7662C30.2324 63.7898 38.366 71.9156 48.3993 71.9156Z" fill="#008EFE"/>
<path d="M48.8095 71.1876C58.8427 71.1876 66.9763 63.0618 66.9763 53.0381C66.9763 43.0144 58.8427 34.8887 48.8095 34.8887C38.7762 34.8887 30.6426 43.0144 30.6426 53.0381C30.6426 63.0618 38.7762 71.1876 48.8095 71.1876Z" fill="#008FFE"/>
<path d="M49.2196 70.5055C59.2529 70.5055 67.3865 62.3797 67.3865 52.356C67.3865 42.3323 59.2529 34.2065 49.2196 34.2065C39.1863 34.2065 31.0527 42.3323 31.0527 52.356C31.0527 62.3797 39.1863 70.5055 49.2196 70.5055Z" fill="#0090FE"/>
<path d="M49.5829 69.7779C59.6162 69.7779 67.7498 61.6521 67.7498 51.6285C67.7498 41.6048 59.6162 33.479 49.5829 33.479C39.5496 33.479 31.416 41.6048 31.416 51.6285C31.416 61.6521 39.5496 69.7779 49.5829 69.7779Z" fill="#0091FE"/>
<path d="M49.993 69.0953C60.0263 69.0953 68.1599 60.9695 68.1599 50.9458C68.1599 40.9222 60.0263 32.7964 49.993 32.7964C39.9598 32.7964 31.8262 40.9222 31.8262 50.9458C31.8262 60.9695 39.9598 69.0953 49.993 69.0953Z" fill="#0092FD"/>
<path d="M50.4032 68.4132C60.4365 68.4132 68.5701 60.2874 68.5701 50.2637C68.5701 40.24 60.4365 32.1143 50.4032 32.1143C40.3699 32.1143 32.2363 40.24 32.2363 50.2637C32.2363 60.2874 40.3699 68.4132 50.4032 68.4132Z" fill="#0093FD"/>
<path d="M50.7665 67.6851C60.7998 67.6851 68.9334 59.5594 68.9334 49.5357C68.9334 39.512 60.7998 31.3862 50.7665 31.3862C40.7332 31.3862 32.5996 39.512 32.5996 49.5357C32.5996 59.5594 40.7332 67.6851 50.7665 67.6851Z" fill="#0094FD"/>
<path d="M51.1766 67.003C61.2099 67.003 69.3435 58.8772 69.3435 48.8536C69.3435 38.8299 61.2099 30.7041 51.1766 30.7041C41.1434 30.7041 33.0098 38.8299 33.0098 48.8536C33.0098 58.8772 41.1434 67.003 51.1766 67.003Z" fill="#0095FD"/>
<path d="M51.5399 66.3204C61.5732 66.3204 69.7068 58.1946 69.7068 48.171C69.7068 38.1473 61.5732 30.0215 51.5399 30.0215C41.5066 30.0215 33.373 38.1473 33.373 48.171C33.373 58.1946 41.5066 66.3204 51.5399 66.3204Z" fill="#0096FD"/>
<path d="M51.952 65.5924C61.9853 65.5924 70.1189 57.4666 70.1189 47.4429C70.1189 37.4192 61.9853 29.2935 51.952 29.2935C41.9187 29.2935 33.7852 37.4192 33.7852 47.4429C33.7852 57.4666 41.9187 65.5924 51.952 65.5924Z" fill="#0097FD"/>
<path d="M52.3602 64.9103C62.3935 64.9103 70.5271 56.7845 70.5271 46.7608C70.5271 36.7371 62.3935 28.6113 52.3602 28.6113C42.3269 28.6113 34.1934 36.7371 34.1934 46.7608C34.1934 56.7845 42.3269 64.9103 52.3602 64.9103Z" fill="#0098FD"/>
<path d="M52.7255 64.2281C62.7588 64.2281 70.8924 56.1023 70.8924 46.0787C70.8924 36.055 62.7588 27.9292 52.7255 27.9292C42.6922 27.9292 34.5586 36.055 34.5586 46.0787C34.5586 56.1023 42.6922 64.2281 52.7255 64.2281Z" fill="#0099FD"/>
<path d="M53.1337 63.5006C63.167 63.5006 71.3006 55.3748 71.3006 45.3511C71.3006 35.3275 63.167 27.2017 53.1337 27.2017C43.1004 27.2017 34.9668 35.3275 34.9668 45.3511C34.9668 55.3748 43.1004 63.5006 53.1337 63.5006Z" fill="#009AFD"/>
<path d="M53.5458 62.818C63.5791 62.818 71.7127 54.6922 71.7127 44.6685C71.7127 34.6448 63.5791 26.519 53.5458 26.519C43.5125 26.519 35.3789 34.6448 35.3789 44.6685C35.3789 54.6922 43.5125 62.818 53.5458 62.818Z" fill="#009BFD"/>
<path d="M53.9091 62.1358C63.9424 62.1358 72.0759 54.0101 72.0759 43.9864C72.0759 33.9627 63.9424 25.8369 53.9091 25.8369C43.8758 25.8369 35.7422 33.9627 35.7422 43.9864C35.7422 54.0101 43.8758 62.1358 53.9091 62.1358Z" fill="#009CFC"/>
<path d="M54.3192 61.4078C64.3525 61.4078 72.4861 53.282 72.4861 43.2583C72.4861 33.2347 64.3525 25.1089 54.3192 25.1089C44.2859 25.1089 36.1523 33.2347 36.1523 43.2583C36.1523 53.282 44.2859 61.4078 54.3192 61.4078Z" fill="#009DFC"/>
<path d="M54.6825 60.7257C64.7158 60.7257 72.8494 52.5999 72.8494 42.5762C72.8494 32.5525 64.7158 24.4268 54.6825 24.4268C44.6492 24.4268 36.5156 32.5525 36.5156 42.5762C36.5156 52.5999 44.6492 60.7257 54.6825 60.7257Z" fill="#009EFC"/>
<path d="M55.0927 60.0431C65.1259 60.0431 73.2595 51.9173 73.2595 41.8936C73.2595 31.8699 65.1259 23.7441 55.0927 23.7441C45.0594 23.7441 36.9258 31.8699 36.9258 41.8936C36.9258 51.9173 45.0594 60.0431 55.0927 60.0431Z" fill="#009FFC"/>
<path d="M55.5028 59.3155C65.5361 59.3155 73.6697 51.1897 73.6697 41.1661C73.6697 31.1424 65.5361 23.0166 55.5028 23.0166C45.4695 23.0166 37.3359 31.1424 37.3359 41.1661C37.3359 51.1897 45.4695 59.3155 55.5028 59.3155Z" fill="#00A0FC"/>
<path d="M55.8661 58.6334C65.8994 58.6334 74.033 50.5076 74.033 40.4839C74.033 30.4603 65.8994 22.3345 55.8661 22.3345C45.8328 22.3345 37.6992 30.4603 37.6992 40.4839C37.6992 50.5076 45.8328 58.6334 55.8661 58.6334Z" fill="#00A1FC"/>
<path d="M56.2763 57.9513C66.3095 57.9513 74.4431 49.8255 74.4431 39.8018C74.4431 29.7781 66.3095 21.6523 56.2763 21.6523C46.243 21.6523 38.1094 29.7781 38.1094 39.8018C38.1094 49.8255 46.243 57.9513 56.2763 57.9513Z" fill="#00A1FC"/>
<path d="M56.6864 57.2232C66.7197 57.2232 74.8533 49.0975 74.8533 39.0738C74.8533 29.0501 66.7197 20.9243 56.6864 20.9243C46.6531 20.9243 38.5195 29.0501 38.5195 39.0738C38.5195 49.0975 46.6531 57.2232 56.6864 57.2232Z" fill="#00A2FC"/>
<path d="M57.0497 56.5406C67.083 56.5406 75.2166 48.4148 75.2166 38.3912C75.2166 28.3675 67.083 20.2417 57.0497 20.2417C47.0164 20.2417 38.8828 28.3675 38.8828 38.3912C38.8828 48.4148 47.0164 56.5406 57.0497 56.5406Z" fill="#00A3FC"/>
<path d="M57.4598 55.8585C67.4931 55.8585 75.6267 47.7327 75.6267 37.709C75.6267 27.6854 67.4931 19.5596 57.4598 19.5596C47.4266 19.5596 39.293 27.6854 39.293 37.709C39.293 47.7327 47.4266 55.8585 57.4598 55.8585Z" fill="#00A4FC"/>
<path d="M57.8251 55.1305C67.8584 55.1305 75.992 47.0047 75.992 36.981C75.992 26.9573 67.8584 18.8315 57.8251 18.8315C47.7918 18.8315 39.6582 26.9573 39.6582 36.981C39.6582 47.0047 47.7918 55.1305 57.8251 55.1305Z" fill="#00A5FC"/>
<path d="M58.2333 54.4483C68.2666 54.4483 76.4002 46.3225 76.4002 36.2989C76.4002 26.2752 68.2666 18.1494 58.2333 18.1494C48.2 18.1494 40.0664 26.2752 40.0664 36.2989C40.0664 46.3225 48.2 54.4483 58.2333 54.4483Z" fill="#00A6FB"/>
<path d="M58.6434 53.7657C68.6767 53.7657 76.8103 45.6399 76.8103 35.6163C76.8103 25.5926 68.6767 17.4668 58.6434 17.4668C48.6102 17.4668 40.4766 25.5926 40.4766 35.6163C40.4766 45.6399 48.6102 53.7657 58.6434 53.7657Z" fill="#00A7FB"/>
<path d="M59.0087 53.0382C69.042 53.0382 77.1756 44.9124 77.1756 34.8887C77.1756 24.8651 69.042 16.7393 59.0087 16.7393C48.9754 16.7393 40.8418 24.8651 40.8418 34.8887C40.8418 44.9124 48.9754 53.0382 59.0087 53.0382Z" fill="#00A8FB"/>
<path d="M59.4188 52.356C69.4521 52.356 77.5857 44.2303 77.5857 34.2066C77.5857 24.1829 69.4521 16.0571 59.4188 16.0571C49.3855 16.0571 41.252 24.1829 41.252 34.2066C41.252 44.2303 49.3855 52.356 59.4188 52.356Z" fill="#00A9FB"/>
<path d="M59.827 51.6739C69.8603 51.6739 77.9939 43.5481 77.9939 33.5245C77.9939 23.5008 69.8603 15.375 59.827 15.375C49.7937 15.375 41.6602 23.5008 41.6602 33.5245C41.6602 43.5481 49.7937 51.6739 59.827 51.6739Z" fill="#00AAFB"/>
<path d="M60.1923 50.9459C70.2256 50.9459 78.3591 42.8201 78.3591 32.7964C78.3591 22.7728 70.2256 14.647 60.1923 14.647C50.159 14.647 42.0254 22.7728 42.0254 32.7964C42.0254 42.8201 50.159 50.9459 60.1923 50.9459Z" fill="#00ABFB"/>
<path d="M60.6024 50.2633C70.6357 50.2633 78.7693 42.1375 78.7693 32.1138C78.7693 22.0901 70.6357 13.9644 60.6024 13.9644C50.5691 13.9644 42.4355 22.0901 42.4355 32.1138C42.4355 42.1375 50.5691 50.2633 60.6024 50.2633Z" fill="#00ACFB"/>
<path d="M60.9657 49.5811C70.999 49.5811 79.1326 41.4554 79.1326 31.4317C79.1326 21.408 70.999 13.2822 60.9657 13.2822C50.9324 13.2822 42.7988 21.408 42.7988 31.4317C42.7988 41.4554 50.9324 49.5811 60.9657 49.5811Z" fill="#00ADFB"/>
<path d="M61.3759 48.8536C71.4092 48.8536 79.5427 40.7278 79.5427 30.7041C79.5427 20.6805 71.4092 12.5547 61.3759 12.5547C51.3426 12.5547 43.209 20.6805 43.209 30.7041C43.209 40.7278 51.3426 48.8536 61.3759 48.8536Z" fill="#00AEFB"/>
<path d="M61.786 48.1715C71.8193 48.1715 79.9529 40.0457 79.9529 30.022C79.9529 19.9983 71.8193 11.8726 61.786 11.8726C51.7527 11.8726 43.6191 19.9983 43.6191 30.022C43.6191 40.0457 51.7527 48.1715 61.786 48.1715Z" fill="#00AFFB"/>
<path d="M62.1493 47.4889C72.1826 47.4889 80.3162 39.3631 80.3162 29.3394C80.3162 19.3157 72.1826 11.1899 62.1493 11.1899C52.116 11.1899 43.9824 19.3157 43.9824 29.3394C43.9824 39.3631 52.116 47.4889 62.1493 47.4889Z" fill="#00B0FB"/>
<path d="M62.5595 46.7608C72.5927 46.7608 80.7263 38.635 80.7263 28.6114C80.7263 18.5877 72.5927 10.4619 62.5595 10.4619C52.5262 10.4619 44.3926 18.5877 44.3926 28.6114C44.3926 38.635 52.5262 46.7608 62.5595 46.7608Z" fill="#00B1FA"/>
<path d="M62.9696 46.0787C73.0029 46.0787 81.1365 37.9529 81.1365 27.9292C81.1365 17.9056 73.0029 9.77979 62.9696 9.77979C52.9363 9.77979 44.8027 17.9056 44.8027 27.9292C44.8027 37.9529 52.9363 46.0787 62.9696 46.0787Z" fill="#00B2FA"/>
<path d="M63.3349 45.3966C73.3681 45.3966 81.5017 37.2708 81.5017 27.2471C81.5017 17.2234 73.3681 9.09766 63.3349 9.09766C53.3016 9.09766 45.168 17.2234 45.168 27.2471C45.168 37.2708 53.3016 45.3966 63.3349 45.3966Z" fill="#00B3FA"/>
<path d="M63.743 44.6686C73.7763 44.6686 81.9099 36.5428 81.9099 26.5191C81.9099 16.4954 73.7763 8.36963 63.743 8.36963C53.7098 8.36963 45.5762 16.4954 45.5762 26.5191C45.5762 36.5428 53.7098 44.6686 63.743 44.6686Z" fill="#00B4FA"/>
<path d="M64.1083 43.9859C74.1416 43.9859 82.2752 35.8601 82.2752 25.8365C82.2752 15.8128 74.1416 7.68701 64.1083 7.68701C54.075 7.68701 45.9414 15.8128 45.9414 25.8365C45.9414 35.8601 54.075 43.9859 64.1083 43.9859Z" fill="#00B5FA"/>
<path d="M64.5165 43.3038C74.5498 43.3038 82.6834 35.178 82.6834 25.1543C82.6834 15.1307 74.5498 7.00488 64.5165 7.00488C54.4832 7.00488 46.3496 15.1307 46.3496 25.1543C46.3496 35.178 54.4832 43.3038 64.5165 43.3038Z" fill="#00B6FA"/>
<path d="M64.9286 42.5763C74.9619 42.5763 83.0955 34.4505 83.0955 24.4268C83.0955 14.4031 74.9619 6.27734 64.9286 6.27734C54.8953 6.27734 46.7617 14.4031 46.7617 24.4268C46.7617 34.4505 54.8953 42.5763 64.9286 42.5763Z" fill="#00B7FA"/>
<path d="M65.2919 41.8941C75.3252 41.8941 83.4588 33.7684 83.4588 23.7447C83.4588 13.721 75.3252 5.59521 65.2919 5.59521C55.2586 5.59521 47.125 13.721 47.125 23.7447C47.125 33.7684 55.2586 41.8941 65.2919 41.8941Z" fill="#00B8FA"/>
<path d="M65.7001 41.2115C75.7334 41.2115 83.867 33.0857 83.867 23.0621C83.867 13.0384 75.7334 4.9126 65.7001 4.9126C55.6668 4.9126 47.5332 13.0384 47.5332 23.0621C47.5332 33.0857 55.6668 41.2115 65.7001 41.2115Z" fill="#00B9FA"/>
<path d="M66.1102 40.4835C76.1435 40.4835 84.2771 32.3577 84.2771 22.334C84.2771 12.3104 76.1435 4.18457 66.1102 4.18457C56.0769 4.18457 47.9434 12.3104 47.9434 22.334C47.9434 32.3577 56.0769 40.4835 66.1102 40.4835Z" fill="#00BAFA"/>
<path d="M66.4755 39.8013C76.5088 39.8013 84.6423 31.6756 84.6423 21.6519C84.6423 11.6282 76.5088 3.50244 66.4755 3.50244C56.4422 3.50244 48.3086 11.6282 48.3086 21.6519C48.3086 31.6756 56.4422 39.8013 66.4755 39.8013Z" fill="#00BBF9"/>
<path d="M66.8856 39.1192C76.9189 39.1192 85.0525 30.9934 85.0525 20.9698C85.0525 10.9461 76.9189 2.82031 66.8856 2.82031C56.8523 2.82031 48.7188 10.9461 48.7188 20.9698C48.7188 30.9934 56.8523 39.1192 66.8856 39.1192Z" fill="#00BCF9"/>
<path d="M67.2489 38.3917C77.2822 38.3917 85.4158 30.2659 85.4158 20.2422C85.4158 10.2186 77.2822 2.09277 67.2489 2.09277C57.2156 2.09277 49.082 10.2186 49.082 20.2422C49.082 30.2659 57.2156 38.3917 67.2489 38.3917Z" fill="#00BDF9"/>
<path d="M67.6591 37.7091C77.6924 37.7091 85.8259 29.5833 85.8259 19.5596C85.8259 9.53594 77.6924 1.41016 67.6591 1.41016C57.6258 1.41016 49.4922 9.53594 49.4922 19.5596C49.4922 29.5833 57.6258 37.7091 67.6591 37.7091Z" fill="#00BEF9"/>
<path d="M68.0692 37.027C78.1025 37.027 86.2361 28.9012 86.2361 18.8775C86.2361 8.85381 78.1025 0.728027 68.0692 0.728027C58.0359 0.728027 49.9023 8.85381 49.9023 18.8775C49.9023 28.9012 58.0359 37.027 68.0692 37.027Z" fill="#00BFF9"/>
<path d="M68.4325 36.2989C78.4658 36.2989 86.5994 28.1731 86.5994 18.1495C86.5994 8.12579 78.4658 0 68.4325 0C58.3992 0 50.2656 8.12579 50.2656 18.1495C50.2656 28.1731 58.3992 36.2989 68.4325 36.2989Z" fill="#00C0F9"/>
<path d="M69.6161 38.3917C79.6494 38.3917 87.783 30.2659 87.783 20.2422C87.783 10.2186 79.6494 2.09277 69.6161 2.09277C59.5828 2.09277 51.4492 10.2186 51.4492 20.2422C51.4492 30.2659 59.5828 38.3917 69.6161 38.3917Z" fill="#00C1F9"/>
<path d="M70.8016 40.4835C80.8349 40.4835 88.9685 32.3577 88.9685 22.334C88.9685 12.3104 80.8349 4.18457 70.8016 4.18457C60.7684 4.18457 52.6348 12.3104 52.6348 22.334C52.6348 32.3577 60.7684 40.4835 70.8016 40.4835Z" fill="#00C2F9"/>
<path d="M71.9384 42.5304C81.9716 42.5304 90.1052 34.4046 90.1052 24.3809C90.1052 14.3572 81.9716 6.23145 71.9384 6.23145C61.9051 6.23145 53.7715 14.3572 53.7715 24.3809C53.7715 34.4046 61.9051 42.5304 71.9384 42.5304Z" fill="#00C3F8"/>
<path d="M73.1239 44.6231C83.1572 44.6231 91.2908 36.4974 91.2908 26.4737C91.2908 16.45 83.1572 8.32422 73.1239 8.32422C63.0906 8.32422 54.957 16.45 54.957 26.4737C54.957 36.4974 63.0906 44.6231 73.1239 44.6231Z" fill="#00C4F8"/>
<path d="M74.3055 46.7154C84.3388 46.7154 92.4724 38.5896 92.4724 28.566C92.4724 18.5423 84.3388 10.4165 74.3055 10.4165C64.2723 10.4165 56.1387 18.5423 56.1387 28.566C56.1387 38.5896 64.2723 46.7154 74.3055 46.7154Z" fill="#00C5F8"/>
<path d="M75.4442 48.7623C85.4775 48.7623 93.6111 40.6365 93.6111 30.6128C93.6111 20.5892 85.4775 12.4634 75.4442 12.4634C65.4109 12.4634 57.2773 20.5892 57.2773 30.6128C57.2773 40.6365 65.4109 48.7623 75.4442 48.7623Z" fill="#00C6F8"/>
<path d="M76.6278 50.8551C86.6611 50.8551 94.7947 42.7293 94.7947 32.7056C94.7947 22.6819 86.6611 14.5562 76.6278 14.5562C66.5945 14.5562 58.4609 22.6819 58.4609 32.7056C58.4609 42.7293 66.5945 50.8551 76.6278 50.8551Z" fill="#00C7F7"/>
<path d="M77.8134 52.9474C87.8467 52.9474 95.9802 44.8216 95.9802 34.7979C95.9802 24.7742 87.8467 16.6484 77.8134 16.6484C67.7801 16.6484 59.6465 24.7742 59.6465 34.7979C59.6465 44.8216 67.7801 52.9474 77.8134 52.9474Z" fill="#00C8F7"/>
<path d="M78.9501 54.9942C88.9834 54.9942 97.117 46.8684 97.117 36.8448C97.117 26.8211 88.9834 18.6953 78.9501 18.6953C68.9168 18.6953 60.7832 26.8211 60.7832 36.8448C60.7832 46.8684 68.9168 54.9942 78.9501 54.9942Z" fill="#00C9F7"/>
<path d="M80.1356 57.0865C90.1689 57.0865 98.3025 48.9607 98.3025 38.937C98.3025 28.9134 90.1689 20.7876 80.1356 20.7876C70.1023 20.7876 61.9688 28.9134 61.9688 38.937C61.9688 48.9607 70.1023 57.0865 80.1356 57.0865Z" fill="#00CAF7"/>
<path d="M81.3192 59.1793C91.3525 59.1793 99.4861 51.0535 99.4861 41.0298C99.4861 31.0062 91.3525 22.8804 81.3192 22.8804C71.2859 22.8804 63.1523 31.0062 63.1523 41.0298C63.1523 51.0535 71.2859 59.1793 81.3192 59.1793Z" fill="#00CBF6"/>
<path d="M82.4579 61.2262C92.4912 61.2262 100.625 53.1004 100.625 43.0767C100.625 33.053 92.4912 24.9272 82.4579 24.9272C72.4246 24.9272 64.291 33.053 64.291 43.0767C64.291 53.1004 72.4246 61.2262 82.4579 61.2262Z" fill="#00CCF6"/>
<path d="M83.6395 63.318C93.6728 63.318 101.806 55.1922 101.806 45.1685C101.806 35.1448 93.6728 27.019 83.6395 27.019C73.6062 27.019 65.4727 35.1448 65.4727 45.1685C65.4727 55.1922 73.6062 63.318 83.6395 63.318Z" fill="#00CDF6"/>
<path d="M84.8231 65.3653C94.8564 65.3653 102.99 57.2395 102.99 47.2159C102.99 37.1922 94.8564 29.0664 84.8231 29.0664C74.7898 29.0664 66.6562 37.1922 66.6562 47.2159C66.6562 57.2395 74.7898 65.3653 84.8231 65.3653Z" fill="#00CEF6"/>
<path d="M86.0087 67.4576C96.042 67.4576 104.176 59.3318 104.176 49.3082C104.176 39.2845 96.042 31.1587 86.0087 31.1587C75.9754 31.1587 67.8418 39.2845 67.8418 49.3082C67.8418 59.3318 75.9754 67.4576 86.0087 67.4576Z" fill="#00CFF6"/>
<path d="M87.1473 69.5504C97.1806 69.5504 105.314 61.4246 105.314 51.4009C105.314 41.3773 97.1806 33.2515 87.1473 33.2515C77.1141 33.2515 68.9805 41.3773 68.9805 51.4009C68.9805 61.4246 77.1141 69.5504 87.1473 69.5504Z" fill="#00D0F5"/>
<path d="M88.3309 71.5973C98.3642 71.5973 106.498 63.4715 106.498 53.4478C106.498 43.4241 98.3642 35.2983 88.3309 35.2983C78.2976 35.2983 70.1641 43.4241 70.1641 53.4478C70.1641 63.4715 78.2976 71.5973 88.3309 71.5973Z" fill="#00D1F5"/>
<path d="M89.5145 73.6895C99.5478 73.6895 107.681 65.5637 107.681 55.5401C107.681 45.5164 99.5478 37.3906 89.5145 37.3906C79.4812 37.3906 71.3477 45.5164 71.3477 55.5401C71.3477 65.5637 79.4812 73.6895 89.5145 73.6895Z" fill="#00D2F5"/>
<path d="M90.6532 75.7818C100.686 75.7818 108.82 67.656 108.82 57.6324C108.82 47.6087 100.686 39.4829 90.6532 39.4829C80.6199 39.4829 72.4863 47.6087 72.4863 57.6324C72.4863 67.656 80.6199 75.7818 90.6532 75.7818Z" fill="#00D3F5"/>
<path d="M91.8348 77.8292C101.868 77.8292 110.002 69.7034 110.002 59.6797C110.002 49.6561 101.868 41.5303 91.8348 41.5303C81.8016 41.5303 73.668 49.6561 73.668 59.6797C73.668 69.7034 81.8016 77.8292 91.8348 77.8292Z" fill="#00D4F4"/>
<path d="M93.0204 79.921C103.054 79.921 111.187 71.7952 111.187 61.7715C111.187 51.7478 103.054 43.6221 93.0204 43.6221C82.9871 43.6221 74.8535 51.7478 74.8535 61.7715C74.8535 71.7952 82.9871 79.921 93.0204 79.921Z" fill="#00D5F4"/>
<path d="M94.1571 82.0138C104.19 82.0138 112.324 73.888 112.324 63.8643C112.324 53.8406 104.19 45.7148 94.1571 45.7148C84.1238 45.7148 75.9902 53.8406 75.9902 63.8643C75.9902 73.888 84.1238 82.0138 94.1571 82.0138Z" fill="#01D5F4"/>
<path d="M95.3427 84.0606C105.376 84.0606 113.51 75.9349 113.51 65.9112C113.51 55.8875 105.376 47.7617 95.3427 47.7617C85.3094 47.7617 77.1758 55.8875 77.1758 65.9112C77.1758 75.9349 85.3094 84.0606 95.3427 84.0606Z" fill="#01D6F4"/>
<path d="M96.5262 86.1534C106.56 86.1534 114.693 78.0276 114.693 68.004C114.693 57.9803 106.56 49.8545 96.5262 49.8545C86.493 49.8545 78.3594 57.9803 78.3594 68.004C78.3594 78.0276 86.493 86.1534 96.5262 86.1534Z" fill="#01D7F3"/>
<path d="M97.6649 88.2452C107.698 88.2452 115.832 80.1194 115.832 70.0957C115.832 60.0721 107.698 51.9463 97.6649 51.9463C87.6316 51.9463 79.498 60.0721 79.498 70.0957C79.498 80.1194 87.6316 88.2452 97.6649 88.2452Z" fill="#01D8F3"/>
<path d="M98.8485 90.2921C108.882 90.2921 117.015 82.1663 117.015 72.1426C117.015 62.1189 108.882 53.9932 98.8485 53.9932C88.8152 53.9932 80.6816 62.1189 80.6816 72.1426C80.6816 82.1663 88.8152 90.2921 98.8485 90.2921Z" fill="#01D9F3"/>
<path d="M100.032 92.3848C110.065 92.3848 118.199 84.2591 118.199 74.2354C118.199 64.2117 110.065 56.0859 100.032 56.0859C89.9988 56.0859 81.8652 64.2117 81.8652 74.2354C81.8652 84.2591 89.9988 92.3848 100.032 92.3848Z" fill="#01DAF3"/>
<path d="M101.169 94.4771C111.202 94.4771 119.336 86.3513 119.336 76.3277C119.336 66.304 111.202 58.1782 101.169 58.1782C91.1355 58.1782 83.002 66.304 83.002 76.3277C83.002 86.3513 91.1355 94.4771 101.169 94.4771Z" fill="#01DBF2"/>
<path d="M102.354 96.524C112.388 96.524 120.521 88.3982 120.521 78.3745C120.521 68.3509 112.388 60.2251 102.354 60.2251C92.3211 60.2251 84.1875 68.3509 84.1875 78.3745C84.1875 88.3982 92.3211 96.524 102.354 96.524Z" fill="#01DCF2"/>
<path d="M103.538 98.6168C113.571 98.6168 121.705 90.491 121.705 80.4673C121.705 70.4437 113.571 62.3179 103.538 62.3179C93.5047 62.3179 85.3711 70.4437 85.3711 80.4673C85.3711 90.491 93.5047 98.6168 103.538 98.6168Z" fill="#01DDF2"/>
<path d="M104.677 100.709C114.71 100.709 122.844 92.5833 122.844 82.5596C122.844 72.536 114.71 64.4102 104.677 64.4102C94.6434 64.4102 86.5098 72.536 86.5098 82.5596C86.5098 92.5833 94.6434 100.709 104.677 100.709Z" fill="#01DEF2"/>
<path d="M105.86 102.756C115.894 102.756 124.027 94.6302 124.027 84.6065C124.027 74.5828 115.894 66.457 105.86 66.457C95.8269 66.457 87.6934 74.5828 87.6934 84.6065C87.6934 94.6302 95.8269 102.756 105.86 102.756Z" fill="#01DFF2"/>
<path d="M107.044 104.848C117.077 104.848 125.211 96.7224 125.211 86.6988C125.211 76.6751 117.077 68.5493 107.044 68.5493C97.0105 68.5493 88.877 76.6751 88.877 86.6988C88.877 96.7224 97.0105 104.848 107.044 104.848Z" fill="#01E0F1"/>
<path d="M108.183 106.895C118.216 106.895 126.349 98.7693 126.349 88.7456C126.349 78.722 118.216 70.5962 108.183 70.5962C98.1492 70.5962 90.0156 78.722 90.0156 88.7456C90.0156 98.7693 98.1492 106.895 108.183 106.895Z" fill="#01E1F1"/>
<path d="M109.364 108.988C119.397 108.988 127.531 100.862 127.531 90.8384C127.531 80.8148 119.397 72.689 109.364 72.689C99.3309 72.689 91.1973 80.8148 91.1973 90.8384C91.1973 100.862 99.3309 108.988 109.364 108.988Z" fill="#01E2F1"/>
<path d="M110.55 111.08C120.583 111.08 128.717 102.954 128.717 92.9307C128.717 82.907 120.583 74.7812 110.55 74.7812C100.516 74.7812 92.3828 82.907 92.3828 92.9307C92.3828 102.954 100.516 111.08 110.55 111.08Z" fill="#01E3F1"/>
<path d="M111.686 113.127C121.72 113.127 129.853 105.001 129.853 94.9776C129.853 84.9539 121.72 76.8281 111.686 76.8281C101.653 76.8281 93.5195 84.9539 93.5195 94.9776C93.5195 105.001 101.653 113.127 111.686 113.127Z" fill="#01E4F0"/>
<path d="M112.872 115.219C122.905 115.219 131.039 107.094 131.039 97.0699C131.039 87.0462 122.905 78.9204 112.872 78.9204C102.839 78.9204 94.7051 87.0462 94.7051 97.0699C94.7051 107.094 102.839 115.219 112.872 115.219Z" fill="#01E5F0"/>
<path d="M114.056 117.312C124.089 117.312 132.222 109.186 132.222 99.1627C132.222 89.139 124.089 81.0132 114.056 81.0132C104.022 81.0132 95.8887 89.139 95.8887 99.1627C95.8887 109.186 104.022 117.312 114.056 117.312Z" fill="#01E6F0"/>
<path d="M115.194 119.359C125.228 119.359 133.361 111.233 133.361 101.21C133.361 91.1859 125.228 83.0601 115.194 83.0601C105.161 83.0601 97.0273 91.1859 97.0273 101.21C97.0273 111.233 105.161 119.359 115.194 119.359Z" fill="#01E7F0"/>
<path d="M116.378 121.451C126.411 121.451 134.545 113.325 134.545 103.302C134.545 93.2781 126.411 85.1523 116.378 85.1523C106.345 85.1523 98.2109 93.2781 98.2109 103.302C98.2109 113.325 106.345 121.451 116.378 121.451Z" fill="#01E8EF"/>
<path d="M117.561 123.544C127.595 123.544 135.728 115.418 135.728 105.395C135.728 95.3709 127.595 87.2451 117.561 87.2451C107.528 87.2451 99.3945 95.3709 99.3945 105.395C99.3945 115.418 107.528 123.544 117.561 123.544Z" fill="#01E9EF"/>
<path d="M118.745 125.591C128.778 125.591 136.912 117.465 136.912 107.441C136.912 97.4178 128.778 89.292 118.745 89.292C108.712 89.292 100.578 97.4178 100.578 107.441C100.578 117.465 108.712 125.591 118.745 125.591Z" fill="#01EAEF"/>
</svg>
